<svg width="280" height="121" viewBox="0 0 280 121" fill="none" xmlns="http://www.w3.org/2000/svg">
<path d="M263.475 95.3474C260.824 95.3474 258.475 94.7602 256.428 93.5857C254.381 92.3776 252.77 90.7165 251.596 88.6025C250.455 86.4884 249.884 84.0723 249.884 81.3541C249.884 78.6025 250.488 76.1696 251.696 74.0555C252.904 71.9414 254.566 70.2971 256.68 69.1226C258.794 67.9146 261.193 67.3105 263.878 67.3105C266.596 67.3105 268.995 67.9146 271.076 69.1226C273.19 70.2971 274.834 71.9414 276.008 74.0555C277.216 76.1696 277.837 78.6025 277.871 81.3541L275.606 82.5622C275.606 85.0454 275.086 87.2602 274.045 89.2065C273.005 91.1192 271.562 92.6293 269.717 93.7367C267.904 94.8105 265.824 95.3474 263.475 95.3474ZM263.978 105.968C261.327 105.968 258.995 105.465 256.982 104.458C254.968 103.485 253.307 102.143 251.998 100.431C251.629 100.029 251.462 99.5924 251.495 99.1226C251.562 98.6528 251.814 98.2669 252.25 97.9648C252.686 97.6628 253.173 97.5622 253.71 97.6628C254.247 97.7635 254.666 98.0152 254.968 98.4179C255.941 99.6259 257.183 100.599 258.693 101.337C260.237 102.076 262.015 102.445 264.029 102.445C265.908 102.445 267.602 101.992 269.112 101.086C270.623 100.18 271.814 98.9044 272.686 97.2602C273.592 95.6159 274.045 93.6863 274.045 91.4716V83.8206L275.505 80.9011L277.871 81.3541V91.6226C277.871 94.3407 277.267 96.7736 276.059 98.9212C274.851 101.102 273.206 102.814 271.126 104.055C269.045 105.331 266.663 105.968 263.978 105.968ZM263.878 91.8239C265.857 91.8239 267.602 91.3877 269.112 90.5152C270.656 89.6092 271.864 88.3676 272.737 86.7904C273.609 85.2132 274.045 83.4011 274.045 81.3541C274.045 79.3072 273.609 77.4951 272.737 75.9179C271.864 74.3072 270.656 73.0656 269.112 72.1931C267.602 71.2871 265.857 70.834 263.878 70.834C261.898 70.834 260.136 71.2871 258.592 72.1931C257.049 73.0656 255.841 74.3072 254.968 75.9179C254.096 77.4951 253.659 79.3072 253.659 81.3541C253.659 83.4011 254.096 85.2132 254.968 86.7904C255.841 88.3676 257.049 89.6092 258.592 90.5152C260.136 91.3877 261.898 91.8239 263.878 91.8239Z" fill="#D9FFC2"/>
<path d="M240.876 95.0967C240.306 95.0967 239.836 94.9122 239.467 94.5431C239.098 94.1739 238.913 93.7209 238.913 93.184V80.0968C238.913 78.0162 238.511 76.3048 237.705 74.9626C236.933 73.6203 235.86 72.6136 234.484 71.9424C233.141 71.2713 231.615 70.9357 229.903 70.9357C228.259 70.9357 226.766 71.2545 225.423 71.8921C224.115 72.5297 223.074 73.4022 222.303 74.5095C221.531 75.6169 221.145 76.8753 221.145 78.2847H218.376C218.444 76.1706 219.014 74.2914 220.088 72.6471C221.162 70.9693 222.588 69.6606 224.366 68.721C226.145 67.7478 228.125 67.2612 230.306 67.2612C232.688 67.2612 234.819 67.7646 236.699 68.7713C238.578 69.7444 240.054 71.1874 241.128 73.1001C242.235 75.0129 242.789 77.3451 242.789 80.0968V93.184C242.789 93.7209 242.605 94.1739 242.235 94.5431C241.866 94.9122 241.413 95.0967 240.876 95.0967ZM219.232 95.0967C218.628 95.0967 218.141 94.929 217.772 94.5934C217.437 94.2243 217.269 93.7545 217.269 93.184V69.5263C217.269 68.9223 217.437 68.4525 217.772 68.1169C218.141 67.7478 218.628 67.5632 219.232 67.5632C219.803 67.5632 220.256 67.7478 220.591 68.1169C220.96 68.4525 221.145 68.9223 221.145 69.5263V93.184C221.145 93.7545 220.96 94.2243 220.591 94.5934C220.256 94.929 219.803 95.0967 219.232 95.0967Z" fill="#D9FFC2"/>
<path d="M205.485 95.0972C204.881 95.0972 204.395 94.9295 204.026 94.5939C203.69 94.2248 203.522 93.7382 203.522 93.1342V69.5268C203.522 68.9228 203.69 68.453 204.026 68.1174C204.395 67.7483 204.881 67.5637 205.485 67.5637C206.056 67.5637 206.509 67.7483 206.844 68.1174C207.214 68.453 207.398 68.9228 207.398 69.5268V93.1342C207.398 93.7382 207.214 94.2248 206.844 94.5939C206.509 94.9295 206.056 95.0972 205.485 95.0972ZM205.435 62.3289C204.697 62.3289 204.059 62.0604 203.522 61.5235C202.985 60.9866 202.717 60.3322 202.717 59.5604C202.717 58.7215 202.985 58.0671 203.522 57.5973C204.093 57.094 204.747 56.8423 205.485 56.8423C206.19 56.8423 206.811 57.094 207.348 57.5973C207.918 58.0671 208.203 58.7215 208.203 59.5604C208.203 60.3322 207.935 60.9866 207.398 61.5235C206.861 62.0604 206.207 62.3289 205.435 62.3289Z" fill="#D9FFC2"/>
<path d="M181.86 95.0952C181.323 95.0952 180.853 94.9106 180.45 94.5415C180.081 94.1388 179.897 93.669 179.897 93.1321V80.5483L166.205 58.8537C165.87 58.3503 165.736 57.8637 165.803 57.3939C165.903 56.9241 166.121 56.5382 166.457 56.2362C166.793 55.9342 167.212 55.7832 167.715 55.7832C168.118 55.7832 168.437 55.8671 168.672 56.0349C168.94 56.2027 169.175 56.4376 169.376 56.7396L182.967 78.6355H180.853L194.393 56.8402C194.628 56.4711 194.88 56.2027 195.148 56.0349C195.45 55.8671 195.803 55.7832 196.205 55.7832C196.675 55.7832 197.061 55.951 197.363 56.2866C197.699 56.5886 197.883 56.9745 197.917 57.4443C197.984 57.9141 197.866 58.3839 197.564 58.8537L183.823 80.5483V93.1321C183.823 93.669 183.621 94.1388 183.219 94.5415C182.85 94.9106 182.397 95.0952 181.86 95.0952Z" fill="#D9FFC2"/>
<path d="M144.999 95.9003C141.945 95.9003 139.227 95.3131 136.845 94.1386C134.496 92.9641 132.65 91.3366 131.308 89.256C129.999 87.1755 129.345 84.793 129.345 82.1084V57.746C129.345 57.1756 129.529 56.7058 129.898 56.3366C130.267 55.9675 130.737 55.783 131.308 55.783C131.878 55.783 132.348 55.9675 132.717 56.3366C133.086 56.7058 133.271 57.1756 133.271 57.746V82.1084C133.271 84.0883 133.757 85.8332 134.73 87.3433C135.737 88.8534 137.13 90.0446 138.908 90.9171C140.687 91.756 142.717 92.1755 144.999 92.1755C147.247 92.1755 149.244 91.756 150.989 90.9171C152.734 90.0446 154.093 88.8534 155.066 87.3433C156.073 85.8332 156.576 84.0883 156.576 82.1084V57.746C156.576 57.1756 156.761 56.7058 157.13 56.3366C157.499 55.9675 157.969 55.783 158.539 55.783C159.143 55.783 159.613 55.9675 159.949 56.3366C160.318 56.7058 160.502 57.1756 160.502 57.746V82.1084C160.502 84.793 159.831 87.1755 158.489 89.256C157.18 91.3366 155.351 92.9641 153.002 94.1386C150.687 95.3131 148.019 95.9003 144.999 95.9003Z" fill="#D9FFC2"/>
<path d="M275.678 43.4831C275.349 43.4831 275.086 43.4108 274.888 43.266C274.691 43.1213 274.592 42.8713 274.592 42.516C274.592 42.095 274.717 41.8252 274.967 41.7068C275.217 41.5884 275.526 41.5423 275.895 41.5687C276.263 41.5818 276.618 41.5884 276.961 41.5884C277.29 41.5884 277.566 41.5423 277.79 41.4502C278.026 41.345 278.145 41.1081 278.145 40.7397V28.6016C278.145 28.299 278.053 28.0753 277.868 27.9305C277.697 27.7726 277.461 27.6937 277.158 27.6937H263.559C263.27 27.6937 263.033 27.6345 262.849 27.5161C262.678 27.3845 262.592 27.1608 262.592 26.845C262.592 26.5292 262.678 26.3121 262.849 26.1937C263.033 26.0621 263.27 25.9963 263.559 25.9963H277.829C278.592 25.9963 279.145 26.1937 279.487 26.5884C279.829 26.9832 280 27.549 280 28.2858V41.3713C280 42.7792 279.29 43.4831 277.868 43.4831H275.678ZM264.329 31.4437C264.066 31.4437 263.842 31.3845 263.658 31.2661C263.474 31.1476 263.382 30.9437 263.382 30.6542C263.382 30.3516 263.474 30.1476 263.658 30.0424C263.842 29.924 264.066 29.8647 264.329 29.8647H274.967C275.243 29.8647 275.474 29.924 275.658 30.0424C275.842 30.1476 275.934 30.3516 275.934 30.6542C275.934 30.9568 275.842 31.1674 275.658 31.2858C275.474 31.3911 275.243 31.4437 274.967 31.4437H264.329ZM266.5 40.5029C265.961 40.5029 265.533 40.4042 265.217 40.2068C264.915 39.9963 264.763 39.5884 264.763 38.9831V35.0753C264.763 34.5358 264.862 34.1147 265.059 33.8121C265.27 33.4963 265.678 33.3384 266.283 33.3384H272.678C273.217 33.3384 273.632 33.4437 273.921 33.6542C274.224 33.8516 274.375 34.2397 274.375 34.8187V38.766C274.375 39.3055 274.27 39.7331 274.059 40.0489C273.862 40.3516 273.461 40.5029 272.855 40.5029H266.5ZM267.27 38.9239H271.869C272.105 38.9239 272.29 38.8581 272.421 38.7266C272.566 38.5818 272.638 38.391 272.638 38.1542V35.6871C272.638 35.4503 272.566 35.266 272.421 35.1345C272.29 34.9897 272.105 34.9174 271.869 34.9174H267.27C267.033 34.9174 266.842 34.9897 266.697 35.1345C266.566 35.266 266.5 35.4503 266.5 35.6871V38.1542C266.5 38.391 266.566 38.5818 266.697 38.7266C266.842 38.8581 267.033 38.9239 267.27 38.9239Z" fill="#D9FFC2"/>
<path d="M260.762 35.9264C260.472 35.9264 260.17 35.8409 259.854 35.6698C259.551 35.4856 259.249 35.2619 258.946 34.9988C258.657 34.7225 258.387 34.4462 258.137 34.1698C257.887 33.8935 257.683 33.6567 257.525 33.4593C256.894 32.6962 256.354 31.8935 255.907 31.0514C255.472 30.2093 255.144 29.308 254.92 28.3475C254.88 28.1501 254.808 27.9462 254.703 27.7357C254.611 27.512 254.433 27.4001 254.17 27.4001H252.078C251.788 27.4001 251.545 27.3343 251.347 27.2028C251.163 27.0712 251.071 26.8409 251.071 26.512C251.071 26.1962 251.163 25.9725 251.347 25.8409C251.545 25.7093 251.788 25.6436 252.078 25.6436H254.644C255.183 25.6436 255.591 25.7817 255.867 26.058C256.144 26.3343 256.334 26.7225 256.44 27.2225C256.742 28.6567 257.203 29.8935 257.821 30.933C258.453 31.9593 259.387 32.8804 260.624 33.6962C260.821 33.8277 261.038 33.9988 261.275 34.2093C261.525 34.4198 261.65 34.6633 261.65 34.9396C261.65 35.229 261.578 35.4659 261.433 35.6501C261.301 35.8343 261.078 35.9264 260.762 35.9264ZM243.946 36.0646C243.617 36.0646 243.387 35.9725 243.255 35.7883C243.124 35.5909 243.058 35.3475 243.058 35.058C243.058 34.9133 243.15 34.7225 243.334 34.4856C243.519 34.2356 243.716 33.9988 243.926 33.7751C244.137 33.5383 244.282 33.3738 244.361 33.2817C245.032 32.5448 245.598 31.7554 246.058 30.9133C246.532 30.058 246.953 29.1699 247.321 28.2488C247.426 28.012 247.558 27.7488 247.716 27.4593C247.887 27.1699 248.13 27.0251 248.446 27.0251C248.709 27.0251 248.92 27.0843 249.078 27.2028C249.249 27.3212 249.334 27.5251 249.334 27.8146C249.334 28.0514 249.236 28.4199 249.038 28.9199C248.841 29.4199 248.578 29.9791 248.249 30.5975C247.92 31.2159 247.558 31.8475 247.163 32.4922C246.769 33.1238 246.367 33.7093 245.959 34.2488C245.551 34.7883 245.17 35.229 244.815 35.5712C244.473 35.9001 244.183 36.0646 243.946 36.0646ZM259.558 43.3672C259.308 43.3672 259.071 43.2488 258.847 43.0119C258.637 42.7882 258.453 42.5251 258.295 42.2224C258.137 41.933 258.005 41.6961 257.9 41.5119C255.769 41.8014 253.644 42.0382 251.525 42.2224C249.407 42.4198 247.275 42.6106 245.13 42.7948C244.801 42.8211 244.538 42.7422 244.341 42.558C244.157 42.3738 244.065 42.1238 244.065 41.808C244.065 41.4922 244.163 41.2685 244.361 41.1369C244.571 40.9922 244.821 40.9001 245.111 40.8606C245.413 40.8211 245.716 40.808 246.019 40.8211C246.321 40.8343 246.578 40.8343 246.788 40.8211C247.446 39.5975 247.999 38.3804 248.446 37.1698C248.907 35.9593 249.367 34.7093 249.828 33.4198C249.92 33.183 250.045 32.9922 250.203 32.8475C250.361 32.6896 250.571 32.6106 250.834 32.6106C251.058 32.6106 251.275 32.6962 251.486 32.8672C251.696 33.0383 251.801 33.2422 251.801 33.4791C251.801 33.5712 251.782 33.6567 251.742 33.7356C251.716 33.8146 251.69 33.8935 251.663 33.9725C251.242 35.1435 250.801 36.3014 250.341 37.4461C249.894 38.5777 249.341 39.6764 248.683 40.7422L256.992 40.1303C256.703 39.7093 256.4 39.2948 256.084 38.8869C255.782 38.479 255.459 38.0909 255.117 37.7225C254.999 37.5909 254.847 37.4133 254.663 37.1896C254.479 36.9527 254.387 36.7422 254.387 36.558C254.387 36.2948 254.466 36.104 254.624 35.9856C254.782 35.8672 254.986 35.808 255.236 35.808C255.394 35.808 255.63 35.9462 255.946 36.2225C256.262 36.4856 256.617 36.8409 257.012 37.2883C257.42 37.7225 257.828 38.2027 258.236 38.729C258.657 39.2422 259.045 39.7554 259.4 40.2685C259.755 40.7685 260.038 41.2159 260.249 41.6106C260.472 41.9922 260.584 42.2751 260.584 42.4593C260.584 42.7882 260.486 43.0185 260.288 43.1501C260.104 43.2948 259.861 43.3672 259.558 43.3672Z" fill="#D9FFC2"/>
<path d="M225.392 43.5837C225.102 43.5837 224.898 43.4916 224.78 43.3074C224.661 43.1232 224.602 42.8995 224.602 42.6364V27.3996C224.602 26.2943 225.155 25.7417 226.26 25.7417H228.984C229.234 25.7417 229.49 25.768 229.753 25.8206C230.017 25.8733 230.234 25.9785 230.405 26.1364C230.589 26.2943 230.681 26.5312 230.681 26.847C230.681 27.097 230.609 27.4127 230.464 27.7943C230.332 28.1627 230.161 28.5706 229.951 29.018C229.753 29.4522 229.549 29.8798 229.339 30.3009C229.142 30.7219 228.97 31.1035 228.826 31.4456C228.694 31.7746 228.628 32.0311 228.628 32.2154C228.628 32.3469 228.707 32.5246 228.865 32.7483C229.036 32.9719 229.227 33.2548 229.438 33.5969C229.661 33.9259 229.852 34.3272 230.01 34.8009C230.181 35.2746 230.267 35.8206 230.267 36.439C230.267 37.3732 230.049 38.1167 229.615 38.6693C229.181 39.2219 228.47 39.4982 227.484 39.4982C226.839 39.4982 226.517 39.1824 226.517 38.5509C226.517 38.2088 226.589 37.9851 226.734 37.8798C226.878 37.7745 227.063 37.7153 227.286 37.7022C227.51 37.689 227.727 37.6627 227.938 37.6232C228.161 37.5838 228.345 37.4653 228.49 37.268C228.635 37.0574 228.707 36.7022 228.707 36.2022C228.707 35.7022 228.628 35.2482 228.47 34.8403C228.313 34.4325 228.128 34.064 227.918 33.7351C227.707 33.4061 227.523 33.1167 227.365 32.8667C227.207 32.6035 227.128 32.3733 227.128 32.1759C227.128 31.9785 227.214 31.6759 227.385 31.268C227.556 30.8601 227.747 30.4259 227.957 29.9654C228.181 29.4917 228.378 29.0509 228.549 28.643C228.72 28.2351 228.806 27.9259 228.806 27.7154C228.806 27.5443 228.747 27.4325 228.628 27.3799C228.51 27.3272 228.378 27.3009 228.234 27.3009H226.852C226.655 27.3009 226.49 27.3601 226.359 27.4785C226.24 27.597 226.181 27.7548 226.181 27.9522V42.6364C226.181 42.8995 226.122 43.1232 226.003 43.3074C225.898 43.4916 225.694 43.5837 225.392 43.5837ZM229.872 43.2285C229.569 43.2285 229.352 43.143 229.22 42.9719C229.089 42.8008 229.023 42.5706 229.023 42.2811C229.023 42.0706 229.109 41.893 229.28 41.7482C229.464 41.6035 229.681 41.4851 229.931 41.393C230.194 41.2877 230.444 41.2022 230.681 41.1364C230.931 41.0706 231.128 41.018 231.273 40.9785V27.7351C231.273 26.4193 231.931 25.7614 233.247 25.7614H239.188C239.832 25.7614 240.319 25.9325 240.648 26.2746C240.977 26.6167 241.141 27.1035 241.141 27.7351V32.7088C241.141 33.3404 240.977 33.8272 240.648 34.1693C240.332 34.5114 239.845 34.6825 239.188 34.6825H236.76C236.826 35.2088 236.931 35.7285 237.076 36.2417C237.234 36.7548 237.438 37.2482 237.688 37.7219C238.148 37.3798 238.589 37.018 239.01 36.6364C239.431 36.2548 239.845 35.8601 240.253 35.4522C240.359 35.3469 240.47 35.2482 240.589 35.1561C240.72 35.064 240.859 35.018 241.003 35.018C241.582 35.018 241.872 35.3206 241.872 35.9259C241.872 36.0706 241.773 36.2548 241.576 36.4785C241.378 36.689 241.122 36.9193 240.806 37.1693C240.503 37.4061 240.188 37.6364 239.859 37.8601C239.53 38.0838 239.227 38.2877 238.951 38.4719C238.688 38.643 238.503 38.7614 238.398 38.8272C238.859 39.393 239.365 39.8732 239.918 40.268C240.47 40.6495 241.069 41.0114 241.714 41.3535C241.898 41.4456 242.043 41.564 242.148 41.7087C242.266 41.8403 242.326 42.0114 242.326 42.2219C242.326 42.8403 242.003 43.1495 241.359 43.1495C241.122 43.1495 240.839 43.0508 240.51 42.8535C240.194 42.6561 239.944 42.4916 239.76 42.3601C238.431 41.4127 237.385 40.3074 236.622 39.0443C235.859 37.7811 235.411 36.3272 235.28 34.6825H232.872V40.4456C232.951 40.4193 233.128 40.3535 233.405 40.2482C233.681 40.143 233.984 40.0311 234.313 39.9127C234.655 39.7943 234.951 39.689 235.201 39.5969C235.464 39.5048 235.622 39.4588 235.674 39.4588C235.938 39.4588 236.122 39.5377 236.227 39.6956C236.345 39.8403 236.405 40.0377 236.405 40.2877C236.405 40.4982 236.319 40.6824 236.148 40.8403C236.056 40.9324 235.799 41.0706 235.378 41.2548C234.97 41.439 234.484 41.643 233.918 41.8666C233.352 42.0903 232.78 42.3074 232.201 42.518C231.635 42.7285 231.135 42.8995 230.701 43.0311C230.28 43.1627 230.003 43.2285 229.872 43.2285ZM232.872 29.4719H239.484V27.9325C239.484 27.722 239.418 27.5575 239.286 27.4391C239.168 27.3075 239.003 27.2417 238.793 27.2417H233.563C233.352 27.2417 233.181 27.3075 233.049 27.4391C232.931 27.5575 232.872 27.722 232.872 27.9325V29.4719ZM232.872 33.2219H238.793C239.003 33.2219 239.168 33.1627 239.286 33.0443C239.418 32.9127 239.484 32.7417 239.484 32.5311V30.8733H232.872V33.2219Z" fill="#D9FFC2"/>
<path d="M209.256 43.485C208.927 43.485 208.697 43.3797 208.565 43.1692C208.447 42.9718 208.387 42.7284 208.387 42.4389V33.4784C208.269 33.6363 208.072 33.8929 207.795 34.2482C207.532 34.6034 207.229 34.9784 206.887 35.3732C206.558 35.7547 206.229 36.0837 205.901 36.36C205.572 36.6232 205.295 36.7547 205.072 36.7547C204.782 36.7547 204.572 36.6692 204.44 36.4982C204.308 36.3271 204.243 36.1034 204.243 35.8271C204.243 35.6297 204.308 35.4521 204.44 35.2942C204.572 35.1232 204.703 34.9784 204.835 34.86C205.808 33.9916 206.67 33.0574 207.42 32.0574C208.17 31.0574 208.795 29.9587 209.295 28.7613H205.526C205.236 28.7613 204.993 28.7021 204.795 28.5837C204.598 28.4653 204.499 28.2416 204.499 27.9127C204.499 27.5969 204.598 27.3798 204.795 27.2614C204.993 27.1429 205.236 27.0837 205.526 27.0837H209.927C209.993 26.86 210.058 26.5837 210.124 26.2548C210.203 25.9127 210.322 25.61 210.479 25.3469C210.651 25.0837 210.894 24.9521 211.21 24.9521C211.499 24.9521 211.743 25.0114 211.94 25.1298C212.151 25.2482 212.256 25.4653 212.256 25.7811C212.256 25.86 212.223 25.9916 212.157 26.1758C212.104 26.3469 212.045 26.5245 211.979 26.7087C211.914 26.8798 211.861 27.0048 211.822 27.0837H221.808C222.111 27.0837 222.354 27.1429 222.539 27.2614C222.736 27.3798 222.835 27.6035 222.835 27.9324C222.835 28.2482 222.736 28.4653 222.539 28.5837C222.341 28.7021 222.098 28.7613 221.808 28.7613H211.131L210.124 30.7548H218.354C219.131 30.7548 219.664 30.8995 219.953 31.189C220.243 31.4784 220.387 32.0113 220.387 32.7876V41.531C220.387 42.8073 219.749 43.4455 218.473 43.4455H216.46C216.17 43.4455 215.927 43.3797 215.729 43.2481C215.545 43.1166 215.453 42.8863 215.453 42.5573C215.453 42.1758 215.552 41.9324 215.749 41.8271C215.96 41.7087 216.216 41.656 216.519 41.6692C216.822 41.6692 217.124 41.6692 217.427 41.6692C217.756 41.6692 218.039 41.61 218.275 41.4916C218.525 41.3731 218.65 41.0968 218.65 40.6626V39.1626H210.124V42.4389C210.124 42.7284 210.058 42.9718 209.927 43.1692C209.808 43.3797 209.585 43.485 209.256 43.485ZM210.124 34.2087H218.65V33.1626C218.65 32.8995 218.578 32.6955 218.433 32.5508C218.289 32.4061 218.085 32.3337 217.822 32.3337H210.598C210.282 32.3337 210.124 32.4916 210.124 32.8074V34.2087ZM210.124 37.6626H218.65V35.7087H210.124V37.6626Z" fill="#D9FFC2"/>
<path d="M191.775 33.0536H200.284V34.4482H191.775V33.0536ZM194.221 25.5353H199.192V26.9097H194.221V25.5353ZM198.061 25.5353H199.738C200.324 28.5871 201.8 31.356 203.74 32.7505C203.396 33.0132 202.871 33.6195 202.608 33.9833C200.587 32.3463 199.071 29.4764 198.424 26.3236H198.061V25.5353ZM199.657 33.0536H201.193C201.193 33.0536 201.193 33.5387 201.173 33.761C200.991 39.8646 200.83 41.9867 200.304 42.6738C199.96 43.1387 199.597 43.3003 199.011 43.361C198.505 43.4014 197.616 43.4014 196.707 43.361C196.666 42.8961 196.504 42.2494 196.282 41.8452C197.151 41.926 197.98 41.926 198.303 41.926C198.627 41.926 198.788 41.8856 198.95 41.6835C199.334 41.2187 199.516 39.1572 199.657 33.3568V33.0536ZM194.625 33.6802H196.12C195.838 37.702 194.867 41.4208 191.149 43.5631C190.967 43.2397 190.542 42.694 190.219 42.4313C193.695 40.5719 194.403 37.1564 194.625 33.6802ZM192.968 27.2128L194.443 27.5968C193.594 29.921 192.119 32.609 190.32 34.3269C190.118 34.0237 189.633 33.5589 189.33 33.3164C190.967 31.7804 192.341 29.2743 192.968 27.2128ZM189.37 25.0503L190.805 25.4949C189.471 28.9307 187.39 32.3463 185.207 34.6098C185.045 34.2663 184.621 33.4578 184.338 33.1143C186.339 31.1538 188.238 28.1223 189.37 25.0503ZM187.268 30.2646L188.683 28.8296L188.723 28.8499V43.5429H187.268V30.2646Z" fill="#D9FFC2"/>
<path d="M173.444 33.2225C172.918 33.2225 172.655 32.9527 172.655 32.4133C172.655 32.2027 172.76 32.0054 172.971 31.8212C173.181 31.6238 173.405 31.4001 173.642 31.1501C173.878 30.9001 174.043 30.5909 174.135 30.2225C174.253 29.7356 174.306 29.2225 174.293 28.683C174.293 28.1435 174.299 27.6304 174.313 27.1435C174.352 26.1436 174.892 25.6436 175.931 25.6436H178.951C180.017 25.6436 180.549 26.1633 180.549 27.2028V30.6172C180.549 30.8277 180.615 30.9791 180.747 31.0712C180.892 31.1501 181.056 31.1896 181.24 31.1896C181.359 31.1896 181.517 31.183 181.714 31.1699C181.924 31.1435 182.076 31.0843 182.168 30.9922C182.26 30.887 182.306 30.7225 182.306 30.4988C182.306 30.262 182.313 30.0185 182.326 29.7685C182.339 29.5054 182.398 29.2817 182.503 29.0975C182.609 28.9133 182.806 28.8212 183.095 28.8212C183.648 28.8212 183.924 29.0975 183.924 29.6501C183.924 30.2949 183.892 30.8212 183.826 31.2291C183.773 31.637 183.648 31.9462 183.451 32.1567C183.267 32.3672 182.984 32.512 182.602 32.5909C182.22 32.6698 181.707 32.7093 181.063 32.7093C180.786 32.7093 180.484 32.683 180.155 32.6304C179.826 32.5777 179.543 32.4659 179.306 32.2948C179.082 32.1106 178.97 31.8343 178.97 31.4659V27.8935C178.97 27.6962 178.911 27.5383 178.793 27.4199C178.674 27.3014 178.517 27.2422 178.319 27.2422H176.464C176.372 27.2422 176.28 27.2554 176.188 27.2817C176.109 27.2949 176.036 27.3475 175.971 27.4396C175.957 27.4528 175.938 27.6041 175.911 27.8935C175.898 28.1699 175.872 28.5054 175.832 28.9001C175.806 29.2817 175.773 29.6501 175.734 30.0054C175.707 30.3606 175.668 30.6238 175.615 30.7949C175.536 31.0712 175.385 31.4001 175.161 31.7817C174.951 32.1633 174.694 32.4988 174.392 32.7883C174.102 33.0777 173.786 33.2225 173.444 33.2225ZM170.464 43.3672C170.227 43.3672 169.957 43.3738 169.655 43.3869C169.365 43.4001 169.109 43.354 168.885 43.2488C168.661 43.1435 168.549 42.9198 168.549 42.5777C168.549 42.2619 168.622 42.0514 168.767 41.9461C168.911 41.854 169.089 41.808 169.299 41.808C169.523 41.7948 169.74 41.7882 169.951 41.7882C170.174 41.7751 170.359 41.7224 170.503 41.6303C170.648 41.5251 170.721 41.3146 170.721 40.9988V36.4198H168.194C168.194 36.5909 168.181 36.8804 168.155 37.2882C168.128 37.683 168.089 38.1435 168.036 38.6698C167.984 39.183 167.911 39.7093 167.819 40.2488C167.727 40.7751 167.609 41.2685 167.464 41.729C167.332 42.1895 167.168 42.558 166.971 42.8343C166.773 43.1238 166.536 43.2685 166.26 43.2685C165.721 43.2685 165.451 43.0053 165.451 42.479C165.451 42.4132 165.497 42.2619 165.589 42.0251C165.681 41.7882 165.78 41.5514 165.885 41.3146C165.99 41.0646 166.056 40.9067 166.082 40.8409C166.28 40.3803 166.431 39.7619 166.536 38.9856C166.642 38.1961 166.714 37.3409 166.753 36.4198C166.806 35.4988 166.832 34.5909 166.832 33.6962C166.832 32.7883 166.826 31.9725 166.813 31.2488C166.813 30.5251 166.813 29.9791 166.813 29.6106C166.813 28.808 166.819 28.1567 166.832 27.6567C166.846 27.1567 166.898 26.7751 166.99 26.512C167.096 26.2357 167.28 26.0449 167.543 25.9396C167.806 25.8343 168.188 25.7751 168.688 25.762C169.201 25.7488 169.865 25.7422 170.681 25.7422C171.273 25.7422 171.674 25.887 171.885 26.1764C172.109 26.4659 172.221 26.8804 172.221 27.4199V41.5909C172.221 42.7751 171.635 43.3672 170.464 43.3672ZM168.234 30.3606H170.721V27.9528C170.721 27.4659 170.477 27.2225 169.99 27.2225H168.905C168.576 27.2225 168.372 27.3804 168.293 27.6962C168.253 27.8935 168.227 28.1633 168.214 28.5054C168.214 28.8475 168.214 29.1896 168.214 29.5317C168.227 29.8606 168.234 30.137 168.234 30.3606ZM168.234 34.9988H170.721V31.7817H168.234V34.9988ZM183.155 43.3672C182.628 43.3672 182.043 43.2422 181.398 42.9922C180.767 42.7553 180.142 42.4659 179.523 42.1238C178.918 41.7948 178.392 41.4856 177.944 41.1961C177.694 41.3672 177.359 41.5711 176.938 41.808C176.517 42.0448 176.063 42.2751 175.576 42.4988C175.102 42.7356 174.648 42.933 174.214 43.0909C173.78 43.2488 173.418 43.3277 173.128 43.3277C172.589 43.3277 172.319 43.0448 172.319 42.479C172.319 42.1764 172.457 41.9527 172.734 41.808C173.01 41.6632 173.26 41.558 173.484 41.4922C174.049 41.3211 174.602 41.1303 175.142 40.9198C175.681 40.6961 176.194 40.4198 176.681 40.0909C176.418 39.8014 176.115 39.4593 175.773 39.0646C175.444 38.6567 175.161 38.229 174.924 37.7817C174.688 37.3343 174.569 36.9067 174.569 36.4988C174.569 36.2488 174.661 36.0909 174.846 36.0251C175.043 35.9461 175.24 35.9067 175.438 35.9067C175.674 35.9067 175.852 36.0054 175.971 36.2027C176.102 36.4001 176.207 36.5909 176.286 36.7751C176.471 37.1961 176.701 37.6238 176.977 38.058C177.267 38.479 177.589 38.8409 177.944 39.1435C178.049 39.0514 178.207 38.8935 178.418 38.6698C178.642 38.433 178.878 38.1698 179.128 37.8804C179.392 37.5777 179.635 37.2817 179.859 36.9922C180.095 36.6896 180.286 36.4198 180.431 36.183C180.589 35.9461 180.668 35.7751 180.668 35.6698C180.668 35.5646 180.635 35.4988 180.569 35.4725C180.503 35.433 180.424 35.4133 180.332 35.4133H174.036C173.76 35.4133 173.53 35.354 173.346 35.2356C173.161 35.1172 173.069 34.9067 173.069 34.604C173.069 34.3014 173.161 34.0975 173.346 33.9922C173.53 33.8738 173.76 33.8146 174.036 33.8146H181.063C181.326 33.8146 181.595 33.8409 181.872 33.8935C182.161 33.9462 182.398 34.058 182.582 34.2291C182.78 34.3869 182.878 34.6304 182.878 34.9593C182.878 35.1698 182.78 35.4527 182.582 35.808C182.398 36.1633 182.161 36.558 181.872 36.9922C181.582 37.4132 181.267 37.8343 180.924 38.2554C180.595 38.6632 180.286 39.0382 179.997 39.3803C179.707 39.7093 179.47 39.9527 179.286 40.1106C179.918 40.479 180.569 40.7685 181.24 40.979C181.911 41.1764 182.589 41.3738 183.273 41.5711C183.497 41.6238 183.681 41.7224 183.826 41.8672C183.97 41.9988 184.043 42.1895 184.043 42.4395C184.043 43.058 183.747 43.3672 183.155 43.3672Z" fill="#D9FFC2"/>
<path d="M147 36.4586C146.434 36.4586 146.151 36.1954 146.151 35.6691C146.151 35.4718 146.27 35.2678 146.506 35.0573C146.743 34.8468 146.928 34.6889 147.059 34.5836C148.27 33.6494 149.145 32.577 149.684 31.3665C150.224 30.156 150.506 28.7942 150.533 27.281H147.71C147.46 27.281 147.243 27.2284 147.059 27.1231C146.875 27.0178 146.783 26.8205 146.783 26.531C146.783 26.2415 146.875 26.0442 147.059 25.9389C147.243 25.8336 147.46 25.781 147.71 25.781H158.585C158.993 25.781 159.355 25.86 159.671 26.0178C159.987 26.1757 160.145 26.4915 160.145 26.9652C160.145 27.2678 160.105 27.5771 160.026 27.8928C159.947 28.1955 159.908 28.4784 159.908 28.7415C159.908 28.9257 160.013 29.0376 160.224 29.077C160.434 29.1165 160.704 29.1231 161.033 29.0968C161.375 29.0705 161.717 29.0573 162.059 29.0573C162.375 29.0573 162.671 29.0968 162.947 29.1757C163.237 29.2415 163.467 29.3797 163.638 29.5902C163.822 29.7876 163.914 30.0968 163.914 30.5178C163.914 30.9257 163.895 31.3994 163.855 31.9389C163.829 32.4784 163.763 33.0047 163.658 33.5178C163.552 34.031 163.388 34.4718 163.164 34.8402C162.954 35.1823 162.658 35.4454 162.276 35.6297C161.908 35.8007 161.513 35.9125 161.092 35.9652C160.671 36.0178 160.27 36.0441 159.888 36.0441C159.585 36.0441 159.329 35.9783 159.118 35.8468C158.921 35.7152 158.822 35.4849 158.822 35.156C158.822 34.8139 158.934 34.5902 159.158 34.4849C159.381 34.3797 159.651 34.327 159.967 34.327C160.283 34.3139 160.592 34.2941 160.895 34.2678C161.197 34.2283 161.434 34.1231 161.605 33.952C161.789 33.7678 161.921 33.4849 162 33.1033C162.079 32.7218 162.131 32.3402 162.158 31.9586C162.197 31.5639 162.224 31.2547 162.237 31.031C162.263 30.7941 162.151 30.6494 161.901 30.5968C161.664 30.5441 161.362 30.531 160.993 30.5573C160.625 30.5836 160.25 30.5968 159.868 30.5968C159.434 30.5968 159.052 30.531 158.724 30.3994C158.395 30.2678 158.23 29.9718 158.23 29.5113C158.23 29.2481 158.256 28.9586 158.309 28.6428C158.375 28.327 158.428 28.0376 158.467 27.7744C158.493 27.5902 158.434 27.4652 158.289 27.3994C158.158 27.3205 158.02 27.281 157.875 27.281H152.151C152.138 27.6363 152.112 27.9981 152.072 28.3665C152.046 28.7218 152 29.0705 151.934 29.4126H156.099C156.388 29.4126 156.671 29.4652 156.947 29.5705C157.237 29.6626 157.381 29.8928 157.381 30.2613C157.381 30.577 157.303 30.9126 157.145 31.2678C157 31.6231 156.816 31.9652 156.592 32.2941C156.381 32.6099 156.184 32.8928 156 33.1428C156.092 33.1955 156.237 33.281 156.434 33.3994C156.645 33.5047 156.862 33.6362 157.085 33.7941C157.322 33.9389 157.52 34.0902 157.678 34.2481C157.849 34.406 157.934 34.5441 157.934 34.6626C157.934 35.1626 157.671 35.4126 157.145 35.4126C157.053 35.4126 156.901 35.3599 156.691 35.2547C156.493 35.1494 156.276 35.0244 156.039 34.8797C155.816 34.7349 155.605 34.6033 155.408 34.4849C155.21 34.3533 155.079 34.2678 155.013 34.2283C154.842 34.3862 154.618 34.5836 154.342 34.8204C154.066 35.0573 153.77 35.2941 153.454 35.531C153.138 35.7547 152.822 35.9454 152.506 36.1033C152.204 36.2612 151.921 36.3402 151.658 36.3402C151.197 36.3402 150.967 36.1033 150.967 35.6297C150.967 35.4586 151.059 35.3139 151.243 35.1954C151.441 35.0639 151.599 34.9652 151.717 34.8994C152.099 34.702 152.46 34.4981 152.803 34.2876C153.158 34.0639 153.5 33.8205 153.829 33.5573C153.75 33.5178 153.612 33.452 153.414 33.3599C153.217 33.2678 153.006 33.1626 152.783 33.0441C152.572 32.9257 152.388 32.8073 152.23 32.6889C152.072 32.5573 151.993 32.4323 151.993 32.3139C151.993 32.077 152.059 31.9126 152.191 31.8205C152.335 31.7152 152.513 31.6626 152.724 31.6626C152.803 31.6626 152.941 31.702 153.138 31.781C153.335 31.8468 153.546 31.9323 153.77 32.0376C154.006 32.1428 154.224 32.2415 154.421 32.3336C154.618 32.4257 154.756 32.4915 154.835 32.531C154.928 32.4257 155.039 32.281 155.171 32.0968C155.316 31.8994 155.441 31.702 155.546 31.5047C155.664 31.3073 155.724 31.1363 155.724 30.9915C155.724 30.9126 155.691 30.8599 155.625 30.8336C155.572 30.8073 155.513 30.7941 155.447 30.7941H151.638C151.454 31.5178 151.171 32.2152 150.789 32.8862C150.408 33.5441 149.954 34.1494 149.428 34.702C149.27 34.8599 149.046 35.0836 148.756 35.3731C148.467 35.6494 148.164 35.8994 147.849 36.1231C147.533 36.3468 147.25 36.4586 147 36.4586ZM146.842 42.9125C146.605 42.9125 146.408 42.8533 146.25 42.7349C146.105 42.6296 146.033 42.452 146.033 42.202C146.033 41.9388 146.105 41.7546 146.25 41.6494C146.408 41.5441 146.605 41.4915 146.842 41.4915H148.184V38.3731C148.184 37.7678 148.322 37.3204 148.599 37.031C148.875 36.7415 149.316 36.5968 149.921 36.5968H160.717C161.27 36.5968 161.704 36.7218 162.02 36.9718C162.335 37.2086 162.493 37.6231 162.493 38.2152V41.4915H163.835C164.072 41.4915 164.263 41.5441 164.408 41.6494C164.566 41.7546 164.645 41.9388 164.645 42.202C164.645 42.452 164.566 42.6296 164.408 42.7349C164.263 42.8533 164.072 42.9125 163.835 42.9125H146.842ZM149.743 41.4915H152.447V37.9783H150.395C150.224 37.9783 150.072 38.0244 149.941 38.1165C149.809 38.2086 149.743 38.3468 149.743 38.531V41.4915ZM153.908 41.4915H156.592V37.9783H153.908V41.4915ZM158.053 41.4915H160.914V38.531C160.914 38.3336 160.849 38.1954 160.717 38.1165C160.599 38.0244 160.447 37.9783 160.263 37.9783H158.053V41.4915Z" fill="#D9FFC2"/>
<path d="M127.308 31.5638C127.058 31.5638 126.88 31.4848 126.775 31.3269C126.683 31.169 126.637 30.9782 126.637 30.7546C126.637 30.6098 126.676 30.4717 126.755 30.3401C126.834 30.2085 126.913 30.0835 126.992 29.9651C127.466 29.3072 127.847 28.6164 128.137 27.8927C128.426 27.1559 128.696 26.4059 128.946 25.6427C129.012 25.4585 129.104 25.3006 129.222 25.169C129.341 25.0375 129.505 24.9717 129.716 24.9717C129.953 24.9717 130.143 25.0243 130.288 25.1296C130.433 25.2348 130.505 25.419 130.505 25.6822C130.505 25.8138 130.459 26.0111 130.367 26.2743C130.275 26.5243 130.203 26.7151 130.15 26.8467H134.67C134.907 26.8467 135.111 26.8993 135.282 27.0046C135.453 27.1098 135.538 27.294 135.538 27.5572C135.538 27.8072 135.459 27.9914 135.301 28.1098C135.157 28.2151 134.966 28.2677 134.729 28.2677H129.558C129.492 28.3993 129.374 28.6427 129.203 28.998C129.032 29.3532 128.834 29.7282 128.611 30.123C128.387 30.5177 128.157 30.8598 127.92 31.1493C127.696 31.4256 127.492 31.5638 127.308 31.5638ZM144.38 34.1295C144.249 34.1295 144.097 34.044 143.926 33.873C143.768 33.7019 143.617 33.5177 143.472 33.3203C143.341 33.1098 143.242 32.9585 143.176 32.8664H143.097C142.268 32.9585 141.439 33.0703 140.611 33.2019C139.795 33.3335 138.966 33.4388 138.124 33.5177C137.821 33.544 137.499 33.5835 137.157 33.6361C136.828 33.6756 136.512 33.6953 136.209 33.6953C135.709 33.6953 135.459 33.4453 135.459 32.9453C135.459 32.6427 135.578 32.4453 135.815 32.3532C136.051 32.248 136.314 32.1953 136.604 32.1953C136.907 32.1822 137.157 32.169 137.354 32.1559C137.578 31.5769 137.782 30.998 137.966 30.419C138.163 29.8269 138.334 29.2348 138.479 28.6427H136.564C136.328 28.6427 136.13 28.5901 135.972 28.4848C135.828 28.3664 135.755 28.1822 135.755 27.9322C135.755 27.669 135.828 27.4848 135.972 27.3796C136.13 27.2743 136.328 27.2217 136.564 27.2217H139.268V25.8401C139.268 25.5769 139.328 25.3664 139.446 25.2085C139.564 25.0506 139.762 24.9717 140.038 24.9717C140.314 24.9717 140.512 25.0506 140.63 25.2085C140.762 25.3664 140.828 25.5769 140.828 25.8401V27.2217H144.4C144.637 27.2217 144.828 27.2743 144.972 27.3796C145.13 27.4848 145.209 27.669 145.209 27.9322C145.209 28.1822 145.13 28.3664 144.972 28.4848C144.828 28.5901 144.637 28.6427 144.4 28.6427H140.137L140.078 28.7611C139.854 29.3006 139.643 29.8532 139.446 30.419C139.262 30.9717 139.051 31.5177 138.814 32.0572C138.92 32.0703 139.13 32.0638 139.446 32.0374C139.775 32.0111 140.143 31.9782 140.551 31.9388C140.959 31.8993 141.334 31.8598 141.676 31.8203C142.018 31.7809 142.262 31.7545 142.407 31.7414C142.341 31.6493 142.222 31.5046 142.051 31.3072C141.893 31.0967 141.742 30.8861 141.597 30.6756C141.453 30.4651 141.38 30.3072 141.38 30.2019C141.38 29.7809 141.597 29.5703 142.032 29.5703C142.15 29.5703 142.334 29.6822 142.584 29.9059C142.834 30.1296 143.104 30.4124 143.393 30.7546C143.683 31.0835 143.959 31.4322 144.222 31.8006C144.486 32.169 144.703 32.5045 144.874 32.8072C145.045 33.0967 145.13 33.3006 145.13 33.419C145.13 33.8927 144.88 34.1295 144.38 34.1295ZM131.492 43.2677C131.229 43.2677 131.012 43.2085 130.841 43.09C130.67 42.9848 130.584 42.7874 130.584 42.4979C130.584 42.2085 130.657 42.0111 130.801 41.9058C130.959 41.8006 131.157 41.7479 131.393 41.7479C131.63 41.7348 131.861 41.7282 132.084 41.7282C132.413 41.7282 132.65 41.6953 132.795 41.6295C132.953 41.5637 133.058 41.4453 133.111 41.2743C133.163 41.1032 133.216 40.8664 133.268 40.5637H129.104C128.749 40.5637 128.407 40.4782 128.078 40.3071C127.762 40.1229 127.63 39.8203 127.683 39.3993L128.058 35.8072C127.874 35.8072 127.683 35.8072 127.486 35.8072C127.288 35.8072 127.124 35.7611 126.992 35.669C126.861 35.5769 126.795 35.4059 126.795 35.1559C126.795 34.8795 126.867 34.7019 127.012 34.623C127.17 34.5309 127.354 34.4914 127.565 34.5045C127.775 34.5045 127.972 34.5045 128.157 34.5045L128.393 31.3664C128.433 30.8927 128.545 30.4914 128.729 30.1625C128.926 29.8335 129.301 29.669 129.854 29.669H133.525C134.472 29.669 134.946 30.1164 134.946 31.0111C134.946 31.5374 134.933 32.0638 134.907 32.5901C134.893 33.1164 134.874 33.6427 134.847 34.169V34.5045C135.045 34.5045 135.242 34.5045 135.44 34.5045C135.65 34.4914 135.828 34.5309 135.972 34.623C136.117 34.7019 136.189 34.8795 136.189 35.1559C136.189 35.4322 136.111 35.6164 135.953 35.7085C135.808 35.7874 135.63 35.8269 135.42 35.8269C135.209 35.8137 135.005 35.8072 134.808 35.8072C134.808 36.373 134.788 36.9453 134.749 37.5243C134.722 38.1032 134.696 38.6822 134.67 39.2611C134.854 39.2611 135.045 39.2611 135.242 39.2611C135.44 39.2611 135.604 39.3072 135.736 39.3993C135.88 39.4782 135.953 39.6493 135.953 39.9124C135.953 40.1756 135.874 40.3532 135.716 40.4453C135.571 40.5374 135.393 40.5835 135.183 40.5835C134.972 40.5703 134.768 40.5637 134.571 40.5637C134.492 41.3137 134.354 41.8795 134.157 42.2611C133.959 42.6558 133.65 42.919 133.229 43.0506C132.821 43.1953 132.242 43.2677 131.492 43.2677ZM129.4 34.5045H133.545L133.624 31.6822C133.637 31.4585 133.611 31.2874 133.545 31.169C133.479 31.0374 133.315 30.9717 133.051 30.9717H130.17C129.946 30.9717 129.795 31.0506 129.716 31.2085C129.637 31.3664 129.591 31.5374 129.578 31.7217L129.4 34.5045ZM132.124 33.9322C132.045 33.9322 131.913 33.8598 131.729 33.7151C131.558 33.5572 131.374 33.3795 131.176 33.1822C130.992 32.9717 130.828 32.7743 130.683 32.5901C130.551 32.4059 130.486 32.2809 130.486 32.2151C130.486 31.8861 130.67 31.7217 131.038 31.7217C131.13 31.7217 131.268 31.7874 131.453 31.919C131.637 32.0506 131.821 32.2151 132.005 32.4124C132.203 32.5967 132.367 32.7809 132.499 32.9651C132.63 33.1493 132.696 33.2874 132.696 33.3795C132.696 33.748 132.505 33.9322 132.124 33.9322ZM135.696 43.2677C135.222 43.2677 134.986 43.0242 134.986 42.5374C134.986 42.4453 135.005 42.3598 135.045 42.2808C135.084 42.2019 135.13 42.1295 135.183 42.0637C135.657 41.3927 136.005 40.7743 136.229 40.2085C136.453 39.6427 136.597 39.0572 136.663 38.4519C136.729 37.8466 136.762 37.1427 136.762 36.3401C136.762 36.1822 136.749 35.9848 136.722 35.748C136.696 35.5111 136.689 35.2809 136.703 35.0572C136.716 34.8335 136.775 34.6427 136.88 34.4848C136.986 34.3269 137.163 34.248 137.413 34.248C137.676 34.248 137.847 34.3335 137.926 34.5045C138.018 34.6624 138.064 34.8532 138.064 35.0769C138.064 35.5111 138.051 36.0309 138.025 36.6361C138.012 37.2282 137.972 37.8532 137.907 38.5111C137.841 39.1558 137.742 39.7743 137.611 40.3664C137.479 40.9585 137.301 41.4585 137.078 41.8664C136.999 42.0111 136.887 42.1953 136.742 42.419C136.611 42.6427 136.453 42.84 136.268 43.0111C136.084 43.1821 135.893 43.2677 135.696 43.2677ZM139.821 42.6953C139.584 42.6953 139.413 42.6229 139.308 42.4782C139.216 42.3466 139.17 42.1756 139.17 41.965V34.998C139.17 34.7743 139.222 34.5966 139.328 34.4651C139.433 34.3203 139.604 34.248 139.841 34.248C140.078 34.248 140.242 34.3203 140.334 34.4651C140.439 34.5966 140.492 34.7743 140.492 34.998V41.965C140.492 42.4519 140.268 42.6953 139.821 42.6953ZM142.9 43.0703C142.492 43.0703 142.189 42.9519 141.992 42.715C141.808 42.4782 141.716 42.169 141.716 41.7874V35.0177C141.716 34.794 141.762 34.6164 141.854 34.4848C141.959 34.3532 142.13 34.2874 142.367 34.2874C142.814 34.2874 143.038 34.5309 143.038 35.0177V41.3532C143.038 41.4453 143.058 41.544 143.097 41.6493C143.15 41.7414 143.236 41.7874 143.354 41.7874H143.65C143.768 41.7874 143.847 41.6887 143.887 41.4914C143.939 41.294 143.972 41.0571 143.986 40.7808C143.999 40.5045 144.018 40.2282 144.045 39.9519C144.071 39.6624 144.124 39.4256 144.203 39.2414C144.295 39.044 144.433 38.9453 144.617 38.9453C144.841 38.9453 144.999 39.0111 145.091 39.1427C145.183 39.2743 145.229 39.4453 145.229 39.6558C145.229 39.8795 145.222 40.1822 145.209 40.5637C145.196 40.9321 145.15 41.3137 145.071 41.7085C144.992 42.09 144.861 42.4124 144.676 42.6756C144.492 42.9387 144.229 43.0703 143.887 43.0703H142.9ZM129.499 39.2611H133.367C133.393 38.6822 133.407 38.1032 133.407 37.5243C133.42 36.9453 133.453 36.373 133.505 35.8072H129.301L129.025 38.8269C129.012 38.9716 129.051 39.0835 129.143 39.1624C129.249 39.2282 129.367 39.2611 129.499 39.2611ZM132.025 38.6098C131.933 38.6098 131.795 38.5374 131.611 38.3927C131.426 38.2348 131.236 38.0506 131.038 37.8401C130.854 37.6295 130.696 37.4322 130.565 37.248C130.433 37.0506 130.367 36.9124 130.367 36.8335C130.367 36.6493 130.42 36.5243 130.525 36.4585C130.63 36.3795 130.768 36.3401 130.94 36.3401C131.045 36.3401 131.19 36.4124 131.374 36.5572C131.558 36.6887 131.742 36.8532 131.926 37.0506C132.124 37.248 132.288 37.4387 132.42 37.6229C132.565 37.8072 132.637 37.9519 132.637 38.0572C132.637 38.4256 132.433 38.6098 132.025 38.6098Z" fill="#D9FFC2"/>
<path fill-rule="evenodd" clip-rule="evenodd" d="M1.91278e-06 82.1296L0 38.3702C0 32.4787 3.10881 27.0348 8.15556 24.0886L45.6381 2.20931C50.6848 -0.736437 56.9003 -0.736437 61.95 2.20931L99.4338 24.0886C104.479 27.0347 107.589 32.4787 107.589 38.3702V82.1296C107.589 88.0211 104.479 93.4654 99.4338 96.4112L61.95 118.29C56.9003 121.237 50.6848 121.237 45.6381 118.29L8.15556 96.4112C3.10881 93.4654 2.17031e-06 88.0211 1.91278e-06 82.1296ZM67.945 78.5153C69.808 79.6054 71.9727 80.2287 74.2991 80.2287C81.2654 80.2287 86.9127 74.5814 86.9127 67.6152C86.9127 64.1775 85.5481 61.0747 83.3129 58.7918L79.8373 55.2421L81.4506 50.5435C81.8797 49.2935 82.1201 47.9458 82.1294 46.5261C82.1751 39.56 76.565 33.8758 69.5989 33.8301C69.0194 33.8263 68.4529 33.8612 67.9009 33.9313L63.1915 34.5293L60.3881 30.6983C58.6677 28.3471 55.9205 26.8383 52.8136 26.8179C49.6972 26.7975 46.9228 28.2793 45.1727 30.62L42.6225 34.0307L38.3679 33.8425C38.2061 33.8354 38.0433 33.8312 37.8793 33.8301C30.9132 33.7844 25.229 39.3946 25.1833 46.3605C25.1737 47.8275 25.4117 49.2213 25.8516 50.5127L27.4422 55.1824L24.0044 58.7205C21.8093 60.9797 20.4618 64.0349 20.4396 67.4256C20.3939 74.3916 26.004 80.0758 32.9701 80.1215C35.0082 80.1349 36.9236 79.6693 38.6233 78.8302L42.5626 84.0552L42.5912 84.0929V85.846C39.6987 87.3536 36.4061 88.1966 32.9173 88.1737C21.504 88.0989 12.3125 78.7859 12.3874 67.3728C12.4238 61.8228 14.6446 56.7982 18.2292 53.109C17.5028 50.9764 17.1155 48.6877 17.1311 46.3077C17.2059 34.8946 26.5189 25.703 37.9321 25.7779C38.1972 25.7796 38.4611 25.7864 38.7237 25.798C41.9393 21.4974 47.0847 18.7278 52.8664 18.7657C58.6304 18.8035 63.7254 21.6231 66.8865 25.943C67.7914 25.8281 68.7145 25.7718 69.6517 25.7779C81.0649 25.8528 90.2565 35.1657 90.1816 46.5789C90.1665 48.8818 89.7753 51.0942 89.0666 53.1583C92.7155 56.8851 94.9651 61.9875 94.9651 67.6152C94.9651 79.0286 85.7126 88.2811 74.2991 88.2811C70.4624 88.2811 66.8699 87.2355 63.791 85.4139V84.0251L67.945 78.5153ZM57.9347 85.3425V82.8047C57.9347 82.417 57.8881 82.0401 57.8004 81.6794C58.289 81.3943 58.7302 81.0096 59.0921 80.5297L62.8905 75.4915L62.8708 75.4982L68.881 67.5264C70.3413 65.5895 69.9549 62.8355 68.018 61.3751C66.081 59.9148 63.327 60.3012 61.8667 62.2381L53.1524 73.7964L44.4382 62.2381C42.9778 60.3012 40.2238 59.9148 38.2869 61.3751C36.3499 62.8355 35.9636 65.5895 37.4239 67.5264L47.2258 80.5274C47.5987 81.022 48.056 81.4156 48.5625 81.703C48.4788 82.0559 48.4344 82.424 48.4344 82.8025V97.8239C48.4344 100.444 50.5582 102.567 53.1781 102.567C55.7979 102.567 57.9217 100.444 57.9217 97.8239V85.3448L57.9347 85.3425ZM70.6167 45.7045C71.5469 43.4642 70.4848 40.894 68.2445 39.9638C66.0042 39.0336 63.434 40.0957 62.5038 42.336L61.5108 44.7275C58.5286 51.9099 48.3722 51.9604 45.3188 44.8079L44.2464 42.2958C43.294 40.0648 40.7134 39.0283 38.4824 39.9807C36.2514 40.9331 35.2149 43.5138 36.1673 45.7447L37.2398 48.2569C43.3466 62.5618 63.6594 62.4609 69.6237 48.096L70.6167 45.7045Z" fill="#D9FFC2"/>
</svg>
