<svg width="221" height="95" viewBox="0 0 221 95" fill="none" xmlns="http://www.w3.org/2000/svg">
<path d="M207.683 75.4831C205.6 75.4831 203.753 75.0122 202.144 74.0703C200.535 73.1016 199.269 71.7695 198.345 70.0742C197.448 68.3789 197 66.4414 197 64.2617C197 62.0551 197.475 60.1042 198.424 58.4089C199.374 56.7135 200.68 55.395 202.342 54.4531C204.004 53.4844 205.89 53 208 53C210.137 53 212.023 53.4844 213.658 54.4531C215.32 55.395 216.613 56.7135 217.536 58.4089C218.486 60.1042 218.974 62.0551 219 64.2617L217.219 65.2305C217.219 67.2218 216.811 68.9978 215.993 70.5586C215.175 72.0924 214.041 73.3034 212.59 74.1914C211.165 75.0525 209.53 75.4831 207.683 75.4831ZM208.079 84C205.995 84 204.162 83.5964 202.579 82.7891C200.996 82.0087 199.691 80.9323 198.662 79.5599C198.372 79.237 198.24 78.8872 198.266 78.5104C198.319 78.1337 198.517 77.8242 198.86 77.582C199.203 77.3398 199.585 77.2591 200.007 77.3398C200.429 77.4206 200.759 77.6224 200.996 77.9453C201.761 78.9141 202.737 79.6944 203.924 80.2865C205.138 80.8785 206.536 81.1745 208.119 81.1745C209.596 81.1745 210.928 80.8112 212.115 80.0846C213.302 79.3581 214.239 78.3355 214.924 77.0169C215.637 75.6984 215.993 74.151 215.993 72.375V66.2396L217.14 63.8984L219 64.2617V72.4961C219 74.6758 218.525 76.6267 217.576 78.349C216.626 80.0981 215.333 81.4705 213.698 82.4661C212.062 83.4887 210.189 84 208.079 84ZM208 72.6576C209.556 72.6576 210.928 72.3077 212.115 71.6081C213.329 70.8815 214.278 69.8859 214.964 68.6211C215.65 67.3563 215.993 65.9032 215.993 64.2617C215.993 62.6202 215.65 61.1671 214.964 59.9023C214.278 58.6107 213.329 57.615 212.115 56.9154C210.928 56.1888 209.556 55.8255 208 55.8255C206.444 55.8255 205.059 56.1888 203.845 56.9154C202.632 57.615 201.682 58.6107 200.996 59.9023C200.311 61.1671 199.968 62.6202 199.968 64.2617C199.968 65.9032 200.311 67.3563 200.996 68.6211C201.682 69.8859 202.632 70.8815 203.845 71.6081C205.059 72.3077 206.444 72.6576 208 72.6576Z" fill="#273B24"/>
<path d="M189.501 75C189.054 75 188.686 74.8541 188.396 74.5624C188.107 74.2706 187.963 73.9126 187.963 73.4882V63.1447C187.963 61.5003 187.647 60.1477 187.016 59.0868C186.411 58.0259 185.569 57.2303 184.491 56.6998C183.439 56.1694 182.243 55.9042 180.901 55.9042C179.613 55.9042 178.442 56.1561 177.391 56.66C176.365 57.164 175.55 57.8535 174.945 58.7288C174.34 59.604 174.037 60.5986 174.037 61.7125H171.868C171.92 60.0416 172.368 58.5564 173.209 57.2568C174.051 55.9307 175.168 54.8963 176.562 54.1537C177.956 53.3846 179.508 53 181.217 53C183.084 53 184.754 53.3978 186.227 54.1935C187.7 54.9626 188.857 56.1031 189.698 57.6148C190.566 59.1266 191 60.9699 191 63.1447V73.4882C191 73.9126 190.855 74.2706 190.566 74.5624C190.277 74.8541 189.922 75 189.501 75ZM172.538 75C172.065 75 171.684 74.8674 171.394 74.6022C171.131 74.3104 171 73.9391 171 73.4882V54.7902C171 54.3128 171.131 53.9415 171.394 53.6763C171.684 53.3846 172.065 53.2387 172.538 53.2387C172.986 53.2387 173.341 53.3846 173.604 53.6763C173.893 53.9415 174.037 54.3128 174.037 54.7902V73.4882C174.037 73.9391 173.893 74.3104 173.604 74.6022C173.341 74.8674 172.986 75 172.538 75Z" fill="#273B24"/>
<path d="M162.018 75C161.578 75 161.223 74.8684 160.954 74.6053C160.709 74.3158 160.587 73.9342 160.587 73.4605V54.9474C160.587 54.4737 160.709 54.1053 160.954 53.8421C161.223 53.5526 161.578 53.4079 162.018 53.4079C162.434 53.4079 162.765 53.5526 163.009 53.8421C163.278 54.1053 163.413 54.4737 163.413 54.9474V73.4605C163.413 73.9342 163.278 74.3158 163.009 74.6053C162.765 74.8684 162.434 75 162.018 75ZM161.982 49.3026C161.443 49.3026 160.979 49.0921 160.587 48.6711C160.196 48.25 160 47.7368 160 47.1316C160 46.4737 160.196 45.9605 160.587 45.5921C161.003 45.1974 161.48 45 162.018 45C162.532 45 162.985 45.1974 163.376 45.5921C163.792 45.9605 164 46.4737 164 47.1316C164 47.7368 163.804 48.25 163.413 48.6711C163.021 49.0921 162.544 49.3026 161.982 49.3026Z" fill="#273B24"/>
<path d="M143.499 75C143.082 75 142.717 74.8545 142.403 74.5634C142.116 74.2458 141.973 73.8754 141.973 73.452V63.5288L131.326 46.4213C131.065 46.0243 130.961 45.6406 131.013 45.2702C131.091 44.8997 131.261 44.5954 131.522 44.3572C131.783 44.1191 132.109 44 132.5 44C132.814 44 133.061 44.0662 133.244 44.1985C133.453 44.3308 133.636 44.516 133.792 44.7542L144.361 62.0205H142.717L153.246 44.8335C153.428 44.5425 153.624 44.3308 153.833 44.1985C154.068 44.0662 154.342 44 154.655 44C155.02 44 155.32 44.1323 155.555 44.3969C155.816 44.6351 155.96 44.9394 155.986 45.3099C156.038 45.6803 155.947 46.0508 155.712 46.4213L145.026 63.5288V73.452C145.026 73.8754 144.869 74.2458 144.556 74.5634C144.269 74.8545 143.917 75 143.499 75Z" fill="#273B24"/>
<path d="M114.561 76C112.11 76 109.929 75.5316 108.018 74.5947C106.133 73.6579 104.652 72.3597 103.575 70.7001C102.525 69.0406 102 67.1401 102 64.9987V45.5659C102 45.1108 102.148 44.7361 102.444 44.4417C102.74 44.1472 103.117 44 103.575 44C104.033 44 104.41 44.1472 104.706 44.4417C105.002 44.7361 105.15 45.1108 105.15 45.5659V64.9987C105.15 66.578 105.541 67.9699 106.321 69.1744C107.129 70.3789 108.247 71.3292 109.674 72.0251C111.101 72.6943 112.73 73.0289 114.561 73.0289C116.365 73.0289 117.967 72.6943 119.367 72.0251C120.767 71.3292 121.857 70.3789 122.638 69.1744C123.446 67.9699 123.85 66.578 123.85 64.9987V45.5659C123.85 45.1108 123.998 44.7361 124.294 44.4417C124.59 44.1472 124.967 44 125.425 44C125.91 44 126.286 44.1472 126.556 44.4417C126.852 44.7361 127 45.1108 127 45.5659V64.9987C127 67.1401 126.461 69.0406 125.384 70.7001C124.334 72.3597 122.867 73.6579 120.982 74.5947C119.124 75.5316 116.984 76 114.561 76Z" fill="#273B24"/>
<path fill-rule="evenodd" clip-rule="evenodd" d="M1.51118e-06 64.7494L0 30.2503C-2.03456e-07 25.6056 2.45609 21.3137 6.44322 18.991L36.0559 1.74178C40.0431 -0.580593 44.9536 -0.580594 48.943 1.74178L78.5568 18.991C82.5429 21.3137 85 25.6056 85 30.2503V64.7494C85 69.3942 82.5429 73.6864 78.5568 76.0088L48.943 93.258C44.9536 95.5807 40.0431 95.5807 36.0559 93.258L6.44323 76.0088C2.45609 73.6864 1.71463e-06 69.3942 1.51118e-06 64.7494ZM53.6726 61.8945C55.1453 62.7553 56.857 63.2476 58.6967 63.2476C64.2003 63.2476 68.6619 58.7954 68.6619 53.3034C68.6619 50.5932 67.5838 48.147 65.8179 46.3473L63.0721 43.5487L64.3466 39.8444C64.6857 38.8589 64.8755 37.7964 64.8829 36.6771C64.919 31.1853 60.4868 26.704 54.9833 26.6679C54.5254 26.6649 54.0779 26.6924 53.6418 26.7476L49.9212 27.2191L47.7064 24.1988C46.3472 22.3452 44.1768 21.1557 41.7222 21.1396C39.2602 21.1235 37.0683 22.2917 35.6856 24.1371L33.6708 26.8261L30.3095 26.6777C30.1817 26.672 30.053 26.6688 29.9235 26.6679C24.42 26.6319 19.9293 31.0548 19.8932 36.5467C19.8856 37.7032 20.0736 38.802 20.4211 39.8201L21.6778 43.5016L18.9618 46.291C17.2275 48.0721 16.163 50.4807 16.1454 53.1539C16.1093 58.6458 20.5415 63.1271 26.0451 63.1632C27.6538 63.1737 29.1658 62.8073 30.5078 62.1469L33.6182 66.2638L33.6407 66.2935V67.679C31.3569 68.8659 28.7575 69.5294 26.0033 69.5114C16.9864 69.4524 9.72468 62.1102 9.78384 53.1123C9.8126 48.7368 11.5672 44.7755 14.3991 41.867C13.8252 40.1857 13.5192 38.3814 13.5316 36.505C13.5907 27.5071 20.9483 20.2607 29.9653 20.3197C30.1747 20.3211 30.3832 20.3264 30.5906 20.3355C33.1311 16.945 37.1961 14.7615 41.7639 14.7914C46.3177 14.8212 50.343 17.0442 52.8404 20.4499C53.5553 20.3593 54.2846 20.3148 55.025 20.3197C64.0419 20.3787 71.3036 27.7208 71.2445 36.7188C71.2326 38.5343 70.9235 40.2786 70.3636 41.9059C73.2464 44.8441 75.0236 48.8666 75.0236 53.3034C75.0236 62.3016 67.7138 69.596 58.6967 69.596C55.6633 69.596 52.8231 68.7705 50.3894 67.3324V66.24L53.6726 61.8945ZM38.2674 65.2779C38.2674 64.9799 38.3024 64.6901 38.3684 64.4122C37.9684 64.1856 37.6073 63.8755 37.3128 63.4857L29.5689 53.236C28.4152 51.7089 28.7204 49.5377 30.2507 48.3864C31.7809 47.2351 33.9567 47.5397 35.1105 49.0667L41.9951 58.1791L48.8797 49.0667C50.0334 47.5397 52.2092 47.2351 53.7395 48.3864C55.2697 49.5377 55.575 51.7089 54.4213 53.236L46.6774 63.4857C46.3915 63.864 46.0429 64.1673 45.657 64.392C45.6796 64.4852 45.6988 64.5797 45.7144 64.6754C45.7463 64.872 45.763 65.0737 45.763 65.2793V77.1219C45.763 79.1873 44.0851 80.8616 42.0153 80.8616C39.9456 80.8616 38.2677 79.1873 38.2677 77.1219V67.3635L38.2674 67.3635V65.2779ZM55.7862 36.0307C56.5211 34.2645 55.682 32.2382 53.912 31.5048C52.1421 30.7715 50.1115 31.6088 49.3766 33.375L48.5922 35.2604C46.2361 40.9229 38.2121 40.9627 35.7998 35.3238L34.9526 33.3433C34.2001 31.5845 32.1613 30.7673 30.3988 31.5182C28.6362 32.269 27.8173 34.3036 28.5698 36.0624L29.417 38.0429C34.2417 49.3207 50.2896 49.2411 55.0017 37.9161L55.7862 36.0307Z" fill="#51B960"/>
<path d="M220.18 26.3755C220.015 26.3755 219.845 26.2982 219.67 26.1436C219.495 25.9889 219.335 25.8137 219.191 25.6178C219.047 25.4117 218.923 25.2519 218.82 25.1385C216.892 25.2725 214.964 25.3911 213.037 25.4941C211.12 25.5869 209.197 25.6848 207.269 25.7879C207.032 25.7982 206.842 25.7415 206.697 25.6178C206.563 25.4838 206.496 25.2983 206.496 25.0612C206.496 24.7932 206.574 24.6128 206.728 24.52C206.883 24.4272 207.068 24.3757 207.285 24.3654C207.501 24.3551 207.702 24.3499 207.888 24.3499C208.084 24.3396 208.28 24.3345 208.476 24.3345C208.671 24.3345 208.867 24.3345 209.063 24.3345C209.465 23.6954 209.826 23.046 210.145 22.3862C210.475 21.7265 210.8 21.0616 211.12 20.3916C211.223 20.1854 211.346 19.9947 211.491 19.8195C211.645 19.6443 211.851 19.5566 212.109 19.5566C212.326 19.5566 212.501 19.6082 212.635 19.7113C212.779 19.804 212.851 19.969 212.851 20.2061C212.851 20.3194 212.779 20.5205 212.635 20.8091C212.501 21.0977 212.326 21.4224 212.109 21.7832C211.903 22.144 211.686 22.5048 211.46 22.8656C211.243 23.216 211.053 23.5253 210.888 23.7933C210.723 24.051 210.62 24.2159 210.578 24.2881C211.784 24.2572 212.99 24.2314 214.197 24.2108C215.413 24.1799 216.624 24.118 217.83 24.0252C217.572 23.7469 217.31 23.4737 217.042 23.2057C216.774 22.9377 216.49 22.6852 216.191 22.4481C216.088 22.3656 215.975 22.2625 215.851 22.1388C215.727 22.0048 215.665 21.8657 215.665 21.7214C215.665 21.309 215.882 21.1029 216.315 21.1029C216.428 21.1029 216.619 21.1956 216.887 21.3812C217.155 21.5667 217.464 21.8141 217.815 22.1234C218.165 22.4326 218.521 22.7676 218.882 23.1284C219.253 23.4789 219.593 23.8294 219.902 24.1799C220.211 24.52 220.459 24.8241 220.644 25.0921C220.84 25.3601 220.938 25.556 220.938 25.6797C220.938 25.9271 220.871 26.1075 220.737 26.2209C220.603 26.3239 220.418 26.3755 220.18 26.3755ZM209.682 33.519C208.651 33.519 208.135 33.0036 208.135 31.9728V28.6484C208.135 27.6176 208.651 27.1022 209.682 27.1022H217.691C218.732 27.1022 219.253 27.6176 219.253 28.6484V31.9574C219.253 32.9985 218.732 33.519 217.691 33.519H209.682ZM210.362 32.2048H216.995C217.542 32.2048 217.815 31.9419 217.815 31.4162V29.236C217.815 28.6897 217.552 28.4165 217.026 28.4165H210.393C209.846 28.4165 209.573 28.6794 209.573 29.2051V31.3853C209.573 31.9316 209.836 32.2048 210.362 32.2048Z" fill="#273B24"/>
<path d="M198.409 34.1221C198.141 34.1221 197.95 34.0448 197.837 33.8901C197.723 33.7355 197.667 33.5294 197.667 33.2716V29.236H192.069C191.832 29.236 191.631 29.1845 191.466 29.0814C191.301 28.9783 191.219 28.7979 191.219 28.5402C191.219 28.2722 191.301 28.0918 191.466 27.999C191.642 27.9063 191.843 27.8599 192.069 27.8599H197.667V21.6286H193.09C192.853 21.6286 192.652 21.577 192.487 21.474C192.332 21.3709 192.255 21.1905 192.255 20.9328C192.255 20.6751 192.337 20.4998 192.502 20.4071C192.667 20.304 192.863 20.2524 193.09 20.2524H203.852C204.089 20.2524 204.29 20.2988 204.455 20.3916C204.63 20.4844 204.718 20.6648 204.718 20.9328C204.718 21.1905 204.63 21.3709 204.455 21.474C204.29 21.577 204.089 21.6286 203.852 21.6286H199.167V27.8599H204.872C205.109 27.8599 205.31 27.9114 205.475 28.0145C205.64 28.1073 205.723 28.2877 205.723 28.5557C205.723 28.8134 205.64 28.9938 205.475 29.0968C205.31 29.1896 205.109 29.236 204.872 29.236H199.167V33.2716C199.167 33.5294 199.11 33.7355 198.997 33.8901C198.883 34.0448 198.687 34.1221 198.409 34.1221ZM202.197 26.8703C201.97 26.8703 201.775 26.8239 201.61 26.7311C201.455 26.6383 201.378 26.4631 201.378 26.2054C201.378 26.0817 201.409 25.9632 201.47 25.8498C201.532 25.7364 201.584 25.6281 201.625 25.5251L202.553 23.3449C202.687 23.0253 202.924 22.8656 203.264 22.8656C203.47 22.8656 203.651 22.9068 203.805 22.9893C203.97 23.0614 204.053 23.216 204.053 23.4531C204.053 23.5768 204.017 23.7521 203.944 23.9788C203.872 24.1953 203.785 24.4272 203.682 24.6746C203.578 24.9117 203.475 25.1385 203.372 25.355C203.28 25.5611 203.202 25.7261 203.14 25.8498C203.089 25.9529 203.017 26.0869 202.924 26.2518C202.831 26.4167 202.723 26.561 202.599 26.6847C202.476 26.8084 202.341 26.8703 202.197 26.8703ZM194.59 26.8394C194.476 26.8394 194.368 26.7878 194.265 26.6847C194.172 26.5817 194.09 26.4631 194.018 26.3291C193.956 26.1951 193.904 26.0817 193.863 25.9889C193.832 25.9065 193.76 25.7467 193.647 25.5096C193.543 25.2622 193.43 24.9942 193.306 24.7056C193.183 24.4169 193.074 24.1644 192.982 23.9479C192.889 23.7211 192.843 23.5923 192.843 23.5614C192.843 23.3243 192.92 23.1645 193.074 23.082C193.239 22.9893 193.425 22.9429 193.631 22.9429C193.806 22.9429 193.951 23.015 194.064 23.1593C194.188 23.3037 194.286 23.448 194.358 23.5923C194.42 23.6954 194.507 23.8655 194.621 24.1025C194.734 24.3293 194.853 24.5819 194.976 24.8602C195.11 25.1282 195.219 25.3808 195.301 25.6178C195.394 25.8549 195.44 26.0302 195.44 26.1436C195.44 26.4013 195.358 26.5817 195.193 26.6847C195.028 26.7878 194.827 26.8394 194.59 26.8394Z" fill="#273B24"/>
<path d="M177.627 23.0512C177.483 23.0512 177.359 23.0203 177.256 22.9584C177.153 22.8966 177.101 22.7832 177.101 22.6182C177.101 22.4533 177.148 22.3399 177.24 22.2781C177.344 22.2059 177.472 22.1698 177.627 22.1698H182.544V21.4277H176.576C176.411 21.4277 176.272 21.3967 176.158 21.3349C176.045 21.2627 175.988 21.1339 175.988 20.9483C175.988 20.7628 176.045 20.6391 176.158 20.5772C176.272 20.5051 176.411 20.469 176.576 20.469H182.544C182.544 20.1804 182.565 19.9536 182.606 19.7887C182.647 19.6237 182.843 19.5413 183.193 19.5413C183.544 19.5413 183.74 19.6237 183.781 19.7887C183.822 19.9536 183.843 20.1804 183.843 20.469H189.966C190.131 20.469 190.27 20.5051 190.383 20.5772C190.497 20.6391 190.553 20.7628 190.553 20.9483C190.553 21.1339 190.497 21.2627 190.383 21.3349C190.27 21.3967 190.131 21.4277 189.966 21.4277H183.843V22.1698H188.899C189.043 22.1698 189.167 22.2008 189.27 22.2626C189.383 22.3245 189.44 22.443 189.44 22.6182C189.44 22.7832 189.383 22.8966 189.27 22.9584C189.167 23.0203 189.043 23.0512 188.899 23.0512H177.627ZM177.488 26.5147C177.168 26.5147 176.885 26.4374 176.637 26.2828C176.4 26.1282 176.282 25.8705 176.282 25.5097V24.752C176.282 24.3912 176.4 24.1335 176.637 23.9789C176.885 23.8243 177.168 23.747 177.488 23.747H189.054C189.383 23.747 189.667 23.8243 189.904 23.9789C190.141 24.1335 190.26 24.3912 190.26 24.752V25.5097C190.26 25.8705 190.141 26.1282 189.904 26.2828C189.667 26.4374 189.383 26.5147 189.054 26.5147H177.488ZM177.936 25.6643H180.503V24.5974H177.936C177.823 24.5974 177.72 24.6335 177.627 24.7056C177.545 24.7675 177.503 24.8603 177.503 24.984V25.2778C177.503 25.4014 177.545 25.4994 177.627 25.5715C177.72 25.6334 177.823 25.6643 177.936 25.6643ZM181.678 25.6643H184.724V24.5974H181.678V25.6643ZM185.899 25.6643H188.605C188.729 25.6643 188.832 25.6334 188.914 25.5715C188.997 25.5097 189.038 25.4118 189.038 25.2778V24.984C189.038 24.85 188.997 24.752 188.914 24.6902C188.832 24.6283 188.729 24.5974 188.605 24.5974H185.899V25.6643ZM178.617 32.2976C178.266 32.2976 177.983 32.2151 177.766 32.0502C177.55 31.8853 177.441 31.6173 177.441 31.2462V28.1692C177.441 27.7775 177.56 27.5043 177.797 27.3497C178.034 27.1951 178.328 27.1178 178.678 27.1178H187.863C188.317 27.1178 188.631 27.2157 188.806 27.4115C188.992 27.6074 189.085 27.9218 189.085 28.3547C189.085 28.8289 189.085 29.3082 189.085 29.7927C189.095 30.2772 189.1 30.7617 189.1 31.2462C189.1 31.6276 188.987 31.9007 188.76 32.0657C188.543 32.2203 188.255 32.2976 187.894 32.2976H178.617ZM178.725 28.5867H187.817V28.3238C187.817 28.0867 187.698 27.9682 187.461 27.9682H179.08C178.843 27.9682 178.725 28.0867 178.725 28.3238V28.5867ZM178.725 29.9937H187.817V29.3598H178.725V29.9937ZM179.08 31.4472H187.461C187.698 31.4472 187.817 31.3338 187.817 31.107V30.7668H178.725V31.107C178.725 31.3338 178.843 31.4472 179.08 31.4472ZM176.668 34.1222C176.256 34.1222 176.05 33.9315 176.05 33.55C176.05 33.3439 176.127 33.2099 176.282 33.148C176.447 33.0965 176.612 33.0656 176.777 33.0553C177.261 33.014 177.74 32.9676 178.215 32.9161C178.689 32.8749 179.163 32.8182 179.637 32.746C179.812 32.7151 179.988 32.679 180.163 32.6378C180.348 32.5862 180.534 32.545 180.719 32.5141C180.781 32.4935 180.853 32.478 180.936 32.4677C181.029 32.4471 181.106 32.4368 181.168 32.4368C181.353 32.4368 181.503 32.478 181.616 32.5605C181.73 32.6429 181.786 32.7872 181.786 32.9934C181.786 33.1377 181.637 33.2666 181.338 33.38C181.049 33.5037 180.678 33.6119 180.225 33.7047C179.771 33.7974 179.302 33.8748 178.818 33.9366C178.333 33.9985 177.895 34.0448 177.503 34.0758C177.112 34.1067 176.833 34.1222 176.668 34.1222ZM189.827 34.1067C189.672 34.1067 189.399 34.0861 189.007 34.0448C188.626 34.0139 188.193 33.9675 187.708 33.9057C187.224 33.8438 186.755 33.7665 186.301 33.6737C185.848 33.581 185.472 33.4727 185.173 33.349C184.884 33.2356 184.74 33.112 184.74 32.9779C184.74 32.7718 184.802 32.6326 184.925 32.5605C185.049 32.478 185.204 32.4368 185.389 32.4368C185.441 32.4368 185.492 32.4419 185.544 32.4522C185.595 32.4625 185.642 32.4728 185.683 32.4832C185.971 32.5347 186.255 32.5914 186.533 32.6532C186.812 32.7048 187.095 32.7512 187.384 32.7924C187.786 32.8542 188.183 32.8955 188.574 32.9161C188.966 32.947 189.363 32.9728 189.765 32.9934C189.94 33.0037 190.1 33.0398 190.244 33.1016C190.399 33.1635 190.476 33.2975 190.476 33.5037C190.476 33.9057 190.26 34.1067 189.827 34.1067Z" fill="#273B24"/>
<path d="M162.566 23.8397C161.762 23.8397 161.36 23.4531 161.36 22.68V21.2729C161.36 20.4998 161.762 20.1133 162.566 20.1133H173.575C174.379 20.1133 174.781 20.4998 174.781 21.2729V22.68C174.781 23.4531 174.379 23.8397 173.575 23.8397H162.566ZM163.076 22.8192H165.38V21.1338H163.076C162.757 21.1338 162.597 21.2936 162.597 21.6131V22.3398C162.597 22.6594 162.757 22.8192 163.076 22.8192ZM166.556 22.8192H169.401V21.1338H166.556V22.8192ZM170.576 22.8192H173.065C173.385 22.8192 173.544 22.6594 173.544 22.3398V21.6131C173.544 21.2936 173.385 21.1338 173.065 21.1338H170.576V22.8192ZM163.587 31.6017C163.154 31.6017 162.793 31.5141 162.504 31.3389C162.226 31.1533 162.087 30.8235 162.087 30.3493C162.087 29.6483 162.087 28.9474 162.087 28.2464C162.097 27.5455 162.102 26.8497 162.102 26.159C162.102 25.6436 162.205 25.2674 162.412 25.0303C162.618 24.7932 162.989 24.6746 163.525 24.6746H172.555C172.988 24.6746 173.343 24.7623 173.622 24.9375C173.91 25.1127 174.055 25.4426 174.055 25.9271C174.055 26.6177 174.05 27.3135 174.039 28.0145C174.039 28.7154 174.039 29.4164 174.039 30.1174C174.039 30.6225 173.936 30.9987 173.73 31.2461C173.534 31.4832 173.163 31.6017 172.617 31.6017H163.587ZM163.417 26.6074H172.725V26.159C172.725 25.9941 172.673 25.8755 172.57 25.8034C172.467 25.7209 172.338 25.6797 172.184 25.6797H163.958C163.803 25.6797 163.674 25.7209 163.571 25.8034C163.468 25.8755 163.417 25.9941 163.417 26.159V26.6074ZM163.417 28.5711H172.725V27.5506H163.417V28.5711ZM163.958 30.5812H172.184C172.338 30.5812 172.467 30.54 172.57 30.4575C172.673 30.3647 172.725 30.241 172.725 30.0864V29.5143H163.417V30.0864C163.417 30.241 163.468 30.3647 163.571 30.4575C163.674 30.54 163.803 30.5812 163.958 30.5812ZM161.453 34.1221C161.01 34.1221 160.788 33.9004 160.788 33.4572C160.788 33.2923 160.871 33.1583 161.035 33.0552C161.2 32.9624 161.386 32.8954 161.592 32.8542C161.798 32.8026 161.958 32.7665 162.071 32.7459C162.566 32.6635 163.051 32.5604 163.525 32.4367C163.999 32.3027 164.473 32.1584 164.947 32.0037C165.03 31.9831 165.143 31.9522 165.288 31.911C165.432 31.8594 165.545 31.8337 165.628 31.8337C166.071 31.8337 166.293 32.0501 166.293 32.4831C166.293 32.6171 166.148 32.7614 165.86 32.916C165.581 33.0706 165.226 33.2201 164.793 33.3644C164.36 33.5087 163.911 33.6376 163.448 33.751C162.994 33.8644 162.582 33.952 162.211 34.0138C161.85 34.086 161.597 34.1221 161.453 34.1221ZM174.673 34.0911C174.508 34.0911 174.235 34.0551 173.854 33.9829C173.483 33.9108 173.065 33.818 172.601 33.7046C172.148 33.5912 171.704 33.4623 171.271 33.318C170.849 33.1737 170.498 33.0243 170.22 32.8696C169.942 32.7253 169.803 32.5862 169.803 32.4521C169.803 32.2151 169.885 32.0553 170.05 31.9728C170.215 31.8904 170.4 31.8491 170.607 31.8491C170.699 31.8491 170.792 31.8646 170.885 31.8955C170.988 31.9264 171.081 31.9522 171.163 31.9728C171.72 32.1377 172.277 32.2872 172.833 32.4212C173.4 32.5449 173.972 32.6583 174.549 32.7614C174.725 32.7923 174.9 32.8439 175.075 32.916C175.261 32.9985 175.354 33.1479 175.354 33.3644C175.354 33.5912 175.297 33.7664 175.183 33.8901C175.08 34.0241 174.91 34.0911 174.673 34.0911Z" fill="#273B24"/>
<path d="M152.902 26.4528C152.52 26.4528 152.33 26.2621 152.33 25.8807V22.9583H147.799C147.552 22.9583 147.382 23.0305 147.289 23.1748C147.196 23.3191 147.145 23.5047 147.134 23.7314C147.124 23.9479 147.129 24.185 147.15 24.4427C147.181 24.6901 147.196 24.9272 147.196 25.154C147.196 25.3704 147.15 25.5508 147.057 25.6951C146.964 25.8395 146.799 25.9116 146.562 25.9116C146.356 25.9116 146.207 25.8498 146.114 25.7261C146.021 25.6024 145.975 25.4426 145.975 25.2467V23.2521C145.975 22.4275 146.387 22.0151 147.212 22.0151H152.33V21.1956H147.474C147.299 21.1956 147.155 21.1544 147.042 21.0719C146.928 20.9895 146.871 20.8503 146.871 20.6545C146.871 20.4586 146.928 20.3194 147.042 20.237C147.155 20.1545 147.299 20.1133 147.474 20.1133H158.422C158.607 20.1133 158.757 20.1545 158.87 20.237C158.984 20.3194 159.04 20.4586 159.04 20.6545C159.04 20.8503 158.984 20.9895 158.87 21.0719C158.757 21.1544 158.607 21.1956 158.422 21.1956H153.489V22.0151H158.561C158.984 22.0151 159.319 22.0976 159.566 22.2625C159.813 22.4172 159.937 22.7316 159.937 23.2057V25.1694C159.937 25.6024 159.736 25.8188 159.334 25.8188C159.107 25.8188 158.947 25.7518 158.855 25.6178C158.772 25.4735 158.726 25.2931 158.715 25.0767C158.715 24.8602 158.726 24.6334 158.746 24.3963C158.777 24.1489 158.788 23.917 158.777 23.7005C158.767 23.484 158.715 23.3088 158.623 23.1748C158.53 23.0305 158.36 22.9583 158.112 22.9583H153.489V25.8807C153.489 26.2621 153.293 26.4528 152.902 26.4528ZM148.263 24.5046C148.129 24.5046 148.016 24.4736 147.923 24.4118C147.83 24.3499 147.784 24.2417 147.784 24.0871C147.784 23.7984 147.943 23.6541 148.263 23.6541H151.216C151.361 23.6541 151.479 23.6902 151.572 23.7624C151.665 23.8242 151.711 23.9325 151.711 24.0871C151.711 24.2417 151.665 24.3499 151.572 24.4118C151.479 24.4736 151.361 24.5046 151.216 24.5046H148.263ZM154.572 24.5046C154.438 24.5046 154.319 24.4736 154.216 24.4118C154.123 24.3499 154.077 24.2417 154.077 24.0871C154.077 23.9325 154.123 23.8242 154.216 23.7624C154.309 23.6902 154.427 23.6541 154.572 23.6541H157.633C157.777 23.6541 157.896 23.6902 157.989 23.7624C158.082 23.8242 158.128 23.9325 158.128 24.0871C158.128 24.2417 158.082 24.3499 157.989 24.4118C157.896 24.4736 157.777 24.5046 157.633 24.5046H154.572ZM148.263 26.0662C148.129 26.0662 148.016 26.0353 147.923 25.9735C147.83 25.9116 147.784 25.8034 147.784 25.6488C147.784 25.3601 147.943 25.2158 148.263 25.2158H151.216C151.361 25.2158 151.479 25.2519 151.572 25.3241C151.665 25.3859 151.711 25.4941 151.711 25.6488C151.711 25.8034 151.665 25.9116 151.572 25.9735C151.479 26.0353 151.361 26.0662 151.216 26.0662H148.263ZM154.572 26.0662C154.438 26.0662 154.319 26.0353 154.216 25.9735C154.123 25.9116 154.077 25.8034 154.077 25.6488C154.077 25.4941 154.123 25.3859 154.216 25.3241C154.309 25.2519 154.427 25.2158 154.572 25.2158H157.633C157.777 25.2158 157.896 25.2519 157.989 25.3241C158.082 25.3859 158.128 25.4941 158.128 25.6488C158.128 25.8034 158.082 25.9116 157.989 25.9735C157.896 26.0353 157.777 26.0662 157.633 26.0662H154.572ZM156.149 33.8283C155.767 33.8283 155.386 33.8231 155.005 33.8128C154.623 33.8025 154.242 33.7922 153.86 33.7819C153.592 33.7716 153.335 33.7458 153.087 33.7046C152.84 33.6634 152.639 33.5654 152.484 33.4108C152.33 33.2562 152.252 33.0139 152.252 32.6841V31.7873H148.309C147.907 31.7873 147.588 31.7151 147.351 31.5708C147.124 31.4162 147.011 31.1172 147.011 30.674V27.9372C147.011 27.195 147.402 26.8239 148.186 26.8239H157.695C158.478 26.8239 158.87 27.195 158.87 27.9372V30.674C158.87 31.4162 158.478 31.7873 157.695 31.7873H153.412C153.412 31.9213 153.412 32.0759 153.412 32.2511C153.422 32.4264 153.5 32.5552 153.644 32.6377C153.675 32.648 153.793 32.6635 154 32.6841C154.206 32.6944 154.453 32.7047 154.742 32.715C155.03 32.715 155.319 32.7202 155.608 32.7305C155.907 32.7408 156.164 32.7459 156.381 32.7459C156.597 32.7459 156.731 32.7459 156.783 32.7459C156.917 32.7459 157.102 32.7459 157.339 32.7459C157.587 32.7459 157.829 32.7356 158.066 32.715C158.313 32.6841 158.494 32.6428 158.607 32.5913C158.762 32.5192 158.855 32.4109 158.886 32.2666C158.917 32.112 158.937 31.9574 158.947 31.8027C158.968 31.6378 159.02 31.4986 159.102 31.3853C159.185 31.2719 159.355 31.2152 159.612 31.2152C160.035 31.2152 160.246 31.4213 160.246 31.8337C160.246 32.1017 160.215 32.3851 160.153 32.6841C160.092 32.983 159.947 33.2201 159.721 33.3953C159.587 33.5087 159.36 33.5964 159.04 33.6582C158.721 33.7201 158.37 33.7613 157.989 33.7819C157.607 33.8025 157.247 33.8128 156.906 33.8128C156.577 33.8231 156.324 33.8283 156.149 33.8283ZM148.232 28.8031H152.252V27.7671H148.681C148.382 27.7671 148.232 27.9217 148.232 28.231V28.8031ZM153.412 28.8031H157.649V28.231C157.649 27.9217 157.499 27.7671 157.2 27.7671H153.412V28.8031ZM148.681 30.8441H152.252V29.6999H148.232V30.3802C148.232 30.6895 148.382 30.8441 148.681 30.8441ZM153.412 30.8441H157.2C157.499 30.8441 157.649 30.6895 157.649 30.3802V29.6999H153.412V30.8441Z" fill="#273B24"/>
<path d="M139.588 34.0602C139.413 34.0602 139.196 34.0654 138.939 34.0757C138.691 34.086 138.475 34.0499 138.289 33.9674C138.104 33.885 138.011 33.7097 138.011 33.4417C138.011 33.1943 138.068 33.0294 138.181 32.9469C138.305 32.8645 138.454 32.8232 138.629 32.8232C138.805 32.8129 138.975 32.8078 139.14 32.8078C139.315 32.8078 139.459 32.7717 139.573 32.6995C139.696 32.6274 139.758 32.4779 139.758 32.2511V26.7311H136.944C136.758 26.7311 136.604 26.6899 136.48 26.6074C136.367 26.5146 136.31 26.3703 136.31 26.1745C136.31 25.9683 136.367 25.824 136.48 25.7415C136.604 25.6591 136.758 25.6178 136.944 25.6178H141.861L142.031 24.3963H137.995C137.676 24.3963 137.413 24.3293 137.207 24.1953C137.001 24.0613 136.898 23.8191 136.898 23.4686C136.898 23.283 136.939 23.0305 137.021 22.7109C137.104 22.3811 137.191 22.0512 137.284 21.7214C137.387 21.3812 137.464 21.1132 137.516 20.9173C137.557 20.7524 137.593 20.5668 137.624 20.3607C137.666 20.1442 137.738 19.9587 137.841 19.804C137.944 19.6391 138.109 19.5566 138.336 19.5566C138.5 19.5566 138.64 19.5927 138.753 19.6649C138.877 19.7267 138.939 19.8504 138.939 20.036C138.939 20.0463 138.923 20.1133 138.892 20.237C138.872 20.3504 138.846 20.4689 138.815 20.5926C138.794 20.706 138.779 20.7782 138.768 20.8091H142.387C142.572 20.8091 142.763 20.84 142.959 20.9019C143.155 20.9534 143.314 21.0462 143.438 21.1802C143.572 21.3039 143.624 21.4843 143.593 21.7214L143.082 25.6178H144.319C144.505 25.6178 144.654 25.6591 144.768 25.7415C144.892 25.824 144.953 25.9683 144.953 26.1745C144.953 26.3703 144.892 26.5146 144.768 26.6074C144.654 26.6899 144.505 26.7311 144.319 26.7311H140.98V27.6589C141.103 27.9166 141.232 28.1691 141.366 28.4165C141.5 28.6639 141.644 28.9061 141.799 29.1432L143.5 27.4578C143.551 27.4063 143.618 27.3651 143.701 27.3341C143.794 27.2929 143.876 27.2723 143.948 27.2723C144.371 27.2723 144.582 27.4888 144.582 27.9217C144.582 28.0145 144.51 28.1433 144.366 28.3083C144.221 28.4629 144.041 28.6278 143.825 28.8031C143.618 28.9783 143.407 29.1484 143.191 29.3133C142.974 29.4679 142.784 29.6019 142.619 29.7153C142.464 29.8287 142.371 29.8957 142.34 29.9163C142.619 30.2977 142.928 30.6431 143.268 30.9523C143.608 31.2512 143.974 31.5296 144.366 31.7873C144.51 31.88 144.644 31.9934 144.768 32.1274C144.892 32.2614 144.953 32.4212 144.953 32.6068C144.953 33.0809 144.732 33.318 144.288 33.318C144.062 33.318 143.819 33.215 143.562 33.0088C143.304 32.8026 143.041 32.5449 142.773 32.2357C142.505 31.9161 142.247 31.576 142 31.2152C141.763 30.8544 141.552 30.5194 141.366 30.2101C141.191 29.9009 141.062 29.6535 140.98 29.4679V32.4676C140.98 32.9727 140.887 33.3644 140.701 33.6427C140.516 33.9211 140.145 34.0602 139.588 34.0602ZM133.434 34.1221C133.228 34.1221 133.078 34.0602 132.986 33.9365C132.893 33.8128 132.846 33.653 132.846 33.4572V27.3651C132.712 27.3548 132.527 27.3599 132.29 27.3805C132.053 27.4012 131.81 27.4269 131.563 27.4578C131.326 27.4888 131.13 27.5094 130.976 27.5197C130.78 27.53 130.63 27.4785 130.527 27.3651C130.434 27.2414 130.388 27.0919 130.388 26.9167C130.388 26.6899 130.465 26.5404 130.62 26.4683C130.785 26.3961 130.97 26.36 131.177 26.36C131.383 26.36 131.558 26.36 131.702 26.36C131.908 26.092 132.104 25.8292 132.29 25.5715C132.486 25.3034 132.671 25.0303 132.846 24.752C132.558 24.5046 132.264 24.2726 131.965 24.0562C131.666 23.8294 131.357 23.6129 131.037 23.4067C130.934 23.3346 130.821 23.247 130.697 23.1439C130.584 23.0305 130.527 22.9068 130.527 22.7728C130.527 22.412 130.702 22.2316 131.053 22.2316C131.146 22.2316 131.254 22.2728 131.378 22.3553C131.512 22.4275 131.615 22.4893 131.687 22.5409C131.924 22.1388 132.14 21.7317 132.336 21.3193C132.532 20.8967 132.728 20.4741 132.924 20.0514C132.986 19.9071 133.063 19.7989 133.156 19.7267C133.259 19.6443 133.388 19.603 133.542 19.603C133.965 19.603 134.176 19.804 134.176 20.2061C134.176 20.3401 134.104 20.5411 133.96 20.8091C133.815 21.0771 133.64 21.3657 133.434 21.675C133.238 21.9842 133.047 22.2677 132.862 22.5254C132.687 22.7831 132.558 22.9738 132.475 23.0975L133.449 23.8397L134.547 21.9842C134.609 21.8708 134.686 21.778 134.779 21.7059C134.882 21.6337 135.001 21.5977 135.135 21.5977C135.568 21.5977 135.784 21.7987 135.784 22.2007C135.784 22.2935 135.702 22.4738 135.537 22.7419C135.372 23.0099 135.166 23.3243 134.918 23.6851C134.671 24.0355 134.413 24.3912 134.145 24.752C133.877 25.1127 133.635 25.4323 133.419 25.7106C133.202 25.9889 133.047 26.1848 132.955 26.2982C133.295 26.2879 133.63 26.2724 133.96 26.2518C134.3 26.2312 134.64 26.2106 134.98 26.1899C134.939 26.1075 134.882 25.9786 134.81 25.8034C134.738 25.6178 134.702 25.4838 134.702 25.4014C134.702 25.1024 134.857 24.953 135.166 24.953C135.31 24.953 135.423 25.0097 135.506 25.123C135.588 25.2364 135.65 25.3498 135.691 25.4632C135.722 25.5354 135.774 25.6591 135.846 25.8343C135.918 25.9992 135.996 26.1848 136.078 26.391C136.161 26.5868 136.228 26.7724 136.279 26.9476C136.341 27.1125 136.372 27.2311 136.372 27.3032C136.372 27.6434 136.197 27.8135 135.846 27.8135C135.65 27.8135 135.516 27.731 135.444 27.5661C135.372 27.3908 135.315 27.2259 135.274 27.0713L134.022 27.2414V33.4572C134.022 33.653 133.975 33.8128 133.882 33.9365C133.79 34.0602 133.64 34.1221 133.434 34.1221ZM138.598 23.3449H142.17L142.325 22.2161C142.345 22.0821 142.299 21.9894 142.186 21.9378C142.072 21.8863 141.964 21.8605 141.861 21.8605H138.521C138.542 21.9224 138.526 22.0306 138.475 22.1852C138.433 22.3398 138.387 22.5048 138.336 22.68C138.284 22.8449 138.258 22.9789 138.258 23.082C138.258 23.1851 138.294 23.2573 138.366 23.2985C138.439 23.3294 138.516 23.3449 138.598 23.3449ZM138.057 29.5452C137.903 29.5452 137.769 29.4834 137.655 29.3597C137.552 29.236 137.459 29.1175 137.377 29.0041C137.336 28.9319 137.263 28.8288 137.16 28.6948C137.057 28.5608 136.965 28.4217 136.882 28.2773C136.8 28.133 136.758 28.0196 136.758 27.9372C136.758 27.5867 136.949 27.4115 137.33 27.4115C137.434 27.4115 137.557 27.4682 137.702 27.5815C137.856 27.6949 138.006 27.8341 138.15 27.999C138.305 28.164 138.428 28.3289 138.521 28.4938C138.624 28.6587 138.676 28.7928 138.676 28.8958C138.676 29.3288 138.47 29.5452 138.057 29.5452ZM135.521 31.71C135.377 31.71 135.264 31.643 135.181 31.509C135.109 31.3749 135.058 31.2255 135.027 31.0605C134.996 30.8956 134.97 30.7616 134.949 30.6585L134.656 28.6021C134.635 28.4474 134.676 28.3392 134.779 28.2773C134.893 28.2052 135.011 28.1691 135.135 28.1691C135.289 28.1691 135.408 28.2258 135.49 28.3392C135.532 28.3907 135.578 28.5196 135.63 28.7257C135.681 28.9319 135.733 29.1742 135.784 29.4525C135.836 29.7308 135.882 30.004 135.923 30.272C135.975 30.54 136.016 30.7668 136.047 30.9523C136.078 31.1276 136.094 31.2152 136.094 31.2152C136.124 31.3801 136.073 31.5038 135.939 31.5863C135.805 31.6687 135.666 31.71 135.521 31.71ZM131.006 32.5295C130.615 32.5295 130.419 32.3439 130.419 31.9728C130.419 31.9007 130.429 31.8337 130.45 31.7718C130.481 31.71 130.506 31.6481 130.527 31.5863C130.713 31.1327 130.836 30.6688 130.898 30.1947C130.97 29.7205 131.022 29.2463 131.053 28.7721C131.073 28.5969 131.12 28.4577 131.192 28.3547C131.264 28.2413 131.398 28.1846 131.594 28.1846C131.934 28.1846 132.104 28.3547 132.104 28.6948C132.104 28.8288 132.094 29.0453 132.073 29.3442C132.053 29.6432 132.017 29.973 131.965 30.3338C131.914 30.6946 131.847 31.0451 131.764 31.3853C131.682 31.7151 131.579 31.9883 131.455 32.2048C131.331 32.4212 131.182 32.5295 131.006 32.5295ZM136.418 33.1479C136.222 33.1479 136.078 33.0913 135.985 32.9779C135.892 32.8645 135.846 32.7099 135.846 32.514C135.846 32.3388 135.918 32.1841 136.063 32.0501C136.207 31.9058 136.346 31.7924 136.48 31.71C136.573 31.6481 136.733 31.5399 136.959 31.3853C137.196 31.2203 137.444 31.0502 137.702 30.875C137.97 30.6895 138.207 30.5348 138.413 30.4111C138.629 30.2771 138.763 30.2101 138.815 30.2101C139.186 30.2101 139.372 30.4008 139.372 30.7822C139.372 30.8853 139.289 31.0296 139.124 31.2152C138.959 31.4007 138.748 31.6069 138.49 31.8337C138.232 32.0501 137.964 32.2614 137.686 32.4676C137.408 32.6635 137.15 32.8232 136.913 32.9469C136.686 33.0809 136.521 33.1479 136.418 33.1479Z" fill="#273B24"/>
<path d="M115.946 28.5557C115.502 28.5557 115.281 28.3496 115.281 27.9373C115.281 27.7826 115.374 27.6229 115.559 27.4579C115.745 27.293 115.889 27.1693 115.992 27.0868C116.94 26.355 117.626 25.5148 118.049 24.5665C118.471 23.6181 118.693 22.5512 118.713 21.3658H116.502C116.306 21.3658 116.136 21.3246 115.992 21.2421C115.848 21.1596 115.776 21.005 115.776 20.7782C115.776 20.5515 115.848 20.3968 115.992 20.3144C116.136 20.2319 116.306 20.1907 116.502 20.1907H125.022C125.342 20.1907 125.625 20.2525 125.872 20.3762C126.12 20.4999 126.243 20.7473 126.243 21.1184C126.243 21.3555 126.213 21.5977 126.151 21.8451C126.089 22.0822 126.058 22.3038 126.058 22.51C126.058 22.6543 126.14 22.7419 126.305 22.7729C126.47 22.8038 126.682 22.8089 126.939 22.7883C127.207 22.7677 127.475 22.7574 127.743 22.7574C127.991 22.7574 128.223 22.7883 128.439 22.8502C128.666 22.9017 128.846 23.01 128.98 23.1749C129.125 23.3295 129.197 23.5718 129.197 23.9016C129.197 24.2212 129.181 24.5923 129.15 25.0149C129.13 25.4375 129.078 25.8499 128.996 26.2519C128.913 26.6539 128.784 26.9992 128.609 27.2878C128.444 27.5559 128.212 27.762 127.913 27.9063C127.625 28.0403 127.316 28.128 126.986 28.1692C126.656 28.2104 126.341 28.231 126.042 28.231C125.805 28.231 125.604 28.1795 125.439 28.0764C125.285 27.9733 125.208 27.7929 125.208 27.5352C125.208 27.2672 125.295 27.092 125.47 27.0095C125.646 26.9271 125.857 26.8858 126.104 26.8858C126.352 26.8755 126.594 26.8601 126.831 26.8394C127.068 26.8085 127.254 26.726 127.388 26.592C127.532 26.4477 127.635 26.2261 127.697 25.9272C127.759 25.6282 127.8 25.3293 127.821 25.0304C127.852 24.7211 127.872 24.4789 127.882 24.3036C127.903 24.1181 127.815 24.0047 127.62 23.9635C127.434 23.9222 127.197 23.9119 126.908 23.9325C126.62 23.9532 126.326 23.9635 126.027 23.9635C125.687 23.9635 125.388 23.9119 125.13 23.8088C124.873 23.7058 124.744 23.4738 124.744 23.113C124.744 22.9069 124.764 22.6801 124.806 22.4327C124.857 22.1853 124.898 21.9585 124.929 21.7524C124.95 21.608 124.903 21.5101 124.79 21.4586C124.687 21.3967 124.579 21.3658 124.465 21.3658H119.981C119.971 21.6441 119.95 21.9276 119.919 22.2162C119.899 22.4945 119.863 22.7677 119.811 23.0357H123.074C123.301 23.0357 123.522 23.077 123.739 23.1594C123.965 23.2316 124.079 23.412 124.079 23.7006C124.079 23.948 124.017 24.2109 123.893 24.4892C123.78 24.7675 123.636 25.0355 123.46 25.2932C123.295 25.5406 123.141 25.7622 122.996 25.9581C123.069 25.9993 123.182 26.0663 123.337 26.1591C123.502 26.2416 123.672 26.3446 123.847 26.4683C124.032 26.5817 124.187 26.7003 124.311 26.824C124.445 26.9477 124.512 27.0559 124.512 27.1487C124.512 27.5404 124.306 27.7362 123.893 27.7362C123.821 27.7362 123.703 27.695 123.538 27.6125C123.383 27.5301 123.213 27.4322 123.027 27.3188C122.852 27.2054 122.687 27.1023 122.533 27.0095C122.378 26.9064 122.275 26.8394 122.223 26.8085C122.089 26.9322 121.914 27.0868 121.698 27.2724C121.481 27.4579 121.249 27.6435 121.002 27.829C120.754 28.0043 120.507 28.1537 120.26 28.2774C120.023 28.4011 119.801 28.463 119.595 28.463C119.234 28.463 119.054 28.2774 119.054 27.9063C119.054 27.7723 119.126 27.6589 119.27 27.5662C119.425 27.4631 119.548 27.3858 119.641 27.3342C119.94 27.1796 120.224 27.0198 120.492 26.8549C120.77 26.6797 121.038 26.489 121.296 26.2828C121.234 26.2519 121.125 26.2003 120.971 26.1282C120.816 26.056 120.651 25.9736 120.476 25.8808C120.311 25.788 120.167 25.6952 120.043 25.6025C119.919 25.4994 119.858 25.4014 119.858 25.3087C119.858 25.1231 119.909 24.9943 120.012 24.9221C120.126 24.8397 120.265 24.7984 120.43 24.7984C120.492 24.7984 120.6 24.8293 120.754 24.8912C120.909 24.9427 121.074 25.0097 121.249 25.0922C121.435 25.1747 121.605 25.252 121.759 25.3241C121.914 25.3963 122.022 25.4478 122.084 25.4788C122.156 25.3963 122.244 25.2829 122.347 25.1386C122.46 24.984 122.558 24.8293 122.641 24.6747C122.734 24.5201 122.78 24.3861 122.78 24.2727C122.78 24.2109 122.754 24.1696 122.703 24.149C122.661 24.1284 122.615 24.1181 122.563 24.1181H119.579C119.435 24.685 119.213 25.2314 118.914 25.7571C118.615 26.2725 118.26 26.7467 117.847 27.1796C117.724 27.3033 117.549 27.4785 117.322 27.7053C117.095 27.9218 116.858 28.1176 116.611 28.2929C116.363 28.4681 116.141 28.5557 115.946 28.5557ZM115.822 33.6119C115.636 33.6119 115.482 33.5655 115.358 33.4727C115.245 33.3903 115.188 33.2511 115.188 33.0553C115.188 32.8491 115.245 32.7048 115.358 32.6223C115.482 32.5398 115.636 32.4986 115.822 32.4986H116.873V30.0556C116.873 29.5814 116.982 29.2309 117.198 29.0041C117.415 28.7774 117.76 28.664 118.234 28.664H126.692C127.125 28.664 127.465 28.7619 127.712 28.9578C127.96 29.1433 128.083 29.468 128.083 29.9319V32.4986H129.135C129.32 32.4986 129.47 32.5398 129.583 32.6223C129.707 32.7048 129.769 32.8491 129.769 33.0553C129.769 33.2511 129.707 33.3903 129.583 33.4727C129.47 33.5655 129.32 33.6119 129.135 33.6119H115.822ZM118.095 32.4986H120.213V29.7463H118.605C118.471 29.7463 118.353 29.7824 118.25 29.8546C118.146 29.9267 118.095 30.035 118.095 30.1793V32.4986ZM121.357 32.4986H123.46V29.7463H121.357V32.4986ZM124.604 32.4986H126.847V30.1793C126.847 30.0247 126.795 29.9164 126.692 29.8546C126.599 29.7824 126.481 29.7463 126.336 29.7463H124.604V32.4986Z" fill="#273B24"/>
<path d="M100.514 24.721C100.318 24.721 100.179 24.6592 100.096 24.5355C100.024 24.4118 99.988 24.2623 99.988 24.0871C99.988 23.9737 100.019 23.8655 100.081 23.7624C100.143 23.6593 100.205 23.5614 100.266 23.4686C100.637 22.9532 100.936 22.412 101.163 21.8451C101.39 21.2678 101.601 20.6802 101.797 20.0824C101.849 19.938 101.921 19.8143 102.014 19.7113C102.106 19.6082 102.235 19.5566 102.4 19.5566C102.586 19.5566 102.735 19.5979 102.849 19.6803C102.962 19.7628 103.019 19.9071 103.019 20.1133C103.019 20.2164 102.983 20.371 102.91 20.5771C102.838 20.773 102.782 20.9225 102.74 21.0256H106.281C106.467 21.0256 106.626 21.0668 106.76 21.1493C106.895 21.2317 106.962 21.376 106.962 21.5822C106.962 21.778 106.9 21.9224 106.776 22.0151C106.663 22.0976 106.513 22.1388 106.328 22.1388H102.276C102.225 22.2419 102.132 22.4326 101.998 22.7109C101.864 22.9893 101.709 23.283 101.534 23.5923C101.359 23.9015 101.179 24.1695 100.993 24.3963C100.818 24.6128 100.658 24.721 100.514 24.721ZM113.889 26.7311C113.786 26.7311 113.667 26.6641 113.533 26.5301C113.409 26.3961 113.291 26.2518 113.177 26.0972C113.074 25.9322 112.997 25.8137 112.945 25.7415H112.884C112.234 25.8137 111.585 25.9013 110.935 26.0044C110.296 26.1075 109.647 26.1899 108.987 26.2518C108.75 26.2724 108.497 26.3033 108.229 26.3446C107.972 26.3755 107.724 26.391 107.487 26.391C107.096 26.391 106.9 26.1951 106.9 25.8034C106.9 25.5663 106.992 25.4117 107.178 25.3395C107.364 25.2571 107.57 25.2158 107.796 25.2158C108.034 25.2055 108.229 25.1952 108.384 25.1849C108.559 24.7313 108.719 24.2778 108.863 23.8242C109.018 23.3604 109.152 22.8965 109.265 22.4326H107.766C107.58 22.4326 107.425 22.3914 107.302 22.3089C107.188 22.2161 107.132 22.0718 107.132 21.876C107.132 21.6698 107.188 21.5255 107.302 21.443C107.425 21.3606 107.58 21.3193 107.766 21.3193H109.884V20.237C109.884 20.0308 109.93 19.8659 110.023 19.7422C110.116 19.6185 110.27 19.5566 110.487 19.5566C110.703 19.5566 110.858 19.6185 110.951 19.7422C111.054 19.8659 111.105 20.0308 111.105 20.237V21.3193H113.904C114.09 21.3193 114.239 21.3606 114.352 21.443C114.476 21.5255 114.538 21.6698 114.538 21.876C114.538 22.0718 114.476 22.2161 114.352 22.3089C114.239 22.3914 114.09 22.4326 113.904 22.4326H110.564L110.518 22.5254C110.343 22.948 110.178 23.381 110.023 23.8242C109.879 24.2572 109.714 24.685 109.528 25.1076C109.611 25.1179 109.776 25.1127 110.023 25.0921C110.281 25.0715 110.569 25.0457 110.889 25.0148C111.208 24.9839 111.502 24.953 111.77 24.922C112.038 24.8911 112.229 24.8705 112.342 24.8602C112.291 24.788 112.198 24.6746 112.064 24.52C111.94 24.3551 111.822 24.1902 111.708 24.0252C111.595 23.8603 111.538 23.7366 111.538 23.6541C111.538 23.3243 111.708 23.1593 112.049 23.1593C112.141 23.1593 112.286 23.247 112.482 23.4222C112.677 23.5974 112.889 23.8191 113.115 24.0871C113.342 24.3448 113.559 24.6179 113.765 24.9066C113.971 25.1952 114.141 25.4581 114.275 25.6951C114.409 25.9219 114.476 26.0817 114.476 26.1745C114.476 26.5456 114.28 26.7311 113.889 26.7311ZM103.792 33.8901C103.586 33.8901 103.416 33.8438 103.281 33.751C103.147 33.6685 103.08 33.5139 103.08 33.2871C103.08 33.0603 103.137 32.9057 103.251 32.8232C103.374 32.7408 103.529 32.6995 103.714 32.6995C103.9 32.6892 104.08 32.6841 104.256 32.6841C104.513 32.6841 104.699 32.6583 104.812 32.6068C104.936 32.5552 105.018 32.4625 105.06 32.3285C105.101 32.1944 105.142 32.0089 105.183 31.7718H101.921C101.642 31.7718 101.374 31.7048 101.117 31.5708C100.869 31.4265 100.766 31.1894 100.808 30.8595L101.101 28.0454C100.957 28.0454 100.808 28.0454 100.653 28.0454C100.498 28.0454 100.369 28.0093 100.266 27.9372C100.163 27.865 100.112 27.731 100.112 27.5352C100.112 27.3187 100.168 27.1795 100.282 27.1177C100.406 27.0455 100.55 27.0146 100.715 27.0249C100.88 27.0249 101.034 27.0249 101.179 27.0249L101.364 24.5664C101.395 24.1953 101.483 23.8809 101.627 23.6232C101.782 23.3655 102.075 23.2367 102.508 23.2367H105.384C106.127 23.2367 106.498 23.5871 106.498 24.2881C106.498 24.7004 106.487 25.1127 106.467 25.5251C106.456 25.9374 106.441 26.3497 106.42 26.762V27.0249C106.575 27.0249 106.73 27.0249 106.884 27.0249C107.049 27.0146 107.188 27.0455 107.302 27.1177C107.415 27.1795 107.472 27.3187 107.472 27.5352C107.472 27.7516 107.41 27.8959 107.286 27.9681C107.173 28.0299 107.034 28.0609 106.869 28.0609C106.704 28.0506 106.544 28.0454 106.389 28.0454C106.389 28.4887 106.374 28.9371 106.343 29.3906C106.322 29.8442 106.302 30.2977 106.281 30.7513C106.425 30.7513 106.575 30.7513 106.73 30.7513C106.884 30.7513 107.013 30.7874 107.116 30.8595C107.23 30.9214 107.286 31.0554 107.286 31.2616C107.286 31.4677 107.224 31.6069 107.101 31.679C106.987 31.7512 106.848 31.7873 106.683 31.7873C106.518 31.777 106.358 31.7718 106.204 31.7718C106.142 32.3594 106.034 32.8026 105.879 33.1016C105.725 33.4108 105.482 33.617 105.152 33.7201C104.833 33.8334 104.379 33.8901 103.792 33.8901ZM102.153 27.0249H105.4L105.462 24.8138C105.472 24.6386 105.451 24.5046 105.4 24.4118C105.348 24.3087 105.219 24.2572 105.013 24.2572H102.756C102.581 24.2572 102.462 24.319 102.4 24.4427C102.338 24.5664 102.302 24.7004 102.292 24.8447L102.153 27.0249ZM104.287 26.5765C104.225 26.5765 104.122 26.5198 103.977 26.4064C103.843 26.2827 103.699 26.1436 103.544 25.9889C103.4 25.824 103.271 25.6694 103.158 25.5251C103.055 25.3808 103.003 25.2828 103.003 25.2313C103.003 24.9736 103.147 24.8447 103.436 24.8447C103.508 24.8447 103.617 24.8963 103.761 24.9993C103.905 25.1024 104.049 25.2313 104.194 25.3859C104.348 25.5302 104.477 25.6745 104.58 25.8188C104.683 25.9632 104.735 26.0714 104.735 26.1436C104.735 26.4322 104.585 26.5765 104.287 26.5765ZM107.085 33.8901C106.714 33.8901 106.529 33.6994 106.529 33.318C106.529 33.2459 106.544 33.1789 106.575 33.117C106.606 33.0552 106.642 32.9985 106.683 32.9469C107.054 32.4212 107.327 31.9367 107.503 31.4935C107.678 31.0502 107.791 30.5915 107.843 30.1174C107.894 29.6432 107.92 29.0917 107.92 28.4629C107.92 28.3392 107.91 28.1846 107.889 27.999C107.869 27.8135 107.863 27.6331 107.874 27.4578C107.884 27.2826 107.93 27.1331 108.013 27.0094C108.095 26.8857 108.235 26.8239 108.43 26.8239C108.637 26.8239 108.771 26.8909 108.832 27.0249C108.905 27.1486 108.941 27.2981 108.941 27.4733C108.941 27.8135 108.93 28.2206 108.91 28.6948C108.899 29.1587 108.869 29.6483 108.817 30.1637C108.765 30.6688 108.688 31.1533 108.585 31.6172C108.482 32.0811 108.343 32.4728 108.168 32.7923C108.106 32.9057 108.018 33.05 107.905 33.2253C107.802 33.4005 107.678 33.5551 107.534 33.6891C107.389 33.8231 107.24 33.8901 107.085 33.8901ZM110.317 33.4417C110.131 33.4417 109.997 33.385 109.915 33.2716C109.843 33.1686 109.807 33.0346 109.807 32.8696V27.4115C109.807 27.2362 109.848 27.0971 109.93 26.994C110.013 26.8806 110.147 26.8239 110.332 26.8239C110.518 26.8239 110.647 26.8806 110.719 26.994C110.801 27.0971 110.843 27.2362 110.843 27.4115V32.8696C110.843 33.251 110.667 33.4417 110.317 33.4417ZM112.729 33.7355C112.409 33.7355 112.172 33.6427 112.018 33.4572C111.873 33.2716 111.801 33.0294 111.801 32.7305V27.4269C111.801 27.2517 111.837 27.1125 111.909 27.0094C111.992 26.9064 112.126 26.8548 112.311 26.8548C112.662 26.8548 112.837 27.0455 112.837 27.4269V32.3903C112.837 32.4625 112.853 32.5398 112.884 32.6222C112.925 32.6944 112.992 32.7305 113.085 32.7305H113.316C113.409 32.7305 113.471 32.6532 113.502 32.4985C113.543 32.3439 113.569 32.1584 113.579 31.9419C113.59 31.7254 113.605 31.509 113.626 31.2925C113.646 31.0657 113.688 30.8802 113.749 30.7358C113.822 30.5812 113.93 30.5039 114.074 30.5039C114.249 30.5039 114.373 30.5554 114.445 30.6585C114.517 30.7616 114.553 30.8956 114.553 31.0605C114.553 31.2358 114.548 31.4729 114.538 31.7718C114.528 32.0604 114.492 32.3594 114.43 32.6686C114.368 32.9676 114.265 33.2201 114.121 33.4263C113.976 33.6324 113.77 33.7355 113.502 33.7355H112.729ZM102.23 30.7513H105.261C105.281 30.2977 105.292 29.8442 105.292 29.3906C105.302 28.9371 105.328 28.4887 105.369 28.0454H102.075L101.859 30.4111C101.849 30.5245 101.88 30.6121 101.952 30.674C102.034 30.7255 102.127 30.7513 102.23 30.7513ZM104.209 30.241C104.137 30.241 104.029 30.1844 103.885 30.071C103.74 29.9473 103.591 29.803 103.436 29.638C103.292 29.4731 103.168 29.3185 103.065 29.1742C102.962 29.0195 102.91 28.9113 102.91 28.8494C102.91 28.7051 102.952 28.6072 103.034 28.5557C103.117 28.4938 103.225 28.4629 103.359 28.4629C103.441 28.4629 103.555 28.5196 103.699 28.633C103.843 28.7361 103.988 28.8649 104.132 29.0195C104.287 29.1742 104.415 29.3236 104.518 29.4679C104.632 29.6123 104.689 29.7256 104.689 29.8081C104.689 30.0967 104.529 30.241 104.209 30.241Z" fill="#273B24"/>
</svg>
