<svg width="78" height="78" viewBox="0 0 78 78" fill="none" xmlns="http://www.w3.org/2000/svg">
<path d="M18.7356 62.2902C18.7356 61.4291 18.0367 60.7302 17.1755 60.7302C16.3144 60.7302 15.6155 61.4291 15.6155 62.2902C15.6155 63.1513 16.3144 63.8502 17.1755 63.8502C18.0367 63.8502 18.7356 63.1513 18.7356 62.2902ZM24.0922 62.2902C24.0922 61.4291 23.3933 60.7302 22.5321 60.7302C21.671 60.7302 20.9721 61.4291 20.9721 62.2902C20.9721 63.1513 21.671 63.8502 22.5321 63.8502C23.3933 63.8502 24.0922 63.1513 24.0922 62.2902ZM52.4601 60.7626H42.4259V29.2182C42.4259 28.3571 41.727 27.6582 40.8658 27.6582C40.0047 27.6582 39.3058 28.3571 39.3058 29.2182V44.6809C35.8212 43.3106 33.113 37.4749 33.113 30.7208C33.113 22.9882 36.6624 16.4561 40.8658 16.4561C45.0692 16.4561 48.6186 22.9882 48.6186 30.7208C48.6186 35.6853 47.131 40.3903 44.7347 42.9986C44.6224 43.1209 44.5401 43.2582 44.4752 43.4004C44.1956 43.7948 44.1007 44.314 44.268 44.8057C45.526 48.4773 48.711 51.0856 52.4576 51.6597V60.7601L52.4601 60.7626ZM39.3058 60.7626H29.4313V50.4442H39.3058V60.7626ZM39.0012 0C17.495 0 0 17.4945 0 39C0 39.6315 0.0199686 40.2605 0.0474255 40.887C0.0549138 41.0292 0.0648981 41.169 0.0723863 41.3088C0.102339 41.8205 0.13978 42.3322 0.189702 42.8413C0.199686 42.9437 0.209671 43.0485 0.222151 43.1508C0.990944 50.5265 3.80652 57.4255 8.49416 63.3036C8.54158 63.3635 8.599 63.4109 8.65391 63.4633C15.8102 72.3216 26.7505 78 38.9988 78C51.247 78 62.0526 72.6436 69.5033 63.3011C70.04 62.6271 69.9302 61.6462 69.2562 61.1096C68.9193 60.84 68.5024 60.7352 68.1055 60.7801C68.0506 60.7751 67.9982 60.7626 67.9408 60.7626H55.5752V51.6522C60.5175 50.8959 64.3215 46.6178 64.3215 41.4536C64.3215 38.8328 63.3305 36.3293 61.5683 34.4273C61.8354 33.6236 61.9702 32.79 61.9702 31.9313C61.9702 29.7299 61.0841 27.6756 59.5115 26.1756C59.5115 26.1456 59.5115 26.1156 59.5115 26.0832C59.5115 23.0481 57.0454 20.577 54.0152 20.577C53.154 20.577 52.4551 21.2759 52.4551 22.137C52.4551 22.9981 53.154 23.697 54.0152 23.697C55.3256 23.697 56.3914 24.7678 56.3914 26.0832C56.3914 26.228 56.3765 26.3827 56.3465 26.5375C56.2342 27.119 56.4613 27.7131 56.9331 28.07C58.1512 28.9985 58.8501 30.4063 58.8501 31.9288C58.8501 32.6876 58.6754 33.4214 58.3284 34.1078C58.0064 34.7468 58.1612 35.5206 58.7028 35.9898C60.2903 37.3626 61.2014 39.3544 61.2014 41.4511C61.2014 44.8881 58.7902 47.7659 55.5752 48.4848V42.4545C55.5752 41.5933 54.8763 40.8945 54.0152 40.8945C53.154 40.8945 52.4551 41.5933 52.4551 42.4545V48.4848C50.306 48.0056 48.4764 46.5554 47.5229 44.5336C50.1712 41.2788 51.7363 36.1895 51.7363 30.7208C51.7363 20.9739 46.9588 13.3361 40.8633 13.3361C34.7679 13.3361 29.9904 20.9714 29.9904 30.7208C29.9904 38.6256 33.133 45.1427 37.5735 47.3242H18.461L22.8117 41.5309C23.1661 41.0567 23.2235 40.4252 22.9589 39.8961C22.6944 39.3669 22.1552 39.0324 21.5636 39.0324H20.3006L25.1131 32.6277C25.4675 32.156 25.5249 31.522 25.2603 30.9928C24.9957 30.4637 24.4566 30.1292 23.865 30.1292H23.0613L29.1168 22.0671C29.6335 21.3782 29.4962 20.3998 28.8073 19.8831C28.1183 19.3665 27.1399 19.5062 26.6232 20.1926L18.6931 30.7507C18.3387 31.225 18.2813 31.8564 18.5459 32.3856C18.8105 32.9148 19.3496 33.2492 19.9412 33.2492H20.7449L15.935 39.6539C15.5805 40.1257 15.5231 40.7597 15.7877 41.2888C16.0523 41.818 16.5914 42.1524 17.183 42.1524H18.446L14.0954 47.9457C13.7409 48.4199 13.6835 49.0514 13.9481 49.5805C14.2127 50.1097 14.7518 50.4442 15.3434 50.4442H26.3137V62.3226C26.3137 63.1837 27.0126 63.8826 27.8737 63.8826H64.8556C58.1062 70.9089 48.8583 74.88 39.0062 74.88C20.5103 74.88 5.24426 60.815 3.32977 42.8189C3.31979 42.724 3.3098 42.6292 3.29982 42.5343C3.25489 42.0676 3.21994 41.5983 3.19249 41.1266C3.185 40.9968 3.17501 40.867 3.16753 40.7372C3.14007 40.1631 3.1226 39.5841 3.1226 39.0025C3.1201 19.2167 19.2173 3.12 39.0012 3.12C58.7852 3.12 74.8824 19.2167 74.8824 39C74.8824 44.7608 73.4846 50.4891 70.8412 55.561C70.4868 56.2424 70.1049 56.9188 69.7055 57.5777C69.2587 58.314 69.4934 59.275 70.2297 59.7193C70.966 60.1661 71.927 59.9315 72.3713 59.1951C72.8057 58.4788 73.22 57.7425 73.6044 57.0011C76.4799 51.485 78 45.26 78 38.9975C78.0025 17.4945 60.5075 0 39.0012 0Z" fill="#51B960"/>
</svg>
