<svg width="65" height="65" viewBox="0 0 65 65" fill="none" xmlns="http://www.w3.org/2000/svg">
<path d="M32.3335 20.5C35.6425 20.5 38.3335 17.809 38.3335 14.5C38.3335 11.191 35.6425 8.5 32.3335 8.5C29.0245 8.5 26.3335 11.191 26.3335 14.5C26.3335 17.809 29.0245 20.5 32.3335 20.5ZM32.3335 10.5C34.5395 10.5 36.3335 12.294 36.3335 14.5C36.3335 16.706 34.5395 18.5 32.3335 18.5C30.1275 18.5 28.3335 16.706 28.3335 14.5C28.3335 12.294 30.1275 10.5 32.3335 10.5Z" fill="#51B960"/>
<path d="M58.1136 24.5C55.5926 16.388 49.2246 9.80601 41.2076 7.00701L41.9436 5.15801L38.9286 5.76101C37.0016 6.14501 34.9926 5.37901 33.8126 3.80601L32.3336 1.83301L30.8546 3.80601C29.6746 5.37901 27.6666 6.14501 25.7386 5.76101L22.7236 5.15801L23.4596 7.00601C15.4196 9.79901 9.19059 16.184 6.60759 24.315C3.84859 25.585 1.80359 28.223 1.40859 31.322C0.961593 34.83 2.52659 38.187 5.49259 40.083C6.01159 40.415 6.33359 41.053 6.33359 41.75V43.5C6.33359 45.543 7.87959 47.214 9.85959 47.452C11.8256 50.398 14.3916 52.97 17.3336 54.942V61.5H5.33359V63.5H59.3336V61.5H45.3336V56.156C49.4836 53.871 52.9476 50.549 55.4076 46.5H61.3336V44.5H59.3336V42.5H63.3336V24.5H58.1136ZM61.3336 32.5H57.3336V26.5H61.3336V32.5ZM51.3336 40.5V34.5H55.3336V40.5H51.3336ZM45.3336 34.5H49.3336V40.5H45.3336V34.5ZM45.3336 32.5V26.5H49.3336V32.5H45.3336ZM51.3336 32.5V26.5H55.3336V32.5H51.3336ZM25.7446 7.79001C28.2296 8.14001 30.7646 7.13701 32.3336 5.16201C33.9026 7.13701 36.4386 8.14101 38.9236 7.79001C38.5086 10.312 39.4786 12.874 41.5006 14.49C39.4806 16.049 38.4606 18.565 38.7866 21.059C36.2946 20.783 33.8566 21.829 32.3326 23.836C30.9706 22.123 28.8836 21.141 26.7286 21.141C26.4006 21.141 26.0716 21.163 25.7436 21.21C26.1596 18.683 25.1856 16.116 23.1546 14.5C25.1856 12.884 26.1596 10.317 25.7446 7.79001ZM6.57059 38.398C4.26159 36.923 3.04459 34.309 3.39359 31.575C3.79259 28.438 6.36759 25.902 9.51359 25.546C9.79159 25.515 10.0676 25.5 10.3416 25.5C12.0666 25.5 13.6956 26.117 14.9946 27.278C16.4816 28.605 17.3336 30.509 17.3336 32.5C17.3336 34.89 16.1296 37.091 14.1136 38.387C13.0566 39.066 12.4106 40.22 12.3456 41.5H11.3336V35.316C12.4946 34.902 13.3336 33.802 13.3336 32.5C13.3336 30.846 11.9876 29.5 10.3336 29.5C8.67959 29.5 7.33359 30.846 7.33359 32.5C7.33359 33.802 8.17259 34.902 9.33359 35.316V41.5H8.31859C8.24459 40.209 7.60759 39.061 6.57059 38.398ZM9.33359 32.5C9.33359 31.949 9.78259 31.5 10.3336 31.5C10.8846 31.5 11.3336 31.949 11.3336 32.5C11.3336 33.051 10.8846 33.5 10.3336 33.5C9.78259 33.5 9.33359 33.051 9.33359 32.5ZM8.33359 43.5H12.3336C12.3336 44.603 11.4366 45.5 10.3336 45.5C9.23059 45.5 8.33359 44.603 8.33359 43.5ZM37.3336 45.5V50.08L33.3336 49.28V61.5H29.3336V47.28L27.3336 47.68V45.5H37.3336ZM27.3336 49.72V61.5H19.3336V51.32L27.3336 49.72ZM35.3336 61.5V51.72L43.3336 53.32V61.5H35.3336ZM45.3336 53.851V51.68L39.3336 50.48V43.5H37.3336V41.5H35.3336V43.5H33.3336V39.5H31.3336V43.5H29.3336V41.5H27.3336V43.5H25.3336V48.08L17.3336 49.68V52.489C15.3176 50.971 13.5176 49.147 12.0416 47.102C13.3916 46.459 14.3336 45.092 14.3336 43.5V41.708C14.3336 41.039 14.6636 40.411 15.1956 40.069C17.7866 38.404 19.3336 35.574 19.3336 32.5C19.3336 29.94 18.2376 27.493 16.3276 25.787C14.4186 24.081 11.8486 23.267 9.28859 23.559C9.17959 23.571 9.07359 23.594 8.96559 23.61C11.5486 16.802 16.9546 11.475 23.8236 8.99401C23.8046 10.73 22.9136 12.386 21.3376 13.331L19.3906 14.5L21.3386 15.669C23.5116 16.973 24.4066 19.627 23.4636 21.982L22.7236 23.842L25.7386 23.239C27.6666 22.856 29.6746 23.621 30.8546 25.194L32.3336 27.167L33.9056 25.072C35.0556 23.538 36.9446 22.776 38.8396 23.084L41.6496 23.542L41.0496 21.93C40.1876 19.612 41.1006 17.007 43.2196 15.735L45.2776 14.5L43.3296 13.331C41.7546 12.386 40.8646 10.731 40.8446 8.99601C47.9356 11.573 53.5976 17.358 56.0186 24.5H43.3336V42.5H47.3336V44.5H45.3336V46.5H53.0496C51.0346 49.479 48.4046 51.979 45.3336 53.851ZM57.3336 44.5H49.3336V42.5H57.3336V44.5ZM57.3336 40.5V34.5H61.3336V40.5H57.3336Z" fill="#51B960"/>
<path d="M61.3335 61.5H63.3335V63.5H61.3335V61.5Z" fill="#51B960"/>
<path d="M1.3335 61.5H3.3335V63.5H1.3335V61.5Z" fill="#51B960"/>
<path d="M37.3335 57.5H41.3335V59.5H37.3335V57.5Z" fill="#51B960"/>
<path d="M21.3335 53.5H25.3335V55.5H21.3335V53.5Z" fill="#51B960"/>
<path d="M21.3335 57.5H25.3335V59.5H21.3335V57.5Z" fill="#51B960"/>
<path d="M25.3335 29.5H39.3335V31.5H25.3335V29.5Z" fill="#51B960"/>
<path d="M37.3335 33.5H39.3335V35.5H37.3335V33.5Z" fill="#51B960"/>
<path d="M29.3335 33.5H31.3335V35.5H29.3335V33.5Z" fill="#51B960"/>
<path d="M25.3335 33.5H27.3335V35.5H25.3335V33.5Z" fill="#51B960"/>
<path d="M33.3335 33.5H35.3335V35.5H33.3335V33.5Z" fill="#51B960"/>
</svg>
