<svg width="128" height="128" viewBox="0 0 128 128" fill="none" xmlns="http://www.w3.org/2000/svg">
<g clip-path="url(#clip0_57_227)">
<path d="M81.0392 73.7944L67.8883 60.8833L67.0742 60.1449C64.5236 58.0014 61.3005 56.8231 57.9688 56.8162C54.6371 56.8093 51.4091 57.9742 48.8496 60.1071L47.9914 60.8833L8.65833 99.5285C8.03744 100.137 7.25077 100.549 6.39686 100.712C5.54295 100.876 4.65978 100.784 3.858 100.448C3.05622 100.111 2.37149 99.546 1.88957 98.8224C1.40766 98.0987 1.15001 97.249 1.14889 96.3796V20.509C1.14889 15.0697 3.30965 9.85312 7.15583 6.00694C11.002 2.16076 16.2185 0 21.6579 0H94.2281C99.6674 0 104.884 2.16076 108.73 6.00694C112.576 9.85312 114.737 15.0697 114.737 20.509V50.5594C111.722 50.2947 108.686 50.6944 105.843 51.7302C102.999 52.7659 100.418 54.4127 98.2794 56.5543L81.0392 73.7944ZM67.4087 33.1425C67.4087 36.9115 68.9059 40.5262 71.571 43.1913C74.2361 45.8564 77.8508 47.3536 81.6198 47.3536C85.3888 47.3536 89.0035 45.8564 91.6686 43.1913C94.3337 40.5262 95.8309 36.9115 95.8309 33.1425C95.8309 29.3726 94.3334 25.7572 91.6677 23.0915C89.002 20.4258 85.3865 18.9282 81.6166 18.9282C77.8468 18.9282 74.2313 20.4258 71.5656 23.0915C68.8999 25.7572 67.4023 29.3726 67.4023 33.1425M81.6135 28.397C82.8721 28.397 84.0791 28.897 84.969 29.787C85.859 30.6769 86.359 31.8839 86.359 33.1425C86.359 34.4011 85.859 35.6081 84.969 36.4981C84.0791 37.388 82.8721 37.888 81.6135 37.888C80.3549 37.888 79.1479 37.388 78.2579 36.4981C77.368 35.6081 76.868 34.4011 76.868 33.1425C76.868 31.8839 77.368 30.6769 78.2579 29.787C79.1479 28.897 80.3549 28.397 81.6135 28.397ZM54.6174 67.6354L55.1474 67.1874C55.9462 66.606 56.9069 66.2891 57.8949 66.2811C58.8828 66.2732 59.8485 66.5747 60.6565 67.1432L61.2497 67.6354L74.3438 80.4898L61.0288 93.8049C58.2738 96.5649 56.254 99.971 55.1538 103.712C52.9766 100.33 49.6637 97.9382 46.2434 96.5626C41.8829 94.8083 37.4971 95.5529 34.0264 96.7834L33.3196 97.0359C30.2906 98.096 27.8674 94.4612 29.975 92.0443L31.3002 90.5235L54.6174 67.6354ZM102.735 61.0158L65.4903 98.2664C63.3236 100.44 61.7843 103.159 61.0351 106.136L58.3342 116.939C56.094 118.012 53.8538 118.214 51.1845 117.602C50.3894 117.412 50.0486 116.497 50.3831 115.753C53.0965 109.682 49.1841 104.545 43.8833 102.419C37.8568 99.9891 29.8362 105.669 23.1093 110.42C19.3735 113.071 16.0416 115.425 13.6688 115.948C10.3558 116.687 6.33608 115.172 3.37648 113.55C2.0576 112.837 0.30329 114.005 0.928025 115.368C2.45516 118.706 5.54097 122.517 11.7189 123.287C17.9031 124.051 22.8632 121.098 27.8106 118.144C31.4896 115.948 35.1622 113.752 39.3334 113.102C39.8761 113.02 40.2422 113.658 39.996 114.15C38.4689 117.204 37.7495 122.795 41.3717 125.622C46.723 129.8 61.7987 127.465 65.5281 126.178C65.8353 126.148 66.1466 126.091 66.4621 126.007L78.0102 123.123C80.9896 122.373 83.7108 120.832 85.8857 118.662L123.136 81.4175C125.772 78.6979 127.232 75.051 127.202 71.2641C127.172 67.4772 125.654 63.854 122.976 61.1766C120.297 58.4992 116.674 56.9823 112.887 56.9534C109.1 56.9245 105.453 58.3859 102.735 61.0221" fill="#383B53"/>
</g>
<defs>
<clipPath id="clip0_57_227">
<rect width="128" height="128" fill="white"/>
</clipPath>
</defs>
</svg>
