<svg width="128" height="128" viewBox="0 0 128 128" fill="none" xmlns="http://www.w3.org/2000/svg">
<path d="M76.8 0H25.6C22.2052 0 18.9495 1.34857 16.549 3.74903C14.1486 6.1495 12.8 9.40523 12.8 12.8V115.2C12.8 118.595 14.1486 121.851 16.549 124.251C18.9495 126.651 22.2052 128 25.6 128H102.4C105.795 128 109.05 126.651 111.451 124.251C113.851 121.851 115.2 118.595 115.2 115.2V38.4L76.8 0ZM70.4 12.8L102.4 44.8H70.4V12.8ZM41.7984 102.4H36.9344V93.3696H28.896V102.4H23.9872V80.8128H28.896V89.1072H36.9408V80.8128H41.8048L41.7984 102.4ZM60.9984 84.9152H55.104V102.4H50.2016V84.9152H44.4096V80.8128H60.9984V84.9152ZM82.0352 102.4L81.7152 94.1376C81.6064 91.5456 81.5232 88.4032 81.5232 85.2608H81.4208C80.7552 88.0192 79.8528 91.0912 79.0208 93.6256L76.3968 102.048H72.576L70.2784 93.6832C69.4994 90.9066 68.846 88.0963 68.32 85.2608H68.2496C68.1152 88.1792 68.032 91.5072 67.872 94.1952L67.488 102.4H62.976L64.3584 80.8128H70.8544L72.9728 88.0192C73.6384 90.5216 74.3168 93.2096 74.7904 95.7376H74.8992C75.5072 93.2352 76.2368 90.3872 76.9472 87.9872L79.2448 80.8128H85.6192L86.8032 102.4H82.0352ZM104.013 102.4H90.5216V80.8128H95.4304V98.2976H104.019L104.013 102.4Z" fill="#383B53"/>
</svg>
