<svg width="213" height="218" viewBox="0 0 213 218" fill="none" xmlns="http://www.w3.org/2000/svg">
<circle cx="180" cy="160" r="12" fill="#A50104"/>
<path fill-rule="evenodd" clip-rule="evenodd" d="M98.3167 155C108.191 159.133 118.811 161.2 130.178 161.2C137.802 161.2 145.091 160.27 152.044 158.41C152.869 143.686 165.07 132 180 132C183.993 132 187.791 132.836 191.228 134.342C197.298 127.758 202.15 120.292 205.783 111.944C210.031 102.185 212.156 91.737 212.156 80.6C212.156 69.463 210.031 59.0148 205.783 49.2555C201.535 39.4963 195.622 30.9426 188.044 23.5944C180.581 16.2463 171.913 10.5055 162.039 6.37222C152.165 2.12407 141.544 0 130.178 0C118.811 0 108.191 2.12407 98.3167 6.37222C92.1655 8.94711 86.46 12.1458 81.2 15.9683V0.599997H48.65V71.8672C48.35 74.7295 48.2 77.6404 48.2 80.6C48.2 83.5596 48.35 86.4705 48.65 89.3328V108.575C48.65 117.092 46.7833 123.158 43.05 126.775C39.4333 130.392 34.8833 132.2 29.4 132.2C24.85 132.2 20.7667 131.15 17.15 129.05C13.5333 126.95 10.5583 124.15 8.225 120.65L0 150.05C3.96667 154.017 8.86667 156.933 14.7 158.8C20.65 160.667 26.6583 161.6 32.725 161.6C41.125 161.6 49 159.85 56.35 156.35C63.8167 152.733 69.825 147.192 74.375 139.725L74.3852 139.708C81.4269 146.068 89.4041 151.166 98.3167 155ZM81.2 88.9735C82.1305 95.0631 84.1046 100.768 87.1222 106.089C91.4852 113.781 97.3981 119.924 104.861 124.517C112.439 128.994 120.878 131.233 130.178 131.233C139.478 131.233 147.859 128.994 155.322 124.517C162.785 119.924 168.698 113.781 173.061 106.089C177.539 98.3963 179.778 89.9 179.778 80.6C179.778 71.1852 177.539 62.6889 173.061 55.1111C168.698 47.4185 162.785 41.3333 155.322 36.8556C147.859 32.263 139.478 29.9667 130.178 29.9667C120.878 29.9667 112.439 32.263 104.861 36.8556C97.3981 41.3333 91.4852 47.4185 87.1222 55.1111C84.1046 60.3523 82.1305 66.033 81.2 72.153V88.9735Z" fill="#383B53"/>
<path d="M4.73333 196V179.75H10.2583C11.5583 179.75 12.738 179.961 13.7972 180.382C14.8685 180.803 15.7894 181.387 16.5597 182.133C17.3421 182.868 17.944 183.728 18.3653 184.715C18.7866 185.702 18.9972 186.756 18.9972 187.875C18.9972 188.994 18.7866 190.048 18.3653 191.035C17.944 192.022 17.3421 192.888 16.5597 193.635C15.7894 194.369 14.8685 194.947 13.7972 195.368C12.738 195.789 11.5583 196 10.2583 196H4.73333ZM7.875 193.075H9.96944C10.8843 193.075 11.6907 192.943 12.3889 192.678C13.087 192.401 13.6708 192.028 14.1403 191.558C14.6218 191.077 14.9829 190.523 15.2236 189.897C15.4764 189.271 15.6028 188.597 15.6028 187.875C15.6028 187.153 15.4764 186.479 15.2236 185.853C14.9829 185.215 14.6218 184.661 14.1403 184.192C13.6708 183.71 13.087 183.337 12.3889 183.072C11.6907 182.807 10.8843 182.675 9.96944 182.675H7.875V193.075ZM24.8143 196V179.75H33.4809V182.567H27.9559V185.058H32.217V187.767H27.9559V193.075H33.4809V196H24.8143ZM43.4801 196.361C42.4931 196.361 41.5542 196.181 40.6634 195.819C39.7847 195.446 39.0806 195.001 38.5509 194.483L39.4357 190.872C39.857 191.606 40.4528 192.22 41.2232 192.714C41.9935 193.195 42.782 193.436 43.5884 193.436C44.2505 193.436 44.7681 193.256 45.1412 192.894C45.5264 192.533 45.719 192.094 45.719 191.576C45.719 191.155 45.6167 190.806 45.412 190.529C45.2195 190.252 44.9847 190.024 44.7079 189.843C44.4431 189.662 44.2083 189.524 44.0037 189.428L42.0898 188.471C41.5361 188.194 41.0065 187.869 40.5009 187.496C39.9954 187.111 39.5801 186.635 39.2551 186.069C38.9421 185.504 38.7857 184.806 38.7857 183.975C38.7857 183.06 38.9903 182.26 39.3995 181.574C39.8208 180.887 40.4107 180.352 41.169 179.967C41.9273 179.581 42.8181 179.389 43.8412 179.389C44.8042 179.389 45.6588 179.545 46.4051 179.858C47.1634 180.159 47.7773 180.484 48.2468 180.833L47.4162 184.354C46.9347 183.728 46.357 183.229 45.6829 182.856C45.0208 182.47 44.3588 182.278 43.6968 182.278C43.107 182.278 42.6495 182.428 42.3245 182.729C42.0116 183.03 41.8551 183.403 41.8551 183.849C41.8551 184.125 41.9153 184.372 42.0357 184.589C42.1681 184.806 42.3546 184.998 42.5954 185.167C42.8361 185.335 43.119 185.504 43.444 185.672L45.3759 186.629C45.7009 186.786 46.056 186.99 46.4412 187.243C46.8264 187.484 47.1995 187.791 47.5607 188.164C47.9218 188.537 48.2167 188.988 48.4454 189.518C48.6741 190.036 48.7884 190.656 48.7884 191.378C48.7884 192.317 48.5718 193.165 48.1384 193.924C47.7051 194.67 47.0912 195.266 46.2968 195.711C45.5144 196.144 44.5755 196.361 43.4801 196.361ZM54.4458 196V179.75H57.8041V196H54.4458ZM72.5073 196.325C71.2796 196.325 70.13 196.12 69.0587 195.711C67.9995 195.29 67.0666 194.7 66.2601 193.942C65.4657 193.183 64.8458 192.293 64.4004 191.269C63.955 190.246 63.7323 189.127 63.7323 187.911C63.7323 186.695 63.955 185.576 64.4004 184.553C64.8458 183.518 65.4657 182.621 66.2601 181.863C67.0666 181.092 67.9935 180.496 69.0407 180.075C70.0999 179.642 71.2435 179.425 72.4712 179.425C73.5786 179.425 74.6138 179.6 75.5768 179.949C76.5398 180.298 77.3944 180.791 78.1407 181.429L77.2198 185.149C76.7624 184.402 76.1305 183.776 75.324 183.271C74.5296 182.753 73.5786 182.494 72.4712 182.494C71.4481 182.494 70.5333 182.729 69.7268 183.199C68.9203 183.668 68.2823 184.312 67.8129 185.131C67.3555 185.949 67.1268 186.876 67.1268 187.911C67.1268 188.97 67.3555 189.909 67.8129 190.728C68.2823 191.534 68.9203 192.172 69.7268 192.642C70.5333 193.099 71.4421 193.328 72.4532 193.328C72.9467 193.328 73.4041 193.28 73.8254 193.183C74.2467 193.087 74.6259 192.943 74.9629 192.75V189.608H71.6587V186.9H77.924V194.79C77.1777 195.272 76.3411 195.651 75.4143 195.928C74.4995 196.193 73.5305 196.325 72.5073 196.325ZM96.9995 196.542L87.2495 186.81V196H84.2161V179.208L93.9661 188.922V179.75H96.9995V196.542ZM116.285 196.361C115.298 196.361 114.359 196.181 113.469 195.819C112.59 195.446 111.886 195.001 111.356 194.483L112.241 190.872C112.662 191.606 113.258 192.22 114.028 192.714C114.799 193.195 115.587 193.436 116.394 193.436C117.056 193.436 117.573 193.256 117.946 192.894C118.331 192.533 118.524 192.094 118.524 191.576C118.524 191.155 118.422 190.806 118.217 190.529C118.025 190.252 117.79 190.024 117.513 189.843C117.248 189.662 117.013 189.524 116.809 189.428L114.895 188.471C114.341 188.194 113.812 187.869 113.306 187.496C112.8 187.111 112.385 186.635 112.06 186.069C111.747 185.504 111.591 184.806 111.591 183.975C111.591 183.06 111.795 182.26 112.205 181.574C112.626 180.887 113.216 180.352 113.974 179.967C114.732 179.581 115.623 179.389 116.646 179.389C117.609 179.389 118.464 179.545 119.21 179.858C119.969 180.159 120.582 180.484 121.052 180.833L120.221 184.354C119.74 183.728 119.162 183.229 118.488 182.856C117.826 182.47 117.164 182.278 116.502 182.278C115.912 182.278 115.455 182.428 115.13 182.729C114.817 183.03 114.66 183.403 114.66 183.849C114.66 184.125 114.72 184.372 114.841 184.589C114.973 184.806 115.16 184.998 115.4 185.167C115.641 185.335 115.924 185.504 116.249 185.672L118.181 186.629C118.506 186.786 118.861 186.99 119.246 187.243C119.631 187.484 120.005 187.791 120.366 188.164C120.727 188.537 121.022 188.988 121.25 189.518C121.479 190.036 121.594 190.656 121.594 191.378C121.594 192.317 121.377 193.165 120.944 193.924C120.51 194.67 119.896 195.266 119.102 195.711C118.319 196.144 117.381 196.361 116.285 196.361ZM125.634 182.675V179.75H136.937V182.675H132.965V196H129.607V182.675H125.634ZM148.041 196.379C146.897 196.379 145.88 196.144 144.989 195.675C144.098 195.206 143.394 194.537 142.877 193.671C142.371 192.792 142.118 191.745 142.118 190.529V179.75H145.477V190.367C145.477 191.245 145.717 191.944 146.199 192.461C146.692 192.979 147.324 193.237 148.095 193.237C148.853 193.237 149.479 192.991 149.972 192.497C150.466 191.992 150.713 191.318 150.713 190.475V179.75H153.963V190.475C153.963 191.703 153.71 192.762 153.204 193.653C152.699 194.531 152.001 195.206 151.11 195.675C150.231 196.144 149.208 196.379 148.041 196.379ZM160.119 196V179.75H165.644C166.944 179.75 168.124 179.961 169.183 180.382C170.254 180.803 171.175 181.387 171.945 182.133C172.728 182.868 173.33 183.728 173.751 184.715C174.172 185.702 174.383 186.756 174.383 187.875C174.383 188.994 174.172 190.048 173.751 191.035C173.33 192.022 172.728 192.888 171.945 193.635C171.175 194.369 170.254 194.947 169.183 195.368C168.124 195.789 166.944 196 165.644 196H160.119ZM163.261 193.075H165.355C166.27 193.075 167.076 192.943 167.774 192.678C168.473 192.401 169.056 192.028 169.526 191.558C170.007 191.077 170.368 190.523 170.609 189.897C170.862 189.271 170.988 188.597 170.988 187.875C170.988 187.153 170.862 186.479 170.609 185.853C170.368 185.215 170.007 184.661 169.526 184.192C169.056 183.71 168.473 183.337 167.774 183.072C167.076 182.807 166.27 182.675 165.355 182.675H163.261V193.075ZM180.308 196V179.75H183.666V196H180.308ZM198.189 196.325C196.997 196.325 195.884 196.108 194.849 195.675C193.814 195.23 192.899 194.622 192.104 193.851C191.322 193.081 190.708 192.184 190.263 191.161C189.817 190.138 189.595 189.043 189.595 187.875C189.595 186.707 189.817 185.612 190.263 184.589C190.708 183.566 191.322 182.669 192.104 181.899C192.899 181.128 193.814 180.526 194.849 180.093C195.884 179.648 196.997 179.425 198.189 179.425C199.381 179.425 200.494 179.648 201.529 180.093C202.565 180.526 203.473 181.128 204.256 181.899C205.05 182.669 205.67 183.566 206.116 184.589C206.561 185.612 206.784 186.707 206.784 187.875C206.784 189.043 206.561 190.138 206.116 191.161C205.67 192.184 205.05 193.081 204.256 193.851C203.473 194.622 202.565 195.23 201.529 195.675C200.494 196.108 199.381 196.325 198.189 196.325ZM198.189 193.183C199.164 193.183 200.043 192.949 200.825 192.479C201.608 191.998 202.228 191.354 202.685 190.547C203.154 189.741 203.389 188.85 203.389 187.875C203.389 186.888 203.154 185.997 202.685 185.203C202.228 184.396 201.608 183.758 200.825 183.289C200.043 182.807 199.164 182.567 198.189 182.567C197.214 182.567 196.329 182.807 195.535 183.289C194.753 183.758 194.133 184.396 193.675 185.203C193.218 185.997 192.989 186.888 192.989 187.875C192.989 188.85 193.218 189.741 193.675 190.547C194.133 191.354 194.753 191.998 195.535 192.479C196.329 192.949 197.214 193.183 198.189 193.183Z" fill="#383B53"/>
<path d="M54.225 214V205.25H56.3931C56.9699 205.25 57.456 205.338 57.8514 205.513C58.2532 205.687 58.5773 205.918 58.8236 206.203C59.0699 206.481 59.2481 206.786 59.3583 207.117C59.475 207.447 59.5333 207.771 59.5333 208.089C59.5333 208.4 59.4782 208.721 59.3681 209.051C59.2579 209.382 59.0796 209.69 58.8333 209.975C58.587 210.26 58.263 210.49 57.8611 210.665C57.4593 210.84 56.9699 210.928 56.3931 210.928H55.3333V214H54.225ZM55.3333 209.936H56.3347C56.8597 209.936 57.2745 209.845 57.5792 209.664C57.8838 209.476 58.1009 209.243 58.2306 208.964C58.3602 208.679 58.425 208.387 58.425 208.089C58.425 207.804 58.3602 207.519 58.2306 207.233C58.1074 206.948 57.8935 206.712 57.5889 206.524C57.2907 206.336 56.8727 206.242 56.3347 206.242H55.3333V209.936ZM62.9342 214V205.25H65.1314C65.6823 205.25 66.1555 205.36 66.5508 205.581C66.9462 205.801 67.2508 206.093 67.4647 206.456C67.6851 206.812 67.7953 207.204 67.7953 207.632C67.7953 208.112 67.6592 208.543 67.3869 208.925C67.1147 209.307 66.742 209.589 66.2689 209.771L69.205 214H67.9119L65.1314 209.975H64.0425V214H62.9342ZM64.0425 209.042H65.1314C65.5073 209.042 65.8119 208.974 66.0453 208.837C66.2851 208.695 66.4601 208.517 66.5703 208.303C66.6869 208.082 66.7453 207.859 66.7453 207.632C66.7453 207.224 66.5962 206.89 66.2981 206.631C66.0064 206.371 65.6175 206.242 65.1314 206.242H64.0425V209.042ZM75.8136 214.175C75.1849 214.175 74.5918 214.058 74.0344 213.825C73.4835 213.585 72.9974 213.258 72.5761 212.843C72.1612 212.428 71.8339 211.945 71.5941 211.394C71.3608 210.844 71.2441 210.254 71.2441 209.625C71.2441 208.996 71.3608 208.406 71.5941 207.856C71.8339 207.305 72.1612 206.822 72.5761 206.407C72.9974 205.992 73.4835 205.668 74.0344 205.435C74.5918 205.195 75.1849 205.075 75.8136 205.075C76.4487 205.075 77.0418 205.195 77.5927 205.435C78.1437 205.668 78.6265 205.992 79.0413 206.407C79.4626 206.822 79.7899 207.305 80.0233 207.856C80.2631 208.406 80.383 208.996 80.383 209.625C80.383 210.254 80.2631 210.844 80.0233 211.394C79.7899 211.945 79.4626 212.428 79.0413 212.843C78.6265 213.258 78.1437 213.585 77.5927 213.825C77.0418 214.058 76.4487 214.175 75.8136 214.175ZM75.8136 213.125C76.4552 213.125 77.0353 212.969 77.5538 212.658C78.0724 212.341 78.4807 211.916 78.7788 211.385C79.0835 210.853 79.2358 210.267 79.2358 209.625C79.2358 208.977 79.0835 208.39 78.7788 207.865C78.4807 207.334 78.0724 206.912 77.5538 206.601C77.0353 206.284 76.4552 206.125 75.8136 206.125C75.1719 206.125 74.5918 206.284 74.0733 206.601C73.5612 206.912 73.1529 207.334 72.8483 207.865C72.5437 208.39 72.3913 208.977 72.3913 209.625C72.3913 210.267 72.5437 210.853 72.8483 211.385C73.1529 211.916 73.5612 212.341 74.0733 212.658C74.5918 212.969 75.1719 213.125 75.8136 213.125ZM83.8744 214V205.25H88.191V206.242H84.9827V208.108H87.8994V209.1H84.9827V214H83.8744ZM91.3923 214V205.25H95.7089V206.242H92.5006V208.108H95.0284V209.1H92.5006V213.008H95.7089V214H91.3923ZM101.083 214.117C100.565 214.117 100.095 214.013 99.6737 213.806C99.2588 213.598 98.9283 213.345 98.682 213.047L99.0028 211.706C99.1843 212.069 99.4565 212.396 99.8195 212.688C100.182 212.979 100.617 213.125 101.122 213.125C101.582 213.125 101.962 212.979 102.26 212.688C102.564 212.396 102.717 212.036 102.717 211.608C102.717 211.297 102.642 211.041 102.493 210.84C102.344 210.639 102.176 210.481 101.988 210.364C101.8 210.247 101.651 210.163 101.54 210.111L100.471 209.567C100.302 209.476 100.092 209.35 99.8389 209.188C99.5926 209.025 99.3755 208.802 99.1875 208.517C98.9996 208.231 98.9056 207.862 98.9056 207.408C98.9056 206.968 99.0061 206.575 99.207 206.232C99.4144 205.888 99.6996 205.619 100.063 205.425C100.432 205.231 100.853 205.133 101.326 205.133C101.793 205.133 102.205 205.218 102.561 205.386C102.918 205.548 103.196 205.717 103.397 205.892L103.076 207.233C102.914 206.961 102.675 206.705 102.357 206.465C102.039 206.225 101.68 206.106 101.278 206.106C100.889 206.106 100.578 206.222 100.344 206.456C100.111 206.682 99.9945 206.964 99.9945 207.301C99.9945 207.561 100.053 207.775 100.169 207.943C100.293 208.112 100.429 208.244 100.578 208.342C100.733 208.439 100.86 208.513 100.957 208.565L102.046 209.11C102.176 209.175 102.338 209.265 102.532 209.382C102.733 209.499 102.931 209.654 103.125 209.849C103.319 210.037 103.482 210.27 103.611 210.549C103.741 210.821 103.806 211.151 103.806 211.54C103.806 212.039 103.686 212.483 103.446 212.872C103.213 213.261 102.892 213.566 102.483 213.786C102.075 214.006 101.608 214.117 101.083 214.117ZM109.175 214.117C108.657 214.117 108.187 214.013 107.766 213.806C107.351 213.598 107.02 213.345 106.774 213.047L107.095 211.706C107.276 212.069 107.549 212.396 107.912 212.688C108.275 212.979 108.709 213.125 109.214 213.125C109.675 213.125 110.054 212.979 110.352 212.688C110.657 212.396 110.809 212.036 110.809 211.608C110.809 211.297 110.734 211.041 110.585 210.84C110.436 210.639 110.268 210.481 110.08 210.364C109.892 210.247 109.743 210.163 109.632 210.111L108.563 209.567C108.394 209.476 108.184 209.35 107.931 209.188C107.685 209.025 107.468 208.802 107.28 208.517C107.092 208.231 106.998 207.862 106.998 207.408C106.998 206.968 107.098 206.575 107.299 206.232C107.507 205.888 107.792 205.619 108.155 205.425C108.524 205.231 108.945 205.133 109.419 205.133C109.885 205.133 110.297 205.218 110.653 205.386C111.01 205.548 111.288 205.717 111.489 205.892L111.169 207.233C111.007 206.961 110.767 206.705 110.449 206.465C110.132 206.225 109.772 206.106 109.37 206.106C108.981 206.106 108.67 206.222 108.437 206.456C108.203 206.682 108.087 206.964 108.087 207.301C108.087 207.561 108.145 207.775 108.262 207.943C108.385 208.112 108.521 208.244 108.67 208.342C108.825 208.439 108.952 208.513 109.049 208.565L110.138 209.11C110.268 209.175 110.43 209.265 110.624 209.382C110.825 209.499 111.023 209.654 111.217 209.849C111.412 210.037 111.574 210.27 111.703 210.549C111.833 210.821 111.898 211.151 111.898 211.54C111.898 212.039 111.778 212.483 111.538 212.872C111.305 213.261 110.984 213.566 110.575 213.786C110.167 214.006 109.7 214.117 109.175 214.117ZM115.498 214V205.25H116.606V214H115.498ZM124.776 214.175C124.148 214.175 123.555 214.058 122.997 213.825C122.446 213.585 121.96 213.258 121.539 212.843C121.124 212.428 120.797 211.945 120.557 211.394C120.324 210.844 120.207 210.254 120.207 209.625C120.207 208.996 120.324 208.406 120.557 207.856C120.797 207.305 121.124 206.822 121.539 206.407C121.96 205.992 122.446 205.668 122.997 205.435C123.555 205.195 124.148 205.075 124.776 205.075C125.412 205.075 126.005 205.195 126.556 205.435C127.106 205.668 127.589 205.992 128.004 206.407C128.425 206.822 128.753 207.305 128.986 207.856C129.226 208.406 129.346 208.996 129.346 209.625C129.346 210.254 129.226 210.844 128.986 211.394C128.753 211.945 128.425 212.428 128.004 212.843C127.589 213.258 127.106 213.585 126.556 213.825C126.005 214.058 125.412 214.175 124.776 214.175ZM124.776 213.125C125.418 213.125 125.998 212.969 126.517 212.658C127.035 212.341 127.444 211.916 127.742 211.385C128.046 210.853 128.199 210.267 128.199 209.625C128.199 208.977 128.046 208.39 127.742 207.865C127.444 207.334 127.035 206.912 126.517 206.601C125.998 206.284 125.418 206.125 124.776 206.125C124.135 206.125 123.555 206.284 123.036 206.601C122.524 206.912 122.116 207.334 121.811 207.865C121.506 208.39 121.354 208.977 121.354 209.625C121.354 210.267 121.506 210.853 121.811 211.385C122.116 211.916 122.524 212.341 123.036 212.658C123.555 212.969 124.135 213.125 124.776 213.125ZM140.012 214.292L133.887 207.729V214H132.837V204.958L138.962 211.521V205.25H140.012V214.292ZM143.092 214L146.796 204.958H146.816L150.52 214H149.344L148.313 211.404H145.251L144.21 214H143.092ZM145.62 210.481H147.944L147.253 208.75C147.169 208.53 147.088 208.312 147.01 208.099C146.932 207.885 146.855 207.629 146.777 207.331C146.699 207.629 146.625 207.885 146.553 208.099C146.482 208.306 146.401 208.523 146.31 208.75L145.62 210.481ZM153.601 214V205.25H154.71V213.008H157.743V214H153.601Z" fill="#383B53"/>
</svg>
