<svg width="128" height="128" viewBox="0 0 128 128" fill="none" xmlns="http://www.w3.org/2000/svg">
<path fill-rule="evenodd" clip-rule="evenodd" d="M24.832 14.2947C24.5896 14.2923 24.3491 14.3381 24.1245 14.4295C23.8999 14.5209 23.6958 14.656 23.5239 14.827C23.352 14.998 23.2159 15.2015 23.1234 15.4256C23.0309 15.6497 22.9839 15.89 22.9851 16.1324V94.4684H105.015V16.1324C105.017 15.8892 104.971 15.648 104.879 15.4228C104.787 15.1976 104.651 14.993 104.479 14.8211C104.307 14.6491 104.103 14.5131 103.878 14.4212C103.652 14.3292 103.411 14.2831 103.168 14.2856L24.832 14.2947ZM9.27086 16.1324C9.27086 7.53815 16.2377 0.571289 24.832 0.571289H103.168C111.762 0.571289 118.729 7.53815 118.729 16.1324V111.876C118.729 120.471 111.762 127.428 103.168 127.428H24.832C16.2377 127.428 9.27086 120.471 9.27086 111.876V16.1324ZM42.6789 41.9884C44.7909 38.9896 47.6983 36.073 50.3589 34.6284C51.1708 34.1126 52.1041 33.8194 53.0651 33.7781C53.4034 33.7873 53.824 33.8696 54.4274 34.4456V34.5096C54.4039 35.3553 54.2337 36.1906 53.9246 36.9781C52.9829 39.6936 51.1177 42.9393 48.8594 46.825L48.7406 47.0261C46.72 50.5187 44.2789 54.7062 43.1269 58.5187C42.3823 60.7654 42.1941 63.1593 42.5783 65.4947C43.1269 68.2924 44.7451 70.6604 47.2869 72.2604C52.992 75.8444 58.7429 73.3393 62.4183 70.8707C66.1577 68.3564 69.8789 64.5073 73.0423 61.2524L73.1429 61.1427C76.5989 57.577 79.4514 54.6513 81.984 52.905C82.6571 52.3879 83.4151 51.9919 84.224 51.7347L84.2514 51.7621L84.224 51.945C83.9497 53.225 83.1086 54.8342 81.6366 57.6136L81.408 58.0524C80.0914 60.5393 78.1349 64.2513 77.8057 68.1461C77.6229 70.2764 77.8971 72.5896 79.0309 74.857C80.1554 77.1061 81.9109 78.9256 84.096 80.3884C85.3569 81.2299 86.9004 81.5359 88.387 81.2393C89.8736 80.9426 91.1814 80.0676 92.0229 78.8067C92.8643 77.5458 93.1703 76.0023 92.8737 74.5157C92.5771 73.0291 91.7021 71.7213 90.4411 70.8799C89.5452 70.2764 89.3166 69.8742 89.2709 69.7736C89.2252 69.6913 89.1611 69.5359 89.1977 69.1062C89.2891 67.9084 90.0206 66.217 91.5109 63.3919L91.9223 62.6239C93.12 60.3747 94.8023 57.2479 95.4149 54.2307C95.8935 52.0837 95.7669 49.846 95.0491 47.7667C94.1603 45.4442 92.5438 43.4717 90.4411 42.1439C84.7726 38.3587 78.976 41.0924 75.4834 43.497C71.9817 45.9199 68.416 49.6044 65.3349 52.777L64.9417 53.1884C61.5131 56.7267 58.624 59.6524 56.0457 61.3804C55.3775 61.8537 54.6487 62.235 53.8789 62.5141L54.0617 61.8467C54.7657 59.497 56.4754 56.4707 58.7429 52.5667L59.008 52.1096C61.0194 48.6536 63.4057 44.5393 64.7314 40.6993C66.048 36.8593 67.0811 30.9439 62.5737 26.4364C60.1795 23.9512 56.9158 22.4898 53.4674 22.3587C50.2674 22.2399 47.3417 23.2639 44.9189 24.5804C40.1463 27.1587 36.032 31.593 33.344 35.3873C32.89 35.9985 32.5628 36.6944 32.3815 37.4339C32.2002 38.1734 32.1685 38.9416 32.2883 39.6936C32.4081 40.4455 32.677 41.1659 33.0791 41.8124C33.4812 42.459 34.0085 43.0186 34.63 43.4585C35.2514 43.8984 35.9546 44.2097 36.698 44.374C37.4415 44.5384 38.2103 44.5525 38.9592 44.4155C39.7082 44.2786 40.4223 43.9933 41.0595 43.5765C41.6967 43.1597 42.2441 42.6198 42.6697 41.9884H42.6789Z" fill="#383B53"/>
</svg>
