<?xml version="1.0" encoding="UTF-8"?>
<svg width="134px" height="199px" viewBox="0 0 134 199" version="1.1" xmlns="http://www.w3.org/2000/svg" xmlns:xlink="http://www.w3.org/1999/xlink">
    <!-- Generator: Sketch 49.1 (51147) - http://www.bohemiancoding.com/sketch -->
    <title>ＰＯＯＲＭＡＮ</title>
    <desc>Created with Sketch.</desc>
    <defs>
        <polygon id="path-1" points="0.153153846 0.134806154 65.8618889 0.134806154 65.8618889 10.1538462 0.153153846 10.1538462"></polygon>
        <polygon id="path-3" points="0 198 134 198 134 0 0 0"></polygon>
    </defs>
    <g id="财富中心" stroke="none" stroke-width="1" fill="none" fill-rule="evenodd">
        <g id="9.02_财富中心_总资产_无资产" transform="translate(-802.000000, -338.000000)">
            <g id="Group" transform="translate(743.000000, 317.000000)">
                <g id="ＰＯＯＲＭＡＮ" transform="translate(59.000000, 21.000000)">
                    <g id="Group-3" transform="translate(33.000000, 188.000000)">
                        <mask id="mask-2" fill="white">
                            <use xlink:href="#path-1"></use>
                        </mask>
                        <g id="Clip-2"></g>
                        <path d="M65.8618889,5.14434462 C65.8618889,7.91080615 51.1523504,10.1538831 33.0074274,10.1538831 C14.8625043,10.1538831 0.153153846,7.91080615 0.153153846,5.14434462 C0.153153846,2.37769846 14.8625043,0.134806154 33.0074274,0.134806154 C51.1523504,0.134806154 65.8618889,2.37769846 65.8618889,5.14434462" id="Fill-1" fill="#050101" mask="url(#mask-2)"></path>
                    </g>
                    <path d="M82.0014444,177 L82.0004444,177 C81.9994444,177.001 82.0004444,177.0035 82.0004444,177.0055 L82.0014444,177 Z" id="Fill-4" fill="#D8BA52"></path>
                    <path d="M82.392,178.106276 C82.487,177.738793 82.5025,177.369874 82.4445,177 L82,179 C82.18,178.706874 82.3155,178.409683 82.392,178.106276" id="Fill-6" fill="#FADE63"></path>
                    <mask id="mask-4" fill="white">
                        <use xlink:href="#path-3"></use>
                    </mask>
                    <g id="Clip-9"></g>
                    <polygon id="Fill-8" fill="#FEFEFE" mask="url(#mask-4)" points="33 155 101 155 101 87 33 87"></polygon>
                    <polygon id="Fill-10" fill="#1C1919" mask="url(#mask-4)" points="43 138 49.9229122 191 55 191 55 138"></polygon>
                    <polygon id="Fill-11" fill="#1C1919" mask="url(#mask-4)" points="41 193 56 193 56 190 41 190"></polygon>
                    <polygon id="Fill-12" fill="#1C1919" mask="url(#mask-4)" points="90 138 83.0769088 191 78 191 78 138"></polygon>
                    <polygon id="Fill-13" fill="#1C1919" mask="url(#mask-4)" points="78 193 93 193 93 190 78 190"></polygon>
                    <polygon id="Fill-14" fill="#F8DAB4" mask="url(#mask-4)" points="34 33 34 54.3135995 34 86 98 86 98 55.0351923 98 33"></polygon>
                    <polygon id="Fill-15" fill="#EEEEEE" mask="url(#mask-4)" points="72 91.8634034 72.8865431 106 92 87 72 87"></polygon>
                    <polygon id="Fill-16" fill="#EEEEEE" mask="url(#mask-4)" points="62 87 41 87 61.0754349 106 62 91.8634034"></polygon>
                    <polygon id="Fill-17" fill="#CA4E79" mask="url(#mask-4)" points="67 92 72 92 72 87 62 87 62 92"></polygon>
                    <polygon id="Fill-18" fill="#E95F8E" mask="url(#mask-4)" points="74 126.378674 71.9202418 91 66.4834243 91 61.0466069 91 59 126.497889 66.6039392 134"></polygon>
                    <polygon id="Fill-19" fill="#FEFEFE" mask="url(#mask-4)" points="67 87 52.3759492 97 43 87"></polygon>
                    <polygon id="Fill-20" fill="#FEFEFE" mask="url(#mask-4)" points="67 87 81.6247006 97 91 87"></polygon>
                    <path d="M49,67.9997982 C49,69.6565779 47.6572072,71 46.0001009,71 C44.3435997,71 43,69.6565779 43,67.9997982 C43,66.3428168 44.3435997,65 46.0001009,65 C47.6572072,65 49,66.3428168 49,67.9997982" id="Fill-21" fill="#5A4E41" mask="url(#mask-4)"></path>
                    <path d="M93,67.9997982 C93,69.6565779 91.6561985,71 90.0001009,71 C88.3435997,71 87,69.6565779 87,67.9997982 C87,66.3428168 88.3435997,65 90.0001009,65 C91.6561985,65 93,66.3428168 93,67.9997982" id="Fill-22" fill="#5A4E41" mask="url(#mask-4)"></path>
                    <polygon id="Fill-23" fill="#1C1919" mask="url(#mask-4)" points="33 153 101 153 101 137 33 137"></polygon>
                    <polygon id="Fill-24" fill="#5A4E41" mask="url(#mask-4)" points="34.6568666 54 21 27.5294825 59.622441 9.41162985 61.6167988 16.234995 87.4357136 0 78.8133844 16.9413515 96.0227008 8.94110532 87.4357136 20.4708551 96.0227008 19.2939741 90.947311 27.0002848 106 30.1173674 99.4079407 54 96.0227008 37.8823513 40.3074203 40.7058782"></polygon>
                    <path d="M95.1606193,88 L94,94.9733534 C103.47941,96.5366775 111.053043,99.0143807 116.510781,102.335731 C120.839417,104.97125 123.849654,108.158172 125.45668,111.807323 C129.872611,121.835262 122.651404,132.988254 122.577481,133.099295 L128.499963,137 C128.887154,136.418554 137.921494,122.606276 131.98545,109.026538 C127.310691,98.3327319 114.92171,91.2586048 95.1606193,88" id="Fill-25" fill="#FEFEFE" mask="url(#mask-4)"></path>
                    <path d="M132.201652,132.757703 C130.410917,129.3317 126.182202,128.006906 122.756557,129.798399 C119.331297,131.588927 118.007459,135.817801 119.798001,139.242839 C121.588736,142.667685 125.817451,143.993058 129.242903,142.201951 C132.667969,140.410844 133.99316,136.182356 132.201652,132.757703" id="Fill-26" fill="#F8DAB4" mask="url(#mask-4)"></path>
                    <path d="M100,138.36838 C100,138.36838 115.058036,133.203998 120.470458,134.105688 C124.907748,134.844685 100,149 100,149 L100,138.36838 Z" id="Fill-27" fill="#FEFEFE" mask="url(#mask-4)"></path>
                    <path d="M38.839383,88 L40,94.9733804 C30.5206093,96.5367106 22.9468003,99.0144235 17.4890735,102.335977 C13.1606369,104.971316 10.150406,108.158441 8.5433832,111.807225 C4.12765202,121.835393 11.3488443,132.988238 11.4225767,133.09928 L5.50010643,137 C5.11291574,136.418552 -3.92159729,122.60641 2.01462618,109.026429 C6.6893759,98.3325818 19.0783318,91.2584273 38.839383,88" id="Fill-28" fill="#FEFEFE" mask="url(#mask-4)"></path>
                    <path d="M1.7983427,133.757703 C3.5890787,130.3317 7.81779536,129.006906 11.243442,130.798399 C14.6687025,132.588927 15.9925419,136.817801 14.201999,140.242839 C12.411263,143.667685 8.18254631,144.993058 4.75728581,143.201951 C1.33202532,141.410844 0.00683433644,137.182356 1.7983427,133.757703" id="Fill-29" fill="#F8DAB4" mask="url(#mask-4)"></path>
                    <path d="M32,138.368353 C32,138.368353 16.9419908,133.204148 11.5295787,134.10565 C7.09211391,134.844648 32,149 32,149 L32,138.368353 Z" id="Fill-30" fill="#FEFEFE" mask="url(#mask-4)"></path>
                    <path d="M41.7033598,34 C41.7033598,34 38.0485378,45.5437825 39.2380814,49.0548324 C40.4278035,52.5660726 44.7336089,53.3765198 44.9870071,49.0548324 C45.2404052,44.7335256 41.7033598,34 41.7033598,34" id="Fill-31" fill="#FEFEFE" mask="url(#mask-4)"></path>
                </g>
            </g>
        </g>
    </g>
</svg>