<svg width="128" height="128" viewBox="0 0 128 128" fill="none" xmlns="http://www.w3.org/2000/svg">
<g clip-path="url(#clip0_57_253)">
<path fill-rule="evenodd" clip-rule="evenodd" d="M0 16.7499C0 9.38985 5.96114 3.42871 13.3211 3.42871H114.679C122.039 3.42871 128 9.38985 128 16.7499V86.1076C128 93.4676 122.039 99.4287 114.679 99.4287H77.8697L82.7611 113.097H91.4286C93.2472 113.097 94.9913 113.82 96.2773 115.106C97.5633 116.392 98.2857 118.136 98.2857 119.954C98.2857 121.773 97.5633 123.517 96.2773 124.803C94.9913 126.089 93.2472 126.812 91.4286 126.812H36.5714C34.7528 126.812 33.0087 126.089 31.7227 124.803C30.4367 123.517 29.7143 121.773 29.7143 119.954C29.7143 118.136 30.4367 116.392 31.7227 115.106C33.0087 113.82 34.7528 113.097 36.5714 113.097H45.2389L50.1303 99.4287H13.3211C9.78816 99.4287 6.39987 98.0252 3.90167 95.527C1.40347 93.0288 0 89.6405 0 86.1076L0 16.7499ZM50.56 32.8413C51.1972 33.4781 51.7027 34.2342 52.0476 35.0664C52.3925 35.8987 52.57 36.7907 52.57 37.6916C52.57 38.5924 52.3925 39.4845 52.0476 40.3167C51.7027 41.1489 51.1972 41.905 50.56 42.5419L41.6914 51.4104L50.56 60.279C51.7713 61.5789 52.4307 63.2982 52.3993 65.0746C52.368 66.8511 51.6483 68.546 50.392 69.8024C49.1356 71.0587 47.4407 71.7784 45.6642 71.8097C43.8877 71.8411 42.1685 71.1817 40.8686 69.9704L27.1543 56.2561C25.8702 54.9704 25.1489 53.2276 25.1489 51.4104C25.1489 49.5933 25.8702 47.8504 27.1543 46.5647L40.8686 32.8504C42.1543 31.5663 43.8971 30.845 45.7143 30.845C47.5314 30.845 49.2743 31.5572 50.56 32.8413ZM87.1314 32.8413C85.8376 31.5928 84.1051 30.9024 82.3072 30.9189C80.5093 30.9354 78.7897 31.6573 77.519 32.9293C76.2482 34.2013 75.5278 35.9215 75.5131 37.7194C75.4983 39.5174 76.1903 41.2492 77.44 42.5419L86.3086 51.4104L77.44 60.279C76.2288 61.5789 75.5693 63.2982 75.6007 65.0746C75.632 66.8511 76.3517 68.546 77.608 69.8024C78.8644 71.0587 80.5593 71.7784 82.3358 71.8097C84.1123 71.8411 85.8315 71.1817 87.1314 69.9704L100.846 56.2561C102.13 54.9704 102.851 53.2276 102.851 51.4104C102.851 49.5933 102.13 47.8504 100.846 46.5647L87.1314 32.8413Z" fill="#383B53"/>
</g>
<defs>
<clipPath id="clip0_57_253">
<rect width="128" height="128" fill="white"/>
</clipPath>
</defs>
</svg>
