<svg width="128" height="128" viewBox="0 0 128 128" fill="none" xmlns="http://www.w3.org/2000/svg">
<path d="M14.8571 9.14307C10.9168 9.14307 7.13781 10.7084 4.35156 13.4946C1.5653 16.2809 0 20.0599 0 24.0002V104C0 105.951 0.384291 107.883 1.13093 109.686C1.87757 111.488 2.97194 113.126 4.35156 114.506C5.73117 115.885 7.36901 116.98 9.17156 117.726C10.9741 118.473 12.9061 118.857 14.8571 118.857H113.143C115.094 118.857 117.026 118.473 118.828 117.726C120.631 116.98 122.269 115.885 123.648 114.506C125.028 113.126 126.122 111.488 126.869 109.686C127.616 107.883 128 105.951 128 104V24.0002C128 20.0599 126.435 16.2809 123.648 13.4946C120.862 10.7084 117.083 9.14307 113.143 9.14307H14.8571ZM73.1429 50.2859C73.1429 49.0735 73.6245 47.9107 74.4818 47.0534C75.3391 46.1961 76.5019 45.7145 77.7143 45.7145H105.143C106.355 45.7145 107.518 46.1961 108.375 47.0534C109.233 47.9107 109.714 49.0735 109.714 50.2859C109.714 51.4983 109.233 52.6611 108.375 53.5184C107.518 54.3757 106.355 54.8574 105.143 54.8574H77.7143C76.5019 54.8574 75.3391 54.3757 74.4818 53.5184C73.6245 52.6611 73.1429 51.4983 73.1429 50.2859ZM77.7143 68.5716H105.143C106.355 68.5716 107.518 69.0533 108.375 69.9106C109.233 70.7679 109.714 71.9307 109.714 73.1431C109.714 74.3555 109.233 75.5182 108.375 76.3756C107.518 77.2329 106.355 77.7145 105.143 77.7145H77.7143C76.5019 77.7145 75.3391 77.2329 74.4818 76.3756C73.6245 75.5182 73.1429 74.3555 73.1429 73.1431C73.1429 71.9307 73.6245 70.7679 74.4818 69.9106C75.3391 69.0533 76.5019 68.5716 77.7143 68.5716ZM50.2857 50.2859C50.2857 52.7108 49.3225 55.0363 47.6078 56.7509C45.8932 58.4655 43.5677 59.4288 41.1429 59.4288C38.718 59.4288 36.3925 58.4655 34.6779 56.7509C32.9633 55.0363 32 52.7108 32 50.2859C32 47.8611 32.9633 45.5356 34.6779 43.8209C36.3925 42.1063 38.718 41.1431 41.1429 41.1431C43.5677 41.1431 45.8932 42.1063 47.6078 43.8209C49.3225 45.5356 50.2857 47.8611 50.2857 50.2859ZM22.8571 70.8574C22.8571 69.0387 23.5796 67.2946 24.8656 66.0086C26.1515 64.7227 27.8957 64.0002 29.7143 64.0002H52.5714C54.3901 64.0002 56.1342 64.7227 57.4202 66.0086C58.7061 67.2946 59.4286 69.0387 59.4286 70.8574C59.4286 70.8574 59.4286 86.8574 41.1429 86.8574C22.8571 86.8574 22.8571 70.8574 22.8571 70.8574Z" fill="#383B53"/>
</svg>
