<svg width="40" height="40" viewBox="0 0 40 40" fill="none" xmlns="http://www.w3.org/2000/svg">
<path d="M35 2H5C3.34315 2 2 3.34315 2 5V35C2 36.6569 3.34315 38 5 38H35C36.6569 38 38 36.6569 38 35V5C38 3.34315 36.6569 2 35 2Z" stroke="black" stroke-width="4" stroke-linecap="round" stroke-linejoin="round"/>
<path d="M17 13H9V27H16.5M9 20H16.5M22 15V27V20.5C22 19.3065 22.4741 18.1619 23.318 17.318C24.1619 16.4741 25.3065 16 26.5 16C27.6935 16 28.8381 16.4741 29.682 17.318C30.5259 18.1619 31 19.3065 31 20.5V27" stroke="black" stroke-width="4" stroke-linecap="round" stroke-linejoin="round"/>
</svg>
