<svg width="507" height="172" viewBox="0 0 507 172" fill="none" xmlns="http://www.w3.org/2000/svg">
<path d="M245.097 53.4228V8.49751H260.371C263.965 8.49751 267.226 9.07988 270.155 10.2446C273.117 11.4093 275.662 13.0233 277.792 15.0865C279.955 17.1165 281.619 19.4959 282.784 22.2247C283.949 24.9535 284.531 27.8653 284.531 30.9601C284.531 34.055 283.949 36.9668 282.784 39.6956C281.619 42.4244 279.955 44.8204 277.792 46.8837C275.662 48.9136 273.117 50.511 270.155 51.6757C267.226 52.8404 263.965 53.4228 260.371 53.4228H245.097ZM253.782 45.3362H259.572C262.102 45.3362 264.331 44.9702 266.261 44.2381C268.191 43.4727 269.805 42.4411 271.103 41.1432C272.434 39.8121 273.433 38.2813 274.098 36.5508C274.797 34.8204 275.147 32.9568 275.147 30.9601C275.147 28.9635 274.797 27.0999 274.098 25.3694C273.433 23.6057 272.434 22.0749 271.103 20.7771C269.805 19.446 268.191 18.4143 266.261 17.6822C264.331 16.9501 262.102 16.5841 259.572 16.5841H253.782V45.3362Z" fill="#383B53"/>
<path d="M300.613 53.4228V8.49751H324.573V16.2846H309.298V23.1731H321.079V30.6606H309.298V45.3362H324.573V53.4228H300.613Z" fill="#383B53"/>
<path d="M352.217 54.4211C349.488 54.4211 346.893 53.922 344.43 52.9236C342.001 51.892 340.054 50.6607 338.59 49.2298L341.036 39.2464C342.2 41.2763 343.848 42.9735 345.977 44.3379C348.107 45.669 350.287 46.3346 352.517 46.3346C354.347 46.3346 355.778 45.8354 356.809 44.8371C357.874 43.8387 358.407 42.6241 358.407 41.1931C358.407 40.0284 358.124 39.0633 357.558 38.2979C357.026 37.5325 356.377 36.9003 355.611 36.4011C354.879 35.9019 354.23 35.5192 353.665 35.253L348.373 32.6074C346.843 31.842 345.378 30.9435 343.981 29.9119C342.583 28.847 341.435 27.5325 340.537 25.9685C339.671 24.4044 339.239 22.4743 339.239 20.1781C339.239 17.649 339.804 15.436 340.936 13.5391C342.101 11.6423 343.731 10.1614 345.828 9.09651C347.924 8.03162 350.387 7.49917 353.215 7.49917C355.878 7.49917 358.24 7.93179 360.304 8.79701C362.4 9.62896 364.097 10.5275 365.395 11.4925L363.099 21.2263C361.768 19.4959 360.171 18.1148 358.307 17.0832C356.477 16.0183 354.646 15.4859 352.816 15.4859C351.185 15.4859 349.921 15.9019 349.022 16.7338C348.157 17.5658 347.725 18.5974 347.725 19.8287C347.725 20.5941 347.891 21.2763 348.224 21.8753C348.59 22.4743 349.106 23.0067 349.771 23.4726C350.437 23.9385 351.219 24.4044 352.117 24.8703L357.458 27.5159C358.357 27.9485 359.339 28.5142 360.403 29.2131C361.468 29.8786 362.5 30.7272 363.498 31.7588C364.497 32.7904 365.312 34.0384 365.944 35.5026C366.577 36.9335 366.893 38.6474 366.893 40.644C366.893 43.2397 366.294 45.5858 365.096 47.6823C363.898 49.7456 362.2 51.3928 360.004 52.6241C357.841 53.8221 355.245 54.4211 352.217 54.4211Z" fill="#383B53"/>
<path d="M382.533 53.4228V8.49751H391.818V53.4228H382.533Z" fill="#383B53"/>
<path d="M432.467 54.3213C429.072 54.3213 425.894 53.7556 422.933 52.6241C420.004 51.4594 417.425 49.8288 415.195 47.7323C412.999 45.6357 411.285 43.1732 410.054 40.3445C408.823 37.5159 408.207 34.4211 408.207 31.06C408.207 27.6989 408.823 24.6041 410.054 21.7754C411.285 18.9135 412.999 16.4343 415.195 14.3378C417.425 12.208 419.987 10.5607 422.883 9.39602C425.811 8.19801 428.973 7.59901 432.367 7.59901C435.428 7.59901 438.29 8.08154 440.953 9.0466C443.615 10.0117 445.978 11.3761 448.041 13.1398L445.495 23.4227C444.23 21.3595 442.483 19.629 440.254 18.2313C438.057 16.8004 435.428 16.0849 432.367 16.0849C429.538 16.0849 427.009 16.7338 424.78 18.0317C422.55 19.3295 420.786 21.1099 419.488 23.3728C418.224 25.6357 417.591 28.1981 417.591 31.06C417.591 33.9884 418.224 36.5841 419.488 38.847C420.786 41.0767 422.55 42.8404 424.78 44.1382C427.009 45.4028 429.522 46.0351 432.317 46.0351C433.681 46.0351 434.946 45.902 436.111 45.6357C437.275 45.3695 438.324 44.9702 439.255 44.4377V35.7522H430.121V28.2646H447.442V50.0784C445.379 51.4095 443.066 52.4577 440.503 53.2231C437.974 53.9552 435.295 54.3213 432.467 54.3213Z" fill="#383B53"/>
<path d="M500.178 54.9203L473.223 28.015V53.4228H464.837V7L491.792 33.8553V8.49751H500.178V54.9203Z" fill="#383B53"/>
<path d="M256.627 126.302C253.899 126.302 251.303 125.802 248.84 124.804C246.411 123.772 244.464 122.541 243 121.11L245.446 111.127C246.611 113.157 248.258 114.854 250.388 116.218C252.518 117.549 254.697 118.215 256.927 118.215C258.757 118.215 260.188 117.716 261.22 116.718C262.285 115.719 262.817 114.505 262.817 113.074C262.817 111.909 262.534 110.944 261.968 110.178C261.436 109.413 260.787 108.781 260.022 108.282C259.29 107.782 258.641 107.4 258.075 107.133L252.784 104.488C251.253 103.722 249.789 102.824 248.391 101.792C246.993 100.727 245.845 99.4129 244.947 97.8489C244.082 96.2848 243.649 94.3547 243.649 92.0585C243.649 89.5294 244.215 87.3164 245.346 85.4196C246.511 83.5227 248.141 82.0419 250.238 80.977C252.334 79.9121 254.797 79.3796 257.626 79.3796C260.288 79.3796 262.651 79.8122 264.714 80.6775C266.81 81.5094 268.508 82.4079 269.805 83.373L267.509 93.1068C266.178 91.3763 264.581 89.9953 262.717 88.9637C260.887 87.8988 259.057 87.3663 257.226 87.3663C255.596 87.3663 254.331 87.7823 253.433 88.6143C252.567 89.4462 252.135 90.4778 252.135 91.7091C252.135 92.4745 252.301 93.1567 252.634 93.7557C253 94.3547 253.516 94.8872 254.181 95.353C254.847 95.8189 255.629 96.2848 256.527 96.7507L261.869 99.3963C262.767 99.8289 263.749 100.395 264.814 101.093C265.879 101.759 266.91 102.608 267.909 103.639C268.907 104.671 269.722 105.919 270.354 107.383C270.987 108.814 271.303 110.528 271.303 112.524C271.303 115.12 270.704 117.466 269.506 119.563C268.308 121.626 266.611 123.273 264.414 124.505C262.251 125.703 259.656 126.302 256.627 126.302Z" fill="#383B53"/>
<path d="M282.474 88.4645V80.378H313.722V88.4645H302.741V125.303H293.456V88.4645H282.474Z" fill="#383B53"/>
<path d="M344.419 126.351C341.258 126.351 338.446 125.703 335.983 124.405C333.521 123.107 331.574 121.26 330.143 118.864C328.745 116.435 328.046 113.539 328.046 110.178V80.378H337.331V109.729C337.331 112.158 337.996 114.089 339.328 115.519C340.692 116.95 342.439 117.666 344.569 117.666C346.665 117.666 348.396 116.984 349.76 115.619C351.125 114.222 351.807 112.358 351.807 110.029V80.378H360.792V110.029C360.792 113.423 360.093 116.351 358.695 118.814C357.298 121.243 355.368 123.107 352.905 124.405C350.476 125.703 347.647 126.351 344.419 126.351Z" fill="#383B53"/>
<path d="M377.811 125.303V80.378H393.086C396.68 80.378 399.941 80.9603 402.87 82.125C405.831 83.2898 408.377 84.9038 410.507 86.967C412.67 88.9969 414.334 91.3763 415.499 94.1051C416.663 96.8339 417.246 99.7457 417.246 102.841C417.246 105.935 416.663 108.847 415.499 111.576C414.334 114.305 412.67 116.701 410.507 118.764C408.377 120.794 405.831 122.391 402.87 123.556C399.941 124.721 396.68 125.303 393.086 125.303H377.811ZM386.497 117.217H392.287C394.816 117.217 397.046 116.851 398.976 116.118C400.906 115.353 402.52 114.321 403.818 113.024C405.149 111.693 406.148 110.162 406.813 108.431C407.512 106.701 407.861 104.837 407.861 102.841C407.861 100.844 407.512 98.9803 406.813 97.2499C406.148 95.4862 405.149 93.9554 403.818 92.6575C402.52 91.3264 400.906 90.2948 398.976 89.5627C397.046 88.8306 394.816 88.4645 392.287 88.4645H386.497V117.217Z" fill="#383B53"/>
<path d="M433.627 125.303V80.378H442.912V125.303H433.627Z" fill="#383B53"/>
<path d="M483.062 126.202C479.767 126.202 476.689 125.603 473.827 124.405C470.965 123.173 468.436 121.493 466.24 119.363C464.077 117.233 462.379 114.754 461.148 111.925C459.917 109.097 459.301 106.069 459.301 102.841C459.301 99.6126 459.917 96.5843 461.148 93.7557C462.379 90.9271 464.077 88.4479 466.24 86.3181C468.436 84.1883 470.965 82.5244 473.827 81.3264C476.689 80.0951 479.767 79.4794 483.062 79.4794C486.356 79.4794 489.434 80.0951 492.296 81.3264C495.158 82.5244 497.671 84.1883 499.834 86.3181C502.03 88.4479 503.744 90.9271 504.975 93.7557C506.206 96.5843 506.822 99.6126 506.822 102.841C506.822 106.069 506.206 109.097 504.975 111.925C503.744 114.754 502.03 117.233 499.834 119.363C497.671 121.493 495.158 123.173 492.296 124.405C489.434 125.603 486.356 126.202 483.062 126.202ZM483.062 117.516C485.757 117.516 488.186 116.867 490.35 115.569C492.513 114.238 494.226 112.458 495.491 110.228C496.789 107.999 497.438 105.536 497.438 102.841C497.438 100.112 496.789 97.6492 495.491 95.4529C494.226 93.2232 492.513 91.4595 490.35 90.1617C488.186 88.8306 485.757 88.165 483.062 88.165C480.366 88.165 477.92 88.8306 475.724 90.1617C473.561 91.4595 471.847 93.2232 470.582 95.4529C469.318 97.6492 468.686 100.112 468.686 102.841C468.686 105.536 469.318 107.999 470.582 110.228C471.847 112.458 473.561 114.238 475.724 115.569C477.92 116.867 480.366 117.516 483.062 117.516Z" fill="#383B53"/>
<path d="M243.083 165.235V142.287H248.608C250.078 142.287 251.317 142.516 252.325 142.975C253.349 143.434 254.175 144.037 254.802 144.785C255.43 145.516 255.884 146.315 256.165 147.182C256.462 148.049 256.611 148.899 256.611 149.732C256.611 150.548 256.471 151.389 256.19 152.256C255.909 153.123 255.455 153.931 254.827 154.679C254.199 155.427 253.374 156.03 252.349 156.489C251.325 156.948 250.078 157.178 248.608 157.178H245.907V165.235H243.083ZM245.907 154.577H248.459C249.797 154.577 250.854 154.339 251.631 153.863C252.407 153.37 252.961 152.758 253.291 152.027C253.621 151.279 253.786 150.514 253.786 149.732C253.786 148.984 253.621 148.236 253.291 147.488C252.977 146.74 252.432 146.12 251.656 145.627C250.896 145.134 249.83 144.887 248.459 144.887H245.907V154.577Z" fill="#383B53"/>
<path d="M265.278 165.235V142.287H270.878C272.282 142.287 273.488 142.576 274.496 143.153C275.503 143.731 276.28 144.496 276.825 145.448C277.386 146.383 277.667 147.412 277.667 148.534C277.667 149.792 277.32 150.922 276.627 151.925C275.933 152.928 274.983 153.667 273.777 154.143L281.26 165.235H277.965L270.878 154.679H268.103V165.235H265.278ZM268.103 152.231H270.878C271.836 152.231 272.613 152.052 273.207 151.695C273.818 151.321 274.264 150.854 274.545 150.293C274.843 149.715 274.991 149.129 274.991 148.534C274.991 147.463 274.611 146.587 273.851 145.907C273.108 145.227 272.117 144.887 270.878 144.887H268.103V152.231Z" fill="#383B53"/>
<path d="M298.102 165.694C296.5 165.694 294.989 165.388 293.568 164.776C292.164 164.147 290.925 163.289 289.851 162.201C288.794 161.113 287.96 159.846 287.349 158.401C286.754 156.957 286.457 155.41 286.457 153.761C286.457 152.112 286.754 150.565 287.349 149.12C287.96 147.675 288.794 146.409 289.851 145.321C290.925 144.233 292.164 143.383 293.568 142.771C294.989 142.142 296.5 141.828 298.102 141.828C299.721 141.828 301.232 142.142 302.637 142.771C304.041 143.383 305.271 144.233 306.328 145.321C307.402 146.409 308.236 147.675 308.831 149.12C309.442 150.565 309.748 152.112 309.748 153.761C309.748 155.41 309.442 156.957 308.831 158.401C308.236 159.846 307.402 161.113 306.328 162.201C305.271 163.289 304.041 164.147 302.637 164.776C301.232 165.388 299.721 165.694 298.102 165.694ZM298.102 162.94C299.738 162.94 301.216 162.532 302.537 161.716C303.859 160.883 304.9 159.77 305.659 158.376C306.436 156.982 306.824 155.444 306.824 153.761C306.824 152.061 306.436 150.522 305.659 149.146C304.9 147.752 303.859 146.647 302.537 145.831C301.216 144.998 299.738 144.581 298.102 144.581C296.467 144.581 294.989 144.998 293.667 145.831C292.362 146.647 291.321 147.752 290.545 149.146C289.769 150.522 289.38 152.061 289.38 153.761C289.38 155.444 289.769 156.982 290.545 158.376C291.321 159.77 292.362 160.883 293.667 161.716C294.989 162.532 296.467 162.94 298.102 162.94Z" fill="#383B53"/>
<path d="M318.646 165.235V142.287H329.647V144.887H321.47V149.783H328.904V152.384H321.47V165.235H318.646Z" fill="#383B53"/>
<path d="M337.805 165.235V142.287H348.807V144.887H340.63V149.783H347.072V152.384H340.63V162.634H348.807V165.235H337.805Z" fill="#383B53"/>
<path d="M362.504 165.541C361.182 165.541 359.985 165.269 358.911 164.725C357.854 164.181 357.011 163.518 356.384 162.736L357.201 159.217C357.664 160.169 358.358 161.028 359.283 161.793C360.208 162.558 361.315 162.94 362.603 162.94C363.776 162.94 364.742 162.558 365.502 161.793C366.278 161.028 366.666 160.084 366.666 158.962C366.666 158.146 366.477 157.475 366.097 156.948C365.717 156.421 365.287 156.005 364.808 155.699C364.329 155.393 363.949 155.172 363.668 155.036L360.943 153.608C360.513 153.37 359.977 153.038 359.332 152.613C358.705 152.188 358.151 151.602 357.672 150.854C357.193 150.106 356.954 149.137 356.954 147.947C356.954 146.791 357.21 145.763 357.722 144.862C358.25 143.961 358.977 143.255 359.902 142.746C360.844 142.236 361.917 141.981 363.123 141.981C364.313 141.981 365.362 142.202 366.27 142.644C367.179 143.069 367.889 143.51 368.401 143.969L367.583 147.488C367.17 146.774 366.559 146.103 365.75 145.474C364.94 144.845 364.024 144.53 362.999 144.53C362.008 144.53 361.215 144.836 360.621 145.448C360.026 146.043 359.729 146.783 359.729 147.667C359.729 148.347 359.877 148.908 360.175 149.35C360.489 149.792 360.835 150.14 361.215 150.395C361.612 150.65 361.934 150.845 362.182 150.981L364.957 152.409C365.287 152.579 365.7 152.817 366.196 153.123C366.708 153.429 367.212 153.837 367.707 154.347C368.203 154.84 368.616 155.452 368.946 156.183C369.276 156.897 369.442 157.764 369.442 158.784C369.442 160.093 369.136 161.257 368.525 162.277C367.93 163.297 367.112 164.096 366.072 164.674C365.031 165.252 363.842 165.541 362.504 165.541Z" fill="#383B53"/>
<path d="M383.127 165.541C381.806 165.541 380.608 165.269 379.534 164.725C378.477 164.181 377.635 163.518 377.007 162.736L377.825 159.217C378.287 160.169 378.981 161.028 379.906 161.793C380.831 162.558 381.938 162.94 383.226 162.94C384.399 162.94 385.365 162.558 386.125 161.793C386.902 161.028 387.29 160.084 387.29 158.962C387.29 158.146 387.1 157.475 386.72 156.948C386.34 156.421 385.91 156.005 385.431 155.699C384.952 155.393 384.572 155.172 384.292 155.036L381.566 153.608C381.137 153.37 380.6 153.038 379.956 152.613C379.328 152.188 378.774 151.602 378.295 150.854C377.816 150.106 377.577 149.137 377.577 147.947C377.577 146.791 377.833 145.763 378.345 144.862C378.874 143.961 379.6 143.255 380.525 142.746C381.467 142.236 382.541 141.981 383.747 141.981C384.936 141.981 385.985 142.202 386.893 142.644C387.802 143.069 388.512 143.51 389.024 143.969L388.206 147.488C387.794 146.774 387.182 146.103 386.373 145.474C385.564 144.845 384.647 144.53 383.623 144.53C382.632 144.53 381.839 144.836 381.244 145.448C380.649 146.043 380.352 146.783 380.352 147.667C380.352 148.347 380.501 148.908 380.798 149.35C381.112 149.792 381.459 150.14 381.839 150.395C382.235 150.65 382.557 150.845 382.805 150.981L385.58 152.409C385.91 152.579 386.323 152.817 386.819 153.123C387.331 153.429 387.835 153.837 388.33 154.347C388.826 154.84 389.239 155.452 389.569 156.183C389.9 156.897 390.065 157.764 390.065 158.784C390.065 160.093 389.759 161.257 389.148 162.277C388.553 163.297 387.736 164.096 386.695 164.674C385.654 165.252 384.465 165.541 383.127 165.541Z" fill="#383B53"/>
<path d="M399.241 165.235V142.287H402.065V165.235H399.241Z" fill="#383B53"/>
<path d="M422.887 165.694C421.285 165.694 419.773 165.388 418.353 164.776C416.948 164.147 415.71 163.289 414.636 162.201C413.579 161.113 412.745 159.846 412.133 158.401C411.539 156.957 411.241 155.41 411.241 153.761C411.241 152.112 411.539 150.565 412.133 149.12C412.745 147.675 413.579 146.409 414.636 145.321C415.71 144.233 416.948 143.383 418.353 142.771C419.773 142.142 421.285 141.828 422.887 141.828C424.506 141.828 426.017 142.142 427.421 142.771C428.825 143.383 430.056 144.233 431.113 145.321C432.187 146.409 433.021 147.675 433.616 149.12C434.227 150.565 434.532 152.112 434.532 153.761C434.532 155.41 434.227 156.957 433.616 158.401C433.021 159.846 432.187 161.113 431.113 162.201C430.056 163.289 428.825 164.147 427.421 164.776C426.017 165.388 424.506 165.694 422.887 165.694ZM422.887 162.94C424.522 162.94 426.001 162.532 427.322 161.716C428.644 160.883 429.684 159.77 430.444 158.376C431.22 156.982 431.609 155.444 431.609 153.761C431.609 152.061 431.22 150.522 430.444 149.146C429.684 147.752 428.644 146.647 427.322 145.831C426.001 144.998 424.522 144.581 422.887 144.581C421.252 144.581 419.773 144.998 418.452 145.831C417.147 146.647 416.106 147.752 415.33 149.146C414.553 150.522 414.165 152.061 414.165 153.761C414.165 155.444 414.553 156.982 415.33 158.376C416.106 159.77 417.147 160.883 418.452 161.716C419.773 162.532 421.252 162.94 422.887 162.94Z" fill="#383B53"/>
<path d="M461.716 166L446.106 148.789V165.235H443.43V141.522L459.04 158.733V142.287H461.716V166Z" fill="#383B53"/>
<path d="M469.566 165.235L479.006 141.522H479.056L488.496 165.235H485.498L482.871 158.427H475.066L472.415 165.235H469.566ZM476.008 156.005H481.93L480.171 151.466C479.956 150.888 479.749 150.319 479.551 149.758C479.353 149.197 479.155 148.525 478.956 147.743C478.758 148.525 478.568 149.197 478.387 149.758C478.205 150.302 477.998 150.871 477.767 151.466L476.008 156.005Z" fill="#383B53"/>
<path d="M496.349 165.235V142.287H499.174V162.634H506.905V165.235H496.349Z" fill="#383B53"/>
<circle cx="180" cy="160" r="12" fill="#A50104"/>
<path fill-rule="evenodd" clip-rule="evenodd" d="M98.3167 155C108.191 159.133 118.811 161.2 130.178 161.2C137.802 161.2 145.091 160.27 152.044 158.41C152.869 143.686 165.07 132 180 132C183.993 132 187.791 132.836 191.228 134.342C197.298 127.758 202.15 120.292 205.783 111.944C210.031 102.185 212.156 91.737 212.156 80.6C212.156 69.463 210.031 59.0148 205.783 49.2555C201.535 39.4963 195.622 30.9426 188.044 23.5944C180.581 16.2463 171.913 10.5055 162.039 6.37222C152.165 2.12407 141.544 0 130.178 0C118.811 0 108.191 2.12407 98.3167 6.37222C92.1655 8.94711 86.46 12.1458 81.2 15.9683V0.599997H48.65V71.8672C48.35 74.7295 48.2 77.6404 48.2 80.6C48.2 83.5596 48.35 86.4705 48.65 89.3328V108.575C48.65 117.092 46.7833 123.158 43.05 126.775C39.4333 130.392 34.8833 132.2 29.4 132.2C24.85 132.2 20.7667 131.15 17.15 129.05C13.5333 126.95 10.5583 124.15 8.225 120.65L0 150.05C3.96667 154.017 8.86667 156.933 14.7 158.8C20.65 160.667 26.6583 161.6 32.725 161.6C41.125 161.6 49 159.85 56.35 156.35C63.8167 152.733 69.825 147.192 74.375 139.725L74.3852 139.708C81.4269 146.068 89.4041 151.166 98.3167 155ZM81.2 88.9735C82.1305 95.0631 84.1046 100.768 87.1222 106.089C91.4852 113.781 97.3981 119.924 104.861 124.517C112.439 128.994 120.878 131.233 130.178 131.233C139.478 131.233 147.859 128.994 155.322 124.517C162.785 119.924 168.698 113.781 173.061 106.089C177.539 98.3963 179.778 89.9 179.778 80.6C179.778 71.1852 177.539 62.6889 173.061 55.1111C168.698 47.4185 162.785 41.3333 155.322 36.8556C147.859 32.263 139.478 29.9667 130.178 29.9667C120.878 29.9667 112.439 32.263 104.861 36.8556C97.3981 41.3333 91.4852 47.4185 87.1222 55.1111C84.1046 60.3523 82.1305 66.033 81.2 72.153V88.9735Z" fill="#383B53"/>
</svg>
