<svg width="32" height="28" viewBox="0 0 32 28" fill="none" xmlns="http://www.w3.org/2000/svg">
<g clip-path="url(#clip0_20_697)">
<path d="M23 0H9C7.35 0 6 1.1595 6 2.57666V24.9077C6 26.3249 7.35 27.4844 9 27.4844H23C24.65 27.4844 26 26.3249 26 24.9077V2.57666C26 1.1595 24.65 0 23 0ZM12 1.28833H20V2.14722H12V1.28833ZM16 25.7666C15.4696 25.7666 14.9609 25.5856 14.5858 25.2635C14.2107 24.9413 14 24.5044 14 24.0488C14 23.5932 14.2107 23.1563 14.5858 22.8342C14.9609 22.512 15.4696 22.3311 16 22.3311C16.5304 22.3311 17.0391 22.512 17.4142 22.8342C17.7893 23.1563 18 23.5932 18 24.0488C18 24.5044 17.7893 24.9413 17.4142 25.2635C17.0391 25.5856 16.5304 25.7666 16 25.7666ZM24 20.6133H8V3.43555H24V20.6133Z" fill="#383B53"/>
</g>
<defs>
<clipPath id="clip0_20_697">
<rect width="32" height="27.4844" fill="white"/>
</clipPath>
</defs>
</svg>
