<svg width="128" height="128" viewBox="0 0 128 128" fill="none" xmlns="http://www.w3.org/2000/svg">
<g clip-path="url(#clip0_57_237)">
<path d="M42.3111 73.9556H25.4578C23.7401 67.4297 23.7401 60.5703 25.4578 54.0444H42.3111C41.88 57.3462 41.6426 60.6704 41.6 64C41.6426 67.3296 41.88 70.6538 42.3111 73.9556ZM29.5822 44.0889H44.0889C45.7445 37.9453 48.0819 32.0062 51.0578 26.3822C41.9865 29.4805 34.3529 35.7745 29.5822 44.0889ZM98.4178 44.0889C93.6047 35.7824 85.9529 29.4943 76.8711 26.3822C79.8814 31.9822 82.1978 37.9283 83.7689 44.0889M64 103.609C68.2256 97.6044 71.4441 90.9512 73.5289 83.9111H54.4711C56.5559 90.9512 59.7744 97.6044 64 103.609ZM64 24.32C59.7675 30.3462 56.5487 37.0239 54.4711 44.0889H73.5289C71.4513 37.0239 68.2326 30.3462 64 24.32ZM29.5822 83.9111C34.3779 92.2044 42.0025 98.4909 51.0578 101.618C48.0819 95.9938 45.7445 90.0547 44.0889 83.9111M128 14.2222V113.778C128 117.55 126.502 121.167 123.834 123.834C121.167 126.502 117.55 128 113.778 128H14.2222C10.4503 128 6.83278 126.502 4.16559 123.834C1.49841 121.167 0 117.55 0 113.778V14.2222C0 10.4503 1.49841 6.83278 4.16559 4.16559C6.83278 1.49841 10.4503 0 14.2222 0H113.778C117.55 0 121.167 1.49841 123.834 4.16559C126.502 6.83278 128 10.4503 128 14.2222ZM113.778 64C113.778 54.1549 110.858 44.5309 105.389 36.345C99.9191 28.159 92.1448 21.7789 83.0491 18.0113C73.9534 14.2438 63.9448 13.258 54.2888 15.1787C44.6329 17.0994 35.7633 21.8402 28.8018 28.8018C21.8402 35.7633 17.0994 44.6329 15.1787 54.2888C13.258 63.9448 14.2438 73.9534 18.0113 83.0491C21.7789 92.1448 28.159 99.9191 36.345 105.389C44.5309 110.858 54.1549 113.778 64 113.778C77.2019 113.778 89.8631 108.533 99.1982 99.1982C108.533 89.8631 113.778 77.2019 113.778 64ZM86.4 64C86.3574 67.3296 86.12 70.6538 85.6889 73.9556H102.542C104.26 67.4297 104.26 60.5703 102.542 54.0444H85.6889C86.12 57.3462 86.3574 60.6704 86.4 64ZM76.8711 101.618C85.9465 98.4944 93.5948 92.2092 98.4178 83.9111H83.7689C82.1978 90.0717 79.8814 96.0178 76.8711 101.618ZM52.3378 54.0444C51.2751 60.639 51.2751 67.3611 52.3378 73.9556H75.6622C76.1559 70.6595 76.4173 67.3327 76.4444 64C76.4173 60.6673 76.1559 57.3405 75.6622 54.0444H52.3378Z" fill="#383B53"/>
</g>
<defs>
<clipPath id="clip0_57_237">
<rect width="128" height="128" fill="white"/>
</clipPath>
</defs>
</svg>
