<svg width="20" height="20" viewBox="0 0 20 20" fill="none" xmlns="http://www.w3.org/2000/svg">
<path fill-rule="evenodd" clip-rule="evenodd" d="M3.27267 3.37979C4.75551 2.15646 7.00196 0.916656 9.99996 0.916656C15.0454 0.916656 19.0833 4.985 19.0833 9.99999C19.0833 10.4142 18.7475 10.75 18.3333 10.75C17.9191 10.75 17.5833 10.4142 17.5833 9.99999C17.5833 5.81023 14.2138 2.41666 9.99996 2.41666C7.4424 2.41666 5.52219 3.46852 4.22725 4.53685C3.82506 4.86866 3.48526 5.20055 3.20825 5.49999H4.58329C4.99751 5.49999 5.33329 5.83578 5.33329 6.24999C5.33329 6.6642 4.99751 6.99999 4.58329 6.99999H1.66663C1.25241 6.99999 0.916626 6.6642 0.916626 6.24999V3.33332C0.916626 2.91911 1.25241 2.58332 1.66663 2.58332C2.08084 2.58332 2.41663 2.91911 2.41663 3.33332V4.15915C2.66754 3.90747 2.95285 3.64365 3.27267 3.37979ZM2.30718 6.64011C2.30706 6.64031 2.30711 6.64023 2.30732 6.63988L2.30718 6.64011ZM1.66663 9.24999C2.08084 9.24999 2.41663 9.58578 2.41663 9.99999C2.41663 14.1881 5.8118 17.5833 9.99996 17.5833C12.0454 17.5833 13.75 16.5633 14.9799 15.4791C15.3621 15.1421 15.6918 14.8046 15.9644 14.5H14.5833C14.1691 14.5 13.8333 14.1642 13.8333 13.75C13.8333 13.3358 14.1691 13 14.5833 13H17.5C17.9142 13 18.25 13.3358 18.25 13.75V16.6667C18.25 17.0809 17.9142 17.4167 17.5 17.4167C17.0857 17.4167 16.75 17.0809 16.75 16.6667V15.8584C16.518 16.0996 16.2582 16.3518 15.9718 16.6042C14.6023 17.8117 12.5569 19.0833 9.99996 19.0833C4.98337 19.0833 0.916626 15.0166 0.916626 9.99999C0.916626 9.58578 1.25241 9.24999 1.66663 9.24999Z" fill="#D0925D"/>
</svg>
