<?xml version="1.0" encoding="utf-8"?>
<!-- Generator: Adobe Illustrator 21.1.0, SVG Export Plug-In . SVG Version: 6.00 Build 0)  -->
<svg version="1.1" id="圖層_1" xmlns="http://www.w3.org/2000/svg" xmlns:xlink="http://www.w3.org/1999/xlink" x="0px" y="0px"
	 viewBox="0 0 1000 1000" style="enable-background:new 0 0 1000 1000;" xml:space="preserve">
<g>
	<path d="M255.3,653.8c-9.1,0-15.8,0-23.8,0c-0.8,4.8-2.1,8.9-2.1,13c-0.2,80.6-0.2,161.1-0.3,241.7c0,22.1-8.3,39.5-29.7,47.7
		c-20,7.7-40.3,4.1-52-13c-8-11.7-10.7-29.2-10.8-44.1c-0.7-153.2-0.3-306.5-0.3-459.7c0-7.9,1-16-0.8-23.5
		c-1.1-4.6-6.6-8.1-10.1-12.1c-3.1,4.2-7.6,8-8.9,12.7c-1.6,5.7-0.5,12.2-0.5,18.3c0,59.5,0.2,119.1-0.1,178.6
		c-0.2,27.8-14.4,44.1-37.5,44.5c-22.9,0.4-39.6-18.2-39.6-45.4c-0.2-79.7-0.5-159.4,0-239c0.4-63.1,44.7-107.2,107.4-107.5
		c64.8-0.3,129.6-0.4,194.4,0c60.2,0.4,105.1,42.9,106.1,103.2c1.4,81.3,0.6,162.6,0.3,243.9c-0.1,25.6-16.9,44.4-38.3,44.8
		c-23.2,0.4-39-17.5-39.2-45.8c-0.3-61.3,0.2-122.6-0.5-183.9c-0.1-8.1-5.4-16.2-8.3-24.3c-4,8.2-11.4,16.3-11.4,24.5
		c-0.7,157.6-0.1,315.2-0.9,472.8c-0.1,14.6-2.8,35-12.3,42.4c-12.4,9.7-34,14.8-49.5,11.7c-22.5-4.5-31.5-25.4-31.5-48.7
		c0-74.4,0-148.9-0.1-223.3C255.3,673.9,255.3,664.4,255.3,653.8z M246.4,381.3c-2.6-0.2-5.2-0.3-7.8-0.5
		c-12,40.7-28.7,80.9-33.7,122.4c-2.1,17.3,20.6,37.7,32.6,56.3c1.1,1.7,6.8,1.4,9.8,0.5c13.1-4.1,40-49.1,36-62.4
		C271.5,458.7,258.8,420.1,246.4,381.3z M284.8,313.5c-29.5,0-53.5,0-84.7,0c17,19.8,29.4,34.3,43.7,51.1
		C258.9,345.8,270.6,331.3,284.8,313.5z"/>
	<path d="M679.2,680.4c50.2-18.7,96.1-43.2,134.5-82.3c90.6-92.2,105-243.3,37.1-353.7c-90.5-147-289-177.2-417.1-82.7
		c-22.1,16.3-39.8,14.1-51.9-4.4c-13.6-20.8-5-35.8,12.6-49.1c120.2-90.8,293.7-90.6,416.6-1.8c95.3,68.9,145.7,162.7,150.1,277.8
		c5.7,149.8-76.4,280.6-218.2,343.1c-4.6,2-10.2,1.6-15.4,2.3C711.3,713.2,695.3,696.8,679.2,680.4z"/>
	<path d="M500,502.2c-0.3-13.8-2.3-27.8-0.2-41.2c0.9-6,11.4-16,15-15c6.8,1.9,15.9,9.8,16.9,16.3c5.1,32.5,14.6,43.3,51.4,47.6
		c0-26.6,1.1-52.8-0.7-78.8c-0.5-6.8-8.5-16.2-15.3-18.8c-53.4-20.7-71.9-44-70.5-91.5c1.5-47.8,27.7-79.5,78.2-96.3
		c6.1-2,10.3-9.3,15.6-13.8c5.2-4.4,10.9-12.1,16-11.8c6.9,0.4,13.5,6.9,19.9,11.2c7,4.7,13,12.8,20.4,14.3
		c50.1,10.3,66,38.7,45.2,85.4c-2.3,5.2-13.3,11.1-17.9,9.5c-6.2-2.1-14.4-11.2-14.2-17.1c0.8-22.3-8.1-34.9-34.9-39.6
		c-1.1,26.1-2.6,51.7-2.6,77.3c0,3.4,7.6,8.5,12.5,10c56.4,17.4,75.7,38.6,76.3,85.2c0.7,55.2-25.2,93.4-75.2,110.4
		c-5.7,2-11.5,3.9-18.6,6.2c-0.6,7.5,0,15.6-2,22.9c-2.1,7.6-6.7,14.5-10.1,21.7c-7.7-4.6-22.2-9.5-22-13.8
		c1.2-28.1-16.9-33.9-38.1-38c-2.3-0.4-4.2-3.1-6.2-4.7C525.9,527.4,513,514.8,500,502.2z M632.8,506c22.9-11.6,30.5-28.5,27.8-50.1
		c-1.9-15.2-7.9-28-27.8-28.6C632.8,453.4,632.8,478.3,632.8,506z M573.3,337.8c3.3-0.7,6.5-1.5,9.8-2.2c0-22.2,0-44.5,0-66.7
		c-11.3,7.9-22,19.3-22.7,31.3C559.6,312.5,568.6,325.3,573.3,337.8z"/>
	<path d="M243.2,40.7c54.9,0.3,102.5,47,102.9,100.9c0.4,57.4-47.2,104.7-104.8,104.2c-54.8-0.5-101.6-47.5-101.7-102.1
		C139.5,87.6,187.1,40.4,243.2,40.7z"/>
	<path d="M679.2,680.4c16.1,16.4,32.1,32.8,48.2,49.2c-70.7,32.6-143.5,31.3-217.2,12.6c-10.1-2.6-20-6.2-30-9.3
		c-21.9-6.7-28-22.2-23.1-42.8c4.9-20.4,20.3-25.1,38.5-21.4c17.9,3.7,35.4,12.5,53.2,13.1C592.2,683.2,635.8,681.1,679.2,680.4z"/>
	<path d="M500,502.2c12.9,12.6,25.8,25.2,38.7,37.8c-14.4-4.3-29.2-7.6-42.7-13.8C494.1,525.2,498.6,510.5,500,502.2z"/>
</g>
</svg>
