<svg width="78" height="78" viewBox="0 0 78 78" fill="none" xmlns="http://www.w3.org/2000/svg">
<path d="M45.3182 38.9675C45.3182 38.1064 44.6128 37.4076 43.7438 37.4076C42.8747 37.4076 42.1693 38.1064 42.1693 38.9675C42.1693 39.8287 42.8747 40.5275 43.7438 40.5275C44.6128 40.5275 45.3182 39.8287 45.3182 38.9675ZM59.488 28.2822C60.3571 28.2822 61.0624 27.5833 61.0624 26.7222C61.0624 25.8611 60.3571 25.1622 59.488 25.1622C58.6189 25.1622 57.9136 25.8611 57.9136 26.7222C57.9136 27.5833 58.6189 28.2822 59.488 28.2822ZM62.2338 59.9564C58.4048 61.2593 53.7218 61.4216 48.2982 60.4456C53.019 51.3602 61.138 40.0982 74.6075 31.9663C75.1667 38.2512 75.4262 55.4686 62.2338 59.9564ZM46.4467 57.0611C45.7615 53.2572 45.5247 47.3316 48.8953 42.1375C52.5026 36.5739 59.3998 33.0396 69.4257 31.5819C58.2184 39.2596 50.9987 48.8292 46.4467 57.0611ZM40.935 69.4512V24.4059C46.5122 24.2811 51.9106 23.4849 56.8102 22.1171C57.0445 22.6886 57.6062 23.093 58.2687 23.093C59.1378 23.093 59.8432 22.3941 59.8432 21.533C59.8432 21.4132 59.8255 21.2984 59.8004 21.186C62.8787 20.1277 65.7151 18.8323 68.2065 17.3098C69.8414 19.4388 71.2521 21.7676 72.3907 24.2686C72.9348 25.4667 73.4084 26.7022 73.819 27.9552C60.2185 29.0035 50.9458 33.1993 46.2477 40.4452C40.8216 48.8143 43.3231 58.4438 44.2602 61.3092C42.7815 64.4093 41.7033 67.1923 40.935 69.4462V69.4512ZM40.935 3.2473C46.7994 4.15584 52.2608 10.0764 55.596 19.2267C51.0718 20.4547 46.0915 21.1686 40.935 21.2884V3.2473ZM66.1711 14.8936C63.9216 16.2265 61.3748 17.3722 58.6113 18.3107C56.5432 12.5624 53.7193 7.9872 50.4168 4.84723C56.4601 6.77414 61.9013 10.2436 66.1711 14.8936ZM37.7861 21.2884C32.6094 21.1686 27.6217 20.4547 23.0949 19.2217C26.3168 10.286 31.6547 4.15334 37.7861 3.2473V21.2859V21.2884ZM37.7861 37.4425H19.8755C20.004 31.9513 20.805 26.7771 22.1351 22.1919C26.9718 23.5198 32.287 24.2861 37.7887 24.4109V37.445L37.7861 37.4425ZM37.7861 53.3171C32.2643 53.4419 26.9188 54.2131 22.0621 55.5535C20.7773 51.0307 20.0015 45.9514 19.8755 40.56H37.7861V53.3146V53.3171ZM37.7861 74.7552C31.5993 73.8417 26.2185 67.5992 23.0067 58.5262C27.5562 57.2782 32.5817 56.5594 37.7861 56.4371V74.7552ZM12.3939 62.9167C14.656 61.5588 17.228 60.3932 20.0241 59.4372C20.8882 61.8684 21.9059 64.1522 23.0798 66.2364C24.6517 69.0269 26.4276 71.3531 28.3547 73.1827C22.1402 71.2134 16.6511 67.6241 12.3964 62.9167H12.3939ZM10.3786 60.4906C6.13395 54.887 3.51159 48.0155 3.18663 40.5625H16.7241C16.8501 46.171 17.6562 51.5723 19.0694 56.472C15.8702 57.5603 12.9405 58.9081 10.3761 60.4906H10.3786ZM10.5272 17.3247C13.0765 18.8822 15.9785 20.2126 19.1399 21.2809C17.6814 26.2479 16.8526 31.7366 16.7241 37.44H3.18915C3.51663 29.9021 6.19945 22.9632 10.5297 17.3247H10.5272ZM28.3547 4.81978C26.4276 6.64934 24.6517 8.97562 23.0798 11.7661C21.9462 13.7804 20.9587 15.9794 20.1148 18.3156C17.3539 17.3772 14.8096 16.2315 12.5601 14.8986C16.7922 10.281 22.2233 6.76416 28.3572 4.81978H28.3547ZM77.4414 29.1208C77.4364 29.0959 77.4263 29.0734 77.4213 29.0484C77.4162 29.026 77.4162 29.006 77.4112 28.9836C76.8646 26.9368 76.1391 24.9201 75.2624 22.9907C68.9093 9.02554 54.8176 0 39.3631 0C17.6562 0 0 17.4945 0 39C0 60.5055 17.6562 78 39.3606 78C47.5173 78 55.3416 75.5489 61.9894 70.9138C62.6998 70.4171 62.8711 69.4437 62.3698 68.7398C61.8685 68.036 60.8861 67.8662 60.1757 68.3629C54.9612 71.9996 48.9557 74.1686 42.6454 74.7277C43.1543 72.7958 44.4088 68.5951 46.8649 63.3485C49.6963 63.9101 52.3615 64.1896 54.8529 64.1896C57.9312 64.1896 60.74 63.7603 63.2565 62.9042C81.9355 56.5494 77.6329 30.2365 77.4389 29.1183L77.4414 29.1208ZM64.9216 64.9784C64.0526 64.9784 63.3472 65.6772 63.3472 66.5384C63.3472 67.3995 64.0526 68.0984 64.9216 68.0984C65.7907 68.0984 66.4961 67.3995 66.4961 66.5384C66.4961 65.6772 65.7907 64.9784 64.9216 64.9784ZM68.3451 61.5464C67.476 61.5464 66.7706 62.2452 66.7706 63.1064C66.7706 63.9675 67.476 64.6664 68.3451 64.6664C69.2141 64.6664 69.9195 63.9675 69.9195 63.1064C69.9195 62.2452 69.2141 61.5464 68.3451 61.5464Z" fill="#51B960"/>
</svg>
