<svg width="78" height="78" viewBox="0 0 78 78" fill="none" xmlns="http://www.w3.org/2000/svg">
<path d="M35.1539 59.8242H46.8552C48.4709 59.811 50.746 58.8862 51.4185 56.5111C52.7321 55.8595 54.9809 54.0178 56.7621 52.4703C56.791 52.444 57.4715 51.845 57.9706 52.2864C58.3306 52.6069 57.5529 53.6605 57.5398 53.6762C57.524 53.6973 55.8531 55.7387 53.8276 57.6514C50.076 61.193 44.5328 63.4394 38.9974 63.6627C34.0084 63.8545 25.507 59.9687 23.4499 58.2504C22.6119 57.5489 21.7186 57.2704 20.9857 57.1732V47.0948C23.6706 47.2367 27.0097 47.5125 27.853 47.8226C28.3863 48.017 30.0362 49.0075 31.489 49.8797C34.8649 51.9054 37.182 53.2559 38.5718 53.5475C40.818 54.0204 45.9252 53.6237 46.4427 53.579C46.6713 53.5711 47.6801 53.6316 48.174 54.1045C48.3132 54.2359 48.4971 54.4802 48.4971 55.0451C48.4971 56.4402 47.4384 56.6819 46.8394 56.7029H35.1539C34.2921 56.7029 33.5933 57.4018 33.5933 58.2635C33.5933 59.1253 34.2921 59.8242 35.1539 59.8242ZM38.9974 74.8787C28.4415 74.8787 18.6816 70.2152 12.0139 62.6275H19.4251C20.2868 62.6275 20.9857 61.9287 20.9857 61.0669V60.3654C21.1407 60.4258 21.2983 60.5125 21.4507 60.6413C23.7731 62.5829 32.4978 66.7892 38.6191 66.7892C38.7898 66.7892 38.958 66.7866 39.1235 66.7787C45.4838 66.5238 51.6261 64.0226 55.9714 59.9188C58.1493 57.8616 59.8858 55.7334 59.9489 55.6572C61.2808 54.0572 61.8798 51.5928 60.0487 49.9586C58.0074 48.1378 55.6482 49.2807 54.7025 50.1267C53.536 51.1409 52.1489 52.2654 51.1637 52.9905C50.9561 52.5649 50.6803 52.1813 50.3335 51.8502C48.8124 50.3947 46.5557 50.4525 46.2483 50.4656C44.8112 50.5839 40.7471 50.8177 39.2154 50.4945C38.2329 50.287 35.1407 48.4321 33.0942 47.2051C32.3139 46.7375 31.644 46.3355 31.066 46.0018L39.93 38.4561L51.5473 48.5004C51.8415 48.7553 52.204 48.8814 52.5666 48.8814C53.0027 48.8814 53.4388 48.7001 53.7462 48.3428C54.311 47.6912 54.2375 46.7059 53.5859 46.1437L41.5221 35.7132V30.4612C41.5221 30.4297 41.5221 30.3981 41.5194 30.3666C41.5194 30.3561 41.5116 30.209 41.5089 29.9567C41.5089 29.8858 41.5089 29.807 41.5089 29.7229C41.5221 27.8733 41.8767 22.4426 45.3629 19.1217C47.441 17.1407 50.3598 16.2211 54.043 16.384C53.9038 19.3791 52.719 26.4755 44.7456 28.157C43.9023 28.3357 43.3637 29.1633 43.5397 30.004C43.7184 30.8474 44.5459 31.386 45.3866 31.21C55.5142 29.074 57.5083 19.5578 57.1483 14.8234C57.0905 14.0746 56.5099 13.4729 55.7638 13.3915C50.4622 12.8082 46.2378 13.9774 43.2087 16.8648C41.7007 18.3019 40.663 20.0097 39.9458 21.7227C39.2286 20.0097 38.1935 18.3019 36.6855 16.8648C33.6564 13.9774 29.4319 12.8082 24.1303 13.3915C23.3842 13.4729 22.801 14.0746 22.7458 14.8234C22.3859 19.5578 24.3826 29.074 34.5076 31.21C35.3509 31.386 36.1784 30.8474 36.3545 30.004C36.5331 29.1607 35.9919 28.3331 35.1486 28.157C27.1752 26.4755 25.9904 19.3791 25.8511 16.384C29.5318 16.2237 32.44 17.138 34.5181 19.1112C38.7373 23.1178 38.3774 30.2983 38.3721 30.3666C38.3721 30.3981 38.3695 30.4297 38.3695 30.4612V35.6843L28.3049 44.252C28.1683 44.3676 28.0632 44.5069 27.9765 44.654C26.0902 44.2757 22.8036 44.0681 20.9751 43.9735V42.5127C20.9751 41.651 20.2763 40.9521 19.4146 40.9521H8.76154C7.93924 40.9521 7.27457 41.5879 7.21415 42.3945H3.27343C3.16834 41.27 3.11317 40.135 3.11317 39.0053C3.12105 19.2163 19.215 3.12126 38.9974 3.12126C58.7798 3.12126 74.8737 19.2162 74.8737 39C74.8737 58.7838 58.7798 74.8787 38.9974 74.8787ZM38.9974 0C17.4942 0 0 17.4954 0 39C0 40.7235 0.112967 42.4602 0.338902 44.1601C0.341529 44.1811 0.349411 44.1995 0.352038 44.2205C0.359919 44.2625 0.370428 44.3019 0.380936 44.3414C0.396699 44.407 0.415089 44.4701 0.438734 44.5305C0.449242 44.5568 0.462378 44.5804 0.472886 44.6067C0.504412 44.675 0.541192 44.7433 0.583227 44.8064C0.593735 44.8221 0.604244 44.8353 0.614752 44.8484C0.664668 44.9194 0.717211 44.9824 0.775008 45.0428C0.78289 45.0507 0.790771 45.0586 0.798653 45.0665C0.861704 45.1295 0.93001 45.1847 1.0062 45.2373C1.01408 45.2425 1.01933 45.2452 1.02721 45.2504C1.10603 45.3003 1.18747 45.345 1.27154 45.3844C1.27679 45.3844 1.28205 45.387 1.2873 45.3897C1.37663 45.4264 1.4712 45.4553 1.56841 45.4764C1.56841 45.4764 1.57366 45.4764 1.57629 45.4764C1.67612 45.4974 1.77858 45.5079 1.88366 45.5079C1.88366 45.5079 1.88366 45.5079 1.88629 45.5079H7.21152V51.5139C7.21152 52.3757 7.91034 53.0746 8.77204 53.0746C9.63375 53.0746 10.3326 52.3757 10.3326 51.5139V44.0655H17.8672V59.5089H9.5707C7.29559 56.2563 5.53277 52.5964 4.42937 48.6239C4.19818 47.7937 3.33648 47.3076 2.50893 47.5388C1.67875 47.77 1.19272 48.6291 1.42391 49.4594C6.08973 66.2637 21.5426 78 39.0026 78C60.5058 78 78 60.5046 78 39C78 17.4954 60.5006 0 38.9974 0ZM15.7445 51.5008C15.7445 50.639 15.0457 49.9402 14.184 49.9402C13.3223 49.9402 12.6234 50.639 12.6234 51.5008C12.6234 52.3626 13.3223 53.0614 14.184 53.0614C15.0457 53.0614 15.7445 52.3626 15.7445 51.5008Z" fill="#51B960"/>
</svg>
