<?xml version="1.0" standalone="no"?><!DOCTYPE svg PUBLIC "-//W3C//DTD SVG 1.1//EN" "http://www.w3.org/Graphics/SVG/1.1/DTD/svg11.dtd" ><svg xmlns="http://www.w3.org/2000/svg"><metadata></metadata><defs><font id="1.001;UKWN;GLYPHICONSHalflings-Regular" horiz-adv-x="1450"><font-face font-family="GLYPHICONS Halflings" font-weight="400" font-stretch="normal" units-per-em="1200" panose-1="0 0 5 0 0 0 0 0 0 0" ascent="1304" descent="-124" x-height="0" bbox="-198 -116 1501 1304" underline-thickness="50" underline-position="-75" unicode-range="U+0000-0855" /><missing-glyph horiz-adv-x="440" d="M40 0 l0 800 l320 0 l0 -800 l-320 0 ZM80 40 l240 0 l0 720 l-240 0 l0 -720 Z" /><glyph glyph-name=".null" unicode="" d="" /><glyph glyph-name="nonmarkingreturn" unicode="" d="" /><glyph glyph-name="space" unicode=" " d="" /><glyph glyph-name="asterisk" unicode="*" d="M359 700 l-183 183 l141 141 l183 -183 l0 259 l200 0 l0 -259 l183 183 l141 -141 l-183 -183 l259 0 l0 -200 l-259 0 l183 -183 l-141 -141 l-183 183 l0 -259 l-200 0 l0 259 l-183 -183 l-141 141 l183 183 l-259 0 l0 200 l259 0 Z" /><glyph glyph-name="plus" unicode="+" d="M400 700 l0 400 l300 0 l0 -400 l400 0 l0 -300 l-400 0 l0 -400 l-300 0 l0 400 l-400 0 l0 300 l400 0 Z" /><glyph glyph-name="nonbreakingspace" unicode=" ê" d="" /><glyph glyph-name="uni2000" unicode="&#x2000;" d="" /><glyph glyph-name="uni2001" unicode="&#x2001;" d="" /><glyph glyph-name="uni2002" unicode="&#x2002;" d="" /><glyph glyph-name="uni2003" unicode="&#x2003;" d="" /><glyph glyph-name="uni2004" unicode="&#x2004;" d="" /><glyph glyph-name="uni2005" unicode="&#x2005;" d="" /><glyph glyph-name="uni2006" unicode="&#x2006;" d="" /><glyph glyph-name="uni2007" unicode="&#x2007;" d="" /><glyph glyph-name="uni2008" unicode="&#x2008;" d="" /><glyph glyph-name="uni2009" unicode="&#x2009;" d="" /><glyph glyph-name="uni200A" unicode="&#x200a;" d="" /><glyph glyph-name="uni202F" unicode="&#x202f;" d="" /><glyph glyph-name="uni205F" unicode="&#x205f;" d="" /><glyph glyph-name="Ucircumflex" unicode="û&#x20ac;" d="M317 703 q12 120 45 205.5 q33 85.5 69 131.5 q119 158 324 158 q167 0 274 -117 q97 -106 128 -278 l-174 0 q0 53 -25.5 96.5 q-25.5 43.5 -63.5 67.5 q-38 24 -75 37 q-37 13 -66 13 q-21 0 -46.5 -7.5 q-25.5 -7.5 -59 -29 q-33.5 -21.5 -62 -54.5 q-28.5 -33 -52.5 -91 q-24 -58 -33 -132 l300 0 l100 -100 l-406 0 q0 -54 6 -100 l300 0 l100 -100 l-379 0 q19 -62 50.5 -107 q31.5 -45 65.5 -67 q34 -22 62.5 -32 q28.5 -10 52.5 -10 q30 0 67 12.5 q37 12.5 75 36.5 q38 24 63.5 68 q25.5 44 25.5 99 l181 0 q-6 -106 -66 -209 q-112 -189 -354 -189 q-180 0 -297 141 q-75 90 -112 257 l-135 0 l-100 100 l218 0 q-5 53 -5 100 l-113 0 l-100 100 l217 0 Z" /><glyph glyph-name="minus" unicode="&#x2212;" d="M200 400 l900 0 l0 300 l-900 0 l0 -300 Z" /><glyph glyph-name="uni25FC" unicode="&#x25fc;" d="M0 0 l0 0 Z" /><glyph glyph-name="uni2601" unicode="&#x2601;" d="M-14 895 q0 -69 42.5 -122.5 q42.5 -53.5 108.5 -67.5 q-2 -12 -2 -37 q0 -153 108 -260.5 q108 -107.5 260 -107.5 q110 0 200.5 59.5 q90.5 59.5 134.5 156.5 q44 -14 90 -14 q120 0 205 86 q85 86 85 207 q0 121 -85 207.5 q-85 86.5 -205 86.5 l-750 0 q-79 0 -135.5 -57 q-56.5 -57 -56.5 -137 Z" /><glyph glyph-name="uni2709" unicode="&#x2709;" d="M1200 1100 l-400 -400 l-200 200 l-200 -200 l-400 400 l1200 0 ZM300 600 l-300 -300 l0 600 l300 -300 ZM1200 100 l-600 603 l-600 -603 l1200 0 ZM1200 900 l0 -600 l-300 300 l300 300 Z" /><glyph glyph-name="uni270F" unicode="&#x270f;" d="M97 878 l223 223 l-333 112 l110 -335 ZM801 183 l214 214 l-614 614 l-214 -214 l614 -614 ZM981 0 q15 -13 33 -13 q18 0 33 13 l153 153 q13 14 13 33.5 q0 19.5 -13 32.5 l-99 92 l-214 -214 l94 -97 Z" /><glyph glyph-name="uniE001" unicode="&#xe001;" d="M500 550 l0 550 l-300 0 l0 100 l800 0 l0 -100 l-300 0 l0 -550 l500 -550 l-1200 0 l500 550 Z" /><glyph glyph-name="uniE002" unicode="&#xe002;" d="M39.5 1003.52 q43.5 -57 122.5 -82 q74 -24 138 -7 l0 -689 q0 -10 7 -19.5 q7 -9.5 17 -12.5 l752 -193 q10 -3 17 2.5 q7 5.5 7 15.5 l0 881 q0 55 -41.5 95.5 q-41.5 40.5 -111.5 63.5 q-79 25 -147 4.5 q-68 -20.5 -86 -75.5 q-18 -54 25.5 -111 q43.5 -57 122.5 -83 q74 -23 138 -7 l0 -521 l-600 155 l0 606 q0 42 -44 90 q-44 48 -109 69 q-79 26 -147 5.5 q-68 -20.5 -86 -75.5 q-18 -55 25.5 -112 Z" /><glyph glyph-name="uniE003" unicode="&#xe003;" d="M165 806 q142 142 342 142 q142 0 261 -78 l300 300 q8 7 18 7 q10 0 18 -7 l109 -109 q7 -8 7 -18 q0 -10 -7 -18 l-300 -300 q78 -119 78 -261 q0 -200 -142 -342 q-142 -142 -342 -142 q-200 0 -342 142 q-142 142 -142 342 q0 200 142 342 ZM273 231 q97 -97 234 -97 q137 0 233.5 96.5 q96.5 96.5 96.5 233.5 q0 137 -96.5 233.5 q-96.5 96.5 -233.5 96.5 q-137 0 -234 -97 q-97 -97 -97 -233 q0 -136 97 -233 Z" /><glyph glyph-name="uniE005" unicode="&#xe005;" d="M100 396.16 q0 57 33.5 117.5 q33.5 60.5 94 124.5 q60.5 64 126.5 127.5 q66 63.5 149.5 152.5 q83.5 89 145.5 174 q62 -85 146 -174 q84 -89 150 -152.5 q66 -63.5 126.5 -127.5 q60.5 -64 94 -124.5 q33.5 -60.5 33.5 -117.5 q0 -64 -27 -123 q-27 -59 -71 -100.5 q-44 -41.5 -102.5 -64 q-58.5 -22.5 -118.5 -20.5 q-60 2 -121.5 38 q-61.5 36 -109.5 105 q-44 -68 -104.5 -104.5 q-60.5 -36.5 -120 -38.5 q-59.5 -2 -119 20.5 q-59.5 22.5 -104.5 64 q-45 41.5 -73 100.5 q-28 59 -28 123 Z" /><glyph glyph-name="uniE006" unicode="&#xe006;" d="M316 751 l-146 447 l382 -275 l384 275 l-145 -449 l382 -278 l-472 0 l-146 -400 l-2 0 l-146 400 l-479 0 l388 280 ZM170 1199 l-2 1 l2 -1 Z" /><glyph glyph-name="uniE007" unicode="&#xe007;" d="M316 751 l-146 447 l382 -275 l384 275 l-145 -449 l382 -278 l-472 0 l-146 -400 l-2 0 l-146 400 l-479 0 l388 280 ZM170 1199 l-2 1 l2 -1 ZM476 571 l78 -211 l77 211 l235 0 l-193 140 l74 229 l-195 -141 l-192 140 l73 -226 l-196 -142 l239 0 Z" /><glyph glyph-name="uniE0088" unicode="&#xe0088;" d="M1200 1200 l0 -143 l-400 -257 l0 -100 q37 0 68.5 -74.5 q31.5 -74.5 31.5 -125.5 l0 -200 q0 -124 -88 -212 q-88 -88 -212 -88 q-124 0 -212 88 q-88 88 -88 212 l0 200 q0 51 31.5 125.5 q31.5 74.5 68.5 74.5 l0 100 l-400 257 l0 143 l1200 0 Z" /><glyph glyph-name="uniE009" unicode="&#xe009;" d="M1200 1100 l0 -1100 l-1200 0 l0 1100 l1200 0 ZM100 900 l100 0 l0 100 l-100 0 l0 -100 ZM100 700 l100 0 l0 100 l-100 0 l0 -100 ZM100 500 l100 0 l0 100 l-100 0 l0 -100 ZM100 300 l100 0 l0 100 l-100 0 l0 -100 ZM100 100 l100 0 l0 100 l-100 0 l0 -100 ZM300 600 l600 0 l0 400 l-600 0 l0 -400 ZM300 100 l600 0 l0 400 l-600 0 l0 -400 ZM1000 900 l100 0 l0 100 l-100 0 l0 -100 ZM1000 700 l100 0 l0 100 l-100 0 l0 -100 ZM1000 500 l100 0 l0 100 l-100 0 l0 -100 ZM1000 300 l100 0 l0 100 l-100 0 l0 -100 ZM1000 100 l100 0 l0 100 l-100 0 l0 -100 Z" /><glyph glyph-name="uniE010" unicode="&#xe010;" d="M0 1050 q0 21 14.5 35.5 q14.5 14.5 35.5 14.5 l400 0 q21 0 35.5 -14.5 q14.5 -14.5 14.5 -35.5 l0 -400 q0 -21 -14.5 -35.5 q-14.5 -14.5 -35.5 -14.5 l-400 0 q-21 0 -35.5 14.5 q-14.5 14.5 -14.5 35.5 l0 400 ZM0 450 q0 21 14.5 35.5 q14.5 14.5 35.5 14.5 l400 0 q21 0 35.5 -14.5 q14.5 -14.5 14.5 -35.5 l0 -400 q0 -21 -14.5 -35.5 q-14.5 -14.5 -35.5 -14.5 l-400 0 q-21 0 -35.5 14.5 q-14.5 14.5 -14.5 35.5 l0 400 ZM600 1050 q0 21 14.5 35.5 q14.5 14.5 35.5 14.5 l400 0 q21 0 35.5 -14.5 q14.5 -14.5 14.5 -35.5 l0 -400 q0 -21 -14.5 -35.5 q-14.5 -14.5 -35.5 -14.5 l-400 0 q-21 0 -35.5 14.5 q-14.5 14.5 -14.5 35.5 l0 400 ZM600 450 q0 21 14.5 35.5 q14.5 14.5 35.5 14.5 l400 0 q21 0 35.5 -14.5 q14.5 -14.5 14.5 -35.5 l0 -400 q0 -21 -14.5 -35.5 q-14.5 -14.5 -35.5 -14.5 l-400 0 q-21 0 -35.5 14.5 q-14.5 14.5 -14.5 35.5 l0 400 Z" /><glyph glyph-name="uniE011" unicode="&#xe011;" d="M0 1050 q0 21 14.5 35.5 q14.5 14.5 35.5 14.5 l200 0 q21 0 35.5 -14.5 q14.5 -14.5 14.5 -35.5 l0 -200 q0 -21 -14.5 -35.5 q-14.5 -14.5 -35.5 -14.5 l-200 0 q-21 0 -35.5 14.5 q-14.5 14.5 -14.5 35.5 l0 200 ZM0 650 q0 21 14.5 35.5 q14.5 14.5 35.5 14.5 l200 0 q21 0 35.5 -14.5 q14.5 -14.5 14.5 -35.5 l0 -200 q0 -21 -14.5 -35.5 q-14.5 -14.5 -35.5 -14.5 l-200 0 q-21 0 -35.5 14.5 q-14.5 14.5 -14.5 35.5 l0 200 ZM0 250 q0 21 14.5 35.5 q14.5 14.5 35.5 14.5 l200 0 q21 0 35.5 -14.5 q14.5 -14.5 14.5 -35.5 l0 -200 q0 -21 -14.5 -35.5 q-14.5 -14.5 -35.5 -14.5 l-200 0 q-21 0 -35.5 14.5 q-14.5 14.5 -14.5 35.5 l0 200 ZM400 1050 q0 21 14.5 35.5 q14.5 14.5 35.5 14.5 l200 0 q21 0 35.5 -14.5 q14.5 -14.5 14.5 -35.5 l0 -200 q0 -21 -14.5 -35.5 q-14.5 -14.5 -35.5 -14.5 l-200 0 q-21 0 -35.5 14.5 q-14.5 14.5 -14.5 35.5 l0 200 ZM400 650 q0 21 14.5 35.5 q14.5 14.5 35.5 14.5 l200 0 q21 0 35.5 -14.5 q14.5 -14.5 14.5 -35.5 l0 -200 q0 -21 -14.5 -35.5 q-14.5 -14.5 -35.5 -14.5 l-200 0 q-21 0 -35.5 14.5 q-14.5 14.5 -14.5 35.5 l0 200 ZM400 250 q0 21 14.5 35.5 q14.5 14.5 35.5 14.5 l200 0 q21 0 35.5 -14.5 q14.5 -14.5 14.5 -35.5 l0 -200 q0 -21 -14.5 -35.5 q-14.5 -14.5 -35.5 -14.5 l-200 0 q-21 0 -35.5 14.5 q-14.5 14.5 -14.5 35.5 l0 200 ZM800 1050 q0 21 14.5 35.5 q14.5 14.5 35.5 14.5 l200 0 q21 0 35.5 -14.5 q14.5 -14.5 14.5 -35.5 l0 -200 q0 -21 -14.5 -35.5 q-14.5 -14.5 -35.5 -14.5 l-200 0 q-21 0 -35.5 14.5 q-14.5 14.5 -14.5 35.5 l0 200 ZM800 650 q0 21 14.5 35.5 q14.5 14.5 35.5 14.5 l200 0 q21 0 35.5 -14.5 q14.5 -14.5 14.5 -35.5 l0 -200 q0 -21 -14.5 -35.5 q-14.5 -14.5 -35.5 -14.5 l-200 0 q-21 0 -35.5 14.5 q-14.5 14.5 -14.5 35.5 l0 200 ZM800 250 q0 21 14.5 35.5 q14.5 14.5 35.5 14.5 l200 0 q21 0 35.5 -14.5 q14.5 -14.5 14.5 -35.5 l0 -200 q0 -21 -14.5 -35.5 q-14.5 -14.5 -35.5 -14.5 l-200 0 q-21 0 -35.5 14.5 q-14.5 14.5 -14.5 35.5 l0 200 Z" /><glyph glyph-name="uniE012" unicode="&#xe012;" d="M0 1050 q0 21 14.5 35.5 q14.5 14.5 35.5 14.5 l200 0 q21 0 35.5 -14.5 q14.5 -14.5 14.5 -35.5 l0 -200 q0 -21 -14.5 -35.5 q-14.5 -14.5 -35.5 -14.5 l-200 0 q-21 0 -35.5 14.5 q-14.5 14.5 -14.5 35.5 l0 200 ZM0 450 q0 -21 14.5 -35.5 q14.5 -14.5 35.5 -14.5 l200 0 q21 0 35.5 14.5 q14.5 14.5 14.5 35.5 l0 200 q0 21 -14.5 35.5 q-14.5 14.5 -35.5 14.5 l-200 0 q-21 0 -35.5 -14.5 q-14.5 -14.5 -14.5 -35.5 l0 -200 ZM0 250 q0 21 14.5 35.5 q14.5 14.5 35.5 14.5 l200 0 q21 0 35.5 -14.5 q14.5 -14.5 14.5 -35.5 l0 -200 q0 -21 -14.5 -35.5 q-14.5 -14.5 -35.5 -14.5 l-200 0 q-21 0 -35.5 14.5 q-14.5 14.5 -14.5 35.5 l0 200 ZM400 1050 q0 21 14.5 35.5 q14.5 14.5 35.5 14.5 l700 0 q21 0 35.5 -14.5 q14.5 -14.5 14.5 -35.5 l0 -200 q0 -21 -14.5 -35.5 q-14.5 -14.5 -35.5 -14.5 l-700 0 q-21 0 -35.5 14.5 q-14.5 14.5 -14.5 35.5 l0 200 ZM400 650 q0 21 14.5 35.5 q14.5 14.5 35.5 14.5 l700 0 q21 0 35.5 -14.5 q14.5 -14.5 14.5 -35.5 l0 -200 q0 -21 -14.5 -35.5 q-14.5 -14.5 -35.5 -14.5 l-700 0 q-21 0 -35.5 14.5 q-14.5 14.5 -14.5 35.5 l0 200 ZM400 250 q0 21 14.5 35.5 q14.5 14.5 35.5 14.5 l700 0 q21 0 35.5 -14.5 q14.5 -14.5 14.5 -35.5 l0 -200 q0 -21 -14.5 -35.5 q-14.5 -14.5 -35.5 -14.5 l-700 0 q-21 0 -35.5 14.5 q-14.5 14.5 -14.5 35.5 l0 200 Z" /><glyph glyph-name="uniE013" unicode="&#xe013;" d="M241 434 l206 207 l607 -607 l212 212 l-818 820 l-419 -420 l212 -212 Z" /><glyph glyph-name="uniE014" unicode="&#xe014;" d="M318 1094 l282 -282 l282 282 l212 -212 l-282 -282 l282 -282 l-212 -212 l-282 282 l-282 -282 l-212 212 l282 282 l-282 282 l212 212 Z" /><glyph glyph-name="uniE015" unicode="&#xe015;" d="M165 806 q142 142 342 142 q142 0 261 -78 l300 300 q8 7 18 7 q10 0 18 -7 l109 -109 q7 -8 7 -18 q0 -10 -7 -18 l-300 -300 q78 -119 78 -261 q0 -200 -142 -342 q-142 -142 -342 -142 q-200 0 -342 142 q-142 142 -142 342 q0 200 142 342 ZM273 231 q97 -97 234 -97 q137 0 233.5 96.5 q96.5 96.5 96.5 233.5 q0 137 -96.5 233.5 q-96.5 96.5 -233.5 96.5 q-137 0 -234 -97 q-97 -97 -97 -233 q0 -136 97 -233 ZM400 557 l0 100 l200 0 l0 -100 l100 0 l0 -200 l-100 0 l0 -100 l-200 0 l0 100 l-100 0 l0 200 l100 0 Z" /><glyph glyph-name="uniE016" unicode="&#xe016;" d="M165 806 q142 142 342 142 q142 0 261 -78 l300 300 q8 8 18 8 q10 0 18 -8 l109 -109 q7 -7 7 -18 q0 -11 -7 -18 l-300 -299 q78 -121 78 -262 q0 -200 -142 -342 q-142 -142 -342 -142 q-200 0 -342 142 q-142 142 -142 342 q0 200 142 342 ZM273 231 q97 -97 234 -97 q137 0 233.5 97 q96.5 97 96.5 233 q0 136 -96.5 233 q-96.5 97 -233.5 97 q-137 0 -234 -97 q-97 -97 -97 -233 q0 -136 97 -233 ZM300 357 l400 0 l0 200 l-400 0 l0 -200 Z" /><glyph glyph-name="uniE017" unicode="&#xe017;" d="M23 623 q0 118 45.5 224.5 q45.5 106.5 123 184 q77.5 77.5 184 123 q106.5 45.5 224.5 45.5 q118 0 224.5 -45.5 q106.5 -45.5 184 -123 q77.5 -77.5 123 -184 q45.5 -106.5 45.5 -224.5 q0 -183 -105 -331 q-105 -148 -272 -210 l0 166 q103 55 165 155 q62 100 62 220 q0 177 -125 302 q-125 125 -302 125 q-177 0 -302 -125 q-125 -125 -125 -302 q0 -120 62 -220 q62 -100 165 -155 l0 -166 q-167 62 -272 210 q-105 148 -105 331 ZM500 73 q0 -21 14.5 -35.5 q14.5 -14.5 35.5 -14.5 l100 0 q21 0 35.5 14.5 q14.5 14.5 14.5 35.5 l0 400 q0 21 -14.5 35.5 q-14.5 14.5 -35.5 14.5 l-100 0 q-21 0 -35.5 -14.5 q-14.5 -14.5 -14.5 -35.5 l0 -400 Z" /><glyph glyph-name="uniE018" unicode="&#xe018;" d="M100 901 l200 0 l0 300 l-200 0 l0 -300 ZM600 1201 l0 -500 l-200 0 l0 500 l200 0 ZM900 1201 l0 -800 l-200 0 l0 800 l200 0 ZM1200 1201 l0 -1200 l-200 0 l0 1200 l200 0 Z" /><glyph glyph-name="uniE019" unicode="&#xe019;" d="M26 600 q0 -25 6 -73 l151 -38 l2 -6 q13 -46 38 -93 l3 -5 l-80 -134 q46 -58 105 -105 l133 81 l5 -3 q44 -25 94 -39 l5 -1 l38 -152 q47 -5 74 -5 q34 0 74 5 l38 152 l6 1 q48 14 93 39 l5 3 l134 -81 q60 47 104 105 l-80 134 l3 5 q23 42 39 93 l1 6 l152 38 q5 45 5 73 q0 34 -5 74 l-152 38 l-1 6 q-15 49 -39 93 l-3 5 l80 134 q-48 61 -104 105 l-134 -81 l-5 3 q-47 26 -93 39 l-6 2 l-38 151 q-47 5 -74 5 q-34 0 -74 -5 l-38 -151 l-5 -2 q-49 -13 -94 -39 l-5 -3 l-133 81 q-60 -46 -105 -105 l80 -134 l-3 -5 q-24 -44 -38 -93 l-2 -6 l-151 -38 q-6 -41 -6 -74 ZM385 600 q0 89 63 152 q63 63 152 63 q89 0 152 -63 q63 -63 63 -152 q0 -88 -63 -151 q-63 -63 -152 -63 q-89 0 -152 63 q-63 63 -63 151 Z" /><glyph glyph-name="uniE020" unicode="&#xe020;" d="M100 274 q0 11 7 18 q7 7 18 7 l1050 0 q11 0 18 -7 q7 -7 7 -18 l0 -50 q0 -10 -7.5 -17.5 q-7.5 -7.5 -17.5 -7.5 l-275 0 l0 -100 q0 -41 -29.5 -70.5 q-29.5 -29.5 -70.5 -29.5 l-300 0 q-41 0 -70.5 29.5 q-29.5 29.5 -29.5 70.5 l0 100 l-275 0 q-10 0 -17.5 7.5 q-7.5 7.5 -7.5 17.5 l0 50 ZM200 1199 q0 41 29.5 71 q29.5 30 70.5 30 l700 0 q41 0 70.5 -30 q29.5 -30 29.5 -71 l0 -800 l-900 0 l0 800 ZM300 499 l100 0 l0 700 l-100 0 l0 -700 ZM500 499 l100 0 l0 700 l-100 0 l0 -700 ZM500 99 l300 0 l0 100 l-300 0 l0 -100 ZM700 499 l100 0 l0 700 l-100 0 l0 -700 ZM900 499 l100 0 l0 700 l-100 0 l0 -700 Z" /><glyph glyph-name="uniE021" unicode="&#xe021;" d="M201 645 l0 600 l300 0 l0 -400 l300 0 l0 400 l300 0 l0 -600 l200 0 l-644 -644 l-656 644 l200 0 Z" /><glyph glyph-name="uniE022" unicode="&#xe022;" d="M100 1175 q0 11 7 18 q7 7 18 7 l850 0 q11 0 18 -7 q7 -7 7 -18 l0 -675 l-400 0 l0 -500 l-475 0 q-11 0 -18 7 q-7 7 -7 18 l0 1150 ZM1000 400 l-300 -300 l0 300 l300 0 Z" /><glyph glyph-name="uniE023" unicode="&#xe023;" d="M84 899 q80 137 217 217 q137 80 299 80 q162 0 299 -80 q137 -80 217 -217 q80 -137 80 -299 q0 -162 -80 -299 q-80 -137 -217 -217 q-137 -80 -299 -80 q-162 0 -299 80 q-137 80 -217 217 q-80 137 -80 299 q0 162 80 299 ZM307.5 307.5 q121.5 -121.5 292.5 -121.5 q171 0 292.5 121.5 q121.5 121.5 121.5 292.5 q0 171 -121.5 292.5 q-121.5 121.5 -292.5 121.5 q-171 0 -292.5 -121.5 q-121.5 -121.5 -121.5 -292.5 q0 -171 121.5 -292.5 ZM800 700 l0 -100 l-200 0 l0 -300 l-100 0 l0 400 l300 0 Z" /><glyph glyph-name="uniE024" unicode="&#xe024;" d="M439 1200 l40 -400 l242 0 l41 400 l538 0 l-431 -1200 l-208 0 l20 300 l-162 0 l21 -300 l-209 0 l-431 1200 l539 0 ZM515 400 l170 0 l27 300 l-224 0 l27 -300 Z" /><glyph glyph-name="uniE025" unicode="&#xe025;" d="M1100 1200 l0 -400 l-490 0 l290 -300 l-200 0 l0 -500 l-300 0 l0 500 l-200 0 l290 300 l-490 0 l0 400 l1100 0 ZM813 900 l175 0 l0 100 l-175 0 l0 -100 Z" /><glyph glyph-name="uniE026" unicode="&#xe026;" d="M48.5 833 q47.5 111 127.5 191 q80 80 191 127.5 q111 47.5 233 47.5 q122 0 233 -47.5 q111 -47.5 191 -127.5 q80 -80 127.5 -191 q47.5 -111 47.5 -233 q0 -122 -47.5 -233 q-47.5 -111 -127.5 -191 q-80 -80 -191 -127.5 q-111 -47.5 -233 -47.5 q-122 0 -233 47.5 q-111 47.5 -191 127.5 q-80 80 -127.5 191 q-47.5 111 -47.5 233 q0 122 47.5 233 ZM309 309 q121 -121 291 -121 q170 0 291 121 q121 121 121 291 q0 170 -121 291 q-121 121 -291 121 q-170 0 -291 -121 q-121 -121 -121 -291 q0 -170 121 -291 ZM600 900 l250 -300 l-150 0 l0 -300 l-200 0 l0 300 l-150 0 l250 300 Z" /><glyph glyph-name="uniE027" unicode="&#xe027;" d="M84 899 q80 137 217 217 q137 80 299 80 q162 0 299 -80 q137 -80 217 -217 q80 -137 80 -299 q0 -162 -80 -299 q-80 -137 -217 -217 q-137 -80 -299 -80 q-162 0 -299 80 q-137 80 -217 217 q-80 137 -80 299 q0 162 80 299 ZM307.5 307.5 q121.5 -121.5 292.5 -121.5 q171 0 292.5 121.5 q121.5 121.5 121.5 292.5 q0 171 -121.5 292.5 q-121.5 121.5 -292.5 121.5 q-171 0 -292.5 -121.5 q-121.5 -121.5 -121.5 -292.5 q0 -171 121.5 -292.5 ZM500 600 l0 300 l200 0 l0 -300 l150 0 l-250 -300 l-250 300 l150 0 Z" /><glyph glyph-name="uniE028" unicode="&#xe028;" d="M0 1175 q0 11 7 18 q7 7 18 7 l1150 0 q11 0 18 -7 q7 -7 7 -18 l-1 -475 l-199 -700 l-800 0 l-200 700 l0 475 ZM297 200 l606 0 l97 500 l-200 0 l-50 200 l-300 0 l-50 -200 l-200 0 l97 -500 Z" /><glyph glyph-name="uniE029" unicode="&#xe029;" d="M84 899 q80 137 217 217 q137 80 299 80 q162 0 299 -80 q137 -80 217 -217 q80 -137 80 -299 q0 -162 -80 -299 q-80 -137 -217 -217 q-137 -80 -299 -80 q-162 0 -299 80 q-137 80 -217 217 q-80 137 -80 299 q0 162 80 299 ZM186 600 q0 -171 121.5 -292.5 q121.5 -121.5 292.5 -121.5 q171 0 292.5 121.5 q121.5 121.5 121.5 292.5 q0 172 -121.5 293 q-121.5 121 -292.5 121 q-171 0 -292.5 -121 q-121.5 -121 -121.5 -293 ZM797 602 l-297 -200 l0 401 l297 -201 Z" /><glyph glyph-name="uniE030" unicode="&#xe030;" d="M68.5 398.5 q45.5 -106.5 123 -184 q77.5 -77.5 184 -123 q106.5 -45.5 224.5 -45.5 q198 0 355 122 l145 -145 l0 400 l-400 0 l146 -146 q-110 -81 -246 -81 q-177 0 -302 125 q-125 125 -125 302 q0 177 125 302 q125 125 302 125 q177 0 302 -125 q125 -125 125 -302 l150 0 q0 118 -45.5 224.5 q-45.5 106.5 -123 184 q-77.5 77.5 -184 123 q-106.5 45.5 -224.5 45.5 q-118 0 -224.5 -45.5 q-106.5 -45.5 -184 -123 q-77.5 -77.5 -123 -184 q-45.5 -106.5 -45.5 -224.5 q0 -118 45.5 -224.5 Z" /><glyph glyph-name="uniE031" unicode="&#xe031;" d="M173 600 q0 -177 125 -302 q125 -125 302 -125 q135 0 247 80 l-147 147 l400 0 l0 -400 l-145 145 q-157 -122 -355 -122 q-118 0 -224.5 45.5 q-106.5 45.5 -184 123 q-77.5 77.5 -123 184 q-45.5 106.5 -45.5 224.5 l150 0 ZM245 1055 q157 122 355 122 q118 0 224.5 -45.5 q106.5 -45.5 184 -123 q77.5 -77.5 123 -184 q45.5 -106.5 45.5 -224.5 l-150 0 q0 177 -125 302 q-125 125 -302 125 q-135 0 -247 -80 l147 -147 l-400 0 l0 400 l145 -145 Z" /><glyph glyph-name="uniE032" unicode="&#xe032;" d="M100 0 l1100 0 l0 1200 l-1100 0 l0 -1200 ZM1100 1100 l0 -900 l-900 0 l0 900 l900 0 ZM400 1000 l0 -100 l-100 0 l0 100 l100 0 ZM400 800 l0 -100 l-100 0 l0 100 l100 0 ZM400 600 l0 -100 l-100 0 l0 100 l100 0 ZM400 400 l0 -100 l-100 0 l0 100 l100 0 ZM500 900 l500 0 l0 100 l-500 0 l0 -100 ZM1000 800 l0 -100 l-500 0 l0 100 l500 0 ZM1000 600 l0 -100 l-500 0 l0 100 l500 0 ZM1000 400 l0 -100 l-500 0 l0 100 l500 0 Z" /><glyph glyph-name="uniE033" unicode="&#xe033;" d="M0 1100 q0 41 29.5 70.5 q29.5 29.5 70.5 29.5 l900 0 q41 0 70.5 -29.5 q29.5 -29.5 29.5 -70.5 l0 -600 q0 -41 -29.5 -70.5 q-29.5 -29.5 -70.5 -29.5 l-100 0 l0 -200 q0 -82 -59 -141 q-59 -59 -141 -59 l-300 0 q-82 0 -141 59 q-59 59 -59 141 l0 200 l-100 0 q-41 0 -70.5 29.5 q-29.5 29.5 -29.5 70.5 l0 600 ZM400 250 q0 -21 14.5 -35.5 q14.5 -14.5 35.5 -14.5 l200 0 q21 0 35.5 14.5 q14.5 14.5 14.5 35.5 l0 150 l-300 0 l0 -150 Z" /><glyph glyph-name="uniE034" unicode="&#xe034;" d="M200 1100 l0 -1100 l-100 0 l0 1100 l100 0 ZM300 200 q20 -81 65 -115.5 q45 -34.5 103 -29.5 q58 5 125.5 25 q67.5 20 139.5 40 q72 20 138 25 q66 5 127.5 -29.5 q61.5 -34.5 101.5 -115.5 l0 500 q-41 81 -91 120.5 q-50 39.5 -103 42 q-53 2.5 -110 -11 q-57 -13.5 -119 -30 q-62 -16.5 -122 -23 q-60 -6.5 -127.5 17.5 q-67.5 24 -127.5 84 l0 -500 Z" /><glyph glyph-name="uniE035" unicode="&#xe035;" d="M0 600 q0 -116 49.5 -227 q49.5 -111 131 -192.5 q81.5 -81.5 192.5 -131 q111 -49.5 227 -49.5 q116 0 227 49.5 q111 49.5 192.5 131 q81.5 81.5 131 192.5 q49.5 111 49.5 227 l0 300 q0 11 -7 18 q-7 7 -18 7 l-50 0 q-11 0 -18 -7 q-7 -7 -7 -18 l0 -300 q0 -127 -70.5 -231.5 q-70.5 -104.5 -184.5 -161.5 q-114 -57 -245 -57 q-131 0 -245 57 q-114 57 -184.5 161.5 q-70.5 104.5 -70.5 231.5 l0 300 q0 11 -7 18 q-7 7 -18 7 l-50 0 q-11 0 -18 -7 q-7 -7 -7 -18 l0 -300 ZM200 1155 q0 8 6 14 q6 6 14 6 l160 0 q8 0 14 -6 q6 -6 6 -14 l0 -460 q0 -8 -6 -14 q-6 -6 -14 -6 l-160 0 q-8 0 -14 6 q-6 6 -6 14 l0 460 ZM800 1155 q0 8 6 14 q6 6 14 6 l160 0 q8 0 14 -6 q6 -6 6 -14 l0 -460 q0 -8 -6 -14 q-6 -6 -14 -6 l-160 0 q-8 0 -14 6 q-6 6 -6 14 l0 460 Z" /><glyph glyph-name="uniE036" unicode="&#xe036;" d="M0 400 l300 0 l300 -200 l0 800 l-300 -200 l-300 0 l0 -400 ZM759 812 l141 -141 l141 141 l71 -71 l-141 -141 l141 -141 l-71 -71 l-141 141 l-141 -141 l-71 71 l141 141 l-141 141 l71 71 Z" /><glyph glyph-name="uniE037" unicode="&#xe037;" d="M0 400 l300 0 l300 -200 l0 800 l-300 -200 l-300 0 l0 -400 ZM700 343 q93 111 93 257 q0 138 -86 248 l67 54 q106 -133 106 -302 q0 -175 -111 -310 l-69 53 Z" /><glyph glyph-name="uniE038" unicode="&#xe038;" d="M300 800 l300 200 l0 -800 l-300 200 l-300 0 l0 400 l300 0 ZM702 343 q93 112 93 257 q0 138 -86 248 l67 55 q106 -133 106 -303 q0 -175 -111 -310 l-69 53 ZM972 186 l6 8 q144 178 144 408 q0 227 -142 405 l-6 8 l-81 -66 l7 -8 q119 -150 119 -339 q0 -193 -123 -344 l-7 -8 l83 -64 Z" /><glyph glyph-name="uniE039" unicode="&#xe039;" d="M0 700 l200 0 l0 -100 l100 0 l0 100 l200 0 l0 500 l-500 0 l0 -500 ZM0 0 l500 0 l0 300 l100 0 l0 100 l-100 0 l0 100 l-400 0 l0 100 l-100 0 l0 -600 ZM400 1100 l0 -300 l-300 0 l0 300 l300 0 ZM400 400 l0 -300 l-300 0 l0 300 l300 0 ZM300 1000 l0 -100 l-100 0 l0 100 l100 0 ZM200 200 l100 0 l0 100 l-100 0 l0 -100 ZM700 700 l0 200 l-100 0 l0 100 l100 0 l0 100 l200 0 l0 -100 l100 0 l0 -100 l-200 0 l0 -300 l-300 0 l0 100 l200 0 ZM700 1200 l0 -100 l-100 0 l0 100 l100 0 ZM600 0 l600 0 l0 500 l-200 0 l0 100 l200 0 l0 200 l-300 0 l0 -300 l-200 0 l0 -300 l-100 0 l0 -200 ZM1100 400 l0 -300 l-300 0 l0 300 l300 0 ZM1200 1200 l0 -100 l-300 0 l0 100 l300 0 ZM1000 300 l0 -100 l-100 0 l0 100 l100 0 ZM1200 1000 l0 -100 l-100 0 l0 100 l100 0 Z" /><glyph glyph-name="uniE040" unicode="&#xe040;" d="M0 0 l100 0 l0 1000 l-100 0 l0 -1000 ZM400 1200 l0 -100 l-300 0 l0 100 l300 0 ZM300 1000 l0 -1000 l-100 0 l0 1000 l100 0 ZM600 1200 l0 -91 l-100 0 l0 91 l100 0 ZM700 1000 l0 -1000 l-200 0 l0 1000 l200 0 ZM800 1200 l0 -91 l-100 0 l0 91 l100 0 ZM900 1000 l0 -1000 l-100 0 l0 1000 l100 0 ZM1100 1200 l0 -91 l-200 0 l0 91 l200 0 ZM1200 1000 l0 -1000 l-200 0 l0 1000 l200 0 Z" /><glyph glyph-name="uniE041" unicode="&#xe041;" d="M700 1200 l500 -500 l-700 -700 l-474 0 q-10 0 -17.5 7.5 q-7.5 7.5 -7.5 17.5 l-1 475 l700 700 ZM177 176 q30 -30 71.5 -30 q41.5 0 71.5 30 q29 29 29 71 q0 42 -29 71 q-30 30 -71.5 30 q-41.5 0 -71.5 -30 q-29 -29 -29 -71 q0 -42 29 -71 Z" /><glyph glyph-name="uniE042" unicode="&#xe042;" d="M701 1200 l500 -500 l-700 -700 l-474 0 q-11 0 -18 7 q-7 7 -7 18 l-1 475 l700 700 ZM178 176 q29 -30 71 -30 q42 0 71 30 q30 29 30 71 q0 42 -30 71 q-29 30 -71 30 q-42 0 -71 -30 q-30 -29 -30 -71 q0 -42 30 -71 ZM1401 700 l-450 450 l50 50 l500 -500 l-700 -700 l-100 0 l700 700 Z" /><glyph glyph-name="uniE043" unicode="&#xe043;" d="M1000 1200 l0 -1000 l-750 0 l100 -100 l750 0 l0 1000 l100 -100 l0 -1000 l-925 0 l-175 175 l0 1025 l900 0 Z" /><glyph glyph-name="uniE044" unicode="&#xe044;" d="M200 50 q0 -20 14.5 -35 q14.5 -15 35.5 -15 l800 0 q21 0 35.5 15 q14.5 15 14.5 35 l0 1150 l-450 -443 l-450 444 l0 -1151 Z" /><glyph glyph-name="uniE045" unicode="&#xe045;" d="M200 1100 l0 -200 l800 0 l0 200 l200 0 l0 -700 l-200 0 l-100 200 l-600 0 l-100 -200 l-200 0 l0 700 l200 0 ZM347 25 q2 -11 10 -18 q8 -7 18 -7 l450 0 q10 0 18 7 q8 7 10 18 l94 346 l-62 124 l-592 0 l-40 -124 l94 -346 ZM281 1176 q-2 10 3.5 17 q5.5 7 15.5 7 l600 0 q10 0 15.5 -7 q5.5 -7 3.5 -17 l-38 -152 q-2 -10 -11.5 -17 q-9.5 -7 -19.5 -7 l-500 0 q-10 0 -19.5 7 q-9.5 7 -11.5 17 l-38 152 Z" /><glyph glyph-name="uniE046" unicode="&#xe046;" d="M0 400 q0 -41 29.5 -70.5 q29.5 -29.5 70.5 -29.5 l150 0 l12 -20 q11 -21 34 -50.5 q23 -29.5 52 -59 q29 -29.5 70 -50 q41 -20.5 82 -20.5 l200 0 q42 0 83.5 21.5 q41.5 21.5 69 48 q27.5 26.5 53 61 q25.5 34.5 33 48 q7.5 13.5 11.5 21.5 l150 0 q41 0 70.5 29.5 q29.5 29.5 29.5 70.5 l0 600 q0 41 -29.5 70.5 q-29.5 29.5 -70.5 29.5 l-1000 0 q-41 0 -70.5 -29.5 q-29.5 -29.5 -29.5 -70.5 l0 -600 ZM428 872 q72 72 172 72 q100 0 172 -72 q72 -72 72 -172 q0 -100 -72 -172 q-72 -72 -172 -72 q-100 0 -172 72 q-72 72 -72 172 q0 100 72 172 ZM525 625 q31 -31 75 -31 q44 0 75 31 q31 31 31 75 q0 44 -31 75 q-31 31 -75 31 q-44 0 -75 -31 q-31 -31 -31 -75 q0 -44 31 -75 ZM1000 500 l0 -100 l-100 0 l0 100 l100 0 Z" /><glyph glyph-name="uniE047" unicode="&#xe047;" d="M53 1133 l15 -7 q15 -7 36 -20 q21 -13 33 -25 q28 -27 52 -75 l399 -1006 l93 0 l385 998 l6 13 q6 14 21 37 q15 23 33 42 q40 42 74 43 l0 66 l-417 0 l0 -66 q53 0 74.5 -43.5 q21.5 -43.5 5.5 -88.5 l-82 -222 l-391 0 l-92 234 q-19 44 -1 71 q18 27 49 38 q31 11 72 11 l0 66 l-365 0 l0 -66 ZM756 678 l-116 -317 l-46 -140 l-178 457 l340 0 Z" /><glyph glyph-name="uniE048" unicode="&#xe048;" d="M600 1200 q79 0 162 -38.5 q83 -38.5 142 -111 q59 -72.5 59 -156.5 q0 -70 -21.5 -129 q-21.5 -59 -47.5 -91.5 q-26 -32.5 -60.5 -58 q-34.5 -25.5 -48 -31.5 q-13.5 -6 -21.5 -9 l12 -7 q11 -8 28 -28 q17 -20 33.5 -47.5 q16.5 -27.5 28 -74 q11.5 -46.5 11.5 -101.5 q0 -140 -93 -228 q-93 -88 -213 -88 l-471 -1 l0 71 q31 7 49 14.5 q18 7.5 29 14 q11 6.5 15.5 21 q4.5 14.5 5.5 26 q1 11.5 1 39.5 l0 827 q0 40 -29.5 65.5 q-29.5 25.5 -70.5 32.5 l0 89 l500 0 ZM400 600 l159 0 q94 0 156.5 64.5 q62.5 64.5 62.5 154.5 q0 84 -64 132.5 q-64 48.5 -153 48.5 l-161 0 l0 -400 ZM400 121 q155 0 239 48.5 q84 48.5 84 130.5 q0 77 -54 138.5 q-54 61.5 -130 61.5 l-139 0 l0 -379 Z" /><glyph glyph-name="uniE049" unicode="&#xe049;" d="M700 1200 l0 -57 q-71 -6 -95 -36 q-24 -30 -14 -82 l128 -825 l5 -12 q5 -12 17.5 -30.5 q12.5 -18.5 29.5 -38 q17 -19.5 46 -37 q29 -17.5 62 -25.5 l-2 -57 l-425 0 l0 57 q5 1 9.5 2.5 q4.5 1.5 10.5 2.5 q71 19 91 37 q20 18 10 74 l-173 849 q-8 47 -65.5 80.5 q-57.5 33.5 -134.5 40.5 l0 57 l500 0 Z" /><glyph glyph-name="uniE050" unicode="&#xe050;" d="M50 1167 l125 -167 l-75 0 l0 -800 l75 0 l-125 -167 l-125 167 l75 0 l0 800 l-75 0 l125 167 ZM349 300 q0 -29 8.5 -48.5 q8.5 -19.5 18.5 -30 q10 -10.5 33.5 -15 q23.5 -4.5 40 -5.5 q16.5 -1 50.5 -1 l200 0 l0 850 l-100 50 l0 100 l400 0 l0 -100 l-100 -50 l0 -850 l200 0 q34 0 50.5 1 q16.5 1 39.5 5.5 q23 4.5 33.5 15 q10.5 10.5 18.5 30 q8 19.5 8 48.5 l50 0 l0 -300 l-150 0 l-700 0 l-150 0 l0 300 l49 0 Z" /><glyph glyph-name="uniE051" unicode="&#xe051;" d="M200 1201 l0 -75 l800 0 l0 75 l167 -125 l-167 -125 l0 75 l-800 0 l0 -75 l-167 125 l167 125 ZM150 226 q0 -29 8 -48.5 q8 -19.5 18.5 -30 q10.5 -10.5 33.5 -15 q23 -4.5 39.5 -5.5 q16.5 -1 50.5 -1 l200 0 l0 650 l-100 50 l0 100 l400 0 l0 -100 l-100 -50 l0 -650 l200 0 q34 0 50.5 1 q16.5 1 40 5.5 q23.5 4.5 33.5 15 q10 10.5 18 30 q8 19.5 8 48.5 l50 0 l0 -300 l-150 0 l-700 0 l-150 0 l0 300 l50 0 Z" /><glyph glyph-name="uniE052" unicode="&#xe052;" d="M0 950 q0 -21 14.5 -35.5 q14.5 -14.5 35.5 -14.5 l1100 0 q21 0 35.5 14.5 q14.5 14.5 14.5 35.5 l0 100 q0 20 -14.5 35 q-14.5 15 -35.5 15 l-1100 0 q-21 0 -35.5 -15 q-14.5 -15 -14.5 -35 l0 -100 ZM0 650 q0 -21 14.5 -35.5 q14.5 -14.5 35.5 -14.5 l800 0 q21 0 35.5 14.5 q14.5 14.5 14.5 35.5 l0 100 q0 20 -14.5 35 q-14.5 15 -35.5 15 l-800 0 q-21 0 -35.5 -15 q-14.5 -15 -14.5 -35 l0 -100 ZM0 350 q0 -21 14.5 -35.5 q14.5 -14.5 35.5 -14.5 l1000 0 q21 0 35.5 14.5 q14.5 14.5 14.5 35.5 l0 100 q0 20 -14.5 35 q-14.5 15 -35.5 15 l-1000 0 q-21 0 -35.5 -15 q-14.5 -15 -14.5 -35 l0 -100 ZM0 50 q0 -21 14.5 -35.5 q14.5 -14.5 35.5 -14.5 l600 0 q21 0 35.5 14.5 q14.5 14.5 14.5 35.5 l0 100 q0 20 -14.5 35 q-14.5 15 -35.5 15 l-600 0 q-21 0 -35.5 -15 q-14.5 -15 -14.5 -35 l0 -100 Z" /><glyph glyph-name="uniE053" unicode="&#xe053;" d="M0 950 q0 -21 14.5 -35.5 q14.5 -14.5 35.5 -14.5 l1100 0 q21 0 35.5 14.5 q14.5 14.5 14.5 35.5 l0 100 q0 20 -14.5 35 q-14.5 15 -35.5 15 l-1100 0 q-21 0 -35.5 -15 q-14.5 -15 -14.5 -35 l0 -100 ZM0 350 q0 -21 14.5 -35.5 q14.5 -14.5 35.5 -14.5 l1100 0 q21 0 35.5 14.5 q14.5 14.5 14.5 35.5 l0 100 q0 20 -14.5 35 q-14.5 15 -35.5 15 l-1100 0 q-21 0 -35.5 -15 q-14.5 -15 -14.5 -35 l0 -100 ZM200 650 q0 -21 14.5 -35.5 q14.5 -14.5 35.5 -14.5 l700 0 q21 0 35.5 14.5 q14.5 14.5 14.5 35.5 l0 100 q0 20 -14.5 35 q-14.5 15 -35.5 15 l-700 0 q-21 0 -35.5 -15 q-14.5 -15 -14.5 -35 l0 -100 ZM200 50 q0 -21 14.5 -35.5 q14.5 -14.5 35.5 -14.5 l700 0 q21 0 35.5 14.5 q14.5 14.5 14.5 35.5 l0 100 q0 20 -14.5 35 q-14.5 15 -35.5 15 l-700 0 q-21 0 -35.5 -15 q-14.5 -15 -14.5 -35 l0 -100 Z" /><glyph glyph-name="uniE054" unicode="&#xe054;" d="M0 1050 q0 20 14.5 35 q14.5 15 35.5 15 l1100 0 q21 0 35.5 -15 q14.5 -15 14.5 -35 l0 -100 q0 -21 -14.5 -35.5 q-14.5 -14.5 -35.5 -14.5 l-1100 0 q-21 0 -35.5 14.5 q-14.5 14.5 -14.5 35.5 l0 100 ZM100 450 q0 20 14.5 35 q14.5 15 35.5 15 l1000 0 q21 0 35.5 -15 q14.5 -15 14.5 -35 l0 -100 q0 -21 -14.5 -35.5 q-14.5 -14.5 -35.5 -14.5 l-1000 0 q-21 0 -35.5 14.5 q-14.5 14.5 -14.5 35.5 l0 100 ZM300 750 q0 20 14.5 35 q14.5 15 35.5 15 l800 0 q21 0 35.5 -15 q14.5 -15 14.5 -35 l0 -100 q0 -21 -14.5 -35.5 q-14.5 -14.5 -35.5 -14.5 l-800 0 q-21 0 -35.5 14.5 q-14.5 14.5 -14.5 35.5 l0 100 ZM500 150 q0 20 14.5 35 q14.5 15 35.5 15 l600 0 q21 0 35.5 -15 q14.5 -15 14.5 -35 l0 -100 q0 -21 -14.5 -35.5 q-14.5 -14.5 -35.5 -14.5 l-600 0 q-21 0 -35.5 14.5 q-14.5 14.5 -14.5 35.5 l0 100 Z" /><glyph glyph-name="uniE055" unicode="&#xe055;" d="M0 1050 q0 20 14.5 35 q14.5 15 35.5 15 l1100 0 q21 0 35.5 -15 q14.5 -15 14.5 -35 l0 -100 q0 -21 -14.5 -35.5 q-14.5 -14.5 -35.5 -14.5 l-1100 0 q-21 0 -35.5 14.5 q-14.5 14.5 -14.5 35.5 l0 100 ZM0 750 q0 20 14.5 35 q14.5 15 35.5 15 l1100 0 q21 0 35.5 -15 q14.5 -15 14.5 -35 l0 -100 q0 -21 -14.5 -35.5 q-14.5 -14.5 -35.5 -14.5 l-1100 0 q-21 0 -35.5 14.5 q-14.5 14.5 -14.5 35.5 l0 100 ZM0 450 q0 20 14.5 35 q14.5 15 35.5 15 l1100 0 q21 0 35.5 -15 q14.5 -15 14.5 -35 l0 -100 q0 -21 -14.5 -35.5 q-14.5 -14.5 -35.5 -14.5 l-1100 0 q-21 0 -35.5 14.5 q-14.5 14.5 -14.5 35.5 l0 100 ZM0 150 q0 20 14.5 35 q14.5 15 35.5 15 l1100 0 q21 0 35.5 -15 q14.5 -15 14.5 -35 l0 -100 q0 -21 -14.5 -35.5 q-14.5 -14.5 -35.5 -14.5 l-1100 0 q-21 0 -35.5 14.5 q-14.5 14.5 -14.5 35.5 l0 100 Z" /><glyph glyph-name="uniE056" unicode="&#xe056;" d="M0 1050 q0 20 14.5 35 q14.5 15 35.5 15 l100 0 q21 0 35.5 -15 q14.5 -15 14.5 -35 l0 -100 q0 -21 -14.5 -35.5 q-14.5 -14.5 -35.5 -14.5 l-100 0 q-21 0 -35.5 14.5 q-14.5 14.5 -14.5 35.5 l0 100 ZM0 750 q0 20 14.5 35 q14.5 15 35.5 15 l100 0 q21 0 35.5 -15 q14.5 -15 14.5 -35 l0 -100 q0 -21 -14.5 -35.5 q-14.5 -14.5 -35.5 -14.5 l-100 0 q-21 0 -35.5 14.5 q-14.5 14.5 -14.5 35.5 l0 100 ZM0 450 q0 20 14.5 35 q14.5 15 35.5 15 l100 0 q21 0 35.5 -15 q14.5 -15 14.5 -35 l0 -100 q0 -21 -14.5 -35.5 q-14.5 -14.5 -35.5 -14.5 l-100 0 q-21 0 -35.5 14.5 q-14.5 14.5 -14.5 35.5 l0 100 ZM0 150 q0 20 14.5 35 q14.5 15 35.5 15 l100 0 q21 0 35.5 -15 q14.5 -15 14.5 -35 l0 -100 q0 -21 -14.5 -35.5 q-14.5 -14.5 -35.5 -14.5 l-100 0 q-21 0 -35.5 14.5 q-14.5 14.5 -14.5 35.5 l0 100 ZM300 1050 q0 20 14.5 35 q14.5 15 35.5 15 l800 0 q21 0 35.5 -15 q14.5 -15 14.5 -35 l0 -100 q0 -21 -14.5 -35.5 q-14.5 -14.5 -35.5 -14.5 l-800 0 q-21 0 -35.5 14.5 q-14.5 14.5 -14.5 35.5 l0 100 ZM300 750 q0 20 14.5 35 q14.5 15 35.5 15 l800 0 q21 0 35.5 -15 q14.5 -15 14.5 -35 l0 -100 q0 -21 -14.5 -35.5 q-14.5 -14.5 -35.5 -14.5 l-800 0 q-21 0 -35.5 14.5 q-14.5 14.5 -14.5 35.5 l0 100 ZM300 450 q0 20 14.5 35 q14.5 15 35.5 15 l800 0 q21 0 35.5 -15 q14.5 -15 14.5 -35 l0 -100 q0 -21 -14.5 -35.5 q-14.5 -14.5 -35.5 -14.5 l-800 0 q-21 0 -35.5 14.5 q-14.5 14.5 -14.5 35.5 l0 100 ZM300 150 q0 20 14.5 35 q14.5 15 35.5 15 l800 0 q21 0 35.5 -15 q14.5 -15 14.5 -35 l0 -100 q0 -21 -14.5 -35.5 q-14.5 -14.5 -35.5 -14.5 l-800 0 q-21 0 -35.5 14.5 q-14.5 14.5 -14.5 35.5 l0 100 Z" /><glyph glyph-name="uniE057" unicode="&#xe057;" d="M100 600 l0 75 l166 -125 l-166 -125 l0 75 l-201 0 l0 100 l201 0 ZM300 0 l100 0 l0 1100 l-100 0 l0 -1100 ZM500 950 q0 -21 14.5 -35.5 q14.5 -14.5 35.5 -14.5 l600 0 q20 0 35 14.5 q15 14.5 15 35.5 l0 100 q0 20 -15 35 q-15 15 -35 15 l-600 0 q-21 0 -35.5 -15 q-14.5 -15 -14.5 -35 l0 -100 ZM500 650 q0 -21 14.5 -35.5 q14.5 -14.5 35.5 -14.5 l300 0 q20 0 35 14.5 q15 14.5 15 35.5 l0 100 q0 20 -15 35 q-15 15 -35 15 l-300 0 q-21 0 -35.5 -15 q-14.5 -15 -14.5 -35 l0 -100 ZM500 350 q0 -21 14.5 -35.5 q14.5 -14.5 35.5 -14.5 l500 0 q20 0 35 14.5 q15 14.5 15 35.5 l0 100 q0 20 -15 35 q-15 15 -35 15 l-500 0 q-21 0 -35.5 -15 q-14.5 -15 -14.5 -35 l0 -100 ZM500 50 q0 -21 14.5 -35.5 q14.5 -14.5 35.5 -14.5 l100 0 q20 0 35 14.5 q15 14.5 15 35.5 l0 100 q0 20 -15 35 q-15 15 -35 15 l-100 0 q-21 0 -35.5 -15 q-14.5 -15 -14.5 -35 l0 -100 Z" /><glyph glyph-name="uniE058" unicode="&#xe058;" d="M1 950 q0 -21 14.5 -35.5 q14.5 -14.5 35.5 -14.5 l600 0 q20 0 35 14.5 q15 14.5 15 35.5 l0 100 q0 20 -15 35 q-15 15 -35 15 l-600 0 q-21 0 -35.5 -15 q-14.5 -15 -14.5 -35 l0 -100 ZM1 650 q0 -21 14.5 -35.5 q14.5 -14.5 35.5 -14.5 l300 0 q20 0 35 14.5 q15 14.5 15 35.5 l0 100 q0 20 -15 35 q-15 15 -35 15 l-300 0 q-21 0 -35.5 -15 q-14.5 -15 -14.5 -35 l0 -100 ZM1 350 q0 -21 14.5 -35.5 q14.5 -14.5 35.5 -14.5 l500 0 q20 0 35 14.5 q15 14.5 15 35.5 l0 100 q0 20 -15 35 q-15 15 -35 15 l-500 0 q-21 0 -35.5 -15 q-14.5 -15 -14.5 -35 l0 -100 ZM1 50 q0 -21 14.5 -35.5 q14.5 -14.5 35.5 -14.5 l100 0 q20 0 35 14.5 q15 14.5 15 35.5 l0 100 q0 20 -15 35 q-15 15 -35 15 l-100 0 q-21 0 -35.5 -15 q-14.5 -15 -14.5 -35 l0 -100 ZM901 1100 l0 -1100 l-100 0 l0 1100 l100 0 ZM1101 425 l0 75 l200 0 l0 100 l-200 0 l0 75 l-167 -125 l167 -125 Z" /><glyph glyph-name="uniE059" unicode="&#xe059;" d="M0 925 q0 31 22 53 q22 22 53 22 l750 0 q31 0 53 -22 q22 -22 22 -53 l0 -650 q0 -31 -22 -53 q-22 -22 -53 -22 l-750 0 q-31 0 -53 22 q-22 22 -22 53 l0 650 ZM1200 900 l0 -600 l-300 300 l300 300 Z" /><glyph glyph-name="uniE060" unicode="&#xe060;" d="M0 1056 q0 18 13 31 q13 13 31 13 l1112 0 q19 0 31.5 -13 q12.5 -13 12.5 -31 l0 -1012 q0 -18 -12.5 -31 q-12.5 -13 -31.5 -13 l-1112 0 q-18 0 -31 13 q-13 13 -13 31 l0 1012 ZM100 100 l1000 0 l0 500 l-236 -288 l-293 318 l74 156 l-298 -131 l-247 182 l0 -737 ZM247 445 q39 39 95 39 q56 0 95 -39 q39 -39 39 -95 q0 -56 -39 -95 q-39 -39 -95 -39 q-56 0 -95 39 q-39 39 -39 95 q0 56 39 95 Z" /><glyph glyph-name="uniE062" unicode="&#xe062;" d="M148 455 q0 123 63 262 q43 75 100.5 155 q57.5 80 104 135.5 q46.5 55.5 96 109 q49.5 53.5 66.5 70.5 q17 17 27 26 l57 -66 q57 -66 150.5 -189 q93.5 -123 166.5 -237 q73 -149 73 -272 q0 -123 -60.5 -229.5 q-60.5 -106.5 -164.5 -169.5 q-104 -63 -227 -63 q-122 0 -226.5 64.5 q-104.5 64.5 -165 172 q-60.5 107.5 -60.5 231.5 ZM342 428 q0 -106 75 -181.5 q75 -75.5 182 -75.5 q107 0 182.5 75 q75.5 75 75.5 182 q0 107 -75.5 182.5 q-75.5 75.5 -182.5 75.5 q-106 0 -181.5 -75.5 q-75.5 -75.5 -75.5 -182.5 Z" /><glyph glyph-name="uniE063" unicode="&#xe063;" d="M48.5 833 q47.5 111 127.5 191 q80 80 191 127.5 q111 47.5 233 47.5 q122 0 233 -47.5 q111 -47.5 191 -127.5 q80 -80 127.5 -191 q47.5 -111 47.5 -233 q0 -122 -47.5 -233 q-47.5 -111 -127.5 -191 q-80 -80 -191 -127.5 q-111 -47.5 -233 -47.5 q-122 0 -233 47.5 q-111 47.5 -191 127.5 q-80 80 -127.5 191 q-47.5 111 -47.5 233 q0 122 47.5 233 ZM298.5 298 q125.5 -125 301.5 -125 l0 854 q-176 0 -301.5 -125 q-125.5 -125 -125.5 -302 q0 -177 125.5 -302 Z" /><glyph glyph-name="uniE064" unicode="&#xe064;" d="M117 893 q0 118 64 210 q64 92 161.5 139 q97.5 47 211.5 53 q79 -4 156 -33.5 q77 -29.5 140 -79.5 q63 -50 102 -126.5 q39 -76.5 39 -165.5 q0 -69 -18.5 -136 q-18.5 -67 -50 -125.5 q-31.5 -58.5 -70 -116 q-38.5 -57.5 -82 -117 q-43.5 -59.5 -83 -118.5 q-39.5 -59 -76 -130.5 q-36.5 -71.5 -57.5 -142.5 q-30 96 -87.5 194.5 q-57.5 98.5 -115 177 q-57.5 78.5 -112 159 q-54.5 80.5 -88.5 172.5 q-34 92 -34 186 ZM243 885 q-15 -81 12.5 -156 q27.5 -75 119.5 -185 l-9 51 q-9 52 -10 122.5 q-1 70.5 14 143.5 q10 40 33 77 q23 37 34 48 q11 11 18 17 l-16 98 q-91 -26 -136.5 -80 q-45.5 -54 -59.5 -136 Z" /><glyph glyph-name="uniE065" unicode="&#xe065;" d="M0 728 q0 165 117.5 282.5 q117.5 117.5 282.5 117.5 l300 0 q165 0 282.5 -117.5 q117.5 -117.5 117.5 -282.5 l0 -225 l-200 200 l0 125 q0 41 -29.5 70.5 q-29.5 29.5 -70.5 29.5 l-500 0 q-41 0 -70.5 -29.5 q-29.5 -29.5 -29.5 -70.5 l0 -500 q0 -41 29.5 -70.5 q29.5 -29.5 70.5 -29.5 l311 0 l186 -186 q-31 -8 -397 -14 q-165 0 -282.5 117.5 q-117.5 117.5 -117.5 282.5 l0 300 ZM490 617 l405 -405 l114 113 l-412 412 l-161 50 l54 -170 ZM1108 0 l92 28 l21 85 l-113 113 l-113 -113 l113 -113 Z" /><glyph glyph-name="uniE066" unicode="&#xe066;" d="M0 700 q0 165 117.5 282.5 q117.5 117.5 282.5 117.5 l300 0 q165 0 282.5 -117.5 q117.5 -117.5 117.5 -282.5 l0 -53 l-200 153 q0 41 -29.5 70.5 q-29.5 29.5 -70.5 29.5 l-500 0 q-41 0 -70.5 -29.5 q-29.5 -29.5 -29.5 -70.5 l0 -500 q0 -41 29.5 -70.5 q29.5 -29.5 70.5 -29.5 l145 0 q85 -88 218 -120 l-2 -80 l-261 0 q-165 0 -282.5 117.5 q-117.5 117.5 -117.5 282.5 l0 300 ZM423 576 q11 -67 39.5 -121.5 q28.5 -54.5 62 -88 q33.5 -33.5 76.5 -59 q43 -25.5 76.5 -37 q33.5 -11.5 69.5 -18.5 q36 -7 48 -8 q12 -1 19 -1 l0 -216 l359 318 l-360 324 l0 -209 l-29 -1 q-30 -1 -77.5 3.5 q-47.5 4.5 -99 14 q-51.5 9.5 -103 35.5 q-51.5 26 -81.5 64 Z" /><glyph glyph-name="uniE067" unicode="&#xe067;" d="M0 700 q0 165 117.5 282.5 q117.5 117.5 282.5 117.5 l300 0 q165 0 282.5 -117.5 q117.5 -117.5 117.5 -282.5 l0 -169 l-200 200 l0 69 q0 41 -29.5 70.5 q-29.5 29.5 -70.5 29.5 l-500 0 q-41 0 -70.5 -29.5 q-29.5 -29.5 -29.5 -70.5 l0 -500 q0 -41 29.5 -70.5 q29.5 -29.5 70.5 -29.5 l349 0 l178 -177 q-66 -23 -127 -23 l-300 0 q-165 0 -282.5 117.5 q-117.5 117.5 -117.5 282.5 l0 300 ZM479 332 l146 147 l430 -431 l137 137 l-567 567 l-283 -284 l137 -136 Z" /><glyph glyph-name="uniE068" unicode="&#xe068;" d="M300 899 l0 -198 l200 0 l0 200 l-200 0 l300 300 l295 -300 l-195 0 l0 -200 l200 0 l0 198 l300 -300 l-300 -296 l0 198 l-200 0 l0 -200 l195 0 l-295 -300 l-300 300 l200 0 l0 200 l-200 0 l0 -198 l-300 296 l300 300 Z" /><glyph glyph-name="uniE069" unicode="&#xe069;" d="M200 1050 q0 21 14.5 35.5 q14.5 14.5 35.5 14.5 l100 0 q21 0 35.5 -14.5 q14.5 -14.5 14.5 -35.5 l0 -438 l500 488 l0 -1100 l-500 487 l0 -437 q0 -21 -14.5 -35.5 q-14.5 -14.5 -35.5 -14.5 l-100 0 q-21 0 -35.5 14.5 q-14.5 14.5 -14.5 35.5 l0 1000 Z" /><glyph glyph-name="uniE070" unicode="&#xe070;" d="M0 1050 q0 21 14.5 35.5 q14.5 14.5 35.5 14.5 l100 0 q21 0 35.5 -14.5 q14.5 -14.5 14.5 -35.5 l0 -438 l500 488 l0 -488 l500 488 l0 -1100 l-500 487 l0 -487 l-500 487 l0 -437 q0 -21 -14.5 -35.5 q-14.5 -14.5 -35.5 -14.5 l-100 0 q-21 0 -35.5 14.5 q-14.5 14.5 -14.5 35.5 l0 1000 Z" /><glyph glyph-name="uniE071" unicode="&#xe071;" d="M700 1100 l0 -488 l500 488 l0 -1100 l-500 487 l0 -487 l-564 550 l564 550 Z" /><glyph glyph-name="uniE072" unicode="&#xe072;" d="M200 0 l900 550 l-900 550 l0 -1100 Z" /><glyph glyph-name="uniE073" unicode="&#xe073;" d="M200 150 q0 -21 14.5 -35.5 q14.5 -14.5 35.5 -14.5 l200 0 q21 0 35.5 14.5 q14.5 14.5 14.5 35.5 l0 800 q0 21 -14.5 35.5 q-14.5 14.5 -35.5 14.5 l-200 0 q-21 0 -35.5 -14.5 q-14.5 -14.5 -14.5 -35.5 l0 -800 ZM600 150 q0 -21 14.5 -35.5 q14.5 -14.5 35.5 -14.5 l200 0 q21 0 35.5 14.5 q14.5 14.5 14.5 35.5 l0 800 q0 21 -14.5 35.5 q-14.5 14.5 -35.5 14.5 l-200 0 q-21 0 -35.5 -14.5 q-14.5 -14.5 -14.5 -35.5 l0 -800 Z" /><glyph glyph-name="uniE074" unicode="&#xe074;" d="M200 150 q0 -21 14.5 -35.5 q14.5 -14.5 35.5 -14.5 l800 0 q21 0 35.5 14.5 q14.5 14.5 14.5 35.5 l0 800 q0 20 -14.5 35 q-14.5 15 -35.5 15 l-800 0 q-21 0 -35.5 -15 q-14.5 -15 -14.5 -35 l0 -800 Z" /><glyph glyph-name="uniE075" unicode="&#xe075;" d="M500 612 l0 488 l564 -550 l-564 -550 l0 487 l-500 -487 l0 1100 l500 -488 Z" /><glyph glyph-name="uniE076" unicode="&#xe076;" d="M500 612 l0 488 l500 -488 l0 438 q0 21 14.5 35.5 q14.5 14.5 35.5 14.5 l100 0 q21 0 35.5 -14.5 q14.5 -14.5 14.5 -35.5 l0 -1000 q0 -21 -14.5 -35.5 q-14.5 -14.5 -35.5 -14.5 l-100 0 q-21 0 -35.5 14.5 q-14.5 14.5 -14.5 35.5 l0 437 l-500 -487 l0 487 l-500 -487 l0 1100 l500 -488 Z" /><glyph glyph-name="uniE077" unicode="&#xe077;" d="M800 612 l0 438 q0 21 14.5 35.5 q14.5 14.5 35.5 14.5 l100 0 q21 0 35.5 -14.5 q14.5 -14.5 14.5 -35.5 l0 -1000 q0 -21 -14.5 -35.5 q-14.5 -14.5 -35.5 -14.5 l-100 0 q-21 0 -35.5 14.5 q-14.5 14.5 -14.5 35.5 l0 437 l-500 -487 l0 1100 l500 -488 Z" /><glyph glyph-name="uniE078" unicode="&#xe078;" d="M100 1014 q0 21 14.5 35.5 q14.5 14.5 35.5 14.5 l1000 0 q21 0 35.5 -14.5 q14.5 -14.5 14.5 -35.5 l0 -100 q0 -21 -14.5 -35.5 q-14.5 -14.5 -35.5 -14.5 l-1000 0 q-21 0 -35.5 14.5 q-14.5 14.5 -14.5 35.5 l0 100 ZM650 200 l550 564 l-1100 0 l550 -564 Z" /><glyph glyph-name="uniE079" unicode="&#xe079;" d="M777 7 l240 240 l-353 353 l353 353 l-240 240 l-592 -592 l592 -594 Z" /><glyph glyph-name="uniE080" unicode="&#xe080;" d="M513 1140 l592 -591 l0 -1 l1 -1 l-21 -22 l-572 -571 l-241 240 l353 353 l-353 353 l241 240 Z" /><glyph glyph-name="uniE081" unicode="&#xe081;" d="M83 899.5 q80 137.5 217.5 217.5 q137.5 80 299.5 80 q162 0 299.5 -80 q137.5 -80 217.5 -217.5 q80 -137.5 80 -299.5 q0 -162 -80 -299.5 q-80 -137.5 -217.5 -217.5 q-137.5 -80 -299.5 -80 q-162 0 -299.5 80 q-137.5 80 -217.5 217.5 q-80 137.5 -80 299.5 q0 162 80 299.5 ZM300 500 l200 0 l0 -200 l200 0 l0 200 l200 0 l0 200 l-200 0 l0 200 l-200 0 l0 -200 l-200 0 l0 -200 Z" /><glyph glyph-name="uniE082" unicode="&#xe082;" d="M83 899.5 q80 137.5 217.5 217.5 q137.5 80 299.5 80 q162 0 299.5 -80 q137.5 -80 217.5 -217.5 q80 -137.5 80 -299.5 q0 -162 -80 -299.5 q-80 -137.5 -217.5 -217.5 q-137.5 -80 -299.5 -80 q-162 0 -299.5 80 q-137.5 80 -217.5 217.5 q-80 137.5 -80 299.5 q0 162 80 299.5 ZM300 500 l600 0 l0 200 l-600 0 l0 -200 Z" /><glyph glyph-name="uniE083" unicode="&#xe083;" d="M83 899.5 q80 137.5 217.5 217.5 q137.5 80 299.5 80 q162 0 299.5 -80 q137.5 -80 217.5 -217.5 q80 -137.5 80 -299.5 q0 -162 -80 -299.5 q-80 -137.5 -217.5 -217.5 q-137.5 -80 -299.5 -80 q-162 0 -299.5 80 q-137.5 80 -217.5 217.5 q-80 137.5 -80 299.5 q0 162 80 299.5 ZM388 600 l-141 -141 l212 -213 l141 142 l141 -141 l213 212 l-142 141 l142 141 l-213 213 l-141 -142 l-141 142 l-213 -213 l142 -141 Z" /><glyph glyph-name="uniE084" unicode="&#xe084;" d="M83 899.5 q80 137.5 217.5 217.5 q137.5 80 299.5 80 q162 0 299.5 -80 q137.5 -80 217.5 -217.5 q80 -137.5 80 -299.5 q0 -162 -80 -299.5 q-80 -137.5 -217.5 -217.5 q-137.5 -80 -299.5 -80 q-162 0 -299.5 80 q-137.5 80 -217.5 217.5 q-80 137.5 -80 299.5 q0 162 80 299.5 ZM444 475 l102 102 l236 -236 l175 174 l-411 411 l-276 -277 l174 -174 Z" /><glyph glyph-name="uniE0855" unicode="&#xe0855;" d="M83 899.5 q80 137.5 217.5 217.5 q137.5 80 299.5 80 q162 0 299.5 -80 q137.5 -80 217.5 -217.5 q80 -137.5 80 -299.5 q0 -162 -80 -299.5 q-80 -137.5 -217.5 -217.5 q-137.5 -80 -299.5 -80 q-162 0 -299.5 80 q-137.5 80 -217.5 217.5 q-80 137.5 -80 299.5 q0 162 80 299.5 ZM364 500 q0 -66 19 -114 q19 -48 53.5 -74.5 q34.5 -26.5 75 -38.5 q40.5 -12 90.5 -12 q27 0 51.5 3 q24.5 3 58.5 15 q34 12 58.5 32 q24.5 20 42 58 q17.5 38 17.5 89 q0 50 -14 94 q-14 44 -31 69 q-17 25 -39.5 45.5 q-22.5 20.5 -31.5 25.5 q-9 5 -14 8 l-200 0 q-1 -38 11 -68.5 q12 -30.5 26.5 -46 q14.5 -15.5 34 -27 q19.5 -11.5 27 -13.5 q7.5 -2 12.5 -3 q23 -16 27 -22 q4 -6 4 -28 q0 -16 -11 -26 q-11 -10 -30 -10 q-3 0 -12.5 0 q-9.5 0 -11.5 0 q-2 0 -9 0.5 q-7 0.5 -9 1.5 q-2 1 -6.5 2.5 q-4.5 1.5 -5.5 4 q-1 2.5 -3.5 6 q-2.5 3.5 -3.5 8.5 q-1 5 -1 11 q0 6 -3 9 q-3 3 -6.5 3 q-3.5 0 -11 -1 q-7.5 -1 -11.5 -1 l-143 0 ZM500 800 l200 0 l0 100 l-200 0 l0 -100 Z" /><glyph glyph-name="uniE086" unicode="&#xe086;" d="M83 899.5 q80 137.5 217.5 217.5 q137.5 80 299.5 80 q162 0 299.5 -80 q137.5 -80 217.5 -217.5 q80 -137.5 80 -299.5 q0 -162 -80 -299.5 q-80 -137.5 -217.5 -217.5 q-137.5 -80 -299.5 -80 q-162 0 -299.5 80 q-137.5 80 -217.5 217.5 q-80 137.5 -80 299.5 q0 162 80 299.5 ZM400 800 l100 0 l0 -200 l-100 0 l0 -100 l300 0 l0 300 l100 0 l0 100 l-400 0 l0 -100 ZM500 300 l200 0 l0 100 l-200 0 l0 -100 Z" /><glyph glyph-name="uniE087" unicode="&#xe087;" d="M194 700 q30 125 98 200.5 q68 75.5 208 102.5 l0 197 l200 0 l0 -197 q89 -33 180.5 -117 q91.5 -84 116.5 -186 l203 0 l0 -200 l-203 0 q-18 -69 -71.5 -134.5 q-53.5 -65.5 -112.5 -105.5 q-59 -40 -113 -60 l0 -200 l-200 0 l0 200 q-139 26 -206.5 100.5 q-67.5 74.5 -98.5 199.5 l-195 0 l0 200 l194 0 ZM500 700 l0 -200 l-209 0 q24 -72 79 -126 q55 -54 130 -77 l0 203 l200 0 l0 -204 q74 24 124.5 77 q50.5 53 75.5 127 l-200 0 l0 200 l201 0 q-52 158 -201 206 l0 -206 l-200 0 l0 206 q-75 -24 -130.5 -78.5 q-55.5 -54.5 -79.5 -127.5 l210 0 Z" /><glyph glyph-name="uniE088" unicode="&#xe088;" d="M84 899 q80 137 217 217 q137 80 299 80 q162 0 299 -80 q137 -80 217 -217 q80 -137 80 -299 q0 -162 -80 -299 q-80 -137 -217 -217 q-137 -80 -299 -80 q-162 0 -299 80 q-137 80 -217 217 q-80 137 -80 299 q0 162 80 299 ZM307.5 307.5 q121.5 -121.5 292.5 -121.5 q171 0 292.5 121.5 q121.5 121.5 121.5 292.5 q0 171 -121.5 292.5 q-121.5 121.5 -292.5 121.5 q-171 0 -292.5 -121.5 q-121.5 -121.5 -121.5 -292.5 q0 -171 121.5 -292.5 ZM465 844 l135 -135 l135 135 l109 -109 l-135 -135 l135 -135 l-109 -109 l-135 135 l-135 -135 l-109 109 l135 135 l-135 135 l109 109 Z" /><glyph glyph-name="uniE089" unicode="&#xe089;" d="M84 899 q80 137 217 217 q137 80 299 80 q162 0 299 -80 q137 -80 217 -217 q80 -137 80 -299 q0 -162 -80 -299 q-80 -137 -217 -217 q-137 -80 -299 -80 q-162 0 -299 80 q-137 80 -217 217 q-80 137 -80 299 q0 162 80 299 ZM307.5 307.5 q121.5 -121.5 292.5 -121.5 q171 0 292.5 121.5 q121.5 121.5 121.5 292.5 q0 171 -121.5 292.5 q-121.5 121.5 -292.5 121.5 q-171 0 -292.5 -121.5 q-121.5 -121.5 -121.5 -292.5 q0 -171 121.5 -292.5 ZM550 891 l346 -345 l-142 -142 l-204 205 l-87 -87 l-141 141 l228 228 Z" /><glyph glyph-name="uniE090" unicode="&#xe090;" d="M84 899 q80 137 217 217 q137 80 299 80 q162 0 299 -80 q137 -80 217 -217 q80 -137 80 -299 q0 -162 -80 -299 q-80 -137 -217 -217 q-137 -80 -299 -80 q-162 0 -299 80 q-137 80 -217 217 q-80 137 -80 299 q0 162 80 299 ZM186 600 q0 -171 121.5 -292.5 q121.5 -121.5 292.5 -121.5 q116 0 216 62 l-568 567 q-62 -100 -62 -215 ZM955 391 q59 97 59 209 q0 171 -121.5 292.5 q-121.5 121.5 -292.5 121.5 q-112 0 -209 -59 l564 -564 Z" /><glyph glyph-name="uniE091" unicode="&#xe091;" d="M600 1000 l0 -301 l600 0 l0 -300 l-600 0 l0 -300 l-600 453 l600 448 Z" /><glyph glyph-name="uniE092" unicode="&#xe092;" d="M600 699 l0 301 l600 -448 l-600 -453 l0 300 l-600 0 l0 300 l600 0 Z" /><glyph glyph-name="uniE093" unicode="&#xe093;" d="M500 600 l0 600 l300 0 l0 -600 l298 0 l-444 -600 l-450 600 l296 0 Z" /><glyph glyph-name="uniE094" unicode="&#xe094;" d="M549 1200 l449 -600 l-298 0 l0 -600 l-300 0 l0 600 l-296 0 l445 600 Z" /><glyph glyph-name="uniE095" unicode="&#xe095;" d="M0 1099 q35 -77 100 -135.5 q65 -58.5 147 -92.5 q82 -34 170 -52 q88 -18 183 -20 l0 301 l600 -448 l-600 -453 l0 271 q-156 8 -271.5 59.5 q-115.5 51.5 -184 138 q-68.5 86.5 -103.5 193 q-35 106.5 -41 238.5 Z" /><glyph glyph-name="uniE096" unicode="&#xe096;" d="M400 1200 l-129 -129 l294 -294 l-142 -142 l-294 294 l-129 -129 l0 400 l400 0 ZM929 129 l-129 -129 l400 0 l0 400 l-129 -129 l-294 294 l-142 -142 l294 -294 Z" /><glyph glyph-name="uniE097" unicode="&#xe097;" d="M176 1166 l295 -295 l129 130 l0 -400 l-400 0 l129 129 l-295 295 l142 141 ZM1000 601 l-129 -130 l295 -295 l-142 -141 l-295 295 l-129 -129 l0 400 l400 0 Z" /><glyph glyph-name="uniE101" unicode="&#xe101;" d="M68.5 824.5 q45.5 106.5 123 184 q77.5 77.5 184 123 q106.5 45.5 224.5 45.5 q118 0 224.5 -45.5 q106.5 -45.5 184 -123 q77.5 -77.5 123 -184 q45.5 -106.5 45.5 -224.5 q0 -118 -45.5 -224.5 q-45.5 -106.5 -123 -184 q-77.5 -77.5 -184 -123 q-106.5 -45.5 -224.5 -45.5 q-118 0 -224.5 45.5 q-106.5 45.5 -184 123 q-77.5 77.5 -123 184 q-45.5 106.5 -45.5 224.5 q0 118 45.5 224.5 ZM456 349 q-4 -20 8 -34.5 q12 -14.5 33 -14.5 l207 0 q20 0 32 14.5 q12 14.5 8 34.5 l-58 302 q-4 20 -21.5 34.5 q-17.5 14.5 -37.5 14.5 l-54 0 q-20 0 -37.5 -14.5 q-17.5 -14.5 -21.5 -34.5 l-58 -302 ZM500 800 l200 0 l0 100 l-200 0 l0 -100 Z" /><glyph glyph-name="uniE102" unicode="&#xe102;" d="M0 300 l111 0 q0 -1 0 -6 q0 -5 1 -15 q1 -10 3 -18 l35 -177 q10 -38 40.5 -61 q30.5 -23 69.5 -23 q29 0 62 18 l238 144 q21 12 40 36 q18 -22 40 -35 l239 -144 q29 -17 61 -17 q39 0 69.5 24 q30.5 24 41.5 63 l34 172 q2 8 3.5 17.5 q1.5 9.5 1.5 15 q0 5.5 -1 6.5 l111 0 l0 100 l-100 0 l0 200 l-400 0 l0 -300 l-200 0 l0 300 l-400 0 l0 -200 l-100 0 l0 -100 ZM100 800 l400 0 l0 400 l-400 0 l0 -400 ZM481 300 l-213 -191 l-18 47 q-19 48 -36 96 q-17 48 -14 48 l281 0 ZM1100 1200 l0 -400 l-400 0 l0 400 l400 0 ZM1000 300 q2 0 -7 -28.5 q-9 -28.5 -25 -72 q-16 -43.5 -23 -64 q-7 -20.5 -12 -32.5 l-202 197 l269 0 Z" /><glyph glyph-name="uniE103" unicode="&#xe103;" d="M201 998 l99 -55 q15 0 56.5 7.5 q41.5 7.5 87.5 17 q46 9.5 107.5 12.5 q61.5 3 121.5 -1.5 q60 -4.5 125.5 -30 q65.5 -25.5 122 -68 q56.5 -42.5 108.5 -120 q52 -77.5 89 -181.5 q37 -104 59 -258 q22 -154 22 -343 q-104 30 -220 58.5 q-116 28.5 -184.5 43.5 q-68.5 15 -145.5 37.5 q-77 22.5 -127.5 48 q-50.5 25.5 -103 68 q-52.5 42.5 -99.5 102.5 q-46 59 -74 124 q-28 65 -38.5 114 q-10.5 49 -9 113 q1.5 64 5.5 94 q4 30 13 83 l-216 193 l0 143 l201 -202 ZM267 760 q89 -204 458 -401 l61 -32 q61 -32 139.5 -89.5 q78.5 -57.5 113.5 -108.5 q17 -25 33.5 -39.5 q16.5 -14.5 26.5 -14.5 q10 0 17 5 q8 9 6 19 q-2 10 -24 60 q-41 84 -86.5 148 q-45.5 64 -99 111.5 q-53.5 47.5 -102 79 q-48.5 31.5 -118.5 69.5 q-312 168 -367 234 q-67 83 -86.5 76.5 q-19.5 -6.5 28.5 -117.5 Z" /><glyph glyph-name="uniE104" unicode="&#xe104;" d="M118.5 774.46 q7.5 -52 39 -107 q31.5 -55 83.5 -101 q-14 32 -10.5 75 q3.5 43 15 81.5 q11.5 38.5 40.5 61.5 q29 23 67 13 q18 -4 31 -12 q13 -8 21 -20.5 q8 -12.5 13.5 -24 q5.5 -11.5 6 -31.5 q0.5 -20 1 -33.5 q0.5 -13.5 -3.5 -39.5 q-4 -26 -6 -39.5 q-2 -13.5 -8 -43 q-6 -29.5 -8 -41.5 q-15 -83 8 -166.5 q23 -83.5 60 -138 q37 -54.5 88.5 -105.5 q51.5 -51 72.5 -66.5 q21 -15.5 34 -23.5 q-51 149 -48.5 257.5 q2.5 108.5 44 175.5 q41.5 67 120.5 100 q18 7 33 9 q71 5 32 -154 q-21 -85 -43 -129 q164 109 246.5 278.5 q82.5 169.5 44.5 341.5 q-15 67 -47 122 q-32 55 -65.5 88.5 q-33.5 33.5 -87 64 q-53.5 30.5 -87.5 44.5 q-34 14 -91 34 q-24 6 -42 8 q-18 2 -30.5 2.5 q-12.5 0.5 -19.5 -5 q-7 -5.5 -11 -9.5 q-4 -4 -2.5 -15.5 q1.5 -11.5 3 -19 q1.5 -7.5 9 -23.5 q7.5 -16 12 -26 q4.5 -10 14.5 -29 q22 -44 37.5 -80.5 q15.5 -36.5 20.5 -69.5 q17 -100 -26 -184 q-43 -84 -122 -164 q20 39 13 157.5 q-7 118.5 -39 184.5 q-15 30 -35 60.5 q-20 30.5 -48 61.5 q-28 31 -57 49.5 q-29 18.5 -62 23.5 q-33 5 -64 -16 q-70 -45 -105 -108.5 q-35 -63.5 -44 -119.5 q-5 -30 -5 -63 q0 -33 7.5 -85 Z" /><glyph glyph-name="uniE105" unicode="&#xe105;" d="M-35 640 q6 10 20 30 q14 20 49 63.5 q35 43.5 74.5 85.5 q39.5 42 97 90 q57.5 48 116.5 83.5 q59 35.5 132.5 59 q73.5 23.5 145.5 23.5 q72 0 145.5 -23.5 q73.5 -23.5 132.5 -59 q59 -35.5 116.5 -83.5 q57.5 -48 97 -90 q39.5 -42 74.5 -85.5 q35 -43.5 49 -63.5 q14 -20 20 -30 l26 -40 l-26 -40 q-6 -10 -20 -30 q-14 -20 -49 -63.5 q-35 -43.5 -74.5 -85.5 q-39.5 -42 -97 -90 q-57.5 -48 -116.5 -83.5 q-59 -35.5 -132.5 -59 q-73.5 -23.5 -145.5 -23.5 q-72 0 -145.5 23.5 q-73.5 23.5 -132.5 59 q-59 35.5 -116.5 83.5 q-57.5 48 -97 90 q-39.5 42 -74.5 85.5 q-35 43.5 -49 63.5 q-14 20 -20 30 l-26 40 l26 40 ZM120 600 q124 -171 226 -258 q-46 73 -46 158 q0 124 88 212 q88 88 212 88 q124 0 212 -88 q88 -88 88 -212 q0 -89 -49 -163 q30 25 58.5 54 q28.5 29 57.5 63.5 q29 34.5 43.5 53 q14.5 18.5 42 55 q27.5 36.5 28.5 37.5 q-11 14 -47 66 q-36 52 -58 81.5 q-22 29.5 -66.5 75.5 q-44.5 46 -85.5 71.5 q-41 25.5 -100.5 45.5 q-59.5 20 -123.5 20 q-64 0 -125 -21.5 q-61 -21.5 -103 -49.5 q-42 -28 -87.5 -75 q-45.5 -47 -68 -77.5 q-22.5 -30.5 -56 -78.5 q-33.5 -48 -40.5 -58 ZM484 438 l20 36 q19 36 57 84 q38 48 75 72 l-105 105 q-105 -67 -154 -191 l107 -106 Z" /><glyph glyph-name="uniE106" unicode="&#xe106;" d="M-35 640 q10 15 29.5 43 q19.5 28 72 88.5 q52.5 60.5 109.5 112 q57 51.5 140 102 q83 50.5 165 71.5 l-37 143 l148 0 l314 -1200 l-148 0 l-37 142 q-60 -17 -121 -17 q-72 0 -145.5 23.5 q-73.5 23.5 -132.5 59 q-59 35.5 -116.5 83.5 q-57.5 48 -97 90 q-39.5 42 -74.5 85.5 q-35 43.5 -49 63.5 q-14 20 -20 30 l-26 40 l26 40 ZM120 600 q124 -171 226 -258 q-46 73 -46 158 q0 110 71.5 193.5 q71.5 83.5 178.5 101.5 l-37 141 q-183 -54 -393 -336 ZM484 438 l14 26 q15 27 44 68 q29 41 59 69 l-23 87 l-47 47 q-105 -67 -154 -191 l107 -106 ZM780 1039 q73 -28 146.5 -79 q73.5 -51 124 -100 q50.5 -49 95.5 -102.5 q45 -53.5 63.5 -79.5 q18.5 -26 25.5 -38 l26 -40 l-26 -40 q-13 -20 -36 -52 q-23 -32 -87.5 -103.5 q-64.5 -71.5 -131.5 -125.5 l-39 146 q43 48 140 175 q-1 2 -24.5 34 q-23.5 32 -33 44 q-9.5 12 -33.5 43.5 q-24 31.5 -41 50.5 q-17 19 -40.5 44 q-23.5 25 -46 44 q-22.5 19 -44.5 34 l-38 145 Z" /><glyph glyph-name="uniE107" unicode="&#xe107;" d="M-90 1095.68 l642 -1066 q20 -32 48 -29.5 q28 2.5 48 36.5 l642 1056 q21 32 7.5 67.5 q-13.5 35.5 -50.5 35.5 l-1294 0 q-37 0 -50.5 -34 q-13.5 -34 7.5 -66 ZM500 995.68 l0 -100 l200 0 l0 100 l345 0 l-445 -723 l-445 723 l345 0 ZM500 495.68 l200 0 l0 100 l-100 300 l-100 -300 l0 -100 Z" /><glyph glyph-name="uniE108" unicode="&#xe108;" d="M100 955.37 q0 20 12 26.5 q12 6.5 29 -5.5 l359 -249 l0 263 q-100 91 -100 113 l0 64 q0 20 13 28.5 q13 8.5 32 -0.5 l94 -78 l222 0 l94 78 q19 9 32 0.5 q13 -8.5 13 -28.5 l0 -64 q0 -22 -100 -113 l0 -263 l359 249 q17 12 29 5.5 q12 -6.5 12 -26.5 l0 -41 q0 -20 -11 -44.5 q-11 -24.5 -26 -38.5 l-363 -325 l0 -339 q0 -62 -44 -106 q-44 -44 -106 -44 q-62 0 -106 44 q-44 44 -44 106 l0 339 l-363 325 q-15 14 -26 38.5 q-11 24.5 -11 44.5 l0 41 Z" /><glyph glyph-name="uniE109" unicode="&#xe109;" d="M0 400 l1100 0 l0 750 q0 20 -14.5 35 q-14.5 15 -35.5 15 l-1000 0 q-21 0 -35.5 -15 q-14.5 -15 -14.5 -35 l0 -750 ZM0 150 q0 -21 14.5 -35.5 q14.5 -14.5 35.5 -14.5 l150 0 l0 -100 l100 0 l0 100 l500 0 l0 -100 l100 0 l0 100 l150 0 q21 0 35.5 14.5 q14.5 14.5 14.5 35.5 l0 150 l-1100 0 l0 -150 ZM200 1100 l0 -100 l-100 0 l0 100 l100 0 ZM200 900 l0 -100 l-100 0 l0 100 l100 0 ZM200 700 l0 -100 l-100 0 l0 100 l100 0 ZM400 1100 l0 -100 l-100 0 l0 100 l100 0 ZM400 900 l0 -100 l-100 0 l0 100 l100 0 ZM400 700 l0 -100 l-100 0 l0 100 l100 0 ZM600 1100 l0 -100 l-100 0 l0 100 l100 0 ZM600 900 l0 -100 l-100 0 l0 100 l100 0 ZM600 700 l0 -100 l-100 0 l0 100 l100 0 ZM800 1100 l0 -100 l-100 0 l0 100 l100 0 ZM800 900 l0 -100 l-100 0 l0 100 l100 0 ZM800 700 l0 -100 l-100 0 l0 100 l100 0 ZM1000 1100 l0 -100 l-100 0 l0 100 l100 0 ZM1000 900 l0 -100 l-100 0 l0 100 l100 0 ZM1000 700 l0 -100 l-100 0 l0 100 l100 0 Z" /><glyph glyph-name="uniE110" unicode="&#xe110;" d="M341 1001 l600 -600 l159 0 l0 197 l300 -300 l-300 -295 l0 198 l-241 0 l-600 600 l-259 0 l0 200 l341 0 ZM0 201 l341 0 l181 180 l-141 142 l-122 -122 l-259 0 l0 -200 ZM859 1001 l241 0 l0 197 l300 -300 l-300 -295 l0 198 l-159 0 l-122 -123 l-141 142 l181 181 Z" /><glyph glyph-name="uniE111" unicode="&#xe111;" d="M0 700 q0 41 29.5 70.5 q29.5 29.5 70.5 29.5 l100 0 l0 300 l304 -300 l596 0 q41 0 70.5 -29.5 q29.5 -29.5 29.5 -70.5 l0 -600 q0 -41 -29.5 -70.5 q-29.5 -29.5 -70.5 -29.5 l-1000 0 q-41 0 -70.5 29.5 q-29.5 29.5 -29.5 70.5 l0 600 Z" /><glyph glyph-name="uniE112" unicode="&#xe112;" d="M100 600 q0 42 3 83 q3 41 15 104 q12 63 31.5 116 q19.5 53 58 109.5 q38.5 56.5 89 96.5 q50.5 40 129 65.5 q78.5 25.5 174.5 25.5 q96 0 174.5 -25.5 q78.5 -25.5 129 -65.5 q50.5 -40 89 -96.5 q38.5 -56.5 58 -109.5 q19.5 -53 31.5 -116 q12 -63 15 -104 q3 -41 3 -83 l0 -200 l-300 0 l0 250 q0 8 0 25 q1 24 0 47 q-1 23 -2.5 45 q-1.5 22 -7 42 q-5.5 20 -14 37.5 q-8.5 17.5 -24 31.5 q-15.5 14 -36 24 q-20.5 10 -50 15.5 q-29.5 5.5 -66.5 5.5 q-53 0 -92 -11 q-85 -25 -102 -117 q-6 -32 -6 -145 l0 -250 l-300 0 l0 200 ZM400 300 l0 -300 l-300 0 l0 300 l300 0 ZM1100 300 l0 -300 l-300 0 l0 300 l300 0 Z" /><glyph glyph-name="uniE113" unicode="&#xe113;" d="M550 184 l578 579 l-226 227 l-353 -353 l-352 353 l-227 -227 l580 -579 Z" /><glyph glyph-name="uniE114" unicode="&#xe114;" d="M297 218 l352 353 l353 -353 l226 227 l-578 579 l-580 -579 l227 -227 Z" /><glyph glyph-name="uniE115" unicode="&#xe115;" d="M-2 400 l0 600 l800 0 l-215 -200 l-385 0 l0 -400 l203 0 l-300 -283 l-299 283 l196 0 ZM1198 100 l0 600 l200 0 l-299 283 l-299 -283 l198 0 l0 -400 l-381 0 l-215 -200 l796 0 Z" /><glyph glyph-name="uniE116" unicode="&#xe116;" d="M118 736 q5 22 27.5 43 q22.5 21 54.5 21 l633 0 l-48 200 l-535 0 q-21 0 -35.5 14.5 q-14.5 14.5 -14.5 35.5 q0 20 14.5 35 q14.5 15 35.5 15 l50 0 l0 50 q0 20 14.5 35 q14.5 15 35.5 15 q21 0 35.5 -15 q14.5 -15 14.5 -35 l0 -50 l300 0 l0 50 q0 20 14.5 35 q14.5 15 35.5 15 q21 0 35.5 -15 q14.5 -15 14.5 -35 l0 -50 l31 0 q18 0 33 -11 q15 -11 19 -17.5 q4 -6.5 6 -10.5 l201 -961 l54 0 q20 0 35 -14.5 q15 -14.5 15 -35.5 q0 -21 -15 -35.5 q-15 -14.5 -35 -14.5 l-94 0 q-17 0 -30.5 10.5 q-13.5 10.5 -18.5 27.5 l-38 162 l-896 0 q-25 0 -39 19 q-15 18 -10 42 l100 475 Z" /><glyph glyph-name="uniE117" unicode="&#xe117;" d="M1200 1100 l0 -800 l-1200 0 l0 800 l1200 0 ZM1200 200 l0 -100 l-500 0 q0 -41 -29.5 -70.5 q-29.5 -29.5 -70.5 -29.5 l-300 0 q-41 0 -70.5 29.5 q-29.5 29.5 -29.5 70.5 l-200 0 l0 100 l1200 0 Z" /><glyph glyph-name="uniE118" unicode="&#xe118;" d="M1201 1100 l300 -700 l-1200 0 l-300 700 l1200 0 ZM201 300 l1000 0 l0 -200 l-500 0 q0 -41 -29.5 -70.5 q-29.5 -29.5 -70.5 -29.5 l-300 0 q-41 0 -70.5 29.5 q-29.5 29.5 -29.5 70.5 l-200 0 l0 600 l200 -400 Z" /><glyph glyph-name="uniE119" unicode="&#xe119;" d="M600 1200 l298 -300 l-198 0 l0 -600 l198 0 l-298 -300 l-298 300 l198 0 l0 600 l-198 0 l298 300 Z" /><glyph glyph-name="uniE120" unicode="&#xe120;" d="M300 898 l0 -197 l600 0 l0 197 l300 -297 l-300 -298 l0 198 l-600 0 l0 -198 l-300 298 l300 297 Z" /><glyph glyph-name="uniE121" unicode="&#xe121;" d="M0 1100 q0 41 29.5 70.5 q29.5 29.5 70.5 29.5 l1000 0 q41 0 70.5 -29.5 q29.5 -29.5 29.5 -70.5 l0 -100 q0 -41 -29.5 -70.5 q-29.5 -29.5 -70.5 -29.5 l-1000 0 q-41 0 -70.5 29.5 q-29.5 29.5 -29.5 70.5 l0 100 ZM1169 800 l-172 -732 q-5 -23 -23.5 -45.5 q-18.5 -22.5 -37.5 -22.5 l-672 0 q-20 0 -38 19.5 q-18 19.5 -23 41.5 l-172 739 l1138 0 ZM800 1000 l100 0 l0 100 l-100 0 l0 -100 ZM1000 1000 l100 0 l0 100 l-100 0 l0 -100 Z" /><glyph glyph-name="uniE122" unicode="&#xe122;" d="M-101 600 q0 15 11 31.5 q11 16.5 24 27.5 q13 11 30 21.5 q17 10.5 24 14 q7 3.5 11 5.5 l0 -250 l-25 13 q-25 13 -50 38 q-25 25 -25 49 l0 50 ZM100 700 q0 14 55 351 q4 21 18.5 35 q14.5 14 34.5 14 l83 0 q3 0 8 0 q15 0 21 -0.5 q6 -0.5 11 -6 q5 -5.5 3 -17.5 l-47 -276 l38 0 l675 200 l0 -850 l-675 250 l-200 0 q-4 0 -7.5 0.5 q-3.5 0.5 -6 1.5 q-2.5 1 -4.5 3.5 q-2 2.5 -3 4 q-1 1.5 -2 5 q-1 3.5 -1.5 5.5 q-0.5 2 -0.5 7 q0 5 0 7 q0 2 0 8 q0 6 0 8 l0 250 ZM1100 1000 q0 20 14.5 35 q14.5 15 35.5 15 q20 0 35 -15 q15 -15 15 -35 l0 -850 q0 -21 -15 -35.5 q-15 -14.5 -35 -14.5 q-21 0 -35.5 14.5 q-14.5 14.5 -14.5 35.5 l0 850 Z" /><glyph glyph-name="uniE123" unicode="&#xe123;" d="M74 850 q0 20 13 40.5 q13 20.5 31 27.5 l58 20 q58 20 178.5 40.5 q120.5 20.5 245.5 20.5 q79 0 158.5 -9 q79.5 -9 132.5 -19.5 q53 -10.5 103 -25 q50 -14.5 65 -20 q15 -5.5 23 -8.5 q18 -7 31 -27 q13 -20 13 -40 q0 -21 -13.5 -35.5 q-13.5 -14.5 -33.5 -14.5 l-17 0 l-118 -173 l-63 -327 q-15 -77 -76 -140.5 q-61 -63.5 -144 -82.5 q0 -1 18 -37 q6 -19 -3 -29.5 q-9 -10.5 -29 -10.5 l-94 0 q-20 0 -29 13 q-9 13 -3 32 l18 32 q-83 20 -144 83 q-61 63 -76 140 l-63 327 l-117 173 l-18 0 q-20 0 -33.5 14.5 q-13.5 14.5 -13.5 35.5 ZM497 1090 q49 6 103 6 q54 0 102 -6 q-11 49 -39 79.5 q-28 30.5 -63 30.5 q-35 0 -63 -30.5 q-28 -30.5 -40 -79.5 Z" /><glyph glyph-name="uniE124" unicode="&#xe124;" d="M200 601 l-179 -156 l233 -44 l-78 -225 l224 78 l45 -233 l155 180 l155 -180 l45 233 l224 -78 l-78 225 l234 44 l-180 156 l180 155 l-234 45 l78 224 l-224 -78 l-45 233 l-155 -179 l-155 179 l-45 -233 l-224 78 l78 -224 l-233 -45 l179 -155 Z" /><glyph glyph-name="uniE125" unicode="&#xe125;" d="M0 500 l200 0 l0 600 l-200 0 l0 -600 ZM300 625 q0 -37 20 -63 l145 -196 l96 -198 q14 -28 38 -48 q24 -20 51 -20 l50 0 q39 0 69.5 40.5 q30.5 40.5 30.5 84.5 l0 150 q0 7 -28 125 l328 0 q39 0 69.5 40.5 q30.5 40.5 30.5 84.5 l0 100 q0 43 -29 74 l-238 344 q-37 57 -83 57 l-250 0 q-15 0 -139 -100 l-61 0 q-100 0 -100 -75 l0 -400 ZM500 1000 l136 100 l214 0 l250 -375 l0 -125 l-450 0 l50 -225 l0 -175 l-50 0 l-100 212 l-150 213 l0 375 l100 0 Z" /><glyph glyph-name="uniE126" unicode="&#xe126;" d="M200 700 l0 -600 l-200 0 l0 600 l200 0 ZM300 575 q0 37 20 63 l145 196 l96 198 q14 28 38 48 q24 20 51 20 l50 0 q39 0 69.5 -40.5 q30.5 -40.5 30.5 -84.5 l0 -150 q0 -7 -28 -125 l328 0 q39 0 69.5 -40.5 q30.5 -40.5 30.5 -84.5 l0 -100 q0 -43 -29 -74 l-238 -344 q-37 -57 -83 -57 l-250 0 q-15 0 -139 100 l-61 0 q-100 0 -100 75 l0 400 ZM400 200 l100 0 l136 -100 l214 0 l250 375 l0 125 l-450 0 l50 225 l0 175 l-50 0 l-100 -213 l-150 -212 l0 -375 Z" /><glyph glyph-name="uniE127" unicode="&#xe127;" d="M208 1009 l0 -600 l-200 0 l0 600 l200 0 ZM308 934 q0 13 83 94 q83 81 90 81 l341 0 q15 0 28.5 -19.5 q13.5 -19.5 20.5 -41.5 l130 -339 l107 0 q84 0 138.5 -39 q54.5 -39 54.5 -111 q0 -72 -53.5 -110 q-53.5 -38 -138.5 -38 l-302 0 l85 -121 q11 -14 11 -32 q0 -20 -14 -34 l-109 -112 q-12 -12 -29 -12 q-11 0 -25 6 l-362 230 l-14 9 q-14 10 -28 28.5 q-14 18.5 -14 35.5 l0 525 ZM408 417 l339 -236 l86 83 l-147 183 q-10 13 -10 27 q0 8 5 20 q2 3 4 5.5 q2 2.5 4 4 q2 1.5 5.5 2.5 q3.5 1 5 1.5 q1.5 0.5 6 1 q4.5 0.5 6.5 0.5 q2 0 7.5 0 q5.5 0 6.5 0 l457 0 q16 0 25 14.5 q9 14.5 9 34.5 q0 21 -9 36 q-9 15 -25 15 l-203 0 q-15 0 -28.5 20 q-13.5 20 -19.5 41 l-131 339 l-293 0 l-100 -89 l0 -503 Z" /><glyph glyph-name="uniE128" unicode="&#xe128;" d="M-46 671 q55 39 139 39 l107 0 l130 339 q6 21 19.5 41 q13.5 20 29.5 20 l341 0 q8 0 94 -80.5 q86 -80.5 86 -93.5 l0 -526 q0 -17 -16.5 -36.5 q-16.5 -19.5 -26.5 -26 q-10 -6.5 -17 -10.5 l-365 -230 q-14 -6 -25 -6 q-16 0 -29 12 l-109 113 q-14 13 -14 34 q0 16 11 32 l85 121 l-302 -1 q-85 0 -139 38 q-54 38 -54 110 q0 72 55 111 ZM-1 510 l476 0 q1 0 6.5 0 q5.5 0 7.5 0 q2 0 6.5 -0.5 q4.5 -0.5 6.5 -1 q2 -0.5 5.5 -1.5 q3.5 -1 5 -2.5 q1.5 -1.5 4 -4 q2.5 -2.5 3.5 -5.5 q5 -9 5 -20 q0 -15 -10 -26 l-145 -184 l87 -83 l343 237 l0 502 l-107 89 l-293 0 l-131 -339 q-6 -20 -19.5 -40.5 q-13.5 -20.5 -28.5 -20.5 l-222 0 l0 -100 ZM1200 1010 l0 -600 l-200 0 l0 600 l200 0 Z" /><glyph glyph-name="uniE129" unicode="&#xe129;" d="M97 575 q-16 -31 6 -53 l112 -110 q14 -13 32.5 -13.5 q18.5 -0.5 33.5 11.5 l121 84 l0 -302 q0 -85 38 -138.5 q38 -53.5 110 -53.5 q72 0 111 55 q39 55 39 139 l0 106 l339 131 q21 6 41 19.5 q20 13.5 20 28.5 l0 342 q0 7 -81 90 q-81 83 -94 83 l-525 0 q-17 0 -36.5 -15.5 q-19.5 -15.5 -26 -25 q-6.5 -9.5 -10.5 -15.5 l-230 -363 ZM408 894 l503 0 l89 -100 l0 -294 l-339 -130 q-21 -6 -41 -19.5 q-20 -13.5 -20 -29.5 l0 -202 q0 -21 -25 -30.5 q-25 -9.5 -50 -0.5 q-25 9 -25 31 l0 456 q0 1 0 6.5 q0 5.5 0 7.5 q0 2 -0.5 6.5 q-0.5 4.5 -1 6.5 q-0.5 2 -1.5 5.5 q-1 3.5 -2.5 5 q-1.5 1.5 -4 4 q-2.5 2.5 -5.5 3.5 q-25 13 -47 -5 l-183 -146 l-83 86 l236 339 ZM1000 1294 l0 -200 l-600 0 l0 200 l600 0 Z" /><glyph glyph-name="uniE130" unicode="&#xe130;" d="M231 367 l10 -15 q10 -14 28.5 -28 q18.5 -14 35.5 -14 l525 0 q13 0 94 83 q81 83 81 90 l0 342 q0 15 -20.5 28.5 q-20.5 13.5 -40.5 19.5 l-339 131 l0 106 q0 84 -39 139 q-39 55 -111 55 q-72 0 -110.5 -54 q-38.5 -54 -38.5 -138 q0 -46 0.5 -148.5 q0.5 -102.5 0.5 -153.5 l-121 85 q-15 11 -34 10.5 q-19 -0.5 -32 -13.5 l-112 -110 q-22 -22 -6 -53 l229 -362 ZM159 835 l184 -146 q22 -18 46 -5 q6 3 9.5 7 q3.5 4 5 12 q1.5 8 1.5 11.5 q0 3.5 0 14.5 l0 456 q0 22 25 31 q25 9 50 0 q25 -9 25 -31 l0 -202 q0 -15 20 -29 q20 -14 40 -20 l340 -130 l0 -294 l-89 -100 l-503 0 l-236 339 l82 86 ZM905 210 l0 -200 l-600 0 l0 200 l600 0 Z" /><glyph glyph-name="uniE131" unicode="&#xe131;" d="M5 598 q0 162 80 299.5 q80 137.5 218 217.5 q138 80 300 80 q162 0 299.5 -80 q137.5 -80 217.5 -217.5 q80 -137.5 80 -299.5 q0 -162 -80 -300 q-80 -138 -217.5 -218 q-137.5 -80 -299.5 -80 q-122 0 -232.5 47.5 q-110.5 47.5 -190.5 127.5 q-80 80 -127.5 190.5 q-47.5 110.5 -47.5 232.5 ZM598 494 l0 -197 l402 298 l-402 294 l2 -194 l-300 0 l-2 -201 l300 0 Z" /><glyph glyph-name="uniE132" unicode="&#xe132;" d="M0 598 q0 162 80 299.5 q80 137.5 217.5 217.5 q137.5 80 299.5 80 q162 0 300 -80 q138 -80 218 -217.5 q80 -137.5 80 -299.5 q0 -122 -47.5 -232.5 q-47.5 -110.5 -127.5 -190.5 q-80 -80 -190.5 -127.5 q-110.5 -47.5 -232.5 -47.5 q-121 0 -231.5 47.5 q-110.5 47.5 -190.5 127.5 q-80 80 -127.5 190.5 q-47.5 110.5 -47.5 232.5 ZM602 297 l0 197 l300 0 l-2 201 l-300 0 l2 194 l-402 -294 l402 -298 Z" /><glyph glyph-name="uniE133" unicode="&#xe133;" d="M5 598 q0 162 80 299.5 q80 137.5 218 217.5 q138 80 300 80 q162 0 299.5 -80 q137.5 -80 217.5 -217.5 q80 -137.5 80 -299.5 q0 -162 -80 -300 q-80 -138 -217.5 -218 q-137.5 -80 -299.5 -80 q-122 0 -232.5 47.5 q-110.5 47.5 -190.5 127.5 q-80 80 -127.5 190.5 q-47.5 110.5 -47.5 232.5 ZM600 195 l300 400 l-200 0 l0 300 l-200 0 l0 -300 l-200 0 l300 -400 Z" /><glyph glyph-name="uniE134" unicode="&#xe134;" d="M5 598 q0 162 80 299.5 q80 137.5 218 217.5 q138 80 300 80 q162 0 299.5 -80 q137.5 -80 217.5 -217.5 q80 -137.5 80 -299.5 q0 -162 -80 -300 q-80 -138 -217.5 -218 q-137.5 -80 -299.5 -80 q-122 0 -232.5 47.5 q-110.5 47.5 -190.5 127.5 q-80 80 -127.5 190.5 q-47.5 110.5 -47.5 232.5 ZM500 595 l0 -300 l200 0 l0 300 l200 0 l-300 400 l-300 -400 l200 0 Z" /><glyph glyph-name="uniE135" unicode="&#xe135;" d="M5 598 q0 162 80 299.5 q80 137.5 218 217.5 q138 80 300 80 q162 0 299.5 -80 q137.5 -80 217.5 -217.5 q80 -137.5 80 -299.5 q0 -122 -47.5 -232.5 q-47.5 -110.5 -127.5 -190.5 q-80 -80 -190.5 -127.5 q-110.5 -47.5 -231.5 -47.5 q-122 0 -232.5 47.5 q-110.5 47.5 -190.5 127.5 q-80 80 -127.5 190.5 q-47.5 110.5 -47.5 232.5 ZM254 415 q5 -23 29.5 -79.5 q24.5 -56.5 27.5 -90.5 q1 -7 -8.5 -18.5 q-9.5 -11.5 -6.5 -22.5 q3 -15 34 -34.5 q31 -19.5 52 -26.5 q15 -6 45.5 -2.5 q30.5 3.5 45.5 0.5 q8 -1 39 -6 q31 -5 44 -8 q13 -3 34.5 -12 q21.5 -9 36.5 -21 q18 3 37 0 q15 12 56 23 q41 11 64.5 28.5 q23.5 17.5 16.5 53.5 l-11 4 q-12 5 -39 3.5 q-27 -1.5 -58 -14.5 q9 5 -2 44 q12 7 43.5 23 q31.5 16 49 26.5 q17.5 10.5 38 30 q20.5 19.5 30.5 42.5 q-9 11 -20.5 15.5 q-11.5 4.5 -20.5 4.5 q-9 0 -24.5 -1.5 q-15.5 -1.5 -23.5 -1.5 q-16 19 -10 37 q-22 9 -34 21.5 q-12 12.5 -15.5 22.5 q-3.5 10 -8.5 31 q-5 21 -10 35 q-4 10 -22.5 31.5 q-18.5 21.5 -14.5 44.5 q4 21 -5.5 57.5 q-9.5 36.5 -9.5 39.5 l-14 -8 q-14 -9 -34 -27.5 q-20 -18.5 -32 -37.5 q-6 -10 -19.5 -13.5 q-13.5 -3.5 -33.5 -4 q-20 -0.5 -26 -1.5 q-16 6 -22 22 q-11 30 8 58 q19 29 42 4 q26 -29 38.5 -20 q12.5 9 16.5 28 q4 19 2 41 q4 3 24.5 7 q20.5 4 26.5 17 q0 2 -0.5 25.5 q-0.5 23.5 3.5 25.5 q16 23 66 -12 q16 -11 39 -16.5 q23 -5.5 39 -6.5 q16 -1 46.5 -1.5 q30.5 -0.5 39.5 -0.5 q17 11 52 19 q35 8 49 15 q13 7 36 7.5 q23 0.5 37 9.5 q-3 31 -20.5 62 q-17.5 31 -34.5 49 q-17 18 -47 47 q-117 115 -221 112 q-5 -12 -4.5 -17 q0.5 -5 3.5 -14.5 q3 -9.5 3 -15.5 q-45 -9 -87 -80 q-3 -20 20 -57 q23 -37 15 -55 q-29 4 -57.5 -11 q-28.5 -15 -59.5 -38.5 q-31 -23.5 -53 -31.5 q-84 -30 -108 -42 q-8 -4 -20 -13.5 q-12 -9.5 -23 -15 q-11 -5.5 -23 -5.5 q1 -25 -16 -60 q-17 -35 -17 -44 q6 -28 -7.5 -87.5 q-13.5 -59.5 -5.5 -92.5 ZM518 279 q12 8 30 14 q18 6 32 8 q14 2 36 5 q22 3 31 5 q0 -1 -17 -43.5 q-17 -42.5 -17 -66.5 q-7 4 -16 12.5 q-9 8.5 -14.5 14.5 q-5.5 6 -14 6 q-8.5 0 -18.5 -10 q-3 7 -16 25 q-13 18 -16 30 ZM693 192 l-1 0 l1 0 Z" /><glyph glyph-name="uniE136" unicode="&#xe136;" d="M15 1074.85 l111 110 q15 16 36.5 16 q21.5 0 36.5 -16 l596 -596 q130 47 253 -23 q164 -92 151 -267 l-251 126 l-145 -232 l259 -138 q-142 -101 -306 -9 q-96 54 -135 154.5 q-39 100.5 -6 201.5 l-600 599 q-15 16 -15 37.5 q0 21.5 15 36.5 Z" /><glyph glyph-name="uniE137" unicode="&#xe137;" d="M0 1096 q0 41 29.5 70.5 q29.5 29.5 70.5 29.5 l1000 0 q41 0 70.5 -29.5 q29.5 -29.5 29.5 -70.5 l0 -100 q0 -41 -29.5 -70.5 q-29.5 -29.5 -70.5 -29.5 l-1000 0 q-41 0 -70.5 29.5 q-29.5 29.5 -29.5 70.5 l0 100 ZM0 696 q0 41 29.5 70.5 q29.5 29.5 70.5 29.5 l1000 0 q41 0 70.5 -29.5 q29.5 -29.5 29.5 -70.5 l0 -100 q0 -41 -29.5 -70.5 q-29.5 -29.5 -70.5 -29.5 l-1000 0 q-41 0 -70.5 29.5 q-29.5 29.5 -29.5 70.5 l0 100 ZM0 296 q0 41 29.5 70.5 q29.5 29.5 70.5 29.5 l1000 0 q41 0 70.5 -29.5 q29.5 -29.5 29.5 -70.5 l0 -100 q0 -41 -29.5 -70.5 q-29.5 -29.5 -70.5 -29.5 l-1000 0 q-41 0 -70.5 29.5 q-29.5 29.5 -29.5 70.5 l0 100 ZM600 596 l500 0 l0 100 l-500 0 l0 -100 ZM800 996 l300 0 l0 100 l-300 0 l0 -100 ZM900 196 l200 0 l0 100 l-200 0 l0 -100 Z" /><glyph glyph-name="uniE138" unicode="&#xe138;" d="M1100 100 l0 -100 l-1000 0 l0 100 l1000 0 ZM500 700 l0 500 l200 -200 l0 -300 l350 -500 l-900 0 l350 500 Z" /><glyph glyph-name="uniE139" unicode="&#xe139;" d="M0 1100 q0 41 29.5 70.5 q29.5 29.5 70.5 29.5 l1000 0 q41 0 70.5 -29.5 q29.5 -29.5 29.5 -70.5 l0 -200 l-1200 0 l0 200 ZM500 800 l0 -100 l200 0 l0 100 l500 0 l0 -400 q0 -41 -29.5 -70.5 q-29.5 -29.5 -70.5 -29.5 l-300 0 l0 -100 q0 -41 -29.5 -70.5 q-29.5 -29.5 -70.5 -29.5 l-200 0 q-41 0 -70.5 29.5 q-29.5 29.5 -29.5 70.5 l0 100 l-300 0 q-41 0 -70.5 29.5 q-29.5 29.5 -29.5 70.5 l0 400 l500 0 ZM500 200 l200 0 l0 100 l-200 0 l0 -100 Z" /><glyph glyph-name="uniE140" unicode="&#xe140;" d="M400 1200 l-129 -129 l200 -200 l-142 -142 l-200 200 l-129 -129 l0 400 l400 0 ZM0 0 l400 0 l-129 129 l200 200 l-142 142 l-200 -200 l-129 129 l0 -400 ZM929 1071 l-129 129 l400 0 l0 -400 l-129 129 l-200 -200 l-142 142 l200 200 ZM871 471 l200 -200 l129 129 l0 -400 l-400 0 l129 129 l-200 200 l142 142 Z" /><glyph glyph-name="uniE141" unicode="&#xe141;" d="M80 895 q80 137 217 217 q137 80 299 80 q162 0 299 -80 q137 -80 217 -217 q80 -137 80 -299 q0 -162 -80 -299 q-80 -137 -217 -217 q-137 -80 -299 -80 q-162 0 -299 80 q-137 80 -217 217 q-80 137 -80 299 q0 162 80 299 ZM182 596 q0 -171 121.5 -292.5 q121.5 -121.5 292.5 -121.5 q171 0 292.5 121.5 q121.5 121.5 121.5 292.5 q0 172 -121.5 293 q-121.5 121 -292.5 121 q-171 0 -292.5 -121 q-121.5 -121 -121.5 -293 ZM307 576 q16 16 38 16 q23 0 39 -16 q16 -16 16 -39 q0 -22 -16 -38 q-16 -16 -39 -16 q-23 0 -38.5 15.5 q-15.5 15.5 -15.5 38.5 q0 23 16 39 ZM416 380.5 q16 16.5 39 16.5 q22 0 38 -16 q16 -16 16 -39 q0 -23 -16 -39 q-16 -16 -38 -16 q-23 0 -39 16.5 q-16 16.5 -16 38.5 q0 22 16 38.5 ZM514 583 q0 36 25.5 61.5 q25.5 25.5 61.5 25.5 q36 0 61.5 -25.5 q25.5 -25.5 25.5 -61.5 q0 -29 -17 -51 l55 -145 q15 10 29 10 q22 0 38 -16 q16 -16 16 -39 q0 -23 -16 -39 q-16 -16 -38 -16 q-23 0 -39 16.5 q-16 16.5 -16 38.5 q0 14 9 28 l-1 1 l-122 126 q-31 5 -51.5 29.5 q-20.5 24.5 -20.5 56.5 ZM800 537 q0 23 16 39 q16 16 39 16 q22 0 38 -16 q16 -16 16 -39 q0 -23 -15.5 -38.5 q-15.5 -15.5 -38.5 -15.5 q-23 0 -39 16 q-16 16 -16 38 Z" /><glyph glyph-name="uniE142" unicode="&#xe142;" d="M41 721 l512 -512 q71 -71 111 -95 q90 -55 197 -55 q83 0 152 33 q79 36 130 103 q51 67 67 154 q17 93 -11 183 q-28 90 -95 157 l-517 511 l-69 -60 l-7 -7 l253 -256 l252 -249 q91 -91 98 -192 q8 -98 -51 -175.5 q-59 -77.5 -154 -94.5 q-23 -4 -48 -4 q-54 0 -107.5 26.5 q-53.5 26.5 -84 54 q-30.5 27.5 -82.5 79.5 l-348 348 q-20 20 -44 41 q-38 36 -56 54 q-18 18 -42 50 q-24 32 -31.5 63 q-7.5 31 -2.5 66 q9 63 54 96 q45 33 100 33 q73 0 125 -52 l547 -547 q36 -36 20 -75 q-15 -36 -53 -36 q-27 0 -50 23 q-19 16 -39 38 l-377 373 l-69 -67 l7 -7 l389 -396 q35 -35 67.5 -51.5 q32.5 -16.5 78.5 -16.5 q9 0 29 2 q90 17 117 104 q15 47 3 96 q-12 49 -47 84 l-394 394 q-17 17 -57 61 q-39 43 -59.5 64 q-20.5 21 -52.5 45.5 q-32 24.5 -65 40.5 q-56 28 -119 28 q-70 0 -129 -32 q-59 -32 -94 -89 q-48 -78 -35 -173 q13 -95 81 -163 Z" /><glyph glyph-name="uniE143" unicode="&#xe143;" d="M80 382 q0 46 17.5 91 q17.5 45 61 99 q43.5 54 77 89.5 q33.5 35.5 104.5 105.5 q66 65 101 100 q35 35 92 99.5 q57 64.5 100 122.5 l16 23 l17 -23 q96 -131 293 -322 q71 -70 104.5 -105.5 q33.5 -35.5 77 -89.5 q43.5 -54 61 -99 q17.5 -45 17.5 -91 q0 -131 -97 -229.5 q-97 -98.5 -226 -98.5 q-143 0 -246 129 q-98 -129 -241 -129 q-132 0 -230.5 98.5 q-98.5 98.5 -98.5 229.5 ZM250 382 q0 -69 49.5 -118.5 q49.5 -49.5 109.5 -49.5 q72 0 123 80 l114 174 l118 -171 q58 -83 132 -83 q57 0 105 48.5 q48 48.5 48 119.5 q0 28 -31 72 q-31 44 -64.5 79 q-33.5 35 -97.5 97 l-12 12 q-113 111 -195 203 q-97 -111 -190 -201 l-22 -22 q-64 -62 -95 -94.5 q-31 -32.5 -61.5 -75.5 q-30.5 -43 -30.5 -70 Z" /><glyph glyph-name="uniE144" unicode="&#xe144;" d="M57 847 q0 -93 66 -159 l55 -55 q29 56 75 101 l18 18 l-95 95 l247 248 l389 -389 l-212 -212 l105 -105 q11 8 19 17 l141 141 q66 66 66 159 q0 93 -66 159 l-283 283 q-66 66 -159 66 q-91 0 -159 -66 l-141 -142 q-66 -64 -66 -159 ZM269 494 q0 -95 66 -159 l283 -283 q64 -66 159 -66 q93 0 159 66 l141 141 q66 66 66 159 q0 43 -27.5 96 q-27.5 53 -62.5 88 l-29 29 q-30 -51 -77 -100 l-18 -17 l95 -96 l-247 -247 l-389 389 l212 212 l-105 105 q-12 -10 -19 -17 l-141 -141 q-66 -66 -66 -159 Z" /><glyph glyph-name="uniE145" unicode="&#xe145;" d="M200 1100 q0 41 29.5 70.5 q29.5 29.5 70.5 29.5 l600 0 q41 0 70.5 -29.5 q29.5 -29.5 29.5 -70.5 l0 -953 q0 -21 -29 -46 q-29 -25 -79 -48 q-50 -23 -127 -38 q-77 -15 -162 -15 q-85 0 -163 15 q-78 15 -129 38 q-51 23 -81 48 q-30 25 -30 46 l0 953 ZM300 200 l600 0 l0 700 l-600 0 l0 -700 ZM526.5 976.5 q30.5 -30.5 73.5 -30.5 q43 0 73.5 30.5 q30.5 30.5 30.5 73.5 q0 43 -30.5 73.5 q-30.5 30.5 -73.5 30.5 q-43 0 -73.5 -30.5 q-30.5 -30.5 -30.5 -73.5 q0 -43 30.5 -73.5 Z" /><glyph glyph-name="uniE146" unicode="&#xe146;" d="M380 897 l208 -207 l212 210 l0 -300 l279 -267 l36 35 q14 15 35 15 q21 0 35 -15 q15 -14 15 -35 q0 -21 -15 -36 l-283 -282 q-14 -15 -35 -15 q-21 0 -35 15 q-15 14 -15 35 q0 21 15 35 l35 36 l-267 279 l-300 0 l210 212 l-207 208 l-303 380 l380 -303 Z" /><glyph glyph-name="uniE148" unicode="&#xe148;" d="M295 834 q3 86 15.5 139.5 q12.5 53.5 52.5 93.5 q85 87 237 104 l0 78 l100 0 l0 -77 q155 -11 244 -96 q89 -85 89 -224 q0 -62 -20 -112.5 q-20 -50.5 -47.5 -80.5 q-27.5 -30 -67.5 -52 q-40 -22 -70 -31.5 q-30 -9.5 -64 -16.5 l-64 -14 l0 -307 q74 13 101 50.5 q27 37.5 35 109.5 l159 0 q-3 -66 -24.5 -118.5 q-21.5 -52.5 -51.5 -84 q-30 -31.5 -71 -53.5 q-41 -22 -75.5 -31.5 q-34.5 -9.5 -72.5 -13.5 l0 -79 l-100 0 l0 78 q-79 7 -144 40.5 q-65 33.5 -109 101 q-44 67.5 -44 159.5 q0 55 16.5 99 q16.5 44 40 72.5 q23.5 28.5 62.5 52 q39 23.5 72 36 q33 12.5 79 26.5 q2 0 11.5 3 q9.5 3 15.5 4 l0 335 q-74 -15 -117.5 -64.5 q-43.5 -49.5 -48.5 -126.5 l-139 0 ZM466 378 q0 -73 36.5 -102.5 q36.5 -29.5 97.5 -37.5 l0 274 q-4 -1 -11 -3 q-28 -7 -38 -10 q-10 -3 -31 -13.5 q-21 -10.5 -29.5 -22.5 q-8.5 -12 -16.5 -34 q-8 -22 -8 -51 ZM700 719 q82 25 126 60.5 q44 35.5 44 99.5 q0 133 -170 151 l0 -311 Z" /><glyph glyph-name="uniE149" unicode="&#xe149;" d="M321 699 q36 71 30 142.5 q-6 71.5 -54 126.5 q-9 10 -17.5 18.5 q-8.5 8.5 -14.5 14 q-6 5.5 -14.5 12 q-8.5 6.5 -13.5 9.5 q-5 3 -15.5 10 q-10.5 7 -16.5 11 l55 145 l24 -11 q23 -12 66 -25 q43 -13 82 -17 q50 -4 155 29 q105 33 128 33 q42 0 61.5 -1.5 q19.5 -1.5 59 -13 q39.5 -11.5 80.5 -36.5 l-50 -147 q-60 30 -136 30 q-33 0 -103 -17 q-70 -17 -103 -16 q-21 0 -70 7 q-49 7 -84 18 q58 -54 99 -113 q21 -29 31.5 -94 q10.5 -65 2.5 -115 l197 0 l0 -100 l-241 0 q-30 -51 -41.5 -72 q-11.5 -21 -28 -62.5 q-16.5 -41.5 -16.5 -69.5 q0 -57 41 -101 q20 -21 62 -35.5 q42 -14.5 79 -14.5 q36 0 76 14 q40 14 74 51.5 q34 37.5 34 89.5 l153 0 q0 -119 -101 -208 q-101 -89 -230 -89 q-166 0 -263 88 q-45 40 -68.5 87 q-23.5 47 -25 90 q-1.5 43 3 72.5 q4.5 29.5 14.5 55.5 q20 55 44 104 l-166 0 l0 100 l221 0 Z" /><glyph glyph-name="uniE150" unicode="&#xe150;" d="M200 900 l0 -900 l200 0 l0 900 l198 0 l-298 300 l-298 -300 l198 0 ZM800 300 l0 900 l200 0 l0 -900 l198 0 l-298 -300 l-298 300 l198 0 Z" /><glyph glyph-name="uniE151" unicode="&#xe151;" d="M300 1200 l298 -300 l-198 0 l0 -900 l-200 0 l0 900 l-198 0 l298 300 ZM1000 1200 l0 -100 l-200 0 l0 -100 l-100 0 l0 200 l300 0 ZM900 800 l0 100 l-99 0 l0 100 l100 0 l0 -100 l99 0 l0 -200 l-300 0 l0 100 l200 0 ZM800 500 l0 -100 l100 0 l0 100 l100 0 l0 -500 l-300 0 l0 500 l100 0 ZM801 100 l100 0 l0 200 l-100 0 l0 -200 Z" /><glyph glyph-name="uniE152" unicode="&#xe152;" d="M300 1200 l298 -300 l-198 0 l0 -900 l-200 0 l0 900 l-198 0 l298 300 ZM800 1200 l0 -100 l100 0 l0 100 l100 0 l0 -500 l-300 0 l0 500 l100 0 ZM1000 500 l0 -100 l-200 0 l0 -100 l-100 0 l0 200 l300 0 ZM900 100 l0 100 l-99 0 l0 100 l100 0 l0 -100 l99 0 l0 -200 l-300 0 l0 100 l200 0 ZM801 800 l100 0 l0 200 l-100 0 l0 -200 Z" /><glyph glyph-name="uniE153" unicode="&#xe153;" d="M200 900 l0 -900 l200 0 l0 900 l198 0 l-298 300 l-298 -300 l198 0 ZM1000 1100 l0 100 l100 0 l0 -500 l-300 0 l0 400 l200 0 ZM900 100 l0 400 l100 0 l0 -500 l-200 0 l0 100 l100 0 ZM901 800 l100 0 l0 200 l-100 0 l0 -200 Z" /><glyph glyph-name="uniE154" unicode="&#xe154;" d="M200 900 l0 -900 l200 0 l0 900 l198 0 l-298 300 l-298 -300 l198 0 ZM900 800 l0 400 l100 0 l0 -500 l-200 0 l0 100 l100 0 ZM1000 400 l0 100 l100 0 l0 -500 l-300 0 l0 400 l200 0 ZM901 100 l100 0 l0 200 l-100 0 l0 -200 Z" /><glyph glyph-name="uniE155" unicode="&#xe155;" d="M200 900 l0 -900 l200 0 l0 900 l198 0 l-298 300 l-298 -300 l198 0 ZM1200 1100 l0 -200 l-500 0 l0 200 l500 0 ZM1100 800 l0 -200 l-400 0 l0 200 l400 0 ZM1000 500 l0 -200 l-300 0 l0 200 l300 0 ZM900 200 l0 -200 l-200 0 l0 200 l200 0 Z" /><glyph glyph-name="uniE156" unicode="&#xe156;" d="M200 900 l0 -900 l200 0 l0 900 l198 0 l-298 300 l-298 -300 l198 0 ZM900 1100 l0 -200 l-200 0 l0 200 l200 0 ZM1000 800 l0 -200 l-300 0 l0 200 l300 0 ZM1100 500 l0 -200 l-400 0 l0 200 l400 0 ZM1200 200 l0 -200 l-500 0 l0 200 l500 0 Z" /><glyph glyph-name="uniE157" unicode="&#xe157;" d="M0 700 q0 165 117.5 282.5 q117.5 117.5 282.5 117.5 l300 0 q163 0 281.5 -117.5 q118.5 -117.5 118.5 -282.5 l0 -300 q0 -163 -119 -281.5 q-119 -118.5 -281 -118.5 l-300 0 q-165 0 -282.5 117.5 q-117.5 117.5 -117.5 282.5 l0 300 ZM200 300 q0 -41 29.5 -70.5 q29.5 -29.5 70.5 -29.5 l500 0 q41 0 70.5 29.5 q29.5 29.5 29.5 70.5 l0 500 q0 41 -29.5 70.5 q-29.5 29.5 -70.5 29.5 l-500 0 q-41 0 -70.5 -29.5 q-29.5 -29.5 -29.5 -70.5 l0 -500 Z" /><glyph glyph-name="uniE158" unicode="&#xe158;" d="M0 700 q0 165 118.5 282.5 q118.5 117.5 281.5 117.5 l300 0 q165 0 282.5 -117.5 q117.5 -117.5 117.5 -282.5 l0 -300 q0 -165 -117.5 -282.5 q-117.5 -117.5 -282.5 -117.5 l-300 0 q-162 0 -281 118.5 q-119 118.5 -119 281.5 l0 300 ZM200 300 q0 -41 29.5 -70.5 q29.5 -29.5 70.5 -29.5 l500 0 q41 0 70.5 29.5 q29.5 29.5 29.5 70.5 l0 500 q0 41 -29.5 70.5 q-29.5 29.5 -70.5 29.5 l-500 0 q-41 0 -70.5 -29.5 q-29.5 -29.5 -29.5 -70.5 l0 -500 ZM400 300 l333 250 l-333 250 l0 -500 Z" /><glyph glyph-name="uniE159" unicode="&#xe159;" d="M0 700 q0 165 117.5 282.5 q117.5 117.5 282.5 117.5 l300 0 q165 0 282.5 -117.5 q117.5 -117.5 117.5 -282.5 l0 -300 q0 -162 -118.5 -281 q-118.5 -119 -281.5 -119 l-300 0 q-165 0 -282.5 118.5 q-117.5 118.5 -117.5 281.5 l0 300 ZM200 300 q0 -41 29.5 -70.5 q29.5 -29.5 70.5 -29.5 l500 0 q41 0 70.5 29.5 q29.5 29.5 29.5 70.5 l0 500 q0 41 -29.5 70.5 q-29.5 29.5 -70.5 29.5 l-500 0 q-41 0 -70.5 -29.5 q-29.5 -29.5 -29.5 -70.5 l0 -500 ZM800 400 l-250 333 l-250 -333 l500 0 Z" /><glyph glyph-name="uniE160" unicode="&#xe160;" d="M0 700 q0 163 117.5 281.5 q117.5 118.5 282.5 118.5 l300 0 q163 0 281.5 -119 q118.5 -119 118.5 -281 l0 -300 q0 -165 -117.5 -282.5 q-117.5 -117.5 -282.5 -117.5 l-300 0 q-165 0 -282.5 117.5 q-117.5 117.5 -117.5 282.5 l0 300 ZM200 300 q0 -41 29.5 -70.5 q29.5 -29.5 70.5 -29.5 l500 0 q41 0 70.5 29.5 q29.5 29.5 29.5 70.5 l0 500 q0 41 -29.5 70.5 q-29.5 29.5 -70.5 29.5 l-500 0 q-41 0 -70.5 -29.5 q-29.5 -29.5 -29.5 -70.5 l0 -500 ZM550 367 l250 333 l-500 0 l250 -333 Z" /><glyph glyph-name="uniE161" unicode="&#xe161;" d="M300 700 l0 200 l400 -350 l-400 -350 l0 200 l-300 0 l0 300 l300 0 ZM900 1100 q165 0 282.5 -117.5 q117.5 -117.5 117.5 -282.5 l0 -300 q0 -165 -117.5 -282.5 q-117.5 -117.5 -282.5 -117.5 l-400 0 l0 200 l500 0 q41 0 70.5 29.5 q29.5 29.5 29.5 70.5 l0 500 q0 41 -29.5 70.5 q-29.5 29.5 -70.5 29.5 l-500 0 l0 200 l400 0 Z" /><glyph glyph-name="uniE162" unicode="&#xe162;" d="M217 665 q-10 -22 6 -41 q75 -86 209.5 -237.5 q134.5 -151.5 228.5 -257 q94 -105.5 98 -111.5 q10 -16 25 -16 l9 0 l9 9 q7 12 5 27 q-2 12 -79 227.5 q-77 215.5 -78 219.5 l301 -1 q23 0 31 17 q9 17 -5 36 q-1 0 -264.5 308.5 q-263.5 308.5 -274.5 321.5 q-12 15 -26 15 l-9 0 l-9 -8 q-9 -11 -4 -32 q5 -20 160 -458 l-302 0 q-23 0 -31 -19 Z" /><glyph glyph-name="uniE163" unicode="&#xe163;" d="M0 400 q0 -165 117.5 -282.5 q117.5 -117.5 282.5 -117.5 l93 2 q93 2 193 5.5 q100 3.5 114 7.5 l0 185 l-500 0 q-41 0 -70.5 29.5 q-29.5 29.5 -29.5 70.5 l0 500 q0 41 29.5 70.5 q29.5 29.5 70.5 29.5 l500 0 l0 185 q-53 15 -100 15 l-300 0 q-165 0 -282.5 -117.5 q-117.5 -117.5 -117.5 -282.5 l0 -300 ZM900 700 l0 200 l400 -350 l-400 -350 l0 200 l-300 0 l0 300 l300 0 Z" /><glyph glyph-name="uniE164" unicode="&#xe164;" d="M0 500 q0 -165 117.5 -282.5 q117.5 -117.5 282.5 -117.5 l100 0 l74 78 l-118 122 l-156 0 q-41 0 -70.5 29.5 q-29.5 29.5 -29.5 70.5 l0 500 q0 41 29.5 70.5 q29.5 29.5 70.5 29.5 l500 0 q41 0 70.5 -29.5 q29.5 -29.5 29.5 -70.5 l0 -148 l122 -123 l78 73 l0 98 q0 165 -118.5 282.5 q-118.5 117.5 -281.5 117.5 l-300 0 q-165 0 -282.5 -117.5 q-117.5 -117.5 -117.5 -282.5 l0 -300 ZM709 704 l342 -353 l149 149 l0 -500 l-500 0 l149 149 l-353 342 l213 213 Z" /><glyph glyph-name="uniE165" unicode="&#xe165;" d="M84 899 q80 137 217 217 q137 80 299 80 q162 0 299 -80 q137 -80 217 -217 q80 -137 80 -299 q0 -162 -80 -299 q-80 -137 -217 -217 q-137 -80 -299 -80 q-162 0 -299 80 q-137 80 -217 217 q-80 137 -80 299 q0 162 80 299 ZM307.5 307.5 q121.5 -121.5 292.5 -121.5 q171 0 292.5 121.5 q121.5 121.5 121.5 292.5 q0 171 -121.5 292.5 q-121.5 121.5 -292.5 121.5 q-171 0 -292.5 -121.5 q-121.5 -121.5 -121.5 -292.5 q0 -171 121.5 -292.5 ZM463 737 q57 57 137 57 q80 0 137 -57 q57 -57 57 -137 q0 -80 -57 -137 q-57 -57 -137 -57 q-80 0 -137 57 q-57 57 -57 137 q0 80 57 137 Z" /><glyph glyph-name="uniE166" unicode="&#xe166;" d="M1100 1200 l0 -275 q0 -10 -8 -17.5 q-8 -7.5 -19 -7.5 l-1048 0 q-11 0 -18 7 q-7 7 -7 18 l0 275 l1100 0 ZM400 400 l0 -400 l300 0 l0 400 l295 0 l-450 500 l-445 -500 l300 0 ZM900 1000 l100 0 l0 50 l-100 0 l0 -50 Z" /><glyph glyph-name="uniE167" unicode="&#xe167;" d="M1100 1200 l0 -275 q0 -10 -8 -17.5 q-8 -7.5 -19 -7.5 l-1048 0 q-11 0 -18 7 q-7 7 -7 18 l0 275 l1100 0 ZM550 0 l445 500 l-295 0 l0 300 l-300 0 l0 -300 l-300 0 l450 -500 ZM900 1000 l100 0 l0 50 l-100 0 l0 -50 Z" /><glyph glyph-name="uniE168" unicode="&#xe168;" d="M1100 1151 l0 -275 q0 -10 -8 -17.5 q-8 -7.5 -19 -7.5 l-1048 0 q-11 0 -18 7 q-7 7 -7 18 l0 275 l1100 0 ZM255 291 l150 151 l442 -442 l154 155 l-596 596 l-305 -305 l155 -155 ZM900 951 l100 0 l0 50 l-100 0 l0 -50 Z" /><glyph glyph-name="uniE169" unicode="&#xe169;" d="M1100 1200 l0 -275 q0 -10 -8 -17.5 q-8 -7.5 -19 -7.5 l-1048 0 q-11 0 -18 7 q-7 7 -7 18 l0 275 l1100 0 ZM312 0 l97 97 l-212 213 l-97 -98 l212 -212 ZM438 551 l-149 -149 l212 -212 l149 149 l250 -239 l-3 699 l-697 1 l238 -249 ZM900 1000 l100 0 l0 50 l-100 0 l0 -50 Z" /><glyph glyph-name="uniE170" unicode="&#xe170;" d="M1100 1200 l0 -275 q0 -10 -8 -17.5 q-8 -7.5 -19 -7.5 l-1048 0 q-11 0 -18 7 q-7 7 -7 18 l0 275 l1100 0 ZM297 491 l213 212 l-98 97 l-212 -212 l97 -97 ZM999 3 l1 697 l-249 -237 l-149 148 l-212 -212 l149 -149 l-239 -250 l699 3 ZM900 1000 l100 0 l0 50 l-100 0 l0 -50 Z" /><glyph glyph-name="uniE171" unicode="&#xe171;" d="M415 783 l0 416 l310 -393 l475 272 l0 -1079 l-1177 784 l392 0 ZM494 762 l672 -712 l-672 938 l0 -226 Z" /><glyph glyph-name="uniE172" unicode="&#xe172;" d="M0 1150 q0 21 14.5 35.5 q14.5 14.5 35.5 14.5 l150 0 l0 -400 l700 0 l0 400 l150 0 q20 0 35 -14.5 q15 -14.5 15 -35.5 l0 -850 l-200 -200 l-100 0 l0 300 l-500 0 l0 -300 l-250 0 q-21 0 -35.5 15 q-14.5 15 -14.5 35 l0 1000 ZM600 100 l100 0 l0 200 l-100 0 l0 -200 Z" /><glyph glyph-name="uniE173" unicode="&#xe173;" d="M0 1112 q0 21 14.5 35.5 q14.5 14.5 35.5 14.5 l150 0 l0 -400 l378 0 l126 -127 l120 120 l276 -275 l0 -218 l-200 -200 l-100 0 l0 300 l-500 0 l0 -300 l-250 0 q-21 0 -35.5 15 q-14.5 15 -14.5 35 l0 1000 ZM825 1200 l475 -476 l-123 -123 l-353 352 l-120 -120 l-123 123 l244 244 ZM600 62 l100 0 l0 200 l-100 0 l0 -200 Z" /><glyph glyph-name="uniE174" unicode="&#xe174;" d="M0 1056 q0 21 14.5 35.5 q14.5 14.5 35.5 14.5 l150 0 l0 -400 l329 0 l298 -298 l170 170 l103 -103 l0 -269 l-200 -200 l-100 0 l0 300 l-500 0 l0 -300 l-250 0 q-21 0 -35.5 15 q-14.5 15 -14.5 35 l0 1000 ZM600 6 l100 0 l0 200 l-100 0 l0 -200 ZM827 1200 l170 -170 l170 170 l127 -127 l-170 -170 l170 -169 l-127 -128 l-170 170 l-170 -170 l-127 127 l170 170 l-170 170 l127 127 Z" /><glyph glyph-name="uniE175" unicode="&#xe175;" d="M0 1050 q0 21 14.5 35.5 q14.5 14.5 35.5 14.5 l150 0 l0 -400 l500 0 l0 -200 l400 0 l0 -300 l-200 -200 l-100 0 l0 300 l-500 0 l0 -300 l-250 0 q-21 0 -35.5 15 q-14.5 15 -14.5 35 l0 1000 ZM800 900 l0 -300 l200 0 l0 300 l200 0 l-300 300 l-300 -300 l200 0 ZM700 200 l0 -200 l-100 0 l0 200 l100 0 Z" /><glyph glyph-name="uniE176" unicode="&#xe176;" d="M0 1050 q0 21 14.5 35.5 q14.5 14.5 35.5 14.5 l150 0 l0 -400 l402 0 l298 -298 l200 200 l0 -402 l-200 -200 l-100 0 l0 300 l-500 0 l0 -300 l-250 0 q-21 0 -35.5 15 q-14.5 15 -14.5 35 l0 1000 ZM900 600 l300 300 l-200 0 l0 300 l-200 0 l0 -300 l-200 0 l300 -300 ZM700 200 l0 -200 l-100 0 l0 200 l100 0 Z" /><glyph glyph-name="uniE177" unicode="&#xe177;" d="M0 500 l1200 0 l0 550 q0 21 -14.5 35.5 q-14.5 14.5 -35.5 14.5 l-1100 0 q-21 0 -35.5 -14.5 q-14.5 -14.5 -14.5 -35.5 l0 -550 ZM0 250 q0 -21 14.5 -35.5 q14.5 -14.5 35.5 -14.5 l1100 0 q21 0 35.5 14.5 q14.5 14.5 14.5 35.5 l0 150 l-1200 0 l0 -150 ZM500 1000 l0 -200 l-400 0 l0 200 l400 0 Z" /><glyph glyph-name="uniE178" unicode="&#xe178;" d="M300 1198 l0 -198 l400 0 l0 -200 l-400 0 l0 -198 l-300 298 l300 298 ZM200 500 l0 -200 l-100 0 l0 200 l100 0 ZM400 500 l0 -200 l-100 0 l0 200 l100 0 ZM900 500 l0 198 l300 -298 l-300 -298 l0 198 l-400 0 l0 200 l400 0 ZM900 1000 l0 -200 l-100 0 l0 200 l100 0 ZM1000 800 l100 0 l0 200 l-100 0 l0 -200 Z" /><glyph glyph-name="uniE179" unicode="&#xe179;" d="M200 703 l0 447 q0 21 14.5 35.5 q14.5 14.5 35.5 14.5 l200 0 q21 0 35.5 -14.5 q14.5 -14.5 14.5 -35.5 l0 -447 l100 -203 l0 -400 l-50 -100 l-50 100 l0 300 l-100 0 l0 -300 l-50 -100 l-50 100 l0 300 l-100 0 l0 -300 l-50 -100 l-50 100 l0 400 l100 203 ZM800 244 q0 -31 18.5 -65.5 q18.5 -34.5 43.5 -51.5 l276 -116 q26 -17 44 -7.5 q18 9.5 18 40.5 l0 1106 q0 21 -14.5 35.5 q-14.5 14.5 -35.5 14.5 l-200 0 q-21 0 -35.5 -14.5 q-14.5 -14.5 -14.5 -35.5 l0 -397 l-10 -5 q-11 -6 -25.5 -18 q-14.5 -12 -29 -28.5 q-14.5 -16.5 -25 -43 q-10.5 -26.5 -10.5 -55.5 l0 -359 Z" /><glyph glyph-name="uniE180" unicode="&#xe180;" d="M100 1044 l25 -2 q25 -1 50 -13.5 q25 -12.5 25 -34.5 l0 -888 q0 -14 -11 -24.5 q-11 -10.5 -24 -15 q-13 -4.5 -30 -7 q-17 -2.5 -24 -3 q-7 -0.5 -11 -0.5 l0 -56 l400 0 l0 56 q-75 0 -87.5 6 q-12.5 6 -12.5 44 l0 394 l500 0 l0 -394 q0 -38 -12.5 -44 q-12.5 -6 -87.5 -6 l0 -56 l400 0 l0 56 l-25 2 q-25 1 -50 13.5 q-25 12.5 -25 34.5 l0 888 q0 14 11 24.5 q11 10.5 24 15 q13 4.5 30 7 q17 2.5 24 3 q7 0.5 11 0.5 l0 56 l-400 0 l0 -56 q75 0 87.5 -6 q12.5 -6 12.5 -44 l0 -394 l-500 0 l0 394 q0 38 12.5 44 q12.5 6 87.5 6 l0 56 l-400 0 l0 -56 Z" /><glyph glyph-name="uniE181" unicode="&#xe181;" d="M0 300 q0 -41 29.5 -70.5 q29.5 -29.5 70.5 -29.5 l300 0 q41 0 70.5 29.5 q29.5 29.5 29.5 70.5 l0 500 q0 41 -29.5 70.5 q-29.5 29.5 -70.5 29.5 l-300 0 q-41 0 -70.5 -29.5 q-29.5 -29.5 -29.5 -70.5 l0 -500 ZM200 1100 l375 0 l100 -100 l425 0 l0 -298 l-295 98 l-105 0 l-200 200 l-400 0 l100 100 ZM400 800 l0 -200 l-300 0 l0 200 l300 0 ZM400 500 l0 -200 l-300 0 l0 200 l300 0 ZM200 0 l375 0 l100 100 l425 0 l0 200 l-105 0 l-295 98 l0 -98 l-200 -200 l-400 0 l100 -100 ZM1100 565 l0 -163 l-400 133 l0 163 l400 -133 Z" /><glyph glyph-name="uniE182" unicode="&#xe182;" d="M17 192.45 l162 -162 q18 -17 40.5 -14 q22.5 3 36.5 22 l139 194 q14 20 11 44.5 q-3 24.5 -20 41.5 l-118 118 q101 142 227 268 q126 126 268 227 l118 -118 q16 -17 42 -19 q26 -2 45 12 l192 136 q19 14 22.5 37 q3.5 23 -13.5 41 l-163 162 l-31 1 q-31 0 -92.5 -16.5 q-61.5 -16.5 -137 -47 q-75.5 -30.5 -180 -103.5 q-104.5 -73 -207.5 -176 q-102 -102 -175 -208 q-73 -106 -104 -177.5 q-31 -71.5 -46.5 -140 q-15.5 -68.5 -16 -90 q-0.5 -21.5 0.5 -32.5 Z" /><glyph glyph-name="uniE183" unicode="&#xe183;" d="M0 1050 q0 21 15 35.5 q15 14.5 35 14.5 l1100 0 q21 0 35.5 -14.5 q14.5 -14.5 14.5 -35.5 l0 -212 q0 -20 -10.5 -45.5 q-10.5 -25.5 -24.5 -39.5 l-365 -303 l0 -50 l-1 -10 q-1 -10 -12 -24 q-11 -14 -30 -27.5 q-19 -13.5 -60 -23.5 q-41 -10 -97 -10 q-56 0 -97 10.5 q-41 10.5 -60 23 q-19 12.5 -30 28.5 q-11 16 -12 22.5 q-1 6.5 -1 10.5 l0 50 l-365 303 q-14 14 -24.5 39.5 q-10.5 25.5 -10.5 45.5 l0 212 ZM0 188 l9 -10 q9 -11 31 -27.5 q22 -16.5 53.5 -36.5 q31.5 -20 81.5 -40 q50 -20 108.5 -36.5 q58.5 -16.5 141.5 -27 q83 -10.5 175 -10.5 q126 0 235 20.5 q109 20.5 171 45 q62 24.5 112 57 q50 32.5 63 45 q13 12.5 19 20.5 l0 200 q0 21 -14.5 33.5 q-14.5 12.5 -34.5 8.5 l-202 -33 q-20 -4 -34.5 -21 q-14.5 -17 -14.5 -38 l0 -146 q-141 -24 -300 -24 q-159 0 -300 24 l0 146 q0 21 -14.5 38 q-14.5 17 -34.5 21 l-202 33 q-20 4 -34.5 -8.5 q-14.5 -12.5 -14.5 -33.5 l0 -200 Z" /><glyph glyph-name="uniE184" unicode="&#xe184;" d="M1200 1100 l0 -100 l-1100 0 l0 100 l1100 0 ZM300 750 l0 -250 l-100 -100 l0 -400 l100 0 l0 200 l100 0 l0 -200 l200 0 l0 200 l100 0 l0 -200 l200 0 l0 200 l100 0 l0 -200 l100 0 l0 400 l-100 100 l0 250 l125 150 l-950 0 l125 -150 Z" /><glyph glyph-name="uniE185" unicode="&#xe185;" d="M100 700 q0 -41 29.5 -70.5 q29.5 -29.5 70.5 -29.5 l100 0 q41 0 70.5 29.5 q29.5 29.5 29.5 70.5 l0 400 l-300 0 l0 -400 ZM800 1100 l0 -1000 q0 -41 -29.5 -70.5 q-29.5 -29.5 -70.5 -29.5 l-100 0 q-41 0 -70.5 29.5 q-29.5 29.5 -29.5 70.5 l0 1000 l300 0 ZM1200 1100 l0 -700 q0 -41 -29.5 -70.5 q-29.5 -29.5 -70.5 -29.5 l-100 0 q-41 0 -70.5 29.5 q-29.5 29.5 -29.5 70.5 l0 700 l300 0 Z" /><glyph glyph-name="uniE186" unicode="&#xe186;" d="M-100 800 q0 124 88 212 q88 88 212 88 l700 0 q124 0 212 -88 q88 -88 88 -212 l0 -500 q0 -124 -88 -212 q-88 -88 -212 -88 l-700 0 q-124 0 -212 88 q-88 88 -88 212 l0 500 ZM100 200 l900 0 l0 700 l-900 0 l0 -700 ZM200 700 l200 0 l0 -100 l-200 0 l0 -300 l300 0 l0 100 l-200 0 l0 100 l200 0 l0 300 l-300 0 l0 -100 ZM600 300 l200 0 l0 100 l100 0 l0 300 l-100 0 l0 100 l-200 0 l0 -500 ZM800 700 l0 -300 l-100 0 l0 300 l100 0 Z" /><glyph glyph-name="uniE187" unicode="&#xe187;" d="M-100 800 q0 124 88 212 q88 88 212 88 l700 0 q124 0 212 -88 q88 -88 88 -212 l0 -500 q0 -124 -88 -212 q-88 -88 -212 -88 l-700 0 q-124 0 -212 88 q-88 88 -88 212 l0 500 ZM100 200 l900 0 l0 700 l-900 0 l0 -700 ZM200 300 l100 0 l0 200 l100 0 l0 -200 l100 0 l0 500 l-100 0 l0 -200 l-100 0 l0 200 l-100 0 l0 -500 ZM600 300 l200 0 l0 100 l100 0 l0 300 l-100 0 l0 100 l-200 0 l0 -500 ZM800 700 l0 -300 l-100 0 l0 300 l100 0 Z" /><glyph glyph-name="uniE188" unicode="&#xe188;" d="M-100 800 q0 124 88 212 q88 88 212 88 l700 0 q124 0 212 -88 q88 -88 88 -212 l0 -500 q0 -124 -88 -212 q-88 -88 -212 -88 l-700 0 q-124 0 -212 88 q-88 88 -88 212 l0 500 ZM100 200 l900 0 l0 700 l-900 0 l0 -700 ZM200 300 l300 0 l0 100 l-200 0 l0 300 l200 0 l0 100 l-300 0 l0 -500 ZM600 300 l300 0 l0 100 l-200 0 l0 300 l200 0 l0 100 l-300 0 l0 -500 Z" /><glyph glyph-name="uniE189" unicode="&#xe189;" d="M-100 800 q0 124 88 212 q88 88 212 88 l700 0 q124 0 212 -88 q88 -88 88 -212 l0 -500 q0 -124 -88 -212 q-88 -88 -212 -88 l-700 0 q-124 0 -212 88 q-88 88 -88 212 l0 500 ZM100 200 l900 0 l0 700 l-900 0 l0 -700 ZM500 400 l0 300 l-300 -150 l300 -150 ZM600 400 l300 150 l-300 150 l0 -300 Z" /><glyph glyph-name="uniE190" unicode="&#xe190;" d="M-100 800 q0 124 88 212 q88 88 212 88 l700 0 q124 0 212 -88 q88 -88 88 -212 l0 -500 q0 -124 -88 -212 q-88 -88 -212 -88 l-700 0 q-124 0 -212 88 q-88 88 -88 212 l0 500 ZM100 200 l900 0 l0 700 l-900 0 l0 -700 ZM900 800 l0 -500 l-700 0 l0 500 l700 0 ZM300 400 l130 0 q38 0 66.5 43 q28.5 43 28.5 108 q0 65 -27 107 q-27 42 -68 42 l-130 0 l0 -300 ZM603.5 443 q28.5 -43 66.5 -43 l130 0 l0 300 l-130 0 q-41 0 -68 -42 q-27 -42 -27 -107 q0 -65 28.5 -108 Z" /><glyph glyph-name="uniE191" unicode="&#xe191;" d="M-100 800 q0 124 88 212 q88 88 212 88 l700 0 q124 0 212 -88 q88 -88 88 -212 l0 -500 q0 -124 -88 -212 q-88 -88 -212 -88 l-700 0 q-124 0 -212 88 q-88 88 -88 212 l0 500 ZM100 200 l900 0 l0 700 l-900 0 l0 -700 ZM200 700 l200 0 l0 -100 l-200 0 l0 -300 l300 0 l0 100 l-200 0 l0 100 l200 0 l0 300 l-300 0 l0 -100 ZM601 700 l100 0 l0 100 l-100 0 l0 -100 ZM700 300 l200 0 l0 500 l-100 0 l0 -400 l-100 0 l0 -100 Z" /><glyph glyph-name="uniE192" unicode="&#xe192;" d="M-100 800 q0 124 88 212 q88 88 212 88 l700 0 q124 0 212 -88 q88 -88 88 -212 l0 -500 q0 -124 -88 -212 q-88 -88 -212 -88 l-700 0 q-124 0 -212 88 q-88 88 -88 212 l0 500 ZM100 200 l900 0 l0 700 l-900 0 l0 -700 ZM200 300 l100 0 l0 100 l200 0 l0 400 l-300 0 l0 -500 ZM401 700 l0 -200 l-100 0 l0 200 l100 0 ZM601 700 l100 0 l0 100 l-100 0 l0 -100 ZM700 300 l200 0 l0 500 l-100 0 l0 -400 l-100 0 l0 -100 Z" /><glyph glyph-name="uniE193" unicode="&#xe193;" d="M-100 800 q0 124 88 212 q88 88 212 88 l700 0 q124 0 212 -88 q88 -88 88 -212 l0 -500 q0 -124 -88 -212 q-88 -88 -212 -88 l-700 0 q-124 0 -212 88 q-88 88 -88 212 l0 500 ZM100 200 l900 0 l0 700 l-900 0 l0 -700 ZM400 400 l0 200 l-99 0 l0 100 l100 0 l0 -100 l99 0 l0 -300 l-300 0 l0 100 l200 0 ZM301 800 l0 -100 l-100 0 l0 100 l100 0 ZM701 800 l0 -100 l-100 0 l0 100 l100 0 ZM800 400 l0 400 l100 0 l0 -500 l-200 0 l0 100 l100 0 Z" /><glyph glyph-name="uniE194" unicode="&#xe194;" d="M84 899 q80 137 217 217 q137 80 299 80 q162 0 299 -80 q137 -80 217 -217 q80 -137 80 -299 q0 -162 -80 -299 q-80 -137 -217 -217 q-137 -80 -299 -80 q-162 0 -299 80 q-137 80 -217 217 q-80 137 -80 299 q0 162 80 299 ZM307.5 307.5 q121.5 -121.5 292.5 -121.5 q171 0 292.5 121.5 q121.5 121.5 121.5 292.5 q0 171 -121.5 292.5 q-121.5 121.5 -292.5 121.5 q-171 0 -292.5 -121.5 q-121.5 -121.5 -121.5 -292.5 q0 -171 121.5 -292.5 ZM500 800 l300 0 l0 -100 l-300 0 l0 -200 l300 0 l0 -100 l-300 0 l-100 100 l0 200 l100 100 Z" /><glyph glyph-name="uniE195" unicode="&#xe195;" d="M80 899 q80 137 217 217 q137 80 299 80 q162 0 299 -80 q137 -80 217 -217 q80 -137 80 -299 q0 -162 -80 -299 q-80 -137 -217 -217 q-137 -80 -299 -80 q-162 0 -299 80 q-137 80 -217 217 q-80 137 -80 299 q0 162 80 299 ZM303.5 307.5 q121.5 -121.5 292.5 -121.5 q171 0 292.5 121.5 q121.5 121.5 121.5 292.5 q0 171 -121.5 292.5 q-121.5 121.5 -292.5 121.5 q-171 0 -292.5 -121.5 q-121.5 -121.5 -121.5 -292.5 q0 -171 121.5 -292.5 ZM500 800 l0 -100 l200 0 l0 -100 l-200 0 l0 -100 l200 0 l0 100 l100 0 l0 -100 l-100 -100 l-300 0 l0 400 l100 0 ZM800 800 l0 -100 l-100 0 l0 100 l100 0 Z" /><glyph glyph-name="uniE197" unicode="&#xe197;" d="M-14 495 q0 -69 42.5 -122.5 q42.5 -53.5 108.5 -67.5 q-2 -12 -2 -37 q0 -153 108 -260.5 q108 -107.5 260 -107.5 q110 0 200.5 59.5 q90.5 59.5 134.5 156.5 q44 -14 90 -14 q120 0 205 86 q85 86 85 207 q0 121 -85 207.5 q-85 86.5 -205 86.5 l-128 0 l0 -300 l-400 0 l0 300 l-222 0 q-79 0 -135.5 -57 q-56.5 -57 -56.5 -137 ZM600 1089 l300 -300 l-200 0 l0 -300 l-200 0 l0 300 l-200 0 l300 300 Z" /><glyph glyph-name="uniE198" unicode="&#xe198;" d="M-14 495 q0 -69 42.5 -122.5 q42.5 -53.5 108.5 -67.5 q-2 -12 -2 -37 q0 -153 108 -260.5 q108 -107.5 260 -107.5 q110 0 200.5 59.5 q90.5 59.5 134.5 156.5 q44 -14 90 -14 q120 0 205 86.5 q85 86.5 85 206.5 q0 100 -60.5 178.5 q-60.5 78.5 -154.5 104.5 l-403 -403 l-414 414 l-8 0 q-79 0 -135.5 -57 q-56.5 -57 -56.5 -137 ZM500 789 l0 300 l200 0 l0 -300 l200 0 l-300 -300 l-300 300 l200 0 Z" /><glyph glyph-name="uniE199" unicode="&#xe199;" d="M370 633 l-170 0 l270 -300 l-170 0 l300 -333 l300 333 l-170 0 l270 300 l-170 0 l270 300 l-400 0 l0 155 l75 45 l-350 0 l75 -45 l0 -155 l-400 0 l270 -300 Z" /><glyph glyph-name="uniE200" unicode="&#xe200;" d="M121 479 q0 -74 52.5 -126.5 q52.5 -52.5 126.5 -52.5 q9 0 23 2 q0 -4 -1 -11.5 q-1 -7.5 -1 -11.5 q0 -116 81.5 -197.5 q81.5 -81.5 197.5 -81.5 q94 0 167.5 56.5 q73.5 56.5 99.5 145.5 q89 6 150.5 71.5 q61.5 65.5 61.5 155.5 q0 61 -29.5 112 q-29.5 51 -79.5 83 q9 31 9 55 q0 74 -52.5 126.5 q-52.5 52.5 -126.5 52.5 q-54 0 -100 -30 l0 306 l75 45 l-350 0 l75 -45 l0 -306 q-44 30 -100 30 q-74 0 -126.5 -52.5 q-52.5 -52.5 -52.5 -126.5 q0 -22 4 -38 q-47 -21 -75.5 -65 q-28.5 -44 -28.5 -97 Z" /><glyph glyph-name="uniE201" unicode="&#xe201;" d="M725 -116 q-300 7 -499 207 q-200 199 -207 499 q7 300 206.5 499.5 q199.5 199.5 499.5 206.5 q300 -7 499 -207 q200 -199 207 -499 q-7 -300 -207 -499 q-199 -200 -499 -207 ZM265 925 l48 -179 q-51 -85 -52 -192 q4 -164 112 -272.5 q108 -108.5 272 -112.5 q163 4 271.5 112.5 q108.5 108.5 113.5 272.5 q-5 163 -113 271 q-109 109 -272 112 q-114 -1 -205 -59 l-175 47 ZM1026 957 q-82 52 -187 54 q-73 -1 -138 -28 q164 -25 269 -144 q104 -117 108 -285 q0 -97 -39 -179 q69 48 109 122 q39 74 40 165 q-1 96 -47 175 l44 162 l-159 -42 Z" /><glyph glyph-name="uniE085" unicode="&#xe085;" d="M718 -116 q-299 11 -496 214 q-196 201 -200 502 q11 299 214 496 q201 196 502 200 q299 -11 496 -214 q196 -201 200 -502 q-11 -299 -214 -496 q-201 -196 -502 -200 ZM713 1020 q-46 -3 -74 -31.5 q-28 -28.5 -27 -74.5 q2 -44 30 -71.5 q28 -27.5 74 -27.5 l2 0 q47 1 75 30 q27 29 27 76 q-2 44 -30 72 q-27 26 -73 27 l-4 0 ZM969 518 q-23 31 -84 76 l-44 29 q-34 28 -43 54 q-2 8 -4.5 16.5 q-2.5 8.5 -2.5 27.5 l0 7 l-164 0 l0 -14 q-2 -81 28 -118 q32 -36 74 -67 q42 -29 49 -33 q18 -14 29 -30 q24 -35 24 -61 q0 -38 -22 -70 q-22 -30 -81 -30 q-59 0 -83 38 q-24 39 -24 82 l0 6 l-170 0 l0 -6 q7 -156 110 -222 q65 -43 160 -43 q123 0 206 59 q82 61 82 178 q0 66 -40 121 Z" /><glyph glyph-name="uniE202" unicode="&#xe202;" d="M198 817 l68 21 l0 156 l347 107 l0 -157 l61 18 l0 -667 l-476 145 l0 377 ZM351 932 l0 -67 l177 53 l0 68 l-177 -54 ZM1115 586 l185 0 l0 85 l-185 0 l0 -85 ZM1055 772 l49 -69 l151 108 l-50 69 l-150 -108 ZM1055 486 l150 -109 l50 68 l-151 110 l-49 -69 ZM0 455 l113 0 l0 347 l-113 0 l0 -347 ZM758 217 l222 0 l0 824 l-222 0 l0 -824 Z" /><glyph glyph-name="uniE203" unicode="&#xe203;" d="M110 248 q-47 0 -77 31 q-30 31 -32 77 l0 32 l1299 0 l0 -32 q-1 -46 -32 -76 q-30 -32 -75 -32 l-1083 0 ZM1 943 q2 45 32 76 q30 31 77 31 l1083 0 q45 0 75 -32 q31 -30 32 -75 l0 -428 l-1299 0 l0 428 ZM161 873 l0 -85 l225 0 l0 85 l-225 0 ZM1114 941 q-18 0 -32 -6 q-16 -8 -26 -19 q-12 11 -25 19 q-16 6 -34 6 q-35 -1 -57 -22 q-22 -24 -22 -58 q0 -35 22 -56.5 q22 -21.5 57 -23.5 q18 0 34 7 q13 7 25 18 q10 -11 26 -18 q14 -7 32 -7 q34 2 57 23 q23 22 23 57 q0 34 -23 58 q-23 21 -57 22 Z" /><glyph glyph-name="uniE204" unicode="&#xe204;" d="M420 -1 q-75 3 -125 51 q-49 50 -50 126 l0 852 l-137 0 l0 40 q3 76 52 125 q50 49 124 51 l408 0 q74 -2 124 -51 q49 -49 51 -125 l0 -853 l271 0 l0 -39 q-1 -76 -51 -126 q-50 -48 -125 -51 l-542 0 ZM284 1163 q-28 0 -51 -15 q-23 -14 -34 -39 l322 0 q5 29 23 54 l-260 0 ZM380 899 l0 -82 l351 0 l0 82 l-351 0 ZM380 705 l0 -81 l351 0 l0 81 l-351 0 ZM380 511 l0 -82 l351 0 l0 82 l-351 0 ZM380 318 l0 -82 l351 0 l0 82 l-351 0 ZM877 134 q11 -25 33 -39 q23 -15 52 -15 q29 0 52 15 q22 14 34 39 l-171 0 ZM1060 1154 q1 38 27 64 q25 25 63 26 q39 -1 64.5 -26.5 q25.5 -25.5 26.5 -63.5 l0 -66 l-181 0 l0 66 ZM1150 364 l-90 135 l0 82 l181 0 l0 -82 l-91 -135 ZM1060 663 l181 0 l0 345 l-181 0 l0 -345 Z" /><glyph glyph-name="uniE205" unicode="&#xe205;" d="M554 684 q0 28 -19 46 q-18 18 -46 19 q-28 -1 -46 -19 q-18 -18 -19 -46 q1 -28 19 -46 q18 -18 46 -20 q28 2 46 21 q19 17 19 45 ZM818 618 q-28 2 -45 21 q-19 17 -20 45 q1 28 20 46 q17 18 45 19 q28 -1 46 -19 q18 -18 20 -46 q-2 -28 -20 -45 q-18 -19 -46 -21 ZM1287 772 q-2 47 -33 79 q-31 32 -80 32 l-81 0 q-66 170 -192.5 264.5 q-126.5 94.5 -246.5 96.5 q-121 -2 -247 -96 q-126 -95 -193 -265 l-80 0 q-49 0 -81 -32 q-31 -32 -32 -79 l0 -125 q0 -31 17 -57 q14 -26 42 -40 q2 -265 151 -408 q75 -70 181 -106 q106 -36 242 -36 q136 0 242 36 q105 36 180 106 q149 143 152 408 q27 14 42 40 q17 26 17 57 l0 125 ZM1048 685 q0 -44 -2 -82 q-39 -35 -104 -59 q-65 -24 -151 -35 q23 25 36 68 q-57 -34 -143 -56 q-87 -23 -169 -109 q-8 -10 -15 -20 q-14 -19 -20 -27 q-6 -8 -6 3 q-4 110 -67 183 q-60 72 -148 85 q0 24 0 49 q0 89 25 163 q49 56 118 78 q71 22 141 25 q12 -21 38.5 -33.5 q26.5 -12.5 61.5 -12.5 q46 0 76 23 q31 22 32 54 q-1 33 -32 55 q-30 22 -76 23 q-36 0 -63 -14 q-26 -14 -39 -36 q-49 -2 -99 -13 q-51 -9 -99 -31 q70 98 157 148 q86 51 154 51 q113 -1 247.5 -123.5 q134.5 -122.5 146.5 -356.5 ZM1160 536 q-6 -230 -134 -350 q-128 -117 -372 -119 q-245 2 -373 119 q-128 120 -134 350 l43 0 q24 -155 100 -253 q123 -157 364 -158 q240 1 363 158 q76 98 100 253 l43 0 Z" /></font>
</defs>
</svg>
