<?xml version="1.0" standalone="no"?>
<!DOCTYPE svg PUBLIC "-//W3C//DTD SVG 1.1//EN" "http://www.w3.org/Graphics/SVG/1.1/DTD/svg11.dtd">
<svg xmlns="http://www.w3.org/2000/svg">
<metadata>Generated by Fontastic.me</metadata>
<defs>
<font id="untitled-font-1" horiz-adv-x="512">
<font-face font-family="untitled-font-1" units-per-em="512" ascent="480" descent="-32"/>
<missing-glyph horiz-adv-x="512" />

<glyph glyph-name="11x5" unicode="&#97;" d="M337 382c24 3 48-4 72-15 25-13 47-31 64-54 17-24 27-51 31-80 2-14 1-29-1-44-2-22-10-42-20-61-11-22-27-38-46-52-19-16-41-26-66-31-20-4-41-6-62-3-25 5-48 14-70 28-3 2-6 4-8 6-1 2-2 4-2 6 2 1 4 2 6 1 6-2 12-4 18-6 18-7 36-11 56-9 21 1 41 6 59 17 10 6 21 12 30 20 22 20 36 46 42 76 3 16 4 33 0 50-4 16-11 31-25 41-8 7-16 13-25 18-5 3-11 5-16 5-26 2-51 2-73-13-9-6-17-13-25-20-25-22-59-16-73 13-6 14-7 27 0 41 6 12 13 23 25 31 13 8 25 17 40 23 18 9 38 13 58 12 3 0 5 0 11 0z m76 13c-8 1-16 2-23 4-15 3-30 6-45 4-28-2-55-6-80-18-16-8-32-17-46-29-3-2-5-5-8-7 0-1-2-1-3-1-1 1-1 3-1 4 7 11 13 23 21 34 12 15 24 30 39 42 24 20 50 34 80 40 22 4 46 5 69 0 15-4 27-12 33-28 8-22-8-44-32-44-1 0-2 0-4 0 0-1 0-1 0-1z m-236-234c-1-1-2-3-3-5-2-12-3-23-5-34 0-2 0-4 0-6-1-9 1-11 10-11 19 0 37 0 55 0 3 0 6 0 8 0 9-1 11-4 10-12-1-4-3-6-7-7-2 0-5 0-7 0-23 0-46 0-70 0-7 0-13 2-19 6-6 3-8 9-7 16 2 13 5 27 7 40 1 4 3 9-3 10-4 1-5 4-4 7 1 5 1 10 7 10 5 0 5 1 4 5-2 5-2 11-3 16-1 6 0 8 7 9 2 0 4 0 6 0 9-1 10-1 11-10 0-3 1-6 2-9 0-2 1-3 2-4 1 1 3 2 3 4 1 1 2 3 2 5 5 17 10 14 24 14 2 0 3-3 4-4 1-1 2-5 3-1 2 7 7 4 12 5 4 0 10 1 11-6 0-1 4-2 6-2 5-1 10 0 16-1 5 0 6-3 6-8 1-6-1-9-6-10-6 0-12 0-19 0-6 0-9-6-6-11 0-1 2-2 4-3 6 0 11 0 17 0 3 0 5-2 5-5 2-10-1-13-11-12-5 0-7-1-8-5 0-3-1-6-2-9-1-4 1-6 5-6 1 0 3 0 4 0 4 0 8-1 9-6 0-6-4-10-9-10-7-1-13-1-19 0-11 0-16 7-14 17 0 4 2 8 2 12 0 2-2 5-4 7 0 0-1 0-2 0 0 0-1-1 0-2 3-4-1-8-3-12-2-4-3-7-5-11-2-4-4-10-7-11-6-1-13-1-19 0-3 0-3 2-2 5 4 8 9 16 13 23 3 7 4 7-4 8-5 0-8 2-8 8 1 2 1 4 1 7 8 4 16 2 25 2 6 1 7 2 7 8 0 2-2 4-3 5-2-1-4-1-5-3-1-7-6-7-12-7-3 0-6 0-9-1-2 0-2-3-3-5z m173 49c-8 0-17-1-25 0-5 0-6-3-6-6 1-4-2-9 4-10 14-3 27-8 39-16 19-14 24-40 11-59-5-8-12-15-20-19-23-12-47-15-72-14-3 0-6 2-9 3-1 1-3 3-3 4 0 6 1 13 2 18 1 3 5 5 8 5 5 1 11-1 17 0 10 1 19 3 29 5 4 2 9 4 13 7 7 6 7 14 0 21-9 11-22 13-35 15-8 1-16 2-24 5 2 8 3 16 4 24 2 14 4 29 6 43 1 5 2 6 7 6 27 0 55 1 82 0 6 0 7-1 6-8 0-3 0-7 0-11-1-13-1-13-15-13-6 0-13 0-19 0z m-151 41c-16-3-32 0-46 6-26 11-47 27-63 50-8 12-15 24-20 38-4 12 3 25 13 30 10 7 28 1 35-9 6-10 7-22 10-33 8-26 21-49 42-66 9-7 19-11 29-16z m-172-165c-15 0-17 2-14 17 3 17 5 35 8 52 0 3 0 5 1 7 1 3 0 5-4 5-11-2-11-2-11 10 0 7 3 12 10 15 13 4 24 10 37 16 6 2 8 1 7-6-1-6-2-12-3-18-3-24-7-47-10-71-1-6-1-12-2-17-3-10-3-10-12-10-2 0-5 0-7 0z m69 0c-17 0-17 0-14 16 2 17 4 33 6 49 0 3 1 5 1 7 2 9 2 9-7 7-7-2-8-1-8 6 0 3 0 6 0 8 0 6 3 10 8 12 13 5 26 11 39 17 6 2 8 2 7-5 0-8-1-17-2-25-2-14-4-27-6-41-2-12-3-24-5-36 0-1 0-3-1-5-2-8-4-10-13-10-2 0-4 0-5 0z m39 143c-16-2-31 2-45 8-8 3-15 6-19 15-3 8 1 14 5 18 4 5 10 6 16 4 3-1 6-3 9-6 20-17 44-25 71-26 7 0 13 0 20 0 1 0 1 0 2-1 0 0-1-1-1-2-2-1-4-2-7-2-16-6-33-10-51-8z"/>
<glyph glyph-name="11x5-2" unicode="&#98;" d="M303 312l18-23c0 0 71 26 90 113 3 16 5 34 4 54-30 25-66 42-105 50 6-13 13-30 17-49 10-41 9-93-24-145z m-39 20l29-6c0 0 36 63-1 140-7 15-17 30-31 46-2 0-3 0-5 0-40 0-78-9-112-26 14-6 30-15 46-27 34-26 67-66 74-127z m-45-13l27 10c0 0-6 76-85 118-15 7-32 14-52 18-33-23-60-53-79-89 14 3 33 5 53 4 43-1 94-15 136-61z m-176-73c34 27 83 50 146 41l14 25c0 0-53 54-139 36-17-3-35-9-53-19-7-23-11-48-11-73 0-17 2-33 5-49 9 11 22 25 38 39z m154-11l-1 29c0 0-81 22-149-49-11-12-22-27-32-44 13-38 35-71 62-98 2 14 6 31 13 50 15 41 46 87 107 112z m71-168l84 202-84 0-45-66 26 0-72-136z m-12-24c-60 0-115 25-154 66-4-13-7-26-9-39l-1-10c44-38 102-60 164-60 58 0 111 19 153 51l-95 0c-19-5-38-8-58-8z m176 399c-1-15-2-30-5-44-1-4-2-7-3-11 22-29 38-64 43-102l41 0-98-233c62 46 102 121 102 204 0 73-31 139-80 186z m-22-391l0 1c0 0 0-1-1-1z m-11 16l24 57 44 106 17 39-85 0-44-66 26 0-72-136z"/>
<glyph glyph-name="30ssl" unicode="&#99;" d="M151 85c0 2 0 4 0 7 0 1 0 2 0 2 0 1-1 2-2 2-1 1-2 1-3 2-1 0-2 0-3 0-1 1-2 1-4 1-1 0-2 1-4 1 0 0 0 0-1-1 0 0 0-1 0-2 0-3 1-7 1-10 0-3 0-7 0-10 0-1 0-2 1-3 0 0 0 0 1-1 2 0 4-1 5-1 1 0 3-1 4-1 3 0 4 0 5 1 1 0 1 2 1 6 0 2 0 4-1 7z m132 283c0 5-2 9-4 12-3 3-7 4-12 4-4 0-9-2-12-8-4-5-8-14-12-28-9-26-15-49-20-70-5-22-7-36-7-44 0-5 1-9 3-12 3-3 7-5 11-5 5 0 10 3 14 7 3 5 7 14 12 29 8 25 15 48 19 70 5 21 8 36 8 45z m10-255c1 0 2 1 2 1 0 1 0 1-1 3-1 5-2 7-3 12-1 1-1 2-1 3-1 3-2 4-3 5-1 0-2 0-3 0-1-1-2-1-3-2-2 0-3-1-6-2 0 0 0 0 0 0-1-1 0-2 0-3 1-3 2-6 2-9 1-3 2-6 3-9 0-1 0-2 1-2 0 0 0 0 1 0 2 1 4 1 6 2 1 0 3 1 5 1z m-151-1c2-1 4-2 7-3 0 0 1 0 1 0 0 1 1 1 0 3 0 5 0 7 0 12 0 1 0 2 0 3-1 3-1 5-2 5-1 1-2 1-3 2-1 0-3 1-4 1-2 0-4 1-6 1-1 0-1 0-1 0-1 0-1-1-1-2 0-3 0-6 0-9 0-3 1-6 1-9 0-1 0-2 0-2 0-1 0-1 1-1 2 0 5-1 7-1z m160-23c-1 3-1 5-2 7 0 2-1 3-1 3 0 1-1 1-2 1-1 0-2 0-3 0-1-1-2-1-3-1-1 0-2-1-3-1-1-1-2-1-3-2 0 0-1 0-1-1 0 0 0-1 1-2 1-4 2-7 3-10 1-4 2-7 3-10 0-2 1-2 1-3 0 0 1 0 1 0 2 1 4 1 5 1 1 1 2 1 3 1 2 1 4 3 4 4 0 1 0 3-1 6 0 3-1 5-2 7z m210 139c-1 2-1 5-2 7 0 3-1 6-2 8-1 3-2 5-3 7-1 2-3 5-5 7 0 1 0 2 0 3 0 137-112 250-250 250-138 0-250-113-250-250 0-88 46-166 114-210 1-2 3-3 4-5 3-2 6-4 9-4 1 0 2 0 3 0 13-8 27-14 42-19 1-1 1-1 2-2 5-5 10-9 18-14 3-1 7-2 10-3l1 0c4-1 8-1 12 0 4 1 8 3 11 5 2 0 3 1 4 3 7-1 13-1 20-1 38 0 74 8 106 23 0 0 1 0 1 0 4 0 8 1 12 3 3 2 7 4 10 7 2 2 3 4 5 6 29 18 54 43 74 72 0 0 1 0 1 0 4 1 8 3 11 6 5 3 8 8 10 14 2 5 3 10 2 16 0 2 0 5-1 8 4 9 7 18 10 27 5 1 10 4 14 8 3 3 6 9 7 18 0 3 0 6 0 10z m-262 236c72 0 136-35 175-90-44 46-107 74-175 74-69 0-132-28-176-74 39 55 103 90 176 90z m96-92c-8 0-14 6-14 14 0 2 1 13 14 13 5 0 13-3 14-13 0-2 0-5 0-7 0-26-21-36-32-40l-4 6c13 5 25 14 25 23 0 3-1 4-3 4z m-246-163c-10 0-18 2-24 6-7 4-10 9-10 16 0 4 2 8 5 11 2 3 6 4 10 4 4 0 6-1 9-2 2-2 5-5 9-11 0 0 1-1 2-2 5-8 10-11 14-11 8 0 15 4 21 13 5 8 8 19 8 31 0 14-3 23-10 30-6 7-16 11-29 12l0 4c16 4 28 9 36 16 9 7 13 16 13 26 0 7-2 13-6 17-4 4-10 6-16 6-6 0-10-2-15-5-5-3-10-8-15-14l-6 2c7 12 15 20 24 26 8 6 17 9 27 9 13 0 22-3 30-10 7-6 11-15 11-25 0-9-3-18-9-25-6-7-14-12-24-15 7-4 13-9 17-15 3-6 5-14 5-23 0-9-1-17-5-25-3-8-8-15-14-21-8-8-17-15-27-19-9-4-20-6-31-6z m142-97c-1-3-2-6-3-8-1-1-3-2-5-2-2 0-3 0-5 1-2 1-4 2-6 3-2 1-3 1-5 2-1 1-1 1-1 1-1-1-1-2 0-3 1-4 2-9 3-14 1-6 2-12 3-17 2-7 3-14 4-19 1-5 1-10 1-14 1-4 0-7 0-9-1-3-2-5-3-7-1-2-3-4-5-5-2-1-5-2-7-3-2 0-5 0-8 0-2 1-5 1-7 3-6 3-11 7-14 10-3 4-6 8-8 12-1 3-2 5-1 6 0 1 0 1 2 0 3-4 6-6 10-8 4-1 8-2 13-2 3 1 6 3 8 6 3 4 4 9 3 14 0 2 0 4 0 7 0 2-1 5-1 8 0 4-1 7-1 11-1 4-2 9-3 14 0 4 0 6-1 10 0 1-1 2-1 3-1 0-1 1-2 1-4 0-7 0-9 1-3 0-5 0-6 0-2 0-4 0-5 0-2-1-3-1-5-1-1-1-2-1-3-1-1 0-2-1-2-1-1 0-1-1-2-1 0 0-1-1-2-1-1-1-2-2-3-2 0 0-1 0-2 1-1 1-1 1-1-1 0-3 1-6 1-9 0-4 0-7 0-10 0-3 1-6 1-9 0-3 0-5 0-7 1-7 1-12 0-17-1-4-2-6-3-6-1 0-3 0-3 0-1 1-3 2-5 4-1 1-3 2-7 3-3 1-6 2-10 3-1 0-1 0-2 0 0 0-1-1-2-2 0 0-1-1-2-1-1 0-2 0-3 1-1 1-2 2-2 3-1 1-1 2-1 4-1 2-1 4-1 6 0 3 0 6 0 9 0 4 0 9 0 14 0 5 0 10 0 15 0 5-1 10-1 15 0 5 0 9-1 12-1 7-1 13 0 17 0 4 1 6 4 6 2 1 3 0 4-2 2-3 3-5 4-5 10-4 15-4 17-3 1 1 3 1 4 1 2-1 3-2 5-4 0-1 1-2 1-3 0-1 0-2 1-3 0-1 0-3 0-5 0-2 0-4 0-8 0-2 0-3 0-3 0 0 1 0 1 1 1 1 1 2 2 3 0 1 1 2 2 3 1 3 4 3 7 0 1-1 2-1 2-1 1-1 2-1 2-1 1 0 2 0 3 0 2 0 3 0 5 0 1 0 3 0 5 0 3 0 6 0 9 0 1 0 1 0 1 1 0 0 0 1 0 3-1 2-1 5-2 7 0 3-1 6-1 8-2 9-2 14-1 17 0 2 3 1 7-2 1-2 2-3 3-4 1-1 2-2 3-4 0-1 1-3 1-6 0-2 1-5 1-9 0-1 0-2 0-4 1-1 1-3 1-4 0-1 0-2 1-3 0 0 1 0 1 0 1 0 1 0 2-1 0 0 0 0 1 0 4 0 8 0 12 0 4 0 6 1 8 1 2 0 3 0 4-1 0-1 0-2 1-5 1-4 1-7 0-10z m-66-12c0 1 1 2 2 3 1 1 3 2 4 0 1-1 3-3 5-7 2-3 3-6 5-9 2-3 3-5 5-7 2-3 3-6 3-7 0-2-2-2-6-1-2 0-5 1-7 4-3 1-6 4-8 8-1 2-2 4-2 6-1 2-1 3-1 5 0 2 0 3 0 5z m56 109c-13 0-24 5-31 16-8 11-11 26-11 46 0 16 2 32 7 48 5 16 12 30 21 43 8 10 15 18 24 23 8 6 16 8 25 8 13 0 24-5 31-16 8-11 12-27 12-46 0-16-3-32-8-48-5-16-13-30-22-43-7-10-15-18-23-23-8-6-17-8-25-8z m90-101c-1 2-2 3-3 5 0 2 0 4-1 5 0 2 0 3 1 4 1 3 2 4 3 3 1 0 4-2 6-5 2-2 4-4 7-6 2-3 4-4 5-5 3-2 5-4 5-6 0-1-1-3-5-4-2-1-4-1-7 0-2 0-5 2-8 5-1 1-2 3-3 4z m56-39c-1-3-2-6-3-8-2-3-3-5-5-7-2-1-4-3-6-4-2-1-5-1-7-1-6 0-11 1-14 3-4 2-7 4-9 8-2 3-3 4-4 6 0 1 1 1 2 0 4-2 7-3 11-2 3 0 7 2 11 5 2 2 4 6 5 11 1 5 1 10-1 15 0 3-1 5-2 7-1 3-2 5-3 8-1 4-3 7-4 11-2 4-3 8-6 13-1 4-2 6-3 9-1 1-1 2-2 3 0 0-1 0-2 0-3-2-5-3-8-4-2-1-3-2-5-3-1-1-2-2-3-3-1-1-3-2-4-4-1-1-2-2-2-2-1-1-1-2-2-2 0-1-1-2-1-2 0-1-1-2-1-2-1-2-2-3-2-4-1 0-2 0-2 0-1 1-1 0-1-2 1-3 2-6 3-9 1-3 2-6 3-10 1-3 2-6 3-8 1-3 2-6 2-8 3-6 4-12 4-16 1-5 1-8-1-9-1-1-1-1-2-1-1 0-3 0-5 1-1 0-3 0-6 0-3-1-6-2-9-3-1 0-1 0-2-1 0 0 0-1-1-3 0-1-1-2-2-2 0-1-1-1-2-1-1 1-2 1-3 2 0 1-1 2-2 3-1 2-1 4-2 6-1 3-1 6-2 10-1 4-2 9-4 14-1 5-3 10-4 16-2 5-3 10-4 14-2 5-3 9-4 12-3 7-4 13-5 17-1 5 0 8 2 9 1 2 2 2 4 0 2-2 4-3 5-3 8 2 13 4 14 6 1 2 2 3 3 3 2 1 3 0 5-1 0-1 1-2 1-2 1-1 1-2 2-3 0-1 1-3 1-5 1-2 1-5 2-8 1-2 1-3 1-3 1-1 1 0 1 1 0 2 0 3 0 4 1 1 1 3 1 5 1 3 3 4 6 3 1 0 2 0 2 0 1 0 2 0 2 1 1 0 2 1 3 1 1 1 2 2 3 3 1 1 3 2 5 3 2 2 4 3 7 4 1 1 1 1 1 2 0 0 0 1-1 2-1 3-2 5-3 8-1 2-2 4-4 7-3 8-5 13-5 16 0 3 2 3 7 2 1-1 2-1 3-2 2-1 2-2 3-3 1-1 2-3 3-5 1-2 2-5 3-9 1-1 1-3 2-4 0-1 1-3 1-4 1-1 1-2 1-2 1-1 1-1 2 0 0 0 1 0 1 0 0 0 1 1 1 1 4 2 7 4 10 7 3 2 5 3 7 5 1 1 2 1 3 1 1-1 1-2 2-5 1-4 2-7 2-11 1-3 1-6 0-9-1-3-2-4-3-6-2-1-4-1-6-1-1 0-3 0-5 0-1 0-3 0-4 0-1 0-2-1-2-1 0 0 0-1 1-3 2-3 4-8 6-13 2-5 5-10 7-15 4-7 6-12 8-17 2-5 4-10 5-14 1-4 2-7 2-10 1-3 0-6 0-8z m56 82c0-6-1-12-2-18-2-5-3-10-5-14-2-4-4-8-6-11-2-2-4-4-5-4-2-1-2-1-3 0-1 1-2 2-3 4 0 1 0 3 2 6 4 10 6 21 8 32 1 10 1 20 0 29-1 1 0 2 0 3 1 1 1 2 2 3 1 1 1 1 2 2 1 0 2 0 3 0 2-2 3-3 4-4 1-2 1-4 2-6 1-8 1-15 1-22z m33-5c-1-3-3-5-5-8-2-1-3-1-5-2-2 0-3 0-5 0-2 0-4 1-5 2-2 1-4 2-5 3-5 4-5 6-2 6 2 1 4 1 5 2 1 1 2 2 2 3 3 6 3 12-1 18-2 2-3 5-4 7-2 2-3 4-5 6-1 2-3 5-4 7-2 3-4 5-6 8-1 1-1 2-2 2 0 0 0-1-1-1-2-4-5-9-8-13-1-2-2-4-3-5 0-1-1-3-2-4 0-1-1-3-1-4-1-2-1-3-2-5-1-3-2-5-3-5-1-1-3-1-5 0-2 2-3 4-5 7-1 2-3 6-4 11 0 1 0 3-1 4-1 2-2 4-3 6 0 2-1 3-2 5-1 1-2 3-3 4-1 2-2 3-3 4-1 2-2 3-2 4-1 1-2 2-2 3-1 2-2 3-3 4-1 4-2 6-2 9 0 2 1 4 2 6 0 1 1 1 2 1 1 1 1 0 2 0 1-1 2-2 2-2 1 0 1 0 1 1 3 3 6 7 8 10 2 4 4 8 6 13 1 2 2 4 3 7 0 2 1 4 2 7 1 2 1 4 2 7 1 2 1 5 2 8 0 1 1 3 3 3 1 0 3 0 5-1 3-2 4-4 5-6 1-2 0-4 0-7-1-2-2-6-4-10-2-5-5-11-10-18-1-2-3-4-4-6-1-2-3-4-4-6-2-1-3-3-4-5-2-1-3-3-5-5-1 0-1-1-1-2 0 0 0-1 1-2 2-6 4-10 6-13 2-4 4-7 7-11 1-2 3-3 4-4 1 0 3 2 5 4 0 1 1 2 3 5 2 3 4 6 7 11 1 1 1 2 1 3 0 0-1 1-1 2-1 1-2 2-2 3-1 1-2 2-3 4-2 3-4 5-5 7-1 2-2 4-2 6 0 1 0 2 0 3 1 1 2 2 3 3 1 1 2 1 3 1 0 1 1 0 2-1 1 0 3-2 4-4 2-2 4-6 7-10 1-1 2-1 2-2 0 0 1 1 1 2 1 2 3 4 4 6 2 3 4 5 5 8 2 3 4 5 5 8 2 3 3 5 4 7 2 3 3 4 4 4 1 0 2-1 4-2 1-2 1-3 2-4 0-1 1-2 1-3 0-1 0-2-1-3 0-1-1-2-2-4-2-4-5-9-8-13-3-5-6-10-9-15-1-1-1-2-1-3 0 0 0-1 1-3 2-2 4-5 6-8 3-2 4-5 5-6 3-4 7-8 9-11 3-4 5-7 7-10 2-3 3-6 5-9 1-3 1-6 1-9 0-4 0-7-1-10z m31 73c0-4-1-7-3-9-2-2-5-3-9-4-4 0-8 0-11 0-3 0-5 0-8 0-3 0-5 0-8 0-2 0-5 0-7 0-2 0-4 0-5 0-1 1-1 2-2 4-1 2-1 4 0 5 0 2 2 3 5 4 2 0 4 1 6 2 2 1 5 2 7 3 3 1 5 3 7 4 2 1 4 2 6 3 2 2 5 4 7 6 2 3 4 4 5 6 1 1 2 2 2 2 1-1 2-2 3-4 1-1 1-2 2-4 1-2 1-4 2-6 0-2 0-4 1-7 0-1 0-3 0-5z"/>
<glyph glyph-name="chat-1" unicode="&#100;" d="M437 437c-48 48-113 75-181 75-68 0-133-27-181-75-93-93-100-242-17-343-11-24-25-39-40-47-10-5-15-15-13-25 1-10 9-18 20-20 5-1 11-1 18-1 31 0 64 10 92 29 37-19 79-30 121-30 68 0 133 27 181 75 48 48 75 113 75 181 0 68-27 133-75 181z m-21-341c-42-43-99-67-160-67-41 0-80 11-115 31-2 2-5 2-7 2-3 0-7-1-9-3-33-25-66-29-80-29 17 13 31 33 43 60 3 6 2 12-2 16-79 89-75 226 10 311 42 43 99 66 160 66 61 0 118-23 160-66 89-89 89-233 0-321z m-53 244l-214 0c-8 0-15-6-15-14 0-8 7-14 15-14l214 0c8 0 15 6 15 14 0 8-7 14-15 14z m0-70l-214 0c-8 0-15-6-15-14 0-8 7-14 15-14l214 0c8 0 15 6 15 14 0 8-7 14-15 14z m0-70l-214 0c-8 0-15-6-15-14 0-8 7-14 15-14l214 0c8 0 15 6 15 14 0 8-7 14-15 14z"/>
<glyph glyph-name="chat" unicode="&#101;" d="M437 437c-48 48-113 75-181 75-68 0-133-27-181-75-93-93-100-242-17-343-11-24-25-39-40-47-10-5-15-15-13-25 1-10 9-18 20-20 5-1 11-1 18-1 31 0 64 10 92 29 37-19 79-30 121-30 68 0 133 27 181 75 48 48 75 113 75 181 0 68-27 133-75 181z m-21-342c-42-42-99-66-160-66-41 0-80 11-115 31-2 1-5 2-7 2-3 0-7-1-9-3-33-25-66-29-80-29 17 13 31 33 43 60 3 5 2 11-2 16-79 89-75 226 9 311 43 43 100 66 161 66 61 0 118-23 160-66 89-89 89-233 0-322z m-95 278c-23 0-45-9-61-25l-4-4-4 4c-16 16-38 25-61 25-23 0-45-9-61-25-17-16-26-38-25-61 0-23 9-45 25-62l116-115c2-3 6-4 10-4 4 0 7 1 10 4l116 115c16 17 25 38 25 62 0 23-9 44-25 61-16 16-38 25-61 25z m41-127l-106-106-106 106c-11 11-17 25-17 41 0 15 6 30 17 41 11 10 26 16 41 16 15 0 30-6 41-17l14-13c5-6 15-6 20 0l14 13c11 11 26 17 41 17 15 0 30-6 41-17 11-11 17-25 17-40 0-16-6-30-17-41z"/>
<glyph glyph-name="cancel" unicode="&#102;" d="M437 437c-48 48-113 75-181 75-68 0-133-27-181-75-48-48-75-113-75-181 0-68 27-133 75-181 48-48 113-75 181-75 68 0 133 27 181 75 48 48 75 113 75 181 0 68-27 133-75 181z m-21-341c-42-43-99-67-160-67-61 0-118 24-160 67-89 88-89 232 0 320 42 43 99 67 160 67 61 0 118-24 160-67 89-88 89-232 0-320z m-47 273c-6 6-15 6-21 0l-92-92-92 92c-6 6-15 6-21 0-6-6-6-15 0-21l92-92-92-92c-6-6-6-15 0-21 3-3 7-4 10-4 4 0 8 1 11 4l92 92 92-92c3-3 7-4 10-4 4 0 8 1 11 4 5 6 5 15 0 21l-92 92 92 92c6 6 6 15 0 21z"/>
<glyph glyph-name="exclamation" unicode="&#103;" d="M256 512c-141 0-256-115-256-256 0-141 115-256 256-256 141 0 256 115 256 256 0 141-115 256-256 256z m0-461c-113 0-205 92-205 205 0 113 92 205 205 205 113 0 205-92 205-205 0-113-92-205-205-205z m-102 179l204 0 0 52-204 0z"/>
<glyph glyph-name="eye" unicode="&#104;" d="M504 280c-29 37-66 67-108 88-42 21-88 32-136 33-1 0-7 0-8 0-48-1-94-12-136-33-42-21-79-51-108-88-11-14-11-34 0-48 29-37 66-67 108-88 42-21 88-33 136-33 1 0 7 0 8 0 48 1 94 12 136 33 42 21 79 51 108 88 11 14 11 34 0 48z m-379-118c-39 20-73 48-100 83-5 6-5 16 0 22 27 35 61 63 100 83 11 5 23 10 34 14-29-27-48-65-48-108 0-43 19-81 48-108-11 4-23 9-34 14z m131-30c-69 0-124 55-124 124 0 69 55 124 124 124 69 0 124-55 124-124 0-69-55-124-124-124z m231 113c-27-35-61-63-100-83-11-5-23-10-34-14 30 27 48 65 48 108 0 43-19 81-48 108 11-4 23-9 34-14 39-20 73-48 100-83 5-6 5-16 0-22z m-231 64c-29 0-53-24-53-53 0-29 24-53 53-53 29 0 53 24 53 53 0 29-24 53-53 53z m0-85c-18 0-32 14-32 32 0 18 14 32 32 32 18 0 32-14 32-32 0-18-14-32-32-32z"/>
<glyph glyph-name="k3" unicode="&#105;" d="M69 387c1 1 2 1 3 3 5 7 11 11 19 14 11 4 141 48 151 52 12 4 24 4 36 1 6-1 102-30 119-36 6-2 13-3 19-7 3-3 6-5 9-8 2-3 4-5 7-9 7-9 11-19 13-30 0-1 6-164 6-165 0-6 1-13 0-19-4-18-13-32-28-42-14-9-97-57-124-73-11-7-23-11-36-14-6 0-11-1-17-1-12 0-25 1-37 5-6 1-13 3-18 5-29 14-58 29-87 43-9 4-16 9-23 16-11 12-18 27-18 44 0 44-1 88-1 132 0 18 0 37-1 56 0 7 1 15 4 22 0 1 4 9 4 11z m43-201c1 0 1 0 1-1 1 0 2 0 2-1 5-2 11-1 17-1 2 0 2 0 2 2 0 1 0 2 0 2-1 9-1 17-2 26 0 8 0 17 1 25 1 8 2 8 8 6 4-1 8-3 11-4 2 0 4 0 5 2 1 2 2 4 0 5-2 2-3 4-6 5-4 3-8 5-13 7-1 0-2 1-2 3 1 7 2 14 3 21 3 10 6 21 10 31 1 3 1 6 2 8 1 2 0 2-1 2-4-1-6-2-8-5-5-4-9-10-12-16-6-11-10-22-13-33-1-3-1-3-4-2-1 0-1 0-2 0-1 1-2 2-3 2-2 1-2 2-1 3 1 3 2 7 3 11 2 5 3 11 3 17 0 10-4 16-13 19-2 0-4 1-7 1-1 1-2 0-2-2-1-2-1-4-1-6 0-11 0-22 1-33 0-1 0-2-2-3-9 0-12-7-8-14 1-3 3-4 5-6 1-1 2-2 2-3 1-3 2-6 3-9 0-2 1-3 2-4 0-1 1-2 2-1 1 2 2 3 2 5 1 2 1 3 1 5 0 3 1 3 4 3 3 0 5-1 7-2 1 0 1 0 1 0 3-3 3-3 2-6-1-5-2-9-3-13 0-2 0-3-1-5 0 0 0 0 0-1-1-5-2-10-2-15-1-5-1-11 0-16 1-4 3-6 6-8 0 0 0 0 0-1z m216-32c0 0-1-1-1-1-1 0-1 0-1-1 0 0-1-1-1-1l0 0c-4-4-8-8-12-12-10-11-20-21-30-31 0 0 0-1-1-1 1 0 1 0 2 0 14 8 28 16 42 25 0 0 1 0 1 0 8 6 15 11 22 17 10 8 19 16 28 26 6 7 12 15 16 24 3 8 5 15 6 23 0 9-2 17-6 24-2 6-7 9-13 11-5 2-10 2-16 1-5-1-10-2-15-4-1 0-1 0-2 0 0 1 0 1 1 2 0 0 0 0 0 1 5 9 10 18 15 27 10 18 20 35 30 53 0 1 1 2 2 4 0 0 0 0 0 0 0 0-1 0-1 0-1 0-1 0-1 0-18-7-35-14-53-21-5-3-10-5-16-7-8-3-16-6-23-9-5-2-9-6-12-10-4-7-5-15-5-23 0-1 1-1 2-1 2 0 4 1 6 1 11 5 22 9 33 13 0 1 0 0 1 1 5 2 10 4 14 6 3 1 5 2 8 3 0 0 0 0 1 0 0-1 0-1 0-1-1 0-1-1-1-1-8-14-15-27-23-40-3-5-5-10-4-16 0-4 0-4 4-4 14 1 27-8 31-22 2-7 1-15-3-22-3-6-7-11-11-17-4-5-9-10-13-16-1 0-1-1-1-1z m-84 107c0-1 0-2 0-3 0-10 1-173 1-173 0 0 5-2 5-3 0-2 1 163 1 175 0 0-1 1-1 2 0 2 0 4 0 6 0 7 0 14 0 21 0 6 2 12 5 16 9 12 21 21 35 26 2 1 5 2 7 3 0 0 1 0 1 0 9 4 111 46 121 50 0 0-2 8-3 7-3-1-98-40-100-41-8-3-16-6-23-9-5-1-9-3-14-4-15-4-31-6-47-4-9 1-19 2-27 5-1 0-1 1-1 1-3 1-6 2-9 4-4 1-95 43-99 44 0 1-6-5-4-6 2-1 93-44 96-45 5-2 10-4 14-6 2-1 4-2 6-2 13-6 23-14 30-25 4-6 6-12 6-18 0-7 0-14 0-21z m-66-64c1 0 1 0 1 0 4-1 8-2 11-3 8-3 15-6 22-9 4-2 9-3 13-4 2-1 3 0 3 2 0 3 1 7 1 10 0 5-2 8-6 10-1 1-2 1-3 1-3 2-7 3-10 5-3 1-4 2-3 5 0 4 1 8 2 12 1 6 2 12 3 18 0 3-1 5-4 7-6 4-12 7-19 10-2 1-2 1-1 3 3 7 4 14 3 21 0 3-1 5-3 6-4 3-8 5-12 6-5 1-10 3-15 2-1 0-3-1-3-1-1-2 0-3 1-4 1-1 1-1 2-2 2-1 5-2 7-3 2-1 3-2 3-4 0-3 0-5-1-9 0 0 0 0 0 0 0-2-1-3-1-5 0 0 0 0 0 0-1-2-2-3-4-2-3 2-6 3-8 5-2 1-4 1-6 2-1 0-2-1-2-2-1-7 1-13 8-17 2-1 5-3 7-4 1 0 2-1 2-2 1-7 1-13 0-20-1-2-2-3-4-2-2 1-4 2-5 3-4 1-7 3-11 4-4 2-6 0-7-4 0 0 0-1 0-1-1-6 1-11 1-17 1-3 2-4 5-5 3 0 6-1 8-2 3-1 5-2 4-7-4-16-7-33-8-50 0-5 0-12 1-18 0 0 1-1 1-2 1 1 1 1 2 2 1 3 3 5 5 8 9 17 14 35 17 54 0 1 0 2 1 3 0 0 1 0 2 0z m42 171c-1-1-1-2-1-2-1-2-3-4-4-6-1-2 0-3 2-3 1 0 1 0 2 0 3 0 6 0 8 0 1 0 2 0 1-1-2-2-3-5-4-7-2-2-1-3 1-3 0 0 1 0 1 0 12 0 23 0 34 0 2 0 3 1 4 2 4 6 8 12 12 18 2 1 3 2 5 2 8-1 16-1 24 0 9 1 18 3 26 7 4 2 8 5 11 9 3 6 4 11 0 17-2 3-5 6-9 8-5 4-11 6-18 8-3 1-7 2-11 1-3 0-5 0-8 0 0 0-1 1-1 1 0 0 0 0 0 1 1 0 1 1 2 1 1 2 3 3 4 5 1 1 1 1 1 2 0 1-1 1-2 1-1 0-1 0-2 0-4 0-8 0-11 0-1 0-1 0-2 0 1 1 1 1 1 2 0 0 1 0 1 1 2 1 3 3 5 4 0 1 1 2 1 3 0 2-2 1-3 1-11 0-22 0-33 0-2 0-3 0-4-2-5-6-10-13-14-20-1-1-1-3-3 0-1 0-3 0-4 0-7 0-14 0-22 0-11-2-21-5-30-11-4-3-8-6-11-11-3-6-2-13 3-18 3-2 6-4 9-6 7-3 14-4 21-5 0 0 5 0 5 0 4 1 13 1 13 1z m-4-239c-1 5-1 11-3 17-2 9-5 18-11 25-3 4-8 7-13 7-3 0-4-1-5-3 0-3-1-6-2-9 0-7 1-12 2-18 3-11 7-21 13-31 2-3 4-6 8-7 4-2 6-1 7 2 1 1 1 1 1 2 2 4 2 9 3 15z m3 269c1 0 3 0 5 0 1 0 0 0 0-1-3-4-6-9-10-14 0 0-1 0-1 0-1 0-2 1-3 2-2 1-5 2-7 3-3 2-3 5 0 7 3 2 7 3 11 3 1 1 3 0 5 0z m-24-166c-1-3-1-7-1-10 0-1-1-2-1-3-1-2-2-2-4-2-4 1-7 2-8 6 0 1 0 3 0 5 1 4 1 9 2 13 1 4 4 5 7 3 1-1 2-1 3-2 1-1 2-3 2-5-1-1 0-3 0-5-1 0 0 0 0 0z m98 153c-1 0-2 0-3 0 1 1 1 2 2 3 2 3 4 6 6 9 1 1 2 2 3 1 2 0 5 0 7-1 4-1 5-4 1-7-2-2-4-2-7-4-1 0-2 0-3-1-2 0-4 0-6 0z m-59-26c1 0 39 57 39 57l20 1-22 1z m-12 12c0 0 39 58 39 58l20 0-22 1z"/>
<glyph glyph-name="k8" unicode="&#106;" d="M29 385c16-5 37-40 37-40 0 0 0-1 1-2l-51-156c0 0 39 3 53 41 6 16 19 57 33 98 21 0 53 13 53 13 0 0-10 1-41 24 0 0 0 1 0 1 13 41 24 76 24 76l-39 0-17-52c-23 16-50 25-81 0 0 0 12 2 28-3z m142-14l-16-53-42 0-9-33 41 0c-38-100-89-98-89-98 95-13 118 71 118 71 6-81 95-71 95-71-59 43-63 98-63 98l63 0 9 33-15 0 15 53 4 11c3 11-5 22-16 22l-45 0 11 36-41 0-11-36-39 0-10-33z m40 0l27 0-15-53-28 0z m276-134c0 0-9-47-48-67-38-20-53-26-101-25-48 2-46 14-100 20-54 6-174 17-232-38 0 0 33-24 48-67 0 0 38 41 94 48 56 6 131 6 165 3 34-2 98 3 135 39 38 37 62 87 62 87z m-211 2c-16-27-9-46 20-57 22-9 45-11 68-8 39 5 71 24 88 60 15 31 7 60-19 81-2 2-5 3-8 6 30 13 56 30 73 57-1 1-2 2-3 4-4-3-8-6-12-7-5-3-11-6-16-5-9 1-13-2-16-10-4-11-12-15-23-14-7 1-10-1-13-7-5-10-11-11-16-2-7 11-13 24-16 36-3 20 11 38 31 41 11 2 22-2 32-9 5-4 11-7 17-9 10-4 18 0 18 11 1 7-1 16-6 21-6 7-14 13-23 16-34 14-66 8-96-12-34-22-37-59-8-87 6-6 11-13 17-20-11-9-21-16-31-24-22-18-44-37-58-62z m102 65c2 2 8 1 11-1 17-8 20-24 21-39 0-18-8-30-21-36-13-6-28-10-42-10-17-1-26 12-20 28 10 26 30 42 51 58z"/>
<glyph glyph-name="shuffle" unicode="&#107;" d="M196 154c-7 5-16 3-21-3-24-33-61-51-102-51l-40 0c-9 0-15-7-15-15 0-8 6-14 15-14l40 0c25 0 49 5 71 17 22 10 40 26 55 45 4 7 3 16-3 21z m41 206c3-2 6-3 9-3 4 0 9 2 12 5 24 32 61 50 101 50l85 0-46-45c-5-6-5-15 0-21 3-3 7-5 11-5 4 0 7 2 10 5l71 70c5 6 5 15 0 21l-71 71c-6 5-15 5-21 0-5-6-5-15 0-21l46-46-85 0c-49 0-95-22-125-60-4-7-3-16 3-21z m182-194c-6 6-15 6-21 0-5-6-5-15 0-21l46-45-85 0c-71 0-128 57-128 128l0 56c0 87-71 157-157 157l-41 0c-8 0-14-6-14-14 0-8 6-15 14-15l41 0c70 0 128-57 128-128l0-56c0-87 70-157 157-157l85 0-46-46c-5-6-5-15 0-21 3-2 7-4 11-4 4 0 7 1 10 4l71 71c5 6 5 15 0 21z"/>
<glyph glyph-name="piggy-bank" unicode="&#108;" d="M474 325l-7 0c-13 32-33 61-61 84-4 14-1 29 9 45 6 9 6 20 1 29-5 9-15 14-25 14-1 0-2 0-3 0-39-5-62-22-76-38-17 5-38 7-42 7-10 1-20 2-30 2-64 0-124-22-169-61-46-40-71-94-71-151 0-15 2-29 5-44 0 0 0 0 0 0l0-1c4-14 9-29 16-42 12-25 25-45 41-61 21-22 25-50 25-61l0-5c0-1 0-1 0-1 0-1 0-2 0-3 2-13 14-23 27-23l78 0c15 0 27 12 27 27l0 3c11-1 23-1 34 0l0-3c0-15 12-27 27-27l78 0c15 0 27 12 27 27l0 19c0 4 2 25 22 43 1 1 2 2 3 3 0 0 0 0 0 0 0 0 0 0 1 1 26 23 45 52 57 83l6 0c21 0 38 17 38 38l0 58c0 21-17 38-38 38z m-83 144c0 0 0 0 0 0 0 0 0 0 0 0 0 0 0 0 0 0l-2 14z m93-240c0-6-4-10-10-10l-16 0c-6 0-12-4-14-10-9-30-27-58-53-81 0 0 0 0 0 0l0 0c-1-1-2-2-3-3 0 0 0 0 0 0-28-25-31-55-31-64 0 0 0 0 0 0l0-18-76 0 0 17c0 4-1 8-4 11-3 2-7 3-11 3-9-1-18-1-26-1-11 0-22 0-33 2-4 0-8-1-11-3-3-3-5-7-5-11l0-18-75 0 0 4c0 1 0 1 0 1-1 14-6 50-34 80-13 13-25 31-35 53 0 0 0 0 0 0-6 12-11 24-14 37 0 0 0 0 0 0 0 0 0 0 0 0-3 13-5 25-5 38 0 101 95 183 212 183 9 0 18 0 27-1 0 0 1 0 1 0 12-1 33-4 42-9 6-3 14-1 19 5 9 13 27 30 62 35-14-23-18-46-12-68 0-4 2-8 5-11 28-23 49-52 60-84 1-6 7-10 13-10 0 0 0 0 0 0l17 0c6 0 10-4 10-9l0-58z"/>
<glyph glyph-name="money-2" unicode="&#109;" d="M282 264l-44 0 0 16 44 0c5 0 9 3 9 8 0 5-4 8-9 8l-18 0 0 10c0 5-3 9-8 9-5 0-8-4-8-9l0-10-18 0c-5 0-9-3-9-8l0-32c0-5 4-8 9-8l44 0 0-16-44 0c-5 0-9-3-9-8 0-5 4-8 9-8l18 0 0-10c0-5 3-9 8-9 5 0 8 4 8 9l0 10 18 0c5 0 9 3 9 8l0 32c0 5-4 8-9 8z m228-128l-87 87c-2 2-6 3-9 2-3-2-5-5-5-8l0-28-71 0c15 18 24 42 24 67 0 43-26 81-65 98-13 5-27 8-41 8-23 0-46-8-64-22l-97 0c-5 0-9-4-9-8l0-17-66 66 66 67 0-17c0-4 4-8 9-8l36 0c4 0 8 4 8 8 0 5-4 9-8 9l-28 0 0 28c0 3-2 6-5 8-3 1-7 0-9-2l-87-87c-1-1-2-3-2-6 0-2 1-4 2-5l87-87c1-1 4-2 6-2 1 0 2 0 3 0 3 2 5 5 5 8l0 28 71 0c-15-18-24-42-24-67 0-32 14-62 39-82 4-3 9-2 12 1 3 4 2 9-1 12-21 17-33 42-33 69 0 27 12 52 33 69 16 13 36 20 56 20 12 0 23-2 34-7 34-14 55-46 55-82 0-26-11-50-31-67l-96 0c-4 0-8-4-8-9l0-99c0-5 4-9 8-9l191 0 0-28c0-3 2-6 5-8 1 0 2 0 3 0 2 0 5 1 6 2l35 35c3 3 3 9 0 12-3 3-8 3-12 0l-20-21 0 17c0 4-4 8-9 8l-190 0 0 83 190 0c5 0 9 4 9 8l0 17 66-66-26-26c-3-3-3-8 0-12 4-3 9-3 12 0l32 32c3 3 3 8 0 11z m-216 304l-134 0c-4 0-8-4-8-9 0-4 4-8 8-8l125 0 0-43c0-5 4-8 9-8 4 0 8 3 8 8l0 51c0 5-4 9-8 9z"/>
<glyph glyph-name="money-3" unicode="&#110;" d="M192 184l83-25c0-1 0-2 0-2-3-6-7-10-15-11-27-4-73-1-73-1-7 0-13-5-14-12 0-7 5-13 12-14 2 0 49-3 79 2 31 5 39 31 38 48-1 5-4 10-9 11l-94 29c-46 13-97-12-99-13 0 0 0-1-1-1l-93-56c-6-4-8-12-4-18 2-4 6-6 11-6 2 0 4 1 6 2l93 56c4 2 45 21 80 11z m318 21c-7 14-30 35-64 20-33-15-103-48-103-48-7-3-9-11-6-17 3-7 11-9 17-6 1 0 69 33 102 48 9 4 17 4 24 0 0-1 0-1 0-1l-173-127c-13-9-28-13-43-10l-155 24c-4 1-8 0-10-2l-40-33c-5-5-6-13-1-18 2-3 6-5 10-5 2 0 5 1 8 3l34 29 150-24c21-3 44 2 62 15l185 136c5 4 7 11 3 16z m-236 15c20 0 38 8 53 22 29 29 29 76 0 105-14 14-33 22-53 22-20 0-39-8-53-22-29-29-29-76 0-105 14-14 33-22 53-22z m-35 109c10 9 22 14 35 14 13 0 25-5 34-14 20-19 20-50 0-69-9-9-21-15-34-15-13 0-25 6-35 15-19 19-19 50 0 69z m122 36c16 0 30 7 41 18 23 22 23 59 0 82-11 11-25 17-41 17-15 0-30-6-41-17-22-23-22-60 0-82 11-12 26-18 41-18z m-23 82c6 6 15 9 23 9 9 0 17-3 23-9 13-13 13-34 0-47-6-6-14-9-23-9-8 0-17 3-23 9-12 13-12 34 0 47z"/>
<glyph glyph-name="pk10" unicode="&#111;" d="M470 324c-38 38-100 46-146 17-13-8-25-13-39-11-2 0-3 0-5 0-13 2-24-3-32-14-2-3-4-6-7-8-5-6-11-12-17-18 0-1-2-1-3-2 0 1-1 2-1 3 0 9 0 17 0 25-1 9-5 13-14 14-7 0-14 0-22 0-5 0-11 0-15-6-3-4-6-3-11-1-8 4-17 7-26 7-21 0-42 0-62 0-15 0-18-4-19-19 0-22 0-44 0-67 0-8 0-17 0-26 0-15 0-29 1-44 0-11 4-15 16-16 7 0 14 0 21 0 11 1 15 5 16 16 0 9 0 18 0 28 0 13-1 13 13 12 3 0 7 0 10 0 12 1 23 3 33 9 5 3 6 3 6-4 0-15-1-30 0-45 0-11 4-15 15-16 7 0 13 0 20 0 14 1 18 4 18 18 0 8 0 15 0 23 0 4 1 7 3 10 2 6 6 6 9 1 2-2 3-4 4-6 7-11 14-22 20-33 5-9 13-14 23-13 2 1 4 0 6 1 7 0 13-2 18-7 32-32 71-41 114-30 47 12 82 50 89 99 5 39-7 74-36 103z m-168-159c-8 0-16 0-23 0-8 0-12 3-16 9-9 16-20 32-30 48-2 4-3 3-6 1-10-5-15-12-14-23 1-8 1-16 1-24-1-9-3-11-11-11-6 0-13 0-19 0-9 0-11 2-11 11 0 21 0 41 0 61 0 1-1 3-1 4-1-1-3-1-4-2-13-16-31-18-49-18-21 0-21 0-21-20 0-9 1-17 0-25 0-9-2-11-9-11-7 0-14 0-21 0-8 0-10 2-10 10 0 18 0 35 0 52 0 5 0 11 0 17 0 22 0 43 0 65 0 13 1 14 15 14 17 0 34 0 51 0 18 0 34-4 46-18 0 0 1-1 2-2 0 1 1 2 1 3 0 0 0 1 0 1 2 16 2 16 18 16 23 0 23 2 23-22 0-9 0-17 0-25 0-3 1-5 1-7 2 1 4 2 5 3 13 15 26 30 39 45 3 4 7 6 13 6 9 0 18 0 26 0 5 0 9 0 11-5 2-4-1-7-4-10-7-7-14-14-21-21-7-8-13-16-20-23-4-4-4-7-1-11 8-13 16-26 25-39 7-12 15-23 22-34 6-9 3-14-8-15z m162 58c-2-4-3-21-2-26 0-6 0-15 0-22 0-3 0-7-4-7-3 0-10 5-11 7 0 2 0 3 0 3l-47 0c0 0 1-5 0-9 0-4-4-4-7-4-4 0-5 3-5 6 0 9 0 19 0 28 0 8 0 16 0 23 0 3 0 10 0 13 4-2 15-4 15-7-1-3-1-44-1-44l45 0c0 0 0 40 0 41l-38 0-3 6 38 0c0 1 1 1 1 2 6 5 7 5 13 0 3-3 8-5 6-10z m14 34c-4-4-9-8-15-3-5 4-4 4-7 0-1-2-7-1-10-2-14 0-43 0-44 2 0 1-4 6-3 6 4 0 55-1 54 0-3 3-7 8-12 15-4 5-6 10-10 15-2 3-5 7-8 10-2-3-5-7-7-11-9-18-21-32-35-45-3-3-7-7-11-9-8-3-10-9-10-17 0-7 0-13 0-20 0-6 0-13 0-19 0-5 0-10-6-12-7-3-10-3-17 4 0 0-1 1-2 2-2 2-3 4 1 4 9 2 11 8 11 16 0 10 0 20 0 30 0 5-3 6-8 3-3-1-6-4-10-5-4-1-7-1-9 4-1 2-4 5-3 6 1 2 6 2 7 3 6 2 11 5 17 8 4 2 7 5 6 10-1 7 1 15 0 22 0 2-13-6-17-5-3 1-5 8-7 10 2 1 23 7 23 9 0 10 2 18-1 27-1 5 2 6 6 5 3 0 6-1 8-3 2-1 3-4 3-6-1-4-2-9-2-13 0-9 0-9 8-5 5 2 15-3 15-8 0-1-1-2-1-2-3 0-6 0-8 0-10-1-13-4-14-15-1-13 0-13 13-8 1 0 2 1 2 1 13-4 16 6 19 14 6 13 12 26 18 39 1 3 4 6 6 6 4-1 8-3 12-5 1 0 1-1 1-1-5-12 4-18 10-26 7-10 17-19 30-23 2-1 4-3 7-3 2-1 2-3 0-5z m-171-129c-3 2-6 7-8 7-3 0-6-4-10-7-2-1-4-2-6-4-28-21-60-32-94-33-36-1-69 9-98 29-27 17-46 41-58 70-12 29-18 59-13 91 4 18 9 36 17 52 19 36 48 62 86 77 32 13 64 16 98 8 38-10 70-28 93-60 1 0 2-2 2-2 3 0 5 1 7 1 0 0 0 4-1 5-11 12-22 25-35 35-30 21-64 34-102 34-11-2-23-2-35-4-43-8-78-29-104-64-27-35-42-74-41-118 1-9 2-18 3-26 4-20 11-39 22-56 19-29 43-53 76-67 21-9 43-15 65-15 12 0 23 2 34 3 27 2 51 11 73 26 6 4 11 8 17 11 4 3 7 3 11 0 22-15 47-23 74-21 5 0 10 0 15 1-5 0-10 1-16 1-27 0-51 10-72 26z m-50 126c-3 5-3 8 1 12 5 5 10 10 15 15 10 11 20 21 30 31 1 1 2 3 2 4-1 1-2 1-4 1-9 1-19 1-28 0-3 0-7-2-9-4-9-8-16-16-24-24-8-9-16-18-24-27-1-1-3-1-5-2 0 1-1 3-1 4 0 10 0 21 0 31 0 26 5 22-23 23-6 0-8-3-8-9 0-22 0-43 0-65 0-20 0-39 0-59 0-15-1-14 14-14 19 0 17-2 17 16 0 5 1 9 0 14-2 12 4 19 12 26 9 7 10 7 16-2 6-10 12-20 18-30 5-8 11-16 17-24 10 0 20 0 31 0 5 0 6 1 2 6-16 26-33 51-49 77z m-124 64c-20-1-41 0-62 0-9 0-9-1-9-10-1-21 0-41 0-62 0-18-1-36 0-54 0-24-5-21 22-21 9 0 9 0 9 10 0 13 0 26 0 39 0 5 2 7 7 7 10 0 20 0 29 0 25 1 39 12 45 36 7 27-14 56-41 55z m9-49c0-7-3-11-10-13-6-2-12-3-18-3-26 0-21-4-21 20 0 19 0 19 19 19 5 0 11 0 16-2 12-3 15-8 14-21z m219-28c-1 0 0-1 0-2 1 0 3-1 3 0 5 3 9 7 13 11 1 0 1 1 1 2-1 1-2 2-2 2-5-4-10-8-15-13z m-231 43c-4 2-9 2-14 3-20-1-17 2-18-18 0-2 0-4 1-6 0-2 2-4 3-4 9 0 19 0 29 2 5 0 8 6 8 11 0 5-3 10-9 12z m0-15c-4-4-19-7-23-3-2 2-2 6-2 9 1 2 3 4 5 5 2 0 3 0 5 0 0 0 0 1 0 1 5-2 10-3 14-5 2-1 3-4 1-7z"/>
<glyph glyph-name="speaker" unicode="&#112;" d="M298 454c-35 0-70-10-100-27-27-16-50-39-67-65l-75 0c-31 0-56-25-56-56l0-100c0-31 25-56 56-56l75 0c17-26 40-49 67-65 30-17 65-27 100-27 8 0 14 7 14 14l0 368c0 7-6 14-14 14z m-173-276l-69 0c-15 0-27 13-27 28l0 100c0 15 12 28 27 28l69 0z m159-91c-54 5-102 35-131 81l0 176c29 46 77 76 131 81z m84 279c-6 5-15 3-20-3-4-7-2-16 4-20 29-20 46-53 46-87 0-35-17-67-46-87-6-5-8-14-4-20 3-4 8-6 12-6 3 0 6 1 8 2 36 26 58 67 58 111 0 44-22 85-58 110z m55 59c-6 5-15 3-19-3-5-7-3-16 3-20 48-33 76-88 76-146 0-58-28-113-76-146-6-5-8-13-3-20 2-4 7-6 11-6 3 0 6 1 8 3 56 38 89 101 89 169 0 67-33 131-89 169z"/>
<glyph glyph-name="ssc" unicode="&#113;" d="M435 330c0 6-1 11-1 17-1 4 0 9-1 13 0 7 1 13 2 19 0 0 0 0 0 1 2 1 1 4 1 6 1 6 2 12 4 18 5 11 11 21 17 31 1 1 2 1 3 2 13 5 26 10 39 15 0 1 1 1 1 1 0 0 1 0 1 0 0-1 0-1 0-1-3-3-6-6-9-9-6-7-11-14-15-22-5-9-5-18-2-28 1-4 2-8 3-12 2-5 0-9-1-13-2-8-7-14-11-20-4-4-7-8-10-12-1-1-2-2-2-3-2-10-6-20-11-29-3-6-4-13-5-20-1-4-1-9 0-13 2-7 6-12 11-16 4-4 9-7 14-10 7-5 7-11 3-18-2-5-5-9-9-12-10-11-20-20-31-28-4-3-7-6-11-9-9-8-19-15-29-22-7-5-15-10-22-16-10-8-17-18-24-29-5-9-8-18-12-28 0-1-1-3-3-3-16-7-33-14-50-20 0-1 0-1-1-1 0 1 0 2 0 2 7 13 15 25 23 37 8 11 17 20 26 29 10 10 22 18 33 26 13 8 25 16 37 23 8 6 15 12 21 19 5 5 9 11 13 17 1 3 1 3-2 5-3 1-6 2-8 4-2 1-16 6-19 8-3 2-4 4-4 7 0 5 1 9 3 13 4 8 10 15 15 22 3 7 8 13 11 19 3 5 5 11 7 16 3 8 5 16 5 24z m-96-37c-1-1-2-3-3-4-7-14-14-29-22-43-1-2-2-4-3-6-1-3-4-5-7-6-7-3-14-6-21-9-1 0-1 0-1 0 0 1 0 1 0 2 3 7 7 14 11 21 5 10 11 21 16 32 2 5 5 9 8 14 0 2 1 3 1 4-1 0-3 0-4-1-2-1-4-1-6-2-1-1-1 0-1 1 2 5 3 10 5 15 1 2 2 3 4 3 5 3 11 5 17 7 5 2 10 4 15 6 2 1 3 2 3 4 1 4 4 6 8 8 7 2 14 5 21 8 0 0 1 1 2 1 1 0 1 0 1-1 0-2-1-3-1-5-1-1 0-1 1-1 3 2 7 3 11 5 7 3 15 6 22 9 1 0 2 0 2 0 0-1 0-1 0-2-1-4-3-9-4-13-1-2-2-3-3-4-3-1-6-2-9-3-1-1-2-1-2-3 0-4-1-8-1-13-1-10-1-20-2-29-1-5-1-10-2-15 0-2 0-3-2-3-5-2-10-4-15-6-3-2-6-3-9-4-2-1-2 0-2 1 0 6 1 12 2 18 0 4 0 9 1 13 0 4 0 9 1 13 0 0 0 0 0 1-1-1-1-1-1-1-2-6-4-11-5-16-4-12-8-24-12-36 0-2-1-3-2-3-9-4-18-7-27-10 0-1-1-1-1-1 0 1 0 2 0 2 4 13 8 25 12 38 1 4 2 9 4 14 0 0 0 0 0 1 0-1 0-1 0-1z m-261-128c0 1 0 1 0 1 0 1 0 3 1 4 2 8 5 16 8 24 1 2 2 3 4 4 5 2 10 4 15 6 2 1 4 2 5 5 1 7 5 13 10 19 4 4 6 10 8 15 0 4 1 8-1 11-1 1-1 2 0 3 0 2 1 4 2 6 0 2 0 2-2 2-4-2-8-4-13-5-8-4-16-7-24-10-1 0-1 0-2-1-1 0-1 1-1 1 1 1 1 2 1 3 3 9 6 17 9 26 1 2 2 3 4 4 12 5 25 10 37 14 3 1 4 3 5 5 2 7 5 14 7 21 1 2 2 3 3 3 8 3 16 6 24 9 1 1 1 1 2 1 0-1 0-2 0-2-3-7-5-14-7-20-1-1-1-2-1-4 1 1 2 1 3 1 3 1 6 2 8 3 1 0 1 0 2 0 0 0 0-1-1-1-1-4-2-8-4-12-1-5-3-11-5-16-1-2-2-3-4-4-3-1-6-2-9-3-1-1-3-2-3-4-5-15-11-30-16-45-4-11-8-22-12-32-4-9-9-15-18-18-11-4-22-8-33-13 0 0-1 0-2-1z m237 215c0-1 0-2 0-2-3-7-5-14-8-21 0-1 0-2 0-3 1 0 2 0 3 1 3 1 5 2 8 3 1 0 2 0 1-1 0-1 0-2-1-3-3-9-6-17-9-25 0-2-1-3-3-4-3-1-6-2-9-4-2 0-3-1-4-3-4-14-9-27-14-41-4-12-8-23-13-35-2-7-6-12-11-16-2-1-3-2-5-2-11-5-23-9-35-14 0 0-1 0-1-1-1 0-2 1-1 2 1 3 2 6 3 9 2 6 4 11 6 17 1 2 2 4 4 4 4 2 9 4 13 6 4 1 6 3 7 7 0 1 0 1 0 1 2 5 4 10 8 14 5 6 8 12 9 19 1 3 1 6 0 10-1 1-1 2-1 3 1 2 2 3 2 5 1 2 0 3-1 2-5-1-9-3-13-5-8-3-16-6-24-9-1 0-1 0-2-1-1 0-1 0-1 2 1 4 3 8 4 12 2 5 4 10 6 15 0 3 2 4 4 5 11 4 22 8 33 12 1 1 1 1 2 1 5 2 5 2 7 7 2 7 4 13 7 20 0 1 1 2 3 3 8 3 16 6 24 10 1 0 2 0 2 0z m-71-37c-2-4-3-7-4-10-1-1-2-1-3-2-4-1-7-3-8-8-4-11-8-22-12-33 0-1 0-1 0-2 0 0 0-1 0-1 0 0 1 0 1 0 1 0 2 1 3 1 1 0 2 0 2 0 0-1 1-1 0-2-1-5-3-10-5-14-5-15-10-30-16-45-1-3-2-6-3-9-3-1-6-2-9-3-14-6-27-11-41-17-1 0-1 0-2 0 0 0-1 0-2 0 1 0 1 1 1 1 2 6 4 12 6 18 4 12 8 23 12 34 8 23 16 45 24 68 0 0 0 1 1 2 0 2 1 2 3 3 6 3 13 5 19 8 10 3 19 7 29 11 1 0 1 0 2 1 1 0 1-1 2-1z m-63-101c0 0 0 0 1 0 4 1 8 2 9 8 0 1 1 1 1 2 0 2 1 4 1 6-2 0-4-1-6-2-1 0-2-1-2-1-2-4-3-8-4-12 0-1 0-1 0-1z m27 57c0 0-1 0-1 0-4-1-8-2-9-8 0-1-1-2-1-2-1-2-1-4-1-5 2-1 3 0 5 1 2 0 3 2 4 4 1 3 2 6 3 9 0 0 0 0 0 1z m-99 0c-2-3-3-6-4-9 0-1-1-2-2-2-1-1-2-1-3-1-3-1-4-3-5-6-4-11-8-23-13-35 0-1 0-1 0-2 0-1 0-2 1-1 1 0 3 1 4 2 1 0 1 0 2 0 0-1 0-1 0-2 0-1-1-2-1-2-5-15-10-30-16-44-2-7-4-14-7-20 0-2-1-3-3-4-14-5-29-11-43-16-2-1-4-2-7-3 0 0 0 0-1 0 0 0 0 1 0 1 1 4 3 8 4 12 10 28 20 56 30 83 3 9 6 17 9 26 1 2 2 4 5 5 13 5 27 10 41 16 2 1 5 2 8 3 0 0 0-1 1-1z m-51-84c-3-2-5-2-7-3-1-1-1-2-1-2-2-4-3-7-4-10 0-2 0-2 1-2 2 1 4 2 6 2 1 1 1 1 1 2 2 4 3 7 4 11 1 1 0 1 0 2z m15 40c0 0-1 0-1 0-6-1-7-2-9-8 0-1-1-1-1-1 0-2-2-4-1-7 2 1 4 2 6 2 1 1 2 2 3 3 1 3 2 6 3 10 0 0 0 0 0 1z m314 112c0-3 0-7 0-11 0-1 0-2-2-3-8-3-16-6-24-10-2 0-2 0-2 2 0 3 0 7 0 10 0 3 0 6 0 8 0 1-1 2-1 3 0-1-1-2-1-2-4-7-8-14-12-22-3-4-5-8-11-9-6-2-13-5-19-8 0 0-1 0-1 0 0 0 0 1 0 1 5 9 10 18 15 27 5 10 11 21 17 31 1 2 3 3 5 4 17 7 35 14 52 21 4 1 6 3 7 6 1 2 2 3 4 4 8 3 16 6 25 10 0 0 0 0 1 0 0 0 0 0 1 0 0 0 0-1 0-1-1-3-2-5-4-7-2-6-5-11-8-16-1-1-2-2-4-3-19-8-39-16-58-23-2-1-3-2-4-4-1-1-1-2-1-3 1 1 2 1 3 1 6 2 12 5 18 7 0 0 1 1 1 1 3 1 3 0 3-2 0-4 0-8 0-12z m10 5c0 4 0 7 0 11 0 2 0 3 2 3 8 3 15 7 24 10 2 1 2 1 2-2 0-7 0-15 0-22 0-2 0-3-2-4-8-3-16-6-24-9-2-1-2-1-2 1 0 4 0 8 0 12z m-169-99c0 5 3 11 7 16 3 2 6 4 9 6 6 2 12 0 11-9 0-10-6-17-14-22 0 0 0 0-1 0-7-4-12 0-12 9z m-107-29c0-6-2-10-4-14-3-5-7-8-12-10-6-2-11 1-11 8 0 2 0 5 1 8 3 6 7 12 14 15 1 1 2 1 4 1 4 1 8-2 8-6 0-1 0-2 0-2z m73-110c0-4 0-8 0-12 0-2-1-3-2-3-2-1-5-2-7-2-1-1-2-1-2 1 0 5 0 10 0 14 0 4 0 7 0 10 0 1 0 2-2 1-2 0-4-1-6-2-2-1-2 0-3 2 0 6 0 7 6 9 13 5 26 9 39 14 5 2 9 3 14 5 2 1 2 0 2-1 0 0 0 0 0 0 0-8 1-7-6-10-5-2-5-1-5-7 0-6 0-12 0-19 0-5 0-4-3-5-2-1-4-1-6-2-1-1-2 0-2 1 0 2 0 3 0 4 0 6 0 12 0 18 0 1 0 2 0 3 0 1 0 1-1 1-5-2-10-4-15-5-1-1-1-2-1-3 0-4 0-8 0-12z m71 31c0 6 0 11 0 16 0 2 0 3 2 4 7 2 13 4 20 7 6 1 10-3 9-9 0-4-2-7-5-10-2-1-2-1 0-2 2-2 3-4 4-6 1-2 2-4 3-6-2-1-4-2-6-3-6-2-4-3-8 3-1 2-2 4-4 6 0 0-1 1-2 1-1 0-2-1-2-3 0-3 0-6 0-10 0-3 0-3-3-4-2-1-3-1-5-2-2-1-2 0-3 2 0 5 0 9 0 14 0 1 0 2 0 2z m11 11c0 0 0 0 0-1 0-2 0-2 3-1 1 0 3 1 4 2 1 1 2 2 2 3 1 2-1 4-3 3-1 0-2 0-2-1-4-1-4-1-4-5z m-138-58c-1 13 8 24 19 27 2 0 4 0 6 0 4 0 7-2 9-6 0-2 1-3 1-5 1-16-7-27-23-30-6-2-11 3-12 9 0 2 0 4 0 5z m24 9c0 2 0 4 0 5-1 3-3 4-6 3-2 0-5-2-6-4-2-5-2-10-1-15 1-2 3-3 5-2 4 1 6 3 7 7 1 2 1 4 1 6z m73 27c0 5 0 10 0 15 0 2 0 3 2 4 8 3 16 6 24 9 2 1 2 0 2-2 1-5 1-5-4-7-4-2-8-3-11-4-2-1-3-4-2-6 0 0 1 0 2 0 3 1 6 2 10 4 1 0 2 0 3 0 0 1 1 0 1-1 0-1 0-2 0-3 0-3 0-3-2-4-4-1-7-2-11-4-1 0-3-1-3-2 0-1 0-3 0-5 0 0 1 0 2 0 3 1 7 2 11 4 0 0 0 0 0 0 2 0 3 1 5 1 0 0 0-7 0-8-1 0-1-1-2-1-8-3-16-6-24-9-3-1-3-1-3 2 0 6 0 11 0 17z m74 16c1 6-1 10-4 14-3 3-5 6-8 9-1 2-1 2 1 3 3 1 5 2 8 3 1 1 2 0 3-1 1-2 3-5 4-7 1-1 2-1 2 0 2 4 3 7 5 11 1 2 2 3 5 4 2 1 5 1 7 2-1-2-2-5-3-7-3-6-5-11-8-17-1-1-1-3-1-5 0-3 0-7 0-11 0-1-1-2-2-2-2-1-5-2-7-3-1 0-2 0-2 1 0 2 0 4 0 6z m-199-62c0 5 0 11 0 16 0 2 1 3 2 4 2 0 4 1 7 2 1 0 1 0 2-2 0-4 0-7 0-11 0-4 0-8 0-12 0-3 0-3 2-2 4 2 8 3 12 4 2 1 2 1 2-1 1-7 1-7-5-9-7-3-13-5-19-7-3-1-3-1-3 2 0 5 0 11 0 16z m229 185c0 0 0 0 0 1 0-1 0-1 0-1z"/>
<glyph glyph-name="money-4" unicode="&#115;" d="M275 269l-38 0c-16 0-29 13-29 29 0 16 13 28 29 28l67 0c7 0 13 6 13 13 0 8-6 14-13 14l-35 0 0 26c0 7-6 13-13 13-7 0-13-6-13-13l0-26-6 0c-30 0-55-25-55-55 0-30 25-55 55-55l38 0c16 0 29-13 29-29 0-16-13-28-29-28l-68 0c-7 0-13-6-13-13 0-8 6-14 13-14l36 0 0-27c0-7 6-13 13-13 7 0 13 6 13 13l0 27 6 0c1 0 1 0 1 0 30 1 54 25 54 55 0 31-25 55-55 55z m162 168c-48 48-113 75-181 75-68 0-133-27-181-75-48-48-75-113-75-181 0-68 27-133 75-181 48-48 113-75 181-75 68 0 133 27 181 75 48 48 75 113 75 181 0 68-27 133-75 181z m-181-411c-127 0-230 103-230 230 0 127 103 230 230 230 127 0 230-103 230-230 0-127-103-230-230-230z"/>
<glyph glyph-name="key" unicode="&#116;" d="M335 512c-95 0-173-78-173-173 0-21 4-42 11-61l-165-166c-3-2-4-6-4-9l0-90c0-7 6-13 13-13l74 0c4 0 7 1 9 4l25 25c3 2 4 5 4 9l0 31 31 0c7 0 12 5 12 12l0 13 13 0c7 0 12 5 12 12l0 27 28 0c3 0 6 2 8 4l41 40c19-7 40-11 61-11 95 0 173 78 173 173 0 95-78 173-173 173z m0-321c-21 0-41 4-59 13-5 2-11 0-14-3 0 0 0 0 0 0l-43-42-34 0c-7 0-13-6-13-13l0-27-12 0c-7 0-13-6-13-13l0-12-31 0c-7 0-12-6-12-13l0-38-18-18-57 0 0 18 154 154c5 5 5 12 0 16-4 5-11 5-16 0l-138-138 0 23 168 168c0 0 0 0 0 0 3 3 5 9 3 14-9 18-13 38-13 59 0 81 66 148 148 148 81 0 148-67 148-148 0-82-67-148-148-148z m53 248c-26 0-48-21-48-47 0-26 22-48 48-48 26 0 47 22 47 48 0 26-21 47-47 47z m0-69c-12 0-22 9-22 22 0 12 10 22 22 22 12 0 22-10 22-22 0-13-10-22-22-22z"/>
<glyph glyph-name="favorites" unicode="&#117;" d="M472 310c9 9 13 23 9 35-4 12-15 21-28 23l-112 16c-2 0-4 2-5 4l-50 101c-5 12-17 19-30 19-13 0-25-7-30-19l-50-101c-1-2-3-4-5-4l-112-16c-13-2-24-11-28-23-4-12 0-26 9-35l81-79c1-1 2-4 2-6l-19-111c-3-13 3-26 13-33 11-8 24-9 36-3l100 53c2 1 4 1 6 0l100-53c5-3 11-4 16-4 7 0 14 2 20 7 10 7 16 20 13 33l-19 111c0 2 1 5 2 6z m-109-89l19-112c0-4-2-6-3-6-1-1-4-3-7-1l-100 53c-5 2-11 4-16 4-5 0-11-2-16-4l-100-53c-3-2-6 0-7 1-1 0-3 2-3 6l19 112c2 11-1 22-9 30l-81 79c-3 2-2 5-2 7 0 1 2 4 5 4l112 16c11 2 21 9 26 19l50 101c2 4 5 4 6 4 1 0 4 0 6-4l50-101c5-10 15-17 26-19l112-16c3 0 5-3 5-4 0-2 1-5-2-7l-81-79c-8-8-11-19-9-30z m51 268c-6 5-15 3-19-3l-14-19c-5-6-3-15 3-19 2-2 5-3 7-3 5 0 9 2 11 6l15 20c4 6 3 14-3 18z m-283-22l-14 19c-4 6-13 8-19 3-6-4-7-12-3-18l15-20c2-4 6-6 10-6 3 0 6 1 8 3 6 4 8 13 3 19z m-81-262c-3 7-10 11-17 9l-24-8c-7-2-11-10-8-17 2-5 7-9 13-9 1 0 2 0 4 1l23 7c7 2 11 10 9 17z m206-150c-7 0-13-6-13-13l0-25c0-7 6-13 13-13 7 0 14 6 14 13l0 25c0 7-7 13-14 13z m247 151l-24 8c-7 2-14-2-17-9-2-7 2-15 9-17l23-7c2-1 3-1 4-1 6 0 11 4 13 9 3 7-1 15-8 17z"/>
<glyph glyph-name="add" unicode="&#118;" d="M282 384l-52 0 0-102-102 0 0-52 102 0 0-102 52 0 0 102 102 0 0 52-102 0z m-26 128c-141 0-256-115-256-256 0-141 115-256 256-256 141 0 256 115 256 256 0 141-115 256-256 256z m0-461c-113 0-205 92-205 205 0 113 92 205 205 205 113 0 205-92 205-205 0-113-92-205-205-205z"/>
<glyph glyph-name="checked" unicode="&#120;" d="M450 272c-1 8-7 13-15 13-7-1-13-7-13-15 1-4 1-9 1-14 0-109-89-198-198-198-109 0-198 89-198 198 0 109 89 198 198 198 43 0 84-14 119-40 6-4 14-3 19 3 4 6 3 15-3 19-39 30-86 45-135 45-124 0-225-101-225-225 0-124 101-225 225-225 124 0 225 101 225 225 0 5 0 11 0 16z m46 178c-20 21-54 21-75 0l-197-197-70 70c-21 21-55 21-76 0-20-21-20-55 0-75l121-121c7-7 16-10 25-10 9 0 18 3 25 10l247 248c21 21 21 54 0 75z m-19-56l-248-247c-3-4-8-4-11 0l-120 120c-10 10-10 27 0 37 5 5 12 7 18 7 7 0 14-2 19-7l71-72c5-5 11-7 18-7 6 0 13 2 17 7l199 199c10 10 27 10 37 0 10-10 10-27 0-37z"/>
<glyph glyph-name="chat-2" unicode="&#121;" d="M437 437c-49 48-113 75-181 75-69 0-133-27-181-75-94-94-100-243-16-344-8-17-22-36-41-46-10-4-15-14-13-25 1-10 9-18 20-20 5-1 11-1 20-1 23 0 56 5 90 29 38-20 80-30 121-30 66 0 132 26 181 75 48 48 75 113 75 181 0 68-27 133-75 181z m-21-341c-73-73-186-88-275-36-6 4-13 3-18-2 0 0-1 0-1-1-29-22-58-27-77-27l0 0c22 16 36 40 44 58 1 3 1 6 1 10-1 2-2 5-4 8-79 89-75 226 9 310 89 89 233 89 321 0 89-88 89-232 0-320z m-142 160c0-10-8-18-18-18-10 0-18 8-18 18 0 10 8 18 18 18 10 0 18-8 18-18z m92 0c0-10-8-18-17-18-10 0-18 8-18 18 0 10 8 18 18 18 9 0 17-8 17-18z m-185 0c0-10-8-18-18-18-10 0-18 8-18 18 0 10 8 18 18 18 10 0 18-8 18-18z"/>
<glyph glyph-name="folder" unicode="&#122;" d="M430 408l-122 0c-29 0-53 24-53 53 0 8-6 15-14 15l-159 0c-45 0-82-37-82-82l0-276c0-45 37-82 82-82l348 0c45 0 82 37 82 82l0 208c0 45-37 82-82 82z m53-289c0-30-24-54-53-54l-348 0c-29 0-53 24-53 54l0 275c0 29 24 53 53 53l145 0c7-38 41-68 81-68l122 0c29 0 53-24 53-53z"/>
<glyph glyph-name="gamepad" unicode="&#65;" d="M509 214l-32 116c-7 23-22 42-43 52-21 11-46 12-67 4-16-6-30-16-40-30 0 0 0 0 0 0l-142 0c0 0 0 0 0 0-9 14-23 24-39 30-22 8-46 7-67-4-21-10-37-29-43-52l-33-116c-11-39 6-76 40-89 9-3 18-4 27-4 29 0 58 16 70 41l16 33c9-13 25-21 42-21 22 0 42 15 49 36l18 0c7-21 27-36 50-36 17 0 32 8 42 21l15-33c8-16 22-29 39-36 17-7 36-7 53-1 18 7 32 19 40 36 8 16 10 35 5 53z m-24-44c-6-11-16-20-28-25-12-5-26-4-38 0-12 5-22 15-28 26l-21 46c-3 5-8 8-14 8-5 0-10-4-12-9-4-12-16-21-29-21-15 0-28 11-30 25-2 7-7 11-14 11l-30 0c-6 0-12-4-13-11-3-14-16-25-30-25-14 0-25 9-30 21-2 5-6 9-12 9-5 0-11-3-13-8l-22-46c-11-23-44-36-70-26-24 9-35 35-27 63l32 117c5 17 16 31 32 39 9 4 19 7 28 7 8 0 15-2 23-5 12-4 22-12 29-22 4-6 10-9 17-9l142 0c7 0 14 3 17 9 8 10 18 18 30 22 17 7 34 6 50-2 16-8 28-22 32-39l33-117c4-13 2-26-4-38z m-75 155c0-8-6-14-13-14-7 0-13 6-13 14 0 7 6 13 13 13 7 0 13-6 13-13z m0-63c0-7-6-13-13-13-7 0-13 6-13 13 0 7 6 13 13 13 7 0 13-6 13-13z m-31 31c0-7-6-13-13-13-8 0-14 6-14 13 0 8 6 14 14 14 7 0 13-6 13-14z m63 0c0-7-6-13-14-13-7 0-13 6-13 13 0 8 6 14 13 14 8 0 14-6 14-14z m-295 11l-18 0 0 19c0 5-5 10-11 10-6 0-11-5-11-10l0-19-18 0c-6 0-11-5-11-11 0-5 5-10 11-10l18 0 0-19c0-6 5-10 11-10 6 0 11 4 11 10l0 19 18 0c6 0 11 5 11 10 0 6-5 11-11 11z m85 0l-11 0c-6 0-11-5-11-11 0-5 5-10 11-10l11 0c6 0 11 5 11 10 0 6-5 11-11 11z m60 0l-12 0c-5 0-10-5-10-11 0-5 5-10 10-10l12 0c6 0 11 5 11 10 0 6-5 11-11 11z m-94-57c-12 0-22-9-22-21 0-11 10-21 22-21 11 0 21 10 21 21 0 12-10 21-21 21z m0-26c-3 0-6 2-6 5 0 3 3 6 6 6 3 0 5-3 5-6 0-3-2-5-5-5z m117 26c-12 0-21-9-21-21 0-11 9-21 21-21 12 0 21 10 21 21 0 12-9 21-21 21z m0-26c-3 0-5 2-5 5 0 3 2 6 5 6 3 0 5-3 5-6 0-3-2-5-5-5z"/>
<glyph glyph-name="lettory" unicode="&#66;" d="M489 313l-113 194c-1 3-4 5-8 5l-224 0c-4 0-7-2-8-5l-113-194c-1-3-1-7 0-9l110-190-58-100c-2-5-1-10 4-13 4-2 10-1 12 4l58 99 214 0 58-99c1-3 4-5 8-5 1 0 3 0 4 1 5 3 6 8 4 13l-58 100 110 190c1 2 1 6 0 9z m-330-190l0 0 18 31c6-17 23-30 42-30 24 0 44 20 44 44 0 13-6 25-14 33 14 7 24 22 24 39 0 17-10 31-24 39l7 11 39-68c-8-8-13-19-13-32 0-24 20-44 44-44 4 0 8 1 12 2l15-25z m44 112c0 2 0 3 0 5 0 11 7 20 17 24z m37 28c9-5 14-13 14-23 0-14-11-26-25-26-5 0-10 2-14 4z m-21-69c14 0 26-11 26-26 0-14-12-25-26-25-14 0-26 11-26 25 0 15 12 26 26 26z m-44 68c-14 0-26 12-26 26 0 14 12 25 26 25 14 0 25-11 25-25 0-14-11-26-25-26z m-16-21c14 0 26-11 26-25 0-14-12-26-26-26-14 0-25 12-25 26 0 14 11 25 25 25z m169-76c0 0-1 0-2 0-14 0-25 11-25 25 0 6 1 11 4 15z m-8 50c2 1 4 1 6 1 14 0 26-11 26-26 0-6-3-13-7-17z m48-83l-14 24c10 8 16 21 16 34 0 25-19 44-44 44-5 0-10-1-15-3l-47 82c-2 3-5 4-8 4-3 0-6-1-8-4l-17-29c-1 0-1 0-2 0-4 0-7-1-11-1 1 1 1 3 1 5 0 24-20 44-44 44-12 0-23-5-31-14-7 17-23 28-41 28-25 0-44-19-44-44 0-24 19-43 44-43 12 0 23 5 31 13 2-6 5-11 10-15-17-7-29-23-29-41 0-25 20-44 44-44 3 0 6 0 8 0l-23-40-102 176 107 186 214 0 107-186z m-240 170c0-14-11-25-25-25-15 0-26 11-26 25 0 15 11 26 26 26 14 0 25-11 25-26z m236 37c-24 0-44-20-44-44 0-25 20-44 44-44 24 0 44 19 44 44 0 24-20 44-44 44z m0-70c-14 0-25 12-25 26 0 14 11 25 25 25 14 0 26-11 26-25 0-14-12-26-26-26z m-42 208c-24 0-44-19-44-44 0-24 20-44 44-44 24 0 44 20 44 44 0 25-20 44-44 44z m0-69c-14 0-26 11-26 25 0 15 12 26 26 26 14 0 26-11 26-26 0-14-12-25-26-25z"/>
<glyph glyph-name="kl10" unicode="&#67;" d="M512 201c-8-2-22-4-30-7-3 11-4 23-13 31-8 8-19 11-31 13 1 7 5 9 11 9 16 1 31-3 42-16 4-5 21-36 21-30z m-449-15c-7-4-14-9-21-13 0-13-1-26-1-41-8-1-14-3-23-4 1 9 2 17 2 26-5-3-11-5-16-7-6 11-5 33 1 54 6 2 13 4 20 7-2-11-4-21-5-32 6-1 8 3 8 7 1 14 3 29 5 44 0 4 0 8 1 14 5 0 10 0 16 1-3-19-5-37-8-56 9 4 16 7 24 10 1 8 2 15 3 24-6-2-11-4-17-6 1 6 3 11 4 16 4 1 9 2 12 3 7 5-1 17 10 19 1-4 2-8 2-12 5 1 8 2 12 3 12 2 19-4 18-16-1-6-2-11-4-17 8 0 16 1 24 2 0 0 1 1 1 1-1 1-2 3-4 5 1 0 2 1 3 1 13 0 23 6 31 15 9 8 18 14 30 16 1 1 3 1 5 1 0-8 1-15 2-23-3 0-7 0-10 0-9-1-16-3-24-7-8-4-16-7-25-11 7-11-9-19-5-31 10-2 15 6 23 10-2 3-3 6-4 10 4 4 9 8 14 12 2-5 3-10 4-13 13 2 24 3 35 5 3 0 5-1 7-1-3-8-6-15-9-23-9 1-19 4-29 1 0-3 1-5 1-9 15 2 29 0 34-19-4-4-8-9-14-14-3 11-4 21-17 24 0-3 0-6 0-8 0-3 0-6 0-9-1-14-12-23-26-15 0 3-1 7-1 11 3 5 10 8 9 17-5-4-9-7-13-10-3-2-7-6-11-8-7-3-10-1-14 8 3 4 7 7 12 11 3-1 5-3 9-4 6 3 13 6 20 10-1 4-2 7-2 11-15-3-26-15-42-16-4 16 7 27 10 40-2 1-3 3-5 3-9 1-31-5-47-11 0-2 0-4-1-8 12-1 23-2 30-12 7-10 10-20 9-33-8 0-15-1-23-1 0 14 0 27-17 34-2-12-3-23-5-34-8-4-16-4-24-4 5 18 16 33 16 52z m15 42c0-10 0-18 0-27 10 5 13 13 9 28-2-1-5-1-9-1z m189-39c1 26 17 52 46 67 41 22 84-5 82-51-1-34-17-58-46-74-10-6-21-8-33-7-30 2-50 25-49 65z m23 11c8-5 17-9 22-15 5-7 6-16 10-26 7 21 21 34 42 39-1 1-1 2-1 2-2 1-4 2-6 2-13 5-20 14-22 28 0 2-1 5-2 8-7-22-22-33-43-38z m143-12c-6-3-10-4-16-6 2 6 4 11 7 16 9 3 19 6 28 8 10 2 17-1 22-10 6-13 6-27-1-41-4-7-10-11-18-11-7-1-14 0-22 0 3 9 9 14 12 22 9 1 16 4 17 13 1 6 2 13-5 17-2-2-3-3-3-4-19-49-54-80-104-94-27-8-54-10-82-7-43 4-87 10-130 8-17-1-34-3-50-6-8-1-16-5-24-8-17 8-35 16-55 25 14 2 26 5 39 7 21 2 43 4 64 5 35 1 69-6 102-13 20-4 40-8 60-11 38-6 74 2 108 21 13 7 23 19 32 32 8 10 14 22 19 37z m-178-64c-13 3-24 6-37 8 7 36 14 70 21 104-3 0-5 0-9 0 1 10 2 20 3 31 22 6 44 12 68 18-6-17-7-33-18-47-17-21-24-46-20-73 1-8 1-15-2-23-2-5-3-11-6-18z m177 106c-5-18-15-31-27-43 0 9 0 16 0 24 8 6 17 12 27 19z m-321 26c-1 5-3 10-4 14-4 2-8 4-10 5 7 5 14 10 21 16 1-2 2-6 4-9 3-2 6-4 9-6-13-5-13-5-20-20z m234 62c-3 3-6 7-9 10 4 3 8 6 13 10 2-3 5-6 8-9-4-4-8-8-12-11z m-156-15c2-3 5-6 8-9-4-4-8-7-12-11-2 3-5 6-8 10 3 3 7 7 12 10z m48 51l-8 0 31 58 22 0-4-7-11 0z m-6 8l-8 0 32 65 22 0-4-15-12 0z m9 44l-7-14c0 0-10 3-13-3-3-6-1-12 4-14l-5-14c0 0-24 11-12 36 7 14 33 9 33 9z m47 1l-18-1-26-66 18 0 9 20c0 0 36 0 38 22 1 24-21 25-21 25z m3-26c-3-11-18-7-18-7l8 20c0 0 15 0 10-13z m-91 21c0 0-61-7-114-50 0 0 47 21 107 28z m114 0c0 0 61-7 114-50 0 0-47 21-107 28z"/>
<glyph glyph-name="musical-note" unicode="&#69;" d="M487 399l0 98c0 5-2 10-6 12-4 3-9 4-13 2l-293-93c-6-2-10-7-10-14l0-286c-15 11-35 16-55 16-22 0-43-6-59-18-17-13-26-30-26-49 0-19 9-36 26-49 16-11 37-18 59-18 21 0 42 7 58 18 17 13 26 30 26 49l0 228 264 84 0-168c-15 11-35 17-56 17-21 0-42-7-58-19-17-12-26-30-26-48 0-19 9-36 26-49 16-12 37-19 58-19 22 0 43 7 59 19 17 13 26 30 26 49l0 238c0 0 0 0 0 0z m-377-370c-31 0-56 17-56 38 0 21 25 38 56 38 30 0 55-17 55-38 0-21-25-38-55-38z m84 297l0 68 264 84 0-68z m209-204c-31 0-56 18-56 39 0 20 25 38 56 38 30 0 55-18 55-38 0-21-25-39-55-39z"/>
<glyph glyph-name="printer" unicode="&#70;" d="M424 407l-13 0 0 29c0 42-34 76-76 76l-159 0c-42 0-76-34-76-76l0-29-12 0c-41 0-75-34-75-76l0-122c0-41 34-75 75-75l12 0 0-96c0-21 17-38 38-38l235 0c20 0 37 17 37 38l0 96 14 0c41 0 75 34 75 75l0 122c0 42-34 76-75 76z m-295 29c0 26 21 47 47 47l159 0c26 0 47-21 47-47l0-29-253 0z m253-398c0-5-4-10-9-10l-235 0c-5 0-9 5-9 10l0 158 253 0z m89 171c0-26-21-47-47-47l-13 0 0 34 18 0c8 0 15 6 15 14 0 8-7 14-15 14l-350 0c-8 0-14-6-14-14 0-8 6-14 14-14l21 0 0-34-12 0c-26 0-47 21-47 47l0 122c0 26 21 47 47 47l336 0c26 0 47-21 47-47z m-307-84l182 0c8 0 14 7 14 15 0 8-6 14-14 14l-182 0c-8 0-15-6-15-14 0-8 7-15 15-15z m183-30l-182 0c-8 0-15-6-15-14 0-8 7-14 15-14l182 0c8 0 14 6 14 14 0 8-6 14-14 14z m76 256l-29 0c-8 0-14-7-14-15 0-7 6-14 14-14l29 0c8 0 15 7 15 14 0 8-7 15-15 15z"/>
<glyph glyph-name="placeholder" unicode="&#71;" d="M256 512c-113 0-205-92-205-205 0-13 1-26 3-39 0-1 1-3 2-7 3-13 7-27 13-40 23-52 71-132 178-218 3-2 6-3 9-3 3 0 6 1 9 3 107 86 155 166 178 218 6 13 10 26 13 40 1 4 2 6 2 7 2 13 3 26 3 39 0 113-92 205-205 205z m173-239c0 0 0 0 0 0 0-1-1-3-1-5 0 0 0 0 0 0-3-12-7-24-12-35 0 0 0-1 0-1-20-47-64-120-160-199-96 79-140 152-160 199 0 0 0 1 0 1-5 11-9 23-12 35 0 0 0 0 0 0-1 2-1 4-1 5 0 0 0 0 0 0-2 11-3 23-3 34 0 97 79 176 176 176 97 0 176-79 176-176 0-12-1-23-3-34z m-173 162c-72 0-130-59-130-130 0-72 58-131 130-131 72 0 130 59 130 131 0 71-58 130-130 130z m0-232c-56 0-101 46-101 102 0 55 45 101 101 101 56 0 101-46 101-101 0-56-45-102-101-102z"/>
<glyph glyph-name="star" unicode="&#72;" d="M511 316c-1 5-6 9-11 9l-160 23-72 145c-2 4-7 7-12 7-6 0-11-3-13-8l-71-144-160-24c-5-1-10-5-11-10-2-5-1-11 3-14l116-113-27-159c0-5 2-11 6-14 3-1 6-2 8-2 3 0 5 0 7 1l143 76 143-75c2-1 4-1 6-1 8 0 14 6 14 14 0 1 0 2 0 3l-28 158 116 113c4 4 5 10 3 15z m-144-113c-3-3-5-8-4-12l24-138-124 64c-4 3-9 2-13 0l-124-65 23 138c1 5 0 9-4 13l-100 97 138 21c5 0 9 3 11 7l62 126 62-125c2-4 6-7 11-8l138-20z"/>
<glyph glyph-name="subtract" unicode="&#73;" d="M230 128l52 0 0 154-52 0z m26 384c-141 0-256-115-256-256 0-141 115-256 256-256 141 0 256 115 256 256 0 141-115 256-256 256z m0-461c-113 0-205 92-205 205 0 113 92 205 205 205 113 0 205-92 205-205 0-113-92-205-205-205z m-26 282l52 0 0 51-52 0z"/>
<glyph glyph-name="tag" unicode="&#74;" d="M503 286l-88 120c-11 15-35 27-54 27l-320 0c-23 0-41-18-41-41l0-272c0-23 18-41 41-41l320 0c19 0 43 12 54 27l88 120c12 17 12 43 0 60z m-23-43l-88-120c-6-8-21-16-31-16l-320 0c-7 0-13 6-13 13l0 272c0 7 6 13 13 13l320 0c10 0 25-8 31-16l88-120c5-7 5-19 0-26z"/>
<glyph glyph-name="qq" unicode="&#75;" d="M494 215c-9 22-20 44-35 64-1 2-3 3-1 7 7 17 4 33-4 49-4 7-9 14-9 22-1 13-4 25-7 37-12 41-34 74-73 95-21 12-45 19-70 22-25 2-50 1-75-4-42-9-72-33-96-67-15-23-27-47-30-74 0-5 1-11-2-16-3-4-5-9-5-14-2-7-3-14-7-21-5-8-6-18-4-27 1-4 0-6-3-8-16-12-29-26-40-43-16-24-26-50-27-78-1-12 0-23 5-34 2-5 4-8 10-6 6 2 10 4 14 7 8 8 15 16 19 26 1 1 1 3 3 3 1 0 2-1 2-3 3-12 8-23 15-34 6-12 16-21 26-30 3-3 8-4 10-10-7 0-14-1-20-3-11-3-20-9-23-21-2-12-3-24 8-32 4-4 9-6 14-9 18-7 37-10 56-11 24-2 47-2 70 4 14 4 26 10 38 18 1 0 2 2 3 2 10-3 19 0 29-4 15-6 30-10 46-13 24-4 48-5 72-2 16 2 32 5 47 14 18 11 19 30 1 43-8 6-17 11-27 16-2 1-5 2-7 4 19 18 29 41 38 64 6-10 11-19 18-28 8-9 14-8 22 1 3 3 5 7 6 12 8 28 4 55-7 82z m-209 180c-1 10 1 21 7 31 12 18 31 19 42 0 10-16 10-36 5-54-2-9-6-16-14-21-12-6-22-3-30 7-8 11-11 23-10 37z m-76 35c11 14 27 14 37 0 9-11 11-23 11-37 0-13-3-26-12-36-11-12-25-11-35 1-15 18-15 53-1 72z m-48-120c15 10 33 16 51 20 40 9 80 10 120 0 16-4 32-10 46-19 9-6 9-8 0-13-9-6-19-11-31-11 4 5 10 8 13 15-60-41-118-44-177-1 3-5 6-9 9-14-11 3-22 6-31 11-7 4-7 7 0 12z m74-286c-7-7-16-9-26-11-34-8-69-10-103-1-11 3-22 7-30 15-6 6-6 12 0 18 4 4 8 7 12 11-3-1-6-1-9-2-2 0-4-1-4 0-1 2-1 4 0 5 1 3 3 5 6 7 4 2 8 5 12 6 10 5 19 5 28-2 19-15 41-24 64-31 16-5 32-8 49-10 1-1 3 0 4-1 0-2-2-3-3-4z m186 53c7-3 14-6 21-12-6-1-11-1-16-4-1 0-2-1-2-2 0-2 2-1 3-1 6 0 12 0 18 0 11-1 17-9 13-19-6-14-18-19-30-22-39-13-77-9-115 3-5 1-10 1-12 7 40 6 76 22 106 48 5 5 8 5 14 2z m15 83c-2-23-11-43-24-61-27-35-63-56-105-66-16-3-32-2-48 0-25 2-50 7-73 17-14 6-28 13-40 23-24 19-43 42-49 73-6 28-3 55 9 82 1 1 2 3 3 5 2 4 4 6 9 3 5-5 12-7 18-11 2-1 3-2 2-5-2-21-5-42-2-63 1-12 9-20 19-25 14-6 30-5 45-3 6 1 13 9 13 19l-1 41 0 9c16-5 33-6 50-6 41-1 78 8 115 26 10 5 21 10 31 17 2 2 3 2 5-1 15-22 24-47 23-74z m-245 17l-1 16c1 3-1 8 4 9 5 1 11-3 11-9 2-15 3-30 2-45 0-7-4-11-12-11-11-1-23-1-34 1-16 4-21 11-22 29 0 17 4 33 7 50 0 2 1 2 4 1 10-4 19-9 30-12 3 0 3-3 3-5 0-10 2-21 5-31 1-1 2-3 3-6z m263 118c-3-20-15-35-32-46-36-22-74-40-117-47-24-5-49-5-74-2-29 4-57 13-84 25-22 10-44 22-59 42-11 15-13 30-3 43 4-19 14-33 30-44-6 10-12 19-18 29-6 11-5 22-5 34 1 0 2 0 2 0 20-30 50-49 84-61 43-15 87-20 132-15 46 5 87 23 122 54 2 2 4 4 6 6-8-33-31-54-59-71 39 14 59 45 72 81 4-6 5-17 3-28z m-155 91c3-1 3 2 4 4 1 4 1 9 6 9 4 0 4-5 5-8 0-3 2-5 4-5 4 0 4 18-5 21-9 3-17-5-17-16 0-2 0-5 3-5z m-57-10c4 0 7 3 8 6 4 9 4 17-1 25-3 6-9 6-13 1-3-4-4-9-4-14 0-4 0-8 2-11 2-4 4-6 8-7z"/>
<glyph glyph-name="like" unicode="&#77;" d="M490 164c10 13 15 28 15 42-1 17-8 29-14 37 7 18 10 45-14 66-17 16-46 23-86 21-28-2-51-7-52-7l0 0c-6-1-12-2-17-4-1 7 0 24 13 63 15 45 14 80-3 104-17 24-46 26-54 26-8 0-16-3-21-9-12-14-10-40-9-51-14-38-54-131-87-157-1-1-1-1-2-2-10-10-16-21-21-31-6 3-13 5-21 5l-65 0c-25 0-45-20-45-44l0-174c0-25 20-45 45-45l65 0c10 0 18 3 26 8l25-3c4 0 72-9 143-8 12 0 24-1 35-1 20 0 36 1 50 4 33 7 55 21 67 42 8 15 8 31 7 41 21 19 25 40 24 55 0 9-2 16-4 22z m-438-131c-9 0-16 7-16 16l0 174c0 8 7 15 16 15l65 0c9 0 16-7 16-15l0-174c0-9-7-16-16-16l-65 0z m411 143c-5-4-6-11-2-17 0 0 4-8 5-18 0-14-6-26-21-37-5-4-7-10-5-16 0-1 5-15-2-28-8-13-24-22-48-27-19-4-45-5-78-3 0 0-1 0-1 0-69-1-139 8-140 8l0 0-10 1c0 3 1 7 1 10l0 174c0 4-1 9-2 13 1 7 7 23 19 37 48 38 95 167 98 172 0 2 1 5 0 7-2 12-1 27 2 31 5 0 21-1 30-14 11-15 10-42-2-78-18-54-19-83-5-96 7-6 17-6 24-4 6 2 12 3 18 4 1 0 1 0 2 0 32 7 91 12 112-7 17-16 5-37 3-39-4-6-2-14 3-19 0 0 11-10 12-25 0-9-4-19-13-29z"/>
<glyph glyph-name="garbage" unicode="&#78;" d="M469 438l-106 0 0 18c0 31-25 56-56 56l-102 0c-31 0-56-25-56-56l0-18-106 0c-8 0-15-6-15-14 0-8 7-14 15-14l25 0 0-334c0-42 34-76 76-76l224 0c42 0 76 34 76 76l0 334 25 0c8 0 15 6 15 14 0 8-7 14-15 14z m-292 18c0 15 13 28 28 28l102 0c15 0 28-13 28-28l0-18-158 0z m238-380c0-26-21-48-47-48l-224 0c-26 0-47 22-47 48l0 334 318 0 0-334z m-159 3c8 0 14 7 14 15l0 251c0 8-6 14-14 14-8 0-14-6-14-14l0-251c0-8 6-15 14-15z m-93 16c8 0 14 6 14 14l0 220c0 8-6 14-14 14-8 0-14-6-14-14l0-220c0-8 6-14 14-14z m186 0c8 0 14 6 14 14l0 220c0 8-6 14-14 14-8 0-14-6-14-14l0-220c0-8 6-14 14-14z"/>
<glyph glyph-name="copy" unicode="&#79;" d="M330 422l-239 0c-22 0-40-18-40-40l0-342c0-22 18-40 40-40l239 0c22 0 40 18 40 40l0 342c0 22-18 40-40 40z m12-381c0-7-6-13-13-13l-238 0c-6 0-12 6-12 13l0 341c0 7 6 12 12 12l238 0c7 0 13-5 13-12z m79 471l-239 0c-22 0-40-18-40-40 0-8 6-15 14-15 8 0 14 7 14 15 0 6 6 12 12 12l239 0c6 0 12-6 12-12l0-342c0-7-6-12-12-12-8 0-15-6-15-14 0-8 7-14 15-14 22 0 40 18 40 40l0 342c0 22-18 40-40 40z"/>
<glyph glyph-name="avatar-1" unicode="&#80;" d="M452 21c-24 50-67 88-119 108l0 31c26 2 74 8 102 37 4 4 5 9 4 14-1 5-5 9-10 10-1 1-38 13-30 90 3 32 2 61-2 86-5 29-14 52-29 68-15 17-35 25-59 25-1 0-2 0-3 0-9 8-29 22-60 22-15 0-30-3-45-9l-1 0c-12-5-34-13-54-39-22-29-32-73-31-129 1-57-8-85-16-98-7-11-13-13-15-14-5 1-10-2-12-7-3-5-2-11 1-15 1-2 9-13 27-22 21-12 47-18 78-19l0-30c-51-20-94-59-118-109-2-5-2-10 1-14 2-4 7-7 12-7l366 0c5 0 10 3 12 7 3 4 3 9 1 14z m-354 8c23 36 58 64 99 77 6 2 10 7 10 13l0 55c0 4-1 8-4 10-3 3-7 5-10 5-43-1-68 9-82 17 1 1 2 2 3 3 22 22 32 65 30 126-3 114 46 133 66 140l1 1c12 4 24 7 34 7 28 0 43-16 44-17 3-4 8-6 13-5 2 0 4 0 7 0 15 0 28-5 37-16 21-23 29-71 23-132-6-61 14-92 30-107-22-12-54-17-78-17-1 0-2 0-2 0-4 0-8-1-11-4-2-3-4-6-4-10l0-56c0-7 4-12 10-14 41-14 76-41 100-76l-316 0z"/>
<glyph glyph-name="avatar" unicode="&#81;" d="M254 236c1 0 1 0 2 0 0 0 0 0 0 0 1 0 1 0 2 0 31 1 56 12 74 32 41 46 34 125 34 133-3 56-30 83-52 96-16 9-35 15-57 15l-1 0c0 0 0 0 0 0l-1 0c-11 0-35-2-57-15-22-12-49-39-52-96-1-8-7-87 34-133 18-20 43-31 74-32z m-79 162c0 1 0 1 0 1 3 76 57 84 80 84l1 0c0 0 0 0 0 0 29 0 78-12 81-84 0 0 0-1 0-1 0-1 8-73-26-111-13-15-31-22-55-22 0 0 0 0 0 0 0 0 0 0-1 0-23 0-41 7-54 22-34 38-27 111-26 111z m299-293c0 0 0 0 0 1 0 0 0 1 0 2-1 21-2 70-48 86-1 0-1 0-1 0-48 13-88 40-88 40-7 5-16 3-20-3-5-7-3-15 3-20 2-1 44-31 97-44 25-9 27-35 28-60 0-1 0-1 0-2 0-10 0-25-2-33-17-10-85-43-187-43-102 0-170 33-187 43-2 9-2 23-2 33 0 1 0 2 0 3 1 24 3 50 28 59 53 13 95 43 97 44 6 5 8 14 3 20-4 6-13 8-20 4 0-1-39-28-88-41 0 0 0 0-1 0-46-16-47-65-48-86 0-1 0-1 0-2 0 0 0-1 0-1 0-5 0-33 6-48 1-2 3-5 5-6 3-2 80-51 207-51 128 0 204 49 207 51 3 1 5 4 6 6 5 14 5 43 5 48z"/>
<glyph glyph-name="bj28" unicode="&#83;" d="M300 96c0-6-5-11-11-11-7 0-12 5-12 11 0 7 5 12 12 12 6 0 11-5 11-12z m13 69c2 1 4 3 5 5 3 3 4 6 4 10 0 6-3 12-8 16-5 3-12 5-21 5-9 0-16-2-21-5-5-4-7-10-7-16 0-4 1-7 3-10 2-2 4-4 6-5-3-2-6-4-8-7-2-3-3-7-3-12 0-8 3-14 10-19 6-4 13-5 21-5 9 0 17 2 22 6 6 5 9 11 9 19 0 4-2 9-5 12-1 2-4 4-7 6z m-26 19c2 1 4 2 6 2 3 0 5-1 7-2 1-1 2-3 2-5 0-2-1-4-2-5-2-1-4-2-7-2-3 0-5 1-6 2-2 1-2 3-2 5 0 2 1 4 2 5z m14-44c-2-2-4-3-7-3-3 0-6 1-8 3-2 2-3 4-3 7 0 3 1 5 3 7 2 2 4 3 7 3 4 0 6-1 8-3 2-2 3-4 3-7 0-3-1-6-3-7z m-34-44c0-6-5-11-11-11-6 0-11 5-11 11 0 7 5 12 11 12 6 0 11-5 11-12z m-16 44l-31 0c0 0 0 0 0 1 2 1 5 4 10 8 6 4 9 7 12 9 3 4 5 7 7 10 1 3 2 7 2 11 0 6-3 12-8 16-6 4-13 6-22 6-8 0-15-2-21-5-6-4-9-10-11-18l0-3 21-1 1 2c0 3 1 6 2 7 2 1 4 2 7 2 4 0 6 0 8-2 1-1 2-3 2-5 0-3-1-5-3-8-1-1-5-4-14-12-10-7-16-13-19-18-4-5-6-10-7-15l0-2 64 0z m11 372c-141 3-259-109-262-250-3-141 109-259 250-262 141-3 259 109 262 250 3 141-109 259-250 262z m-61-87l3-25 29 12 1-13-28-11 11-96 37 4 1-12-36-5-37-4-17 146z m-78-131l-24-9-2 12 24 10-7 62-28-3-1 13 27 3-4 32 36 5 18-147-36-4z m133-237c-55 0-99 44-99 99 0 54 44 99 99 99 55 0 99-45 99-99 0-55-44-99-99-99z m7 234l17 49 33-3-17-48z m116-7l-3 50 32-2 3-50z m36 66c0-6-5-11-12-10l-39 2-4-54c0-7-6-11-12-11l-14 1-13 1-16 1 1 12 16-1 3 54-51 3 4 54 140-8z m11 49l-155 10 0 13 61-3 0 9 35-2 0-10 60-3z m-191-303c0-6-5-11-11-11-7 0-12 5-12 11 0 7 5 12 12 12 6 0 11-5 11-12z m142 284l-60 4-2-23 61-4z"/>
<glyph glyph-name="book" unicode="&#84;" d="M445 379l-312 0c-29 0-52 23-52 52 0 29 23 53 52 53l312 0c8 0 14 6 14 14 0 8-6 14-14 14l-312 0c-44 0-80-36-80-81l0-350c0-45 36-81 80-81l312 0c8 0 14 6 14 14l0 351c0 8-6 14-14 14z m-14-351l-298 0c-29 0-52 24-52 53l0 289c14-12 32-19 52-19l298 0z m-293 416c-8 0-14-6-14-14 0-8 6-14 14-14l263 0c8 0 14 6 14 14 0 8-6 14-14 14z m49-355c2 0 3 0 5 0 6 0 11 3 13 9l17 48 66 0c0 0 1 0 2 0l17-48c2-6 7-9 13-9 1 0 3 0 5 0 7 3 11 11 8 18l-64 180c0 0 0 0 0 1-1 0-1 0-1 0 0 1 0 1 0 1 0 0 0 0 0 1-1 0-1 0-1 0 0 0 0 1 0 1 0 0-1 0-1 0 0 0 0 1 0 1 0 0-1 0-1 0 0 0 0 1 0 1 0 0-1 0-1 0 0 0 0 0 0 1 0 0-1 0-1 0 0 0 0 0-1 0 0 0 0 1 0 1-1 0-1 0-1 0l-1 0c0 0 0 0-1 0 0 0 0 1 0 1-1 0-1 0-1 0 0 0-1 0-1 0 0 0 0 0-1 0 0 0 0 0 0 0 0 0-1 0-1 0 0 0 0 0-1 0 0 0 0 0 0 0-1 0-1 0-1 0 0 0 0-1-1-1 0 0 0 0-1 0l0 0c0 0-1 0-1 0 0 0-1-1-1-1 0 0 0 0 0 0-1 0-1 0-1 0 0-1 0-1-1-1 0 0 0 0 0 0 0 0-1 0-1-1 0 0 0 0 0 0 0 0 0-1-1-1 0 0 0 0 0 0 0 0 0-1-1-1 0 0 0 0 0 0 0 0 0-1 0-1 0 0-1 0-1 0 0-1 0-1 0-1 0-1 0-1-1-1l-64-180c-2-7 2-15 9-18z m69 151l24-66-48 0z"/>
<glyph glyph-name="buld" unicode="&#85;" d="M256 436c-89 0-161-72-161-161 0-67 41-127 104-151l0-86c0-5 4-10 10-10l9 0 0-19c0-5 4-9 10-9l56 0c6 0 10 4 10 9l0 19 9 0c6 0 10 5 10 10l0 86c63 24 104 84 104 151 0 89-72 161-161 161z m28-389c-5 0-9-4-9-9l0-19-38 0 0 19c0 5-4 9-9 9l-10 0 0 48 76 0 0-48z m16 93c-3-1-6-5-6-9l0-17-76 0 0 17c0 4-3 8-6 9-59 19-98 73-98 135 0 78 64 142 142 142 78 0 142-64 142-142 0-62-39-116-98-135z m-44 315c5 0 9 4 9 10l0 38c0 5-4 9-9 9-5 0-9-4-9-9l0-38c0-6 4-10 9-10z m228-171l-38 0c-6 0-10-4-10-9 0-5 4-10 10-10l38 0c5 0 9 5 9 10 0 5-4 9-9 9z m-418 0l-38 0c-5 0-9-4-9-9 0-5 4-10 9-10l38 0c6 0 10 5 10 10 0 5-4 9-10 9z m344 159l-27-27c-3-4-3-10 0-14 2-1 5-2 7-2 3 0 5 1 7 2l27 27c3 4 3 10 0 14-4 3-10 3-14 0z m-295-295l-27-27c-3-4-3-10 0-14 2-2 5-2 7-2 3 0 5 0 7 2l27 27c3 4 3 10 0 14-4 3-10 3-14 0z m282 0c-4 3-10 3-14 0-3-4-3-10 0-14l27-27c2-2 4-2 7-2 2 0 5 0 7 2 3 4 3 10 0 14z m-282 254c2-1 4-2 7-2 2 0 5 1 7 2 3 4 3 10 0 14l-27 27c-4 3-10 3-14 0-3-4-3-10 0-14z m141-13c-63 0-114-51-114-114 0-5 4-10 10-10 5 0 9 5 9 10 0 52 43 95 95 95 5 0 9 4 9 9 0 6-4 10-9 10z"/>
<glyph glyph-name="calculator" unicode="&#86;" d="M449 512l-386 0c-17 0-31-14-31-30l0-452c0-16 14-30 31-30l386 0c17 0 31 14 31 30l0 452c0 16-14 30-31 30z m-392-30c0 3 2 6 6 6l386 0c4 0 6-3 6-6l0-105-398 0z m116-458l-110 0c-4 0-6 3-6 6l0 146 116 0z m0 176l-116 0 0 152 116 0z m141-176l-116 0 0 152 116 0z m0 176l-116 0 0 152 116 0z m141-170c0-3-2-6-6-6l-110 0 0 328 116 0z m-310 259l-18 0 0 17c0 7-5 12-12 12-7 0-12-5-12-12l0-17-18 0c-7 0-12-6-12-13 0-6 5-12 12-12l18 0 0-18c0-6 5-12 12-12 7 0 12 6 12 12l0 18 18 0c7 0 12 6 12 12 0 7-5 13-12 13z m142 0l-62 0c-6 0-12-6-12-13 0-6 6-12 12-12l62 0c6 0 12 6 12 12 0 7-6 13-12 13z m-155-189l15 15c4 5 4 12 0 17-5 5-13 5-17 0l-15-15-15 15c-4 5-12 5-17 0-5-5-5-12 0-17l15-15-15-14c-5-5-5-13 0-18 3-2 6-3 9-3 3 0 6 1 8 3l15 15 15-15c2-2 5-3 8-3 3 0 6 1 9 3 4 5 4 13 0 18z m156 32c-5 5-13 5-17 0l-47-46c-5-5-5-13 0-18 3-2 6-3 9-3 3 0 6 1 8 3l47 47c5 5 5 12 0 17z m-45-9c0-5-4-10-10-10-6 0-11 5-11 10 0 6 5 11 11 11 6 0 10-5 10-11z m47-46c0-6-5-10-11-10-5 0-10 4-10 10 0 6 5 10 10 10 6 0 11-4 11-10z m138 145l-62 0c-7 0-12-6-12-13 0-6 5-12 12-12l62 0c6 0 12 6 12 12 0 7-6 13-12 13z m0-43l-62 0c-7 0-12-5-12-12 0-7 5-12 12-12l62 0c6 0 12 5 12 12 0 7-6 12-12 12z"/>
<glyph glyph-name="calculator-2" unicode="&#87;" d="M444 94c5 0 9 5 9 10l0 399c0 5-4 9-9 9l-376 0c-5 0-9-4-9-9l0-494c0-5 4-9 9-9l376 0c5 0 9 4 9 9l0 53c0 6-4 10-9 10-5 0-9-4-9-10l0-44-358 0 0 476 358 0 0-390c0-5 4-10 9-10z m-39 240l-298 0c-5 0-9-4-9-9l0-277c0-5 4-9 9-9l298 0c5 0 9 4 9 9l0 277c0 5-4 9-9 9z m-233-276l-56 0 0 50 56 0z m0 69l-56 0 0 50 56 0z m0 69l-56 0 0 50 56 0z m0 69l-56 0 0 50 56 0z m75-207l-56 0 0 50 56 0z m0 69l-56 0 0 50 56 0z m0 69l-56 0 0 50 56 0z m0 69l-56 0 0 50 56 0z m74-207l-56 0 0 50 56 0z m0 69l-56 0 0 50 56 0z m0 69l-56 0 0 50 56 0z m0 69l-56 0 0 50 56 0z m19 50l56 0 0-50-56 0z m56-257l-56 0 0 50 56 0z m0 69l-56 0 0 50 56 0z m0 69l-56 0 0 50 56 0z m18 268c0 5-4 9-9 9l-298 0c-5 0-9-4-9-9l0-93c0-5 4-9 9-9l43 0c5 0 9 4 9 9 0 5-4 10-9 10l-34 0 0 73 280 0 0-73-205 0c-5 0-9-5-9-10 0-5 4-9 9-9l214 0c5 0 9 4 9 9z m-39-50l-24 0c-5 0-9-4-9-9 0-5 4-9 9-9l24 0c5 0 9 4 9 9 0 5-4 9-9 9z"/>
<glyph glyph-name="envelope" unicode="&#88;" d="M449 451l-386 0c-35 0-63-28-63-63l0-264c0-35 28-63 63-63l386 0c35 0 63 28 63 63l0 264c0 35-28 63-63 63z m35-327c0-19-16-34-35-34l-386 0c-19 0-34 15-34 34l0 264c0 19 15 34 34 34l386 0c19 0 34-15 34-34l0-264z m-161 135l125 113c6 5 6 14 1 20-5 6-14 6-20 1l-173-155-33 30c-1 0-1 0-1 0 0 1-1 2-2 2l-137 123c-6 5-15 5-20-1-6-6-5-15 1-20l127-114-127-118c-5-5-6-14 0-20 3-3 6-5 10-5 4 0 7 2 10 4l128 120 35-31c3-2 6-4 9-4 4 0 7 2 10 4l36 32 127-121c3-3 6-4 10-4 4 0 7 2 10 5 6 5 5 14 0 20z"/>
<glyph glyph-name="house" unicode="&#89;" d="M507 280l-241 215c0 1-1 1-1 1-5 5-14 6-19 1l-241-216c-6-5-7-14-1-20 2-3 6-5 10-5 4 0 7 2 10 4l43 39 0-251c0-20 16-36 36-36 0 0 0 0 1 0 0 0 0 0 1 0l74 0c18 0 34 15 34 33l0 128c0 3 2 5 5 5l76 0c3 0 6-2 6-5l0-128c0-18 15-33 33-33l76 0c20 0 36 19 36 45l0 240 43-38c3-3 7-4 10-4 4 0 8 2 11 5 5 6 4 15-2 20z m-90-70l0-153c0-10-6-17-8-17l-76 0c-3 0-5 3-5 6l0 127c0 19-15 34-34 34l-76 0c-19 0-34-15-34-34l0-128c0-3-2-5-5-5l-75 0c0 0 0 0 0 0-1 0-1 0-1 0-4 0-8 3-8 8l0 276 160 143 162-144z"/>
<glyph glyph-name="money-1" unicode="&#90;" d="M273 191l-29 0c-11 0-19 8-19 19 0 11 8 19 19 19l51 0c8 0 13 6 13 13 0 7-5 13-13 13l-24 0 0 17c0 8-5 13-12 13-7 0-13-5-13-13l0-17-2 0c-25 0-45-20-45-45 0-25 20-45 45-45l29 0c11 0 20-9 20-19 0-11-9-19-20-19l-52 0c-7 0-13-6-13-13 0-7 6-13 13-13l25 0 0-18c0-7 6-13 13-13 7 0 12 6 12 13l0 18 3 0c0 0 0 0 0 0 24 0 44 20 44 45 0 25-20 45-45 45z m178 29c-14 30-32 60-56 88-28 34-56 57-71 68l55 100c2 5 1 12-3 16-14 13-29 20-45 20-15 0-29-6-42-11-9-4-18-8-26-8-2 0-4 1-6 1-25 10-44 15-63 15-24 0-44-9-64-30-4-4-5-11-2-16l59-88c-15-11-42-33-70-67-24-28-42-58-56-88-16-39-25-80-25-121 0-55 45-99 99-99l242 0c54 0 99 44 99 99 0 41-9 82-25 121z m-296 249c13 10 25 15 39 15 15 0 32-5 55-13 4-2 9-3 14-3 13 0 25 5 36 10 11 4 22 9 32 9 5 0 11-1 20-7l-51-95-89 0z m222-443l-242 0c-40 0-73 33-73 73 0 68 25 133 74 192 31 38 63 61 72 68l96 0c9-7 41-30 72-68 49-59 74-124 74-192 0-40-33-73-73-73z"/>
<glyph glyph-name="pie-chart" unicode="&#48;" d="M443 243l-200 0 0 200c0 8-6 14-14 14-126 0-229-102-229-228 0-126 103-229 229-229 126 0 228 103 228 229 0 7-6 14-14 14z m-214-214c-110 0-200 90-200 200 0 105 82 191 185 199l0-199c0-9 7-15 15-15l199 0c-8-103-94-185-199-185z m283 255c0 56-21 109-57 151-44 49-106 77-172 77-8 0-14-6-14-15l0-214c0-8 6-14 14-14l214 0c8 0 15 6 15 14 0 1 0 1 0 1z m-214 14l0 184c52-3 100-27 135-67 29-32 46-74 49-117z"/>
<glyph glyph-name="shopping-cart" unicode="&#49;" d="M154 175l282 0c32 0 58 26 58 58l0 119c0 0 0 0 0 0 0 0 0 1 0 1 0 0 0 0 0 1 0 0 0 0 0 0 0 1 0 1 0 1-1 0-1 0-1 1 0 0 0 0 0 0 0 1 0 1 0 1 0 0 0 0 0 1 0 0-1 0-1 0 0 0 0 1 0 1 0 0 0 0 0 0 0 1-1 1-1 1 0 0 0 0 0 1 0 0 0 0-1 0 0 0 0 0 0 1 0 0 0 0 0 0-1 0-1 0-1 1 0 0 0 0 0 0-1 0-1 0-1 0 0 0 0 1-1 1 0 0 0 0 0 0 0 0-1 0-1 0 0 1 0 1-1 1 0 0 0 0 0 0 0 0-1 0-1 0 0 0 0 0-1 0 0 0 0 1 0 1 0 0-1 0-1 0 0 0 0 0 0 0l-358 49 0 50c0 1 0 1 0 1 0 1 0 1 0 1 0 0 0 1 0 1 0 0 0 0 0 1 0 0 0 0 0 0-1 1-1 1-1 1 0 0 0 0 0 1 0 0 0 0 0 0 0 1 0 1-1 1 0 0 0 0 0 0 0 1 0 1 0 1 0 0 0 0-1 1 0 0 0 0 0 0 0 0 0 0 0 0-1 1-1 1-1 1 0 0 0 0 0 0 0 1-1 1-1 1 0 0 0 0 0 0-1 1-1 1-1 1 0 0-1 0-1 0 0 1 0 1 0 1-1 0-1 0-2 0l-77 33c-7 3-16 0-19-8-3-7 1-15 8-18l69-29 0-312c0-29 22-54 50-57-5-9-8-19-8-30 0-31 26-57 57-57 32 0 58 26 58 57 0 11-3 21-8 29l128 0c-5-8-8-18-8-29 0-31 25-57 57-57 32 0 57 26 57 57 0 32-25 58-57 58l-268 0c-17 0-30 13-30 29l0 39c9-5 19-8 30-8z m70-118c0-16-13-28-29-28-15 0-28 13-28 28 0 16 13 29 28 29 16 0 29-13 29-29z m227 0c0-16-13-28-29-28-16 0-29 13-29 28 0 16 13 29 29 29 16 0 29-13 29-29z m-15 146l-282 0c-17 0-30 14-30 30l0 153 341-47 0-106c0-16-13-30-29-30z"/>
<glyph glyph-name="shopping-bag" unicode="&#50;" d="M461 69l-30 331c0 7-6 12-14 12l-60 0c-1 55-46 100-101 100-55 0-100-45-101-100l-60 0c-8 0-14-5-14-12l-30-331c0 0 0 0 0-1 0-37 35-68 77-68l256 0c42 0 77 31 77 68 0 1 0 1 0 1z m-205 415c40 0 72-32 73-72l-146 0c1 40 33 72 73 72z m128-456l-256 0c-27 0-48 18-49 40l28 316 48 0 0-43c0-8 6-14 14-14 8 0 14 6 14 14l0 43 146 0 0-43c0-8 6-14 14-14 8 0 14 6 14 14l0 43 47 0 29-316c-1-22-22-40-49-40z"/>
<glyph glyph-name="share" unicode="&#51;" d="M406 183c-30 0-56-14-73-36l-140 79c3 9 5 20 5 30 0 11-2 21-6 30l141 79c17-22 43-36 73-36 50 0 91 41 91 91 0 51-41 92-91 92-51 0-92-41-92-92 0-10 2-20 5-30l-140-78c-17 22-43 36-73 36-50 0-91-41-91-92 0-50 41-91 91-91 30 0 56 14 73 36l141-79c-4-10-6-20-6-30 0-51 41-92 92-92 50 0 91 41 91 92 0 50-41 91-91 91z m0 300c34 0 63-28 63-63 0-34-29-62-63-62-35 0-63 28-63 62 0 35 28 63 63 63z m-300-290c-34 0-63 28-63 63 0 35 29 63 63 63 35 0 63-28 63-63 0-35-28-63-63-63z m300-164c-35 0-63 28-63 63 0 34 28 62 63 62 34 0 63-28 63-62 0-35-29-63-63-63z"/>
<glyph glyph-name="settings-1" unicode="&#52;" d="M271 262l0 236c0 8-6 14-14 14-8 0-15-6-15-14l0-236c-33-6-58-36-58-71 0-36 25-65 58-72l0-105c0-7 7-14 15-14 8 0 14 7 14 14l0 105c33 7 59 36 59 72 0 35-26 65-59 71z m-14-115c-25 0-45 19-45 44 0 24 20 44 45 44 24 0 44-20 44-44 0-25-20-44-44-44z m-162 236l0 115c0 8-7 14-15 14-8 0-14-6-14-14l0-115c-33-7-59-36-59-72 0-35 26-64 59-71l0-226c0-7 6-14 14-14 8 0 15 7 15 14l0 226c33 7 58 36 58 72 0 35-25 64-58 71z m-15-116c-24 0-44 20-44 44 0 25 20 45 44 45 25 0 45-20 45-45 0-24-20-44-45-44z m366 116l0 115c0 8-6 14-14 14-8 0-15-6-15-14l0-115c-33-7-58-36-58-72 0-35 25-64 58-71l0-226c0-8 7-14 15-14 8 0 14 6 14 14l0 226c33 7 59 36 59 72 0 35-25 64-59 71z m-14-116c-25 0-45 20-45 44 0 25 20 45 45 45 24 0 44-20 44-45 0-24-20-44-44-44z"/>
<glyph glyph-name="settings" unicode="&#53;" d="M486 310l-36 6c-4 12-9 24-15 35l22 29c9 13 7 30-4 41l-32 32c-6 6-14 9-22 9-7 0-13-2-18-6l-30-21c-12 6-24 11-36 15l-6 36c-3 15-16 26-31 26l-45 0c-16 0-29-11-32-26l-6-37c-12-4-24-8-35-14l-29 21c-5 4-12 6-18 6-9 0-17-4-23-10l-32-32c-11-10-12-28-3-40l21-30c-6-12-10-23-14-35l-36-6c-15-3-26-16-26-32l0-45c0-15 11-28 26-31l37-6c4-12 8-24 14-35l-21-29c-9-13-7-30 4-41l32-32c6-6 14-9 22-9 7 0 13 2 18 6l30 21c11-5 23-10 34-14l6-36c3-15 16-26 31-26l46 0c15 0 28 11 31 26l6 36c12 4 24 9 35 15l29-21c6-4 12-6 19-6 8 0 16 3 22 9l32 32c11 11 12 28 3 41l-21 29c6 12 11 23 15 35l36 6c15 3 26 16 26 31l0 46c0 15-11 28-26 31z m-3-77c0-1-1-2-2-2l-45-8c-6-1-10-5-11-10-5-16-11-31-19-45-3-5-3-11 1-16l26-37c1-1 1-3 0-4l-32-32c-1 0-2 0-2 0-1 0-1 0-2 0l-37 26c-5 4-11 4-16 1-14-8-29-14-45-19-5-1-9-5-10-11l-8-45c0-1-1-2-2-2l-46 0c-1 0-2 1-2 2l-8 45c-1 6-5 10-10 11-16 4-30 11-44 18-2 2-5 2-7 2-3 0-6 0-9-2l-37-27c-1 0-1 0-2 0 0 0-1 0-2 0l-32 32c-1 1-1 3 0 4l26 37c4 5 4 11 1 16-8 14-15 29-19 44-1 6-6 10-12 11l-45 8c-1 0-2 1-2 2l0 45c0 2 1 3 2 3l45 8c6 1 10 5 11 10 4 16 11 31 19 45 3 5 2 11-1 16l-27 37c0 1 0 3 1 4l32 32c0 1 1 1 2 1 0 0 1 0 1-1l37-26c5-3 11-4 16-1 14 9 29 15 45 19 5 2 9 6 10 12l8 45c0 1 1 2 3 2l45 0c1 0 2-1 3-2l7-45c1-5 5-10 11-11 16-4 31-11 46-19 5-3 11-3 15 0l37 27c1 0 1 0 2 0 0 0 1 0 2 0l32-32c1-1 1-3 0-4l-26-37c-4-5-4-11-1-16 8-14 15-29 19-45 1-5 6-9 11-10l45-8c1 0 2-1 2-2l0-46z m-227 134c-61 0-110-50-110-111 0-61 49-110 110-110 61 0 111 49 111 110 0 61-50 111-111 111z m0-193c-45 0-82 37-82 82 0 45 37 82 82 82 45 0 82-37 82-82 0-45-37-82-82-82z"/>
<glyph glyph-name="reload" unicode="&#54;" d="M117 410c76 69 189 70 266 7l-61-2c-8 0-14-7-14-14 1-8 7-14 14-14 1 0 1 0 1 0l93 3c8 1 14 7 14 15l0 1c0 0 0 0 0 0l0 0-4 92c0 8-7 14-14 14-8 0-14-7-14-15l2-57c-38 31-84 49-134 51-62 3-122-18-168-60-63-57-90-144-70-227 2-6 8-10 14-10 1 0 2 0 4 0 7 2 12 10 10 17-18 73 6 149 61 199z m367-102c-2 7-10 12-18 10-7-2-12-10-10-17 18-73-6-149-61-199-39-36-88-53-137-53-46 0-93 16-130 47l61 5c8 1 14 8 13 16-1 8-8 13-15 13l-93-9c-8-1-14-7-13-15l8-93c1-7 7-13 14-13 1 0 1 0 2 0 7 1 13 8 12 15l-5 57c38-31 85-49 134-51 4 0 8 0 12 0 58 0 113 21 156 60 63 57 90 144 70 227z"/>
<glyph glyph-name="question" unicode="&#55;" d="M230 154l52 0 0-52-52 0z m26 358c-141 0-256-115-256-256 0-141 115-256 256-256 141 0 256 115 256 256 0 141-115 256-256 256z m0-466c-116 0-210 94-210 210 0 116 94 210 210 210 116 0 210-94 210-210 0-116-94-210-210-210z m100 286c-14 55-69 88-124 75-46-11-79-52-78-100l51 0c2 28 27 49 55 47 29-2 50-27 47-56-5-25-28-43-54-42-12 0-23-10-23-23l0-54 52 0 0 29c54 14 87 69 74 124z"/>
<glyph glyph-name="time" unicode="&#56;" d="M270 188c9 1 17 5 22 12l80 111c3 3 2 8-1 11-3 3-7 3-11 1l-110-80c-8-6-12-14-13-22 0-9 3-18 9-24 6-6 14-9 22-9 0 0 1 0 2 0z m-16 31c1 4 3 8 6 10l67 49-49-68c-2-3-5-5-9-5-4 0-8 1-11 4-3 2-4 6-4 10z m207 126c0 0 0 0 0 1 0 0 0 0 0 0-9 15-19 29-31 41l18 18 13-12 36 37-36 36-37-36 12-13-18-18c-12 12-26 22-41 31 0 0 0 0 0 0-1 0-1 0-1 0-26 15-56 25-88 29l0 10 13 0c12 0 22 10 22 22 0 11-10 21-22 21l-77 0c-11 0-21-10-21-21 0-12 10-22 21-22l13 0 0-10c-9-1-18-2-27-4-5-1-8-6-7-10 1-5 6-8 10-7 8 2 16 3 24 4l9 1c3 0 6 0 8 1l0-17c0-5 4-9 9-9 4 0 8 4 8 9l0 16c32-1 63-10 90-24l-9-14c-2-4-1-10 3-12 2-1 3-1 4-1 3 0 6 1 8 4l8 15c27-17 50-40 67-67l-15-8c-4-2-5-8-3-12 2-2 4-4 7-4 2 0 3 0 5 1l14 9c15-28 23-58 24-91l-16 0c-5 0-9-4-9-9 0-4 4-8 9-8l16 0c-1-33-9-63-24-91l-14 9c-4 2-10 1-12-3-2-5-1-10 3-12l15-8c-17-27-40-50-67-67l-8 15c-2 4-8 5-12 3-4-3-5-8-3-12l9-14c-27-15-58-23-90-25l0 17c0 5-3 9-8 9-5 0-9-4-9-9l0-17c-13 1-27 2-41 6-4 1-9-2-10-7-1-4 2-9 7-10 17-4 34-6 51-6 1 0 1 0 2 0 0 0 0 0 0 0 0 0 0 0 0 0 41 0 79 11 113 31 0 0 0 0 1 0 0 0 0 0 0 0 34 20 63 49 83 84 1 0 1 0 1 0 0 0 0 1 0 1 20 34 31 73 31 114 0 42-11 81-31 115z m0 97l12-12-12-13-13 13z m-207 19l0 25-30 0c-2 0-4 2-4 5 0 2 2 4 4 4l77 0c3 0 4-2 4-4 0-3-1-5-4-5l-30 0 0-25c-3 0-6 0-8 0 0 0-1 0-1 0 0 0 0 0-1 0-1 0-2 0-4 0-1 0-2 0-3 0z m-68-68l-43 0c-4 0-8-4-8-9 0-5 4-9 8-9l43 0c5 0 9 4 9 9 0 5-4 9-9 9z m0-60l-85 0c-5 0-9-4-9-9 0-4 4-8 9-8l85 0c5 0 9 4 9 8 0 5-4 9-9 9z m0-60l-128 0c-5 0-9-4-9-8 0-5 4-9 9-9l128 0c5 0 9 4 9 9 0 4-4 8-9 8z m0-60l-162 0c-5 0-9-3-9-8 0-5 4-9 9-9l162 0c5 0 9 4 9 9 0 5-4 8-9 8z m0-59l-111 0c-5 0-8-4-8-9 0-5 3-8 8-8l111 0c5 0 9 3 9 8 0 5-4 9-9 9z m0-60l-60 0c-4 0-8-4-8-9 0-4 4-8 8-8l60 0c5 0 9 4 9 8 0 5-4 9-9 9z"/>
<glyph glyph-name="trophy" unicode="&#57;" d="M466 463c-7 8-17 13-28 13l-36 0 0 11c0 14-11 25-25 25l-242 0c-14 0-25-11-25-25l0-11-36 0c-11 0-21-5-28-13-7-9-10-19-9-30 10-58 46-109 98-137 4-11 10-22 16-32 19-32 42-54 68-65 3-26-15-52-41-58-1 0-1 0-1 0-5-1-9-6-9-11l0-55-22 0c-19 0-35-15-35-35l0-28c0-7 5-12 12-12l268 0c6 0 11 5 11 12l0 28c0 20-16 35-35 35l-22 0 0 55c0 5-4 10-9 11 0 0 0 0 0 0-27 6-45 32-42 59 25 11 49 33 67 64 6 10 12 21 16 32 52 28 88 79 98 137 1 11-2 21-9 30z m-405-26c-1 4 0 7 3 10 2 3 6 5 10 5l36 0 0-22c0-34 4-67 12-97-32 25-55 63-61 104z m306-385c6 0 12-6 12-12l0-16-245 0 0 16c0 6 6 12 12 12z m-46 66l0-43-129 0 0 43z m-98 24c3 3 6 6 8 10 8 12 12 26 12 41 4-1 9-1 13-1 5 0 9 0 14 1 0-19 8-37 20-51z m156 288c0-58-14-113-38-154-23-39-53-60-85-60-32 0-62 21-85 60-24 41-38 96-38 154l0 57c0 1 1 1 2 1l242 0c1 0 2 0 2-1z m72 7c-6-41-29-79-61-104 8 30 12 63 12 97l0 22 36 0c4 0 8-2 10-5 3-3 4-6 3-10z m-123-47c-1 5-5 8-10 8l-35 6-16 32c-2 4-6 7-11 7-5 0-9-3-11-7l-16-32-35-6c-5 0-9-3-10-8-1-4 0-9 3-12l26-25-6-36c-1-4 1-9 5-11 3-3 8-3 12-1l32 17 32-17c2-1 4-1 5-1 3 0 5 0 7 2 4 2 6 7 5 11l-6 36 26 25c3 3 4 8 3 12z m-50-24c-3-3-4-7-3-11l3-18-16 9c-2 0-4 1-6 1-2 0-4-1-6-1l-16-9 3 18c1 4 0 8-3 11l-13 12 18 3c4 1 7 3 9 7l8 16 8-16c2-4 5-6 9-7l18-3z"/>
<glyph glyph-name="upload" unicode="&#33;" d="M416 369c-5 33-21 62-46 85-27 25-63 39-100 39-28 0-56-9-80-24-20-13-37-30-48-51-5 1-11 2-16 2-45 0-81-37-81-81 0-6 0-12 2-17-29-21-47-55-47-91 0-29 11-58 31-80 20-23 47-37 75-38 1 0 1 0 1 0l91 0c8 0 14 6 14 14 0 8-6 14-14 14l-90 0c-43 3-80 44-80 90 0 30 16 57 42 72 6 4 9 11 6 18-2 5-3 11-3 18 0 29 24 53 53 53 6 0 12-2 18-4 7-2 15 1 18 8 20 41 62 68 108 68 62 0 114-46 120-108 0-6 5-11 11-12 47-8 83-52 83-101 0-52-42-98-92-102l-78 0c-8 0-14-6-14-14 0-8 6-14 14-14l78 0c1 0 1 0 1 0 32 2 62 17 85 41 22 25 34 56 34 89 0 59-40 111-96 126z m-75-152c6 6 6 15 0 20l-75 76c-3 2-6 4-10 4-4 0-7-2-10-4l-75-76c-6-5-6-14 0-20 3-3 6-4 10-4 3 0 7 1 10 4l51 51 0-234c0-8 6-15 14-15 8 0 14 7 14 15l0 234 51-51c6-5 15-5 20 0z"/>
<glyph glyph-name="upload-1" unicode="&#34;" d="M497 262c-8 0-14-7-14-15l0-133c0-36-30-66-66-66l-322 0c-36 0-66 30-66 66l0 135c0 9-6 15-14 15-8 0-15-6-15-15l0-135c0-53 43-95 95-95l322 0c52 0 95 42 95 95l0 133c0 8-7 15-15 15z m-324 113l68 68 0-297c0-9 7-15 15-15 8 0 15 6 15 15l0 297 68-68c3-3 7-4 10-4 4 0 8 1 11 4 5 6 5 15 0 21l-94 93c-2 3-6 4-10 4-4 0-8-1-10-4l-94-93c-5-6-5-15 0-21 6-6 15-6 21 0z"/>
<glyph glyph-name="vector" unicode="&#35;" d="M505 343l-26 26c-4 4-10 6-16 6-6 0-12-2-16-6l-4-4c-33 23-72 35-113 35-1 0-1 0-1 0-25 0-50-5-73-14l44 45c6-3 12-4 19-4 11 0 22 4 30 12 8 8 12 19 12 30 0 12-4 23-12 31-8 7-19 12-30 12-12 0-22-4-30-12-8-9-13-19-13-31 0-6 2-12 4-18l-80-80-3 2c-4 5-10 7-16 7-6 0-12-2-16-7l-26-25c-4-5-7-10-7-16 0-7 3-12 7-17l3-2-81-81c-5 3-12 4-18 4-11 0-22-4-30-12-17-17-17-44 0-60 8-8 19-13 30-13 11 0 22 5 30 13 13 13 16 32 8 48l45 45c-9-24-13-48-13-74 0-41 12-80 34-114l-4-4c-9-9-9-24 0-33l25-25c5-5 10-7 17-7 6 0 11 2 16 7l25 25c9 9 9 24 0 33l-25 25c-5 5-10 7-16 7-7 0-12-2-17-7l0 0c-37 59-36 137 5 195 2-1 5-2 8-2 6 0 12 3 16 7l26 26c6 6 8 16 5 24 58 40 135 42 195 5l-2-2c-9-9-9-23 0-32l26-26c4-4 10-6 16-6 6 0 12 2 16 6l26 26c9 9 9 23 0 32z m-303-295l-18-18-18 18 18 18z m107 431c2 3 6 4 10 4 3 0 7-1 10-4 2-2 4-6 4-10 0-3-2-7-4-10-3-2-7-4-10-4-4 0-8 2-10 4-3 3-5 7-5 10 0 4 2 8 5 10z m-256-295c-3-3-6-4-10-4-4 0-7 1-10 4-6 5-6 14 0 20 3 2 6 4 10 4 4 0 7-2 10-4 5-6 5-15 0-20z m128 130l-18 18 18 18 9-9 9-9z m282-5l-18 18 18 18 18-18z"/>
<glyph glyph-name="photo-camera" unicode="&#36;" d="M504 353c-2 1-51 26-133 42l-3 13c-8 35-39 60-75 60l-74 0c-36 0-67-24-75-60l-3-13c-82-15-131-41-133-42-5-3-8-7-8-13l0-167c0-66 54-121 121-121 8 0 15 6 15 14 0 8-7 14-15 14-51 0-93 42-93 93l0 158c17 8 62 27 127 38 5 1 10 5 11 10l5 23c6 22 25 38 48 38l74 0c23 0 42-16 48-38l5-23c1-5 6-9 11-10 65-11 110-30 127-38l0-158c0-51-42-93-93-93-8 0-15-6-15-14 0-8 7-14 15-14 67 0 121 54 121 121l0 167c0 6-3 10-8 13z m-458 29c2 0 3 0 5 1 15 4 30 9 46 13 8 1 13 9 11 17-2 7-10 12-17 10-17-4-33-8-49-14-8-2-12-10-9-17 2-6 8-10 13-10z m210-12c-90 0-163-73-163-163 0-90 73-163 163-163 90 0 163 73 163 163 0 90-73 163-163 163z m0-298c-74 0-135 61-135 135 0 74 61 135 135 135 74 0 135-61 135-135 0-74-61-135-135-135z"/>
<glyph glyph-name="money" unicode="&#37;" d="M238 145c31 0 56 26 56 57l0 71c0 32-25 57-56 57-32 0-57-25-57-57l0-71c0-31 25-57 57-57z m-40 128c0 22 18 40 40 40 22 0 39-18 39-40l0-71c0-22-17-40-39-40-22 0-40 18-40 40z m314 133l-475 0 0-37-37 0 0-263 475 0 0 37 37 0z m-17-68c-7 1-14 3-20 6l0 25-25 0c-3 6-5 13-6 20l51 0z m-105 14c4-36 32-64 68-68l0-93c-36-4-64-32-68-68l-305 0c-4 36-32 64-68 68l0 93c36 4 64 32 68 68z m68-51c-26 4-47 25-51 51l51 0z m-341 68c3 6 4 13 5 20l305 0c1-7 2-14 5-20z m358-43c7-3 13-5 20-5l0-93c-7-1-13-2-20-5z m-421 63l51 0c-1-7-3-14-7-20l-44 0z m14-37c-4-26-25-47-51-51l0 51z m-51-178c26-4 47-25 51-51l-51 0z m390-51c4 26 25 47 51 51l0-51z m68 37l0 45c6 3 13 5 20 6l0-51z"/>
<glyph glyph-name="home" unicode="&#38;" d="M507 304l-243 178c-5 3-11 3-16 0l-243-178c-5-4-7-13-2-19 4-6 12-7 18-3l235 172 235-172c2-1 5-2 8-2 4 0 8 2 10 5 5 6 3 15-2 19z m-65-25c-7 0-13-6-13-13l0-212-106 0 0 116c0 37-30 67-67 67-37 0-67-30-67-67l0-116-106 0 0 212c0 7-6 13-13 13-8 0-14-6-14-13l0-225c0-7 6-13 14-13l133 0c7 0 13 5 13 12 0 0 0 1 0 1l0 129c0 22 18 40 40 40 22 0 40-18 40-40l0-129c0 0 0-1 0-1 0-7 6-12 13-12l133 0c8 0 14 6 14 13l0 225c0 7-6 13-14 13z"/>
<glyph glyph-name="edit" unicode="&#39;" d="M479 479c-44 44-116 44-160 0l-293-293c-2-2-4-5-4-8l-22-161c-1-5 1-9 4-13 3-2 7-4 11-4 0 0 1 0 2 0l96 13c9 1 14 9 13 17-1 8-8 14-16 12l-78-10 15 112 118-118c3-3 7-4 10-4 4 0 8 1 11 4l293 293c21 21 33 50 33 80 0 30-12 59-33 80z m-154-36l49-49-267-268-50 49z m-149-386l-49 48 268 268 48-48z m287 289l-117 117c15 13 33 20 53 20 22 0 43-9 59-25 16-16 25-37 25-59 0-20-7-38-20-53z"/>
<glyph glyph-name="download-1" unicode="&#40;" d="M497 262c-8 0-14-7-14-15l0-133c0-36-30-66-66-66l-322 0c-36 0-66 30-66 66l0 135c0 9-6 15-14 15-8 0-15-6-15-15l0-135c0-53 43-95 95-95l322 0c52 0 95 42 95 95l0 133c0 8-7 15-15 15z m-251-127c3-3 6-4 10-4 4 0 7 1 10 4l94 93c5 6 5 15 0 21-6 6-15 6-21 0l-68-68 0 298c0 8-7 14-15 14-8 0-15-6-15-14l0-298-68 68c-6 6-15 6-21 0-5-6-5-15 0-21z"/>
<glyph glyph-name="hk6" unicode="&#41;" d="M424 359c0-12-10-23-23-23-13 0-23 11-23 23 0 13 10 24 23 24 13 0 23-11 23-24z m-72 56c0-11-9-20-21-20-11 0-20 9-20 20 0 11 9 21 20 21 12 0 21-10 21-21z m-88 16c0-10-8-17-17-17-9 0-17 7-17 17 0 9 8 17 17 17 9 0 17-8 17-17z m-80-16c0-8-7-15-15-15-8 0-15 7-15 15 0 8 7 15 15 15 8 0 15-7 15-15z m-67-41c0-7-5-13-12-13-8 0-13 6-13 13 0 7 5 13 13 13 7 0 12-6 12-13z m-39-58c0-6-5-11-11-11-6 0-11 5-11 11 0 6 5 11 11 11 6 0 11-5 11-11z m325-56l-100-70 32-26-58-100 97 103-34 26z m-101-66l-9 0 0 49 5 0 8-35 0 0-7-12 82 62-37 10 40 71-76-74 29-11-22-33-5 22 10 0 0 13-27 0 0 18-8 0 6 4-11 17-10-7 10-15 0-17-26 0 0-13 9 0-10-36 12-3 11 39 4 0 0-49-267 0 0-7 289 0z m53 0l144 0 0-7-144 0z m-342 99l109 0 0-12-109 0z m13-90c20 40 22 63 22 64l-12 1c0 0-2-22-21-60z m60 63l12 3 19-61-12-4z m75 25l32 5 0 0 1 0c1 0 3-1 6-4 2-3 7-9 12-15l-57 0 0-12 60 0 0 8c6-8 11-15 11-15l10 7c-1 1-20 28-27 36-8 8-15 7-17 7l-22-3-11 6-29-47 10-7z m52-34c-4 3-11-1-13-1l-55 0 0-53 73 0 0 44c0 5-3 8-5 10z m-4-45l-55 0 0 35 55 0z m48 84c0 0 6 0 13 0 13 0 33 0 47 2l-1 12c-23-2-59-1-59-1z m6-32l10 7c-6 10-12 20-12 20l-10-6c0-1 6-11 12-21z m31 7l13 24 11-6-14-24z m-259-111c-1-3-1-4-2-5 0 1-1 2-1 4l-8 22-6 0 0-31 4 0 0 27 9-27 4 0 9 26 0-26 4 0 0 31-5 0z m70 21l-12-31 4 0 4 10 13 0 4-10 4 0-13 31z m-3-18l3 9c1 2 2 4 2 6 1-2 1-4 2-6l4-9-11 0z m84 0c-1 0-1 1-3 1 3 1 6 2 7 3 2 2 2 4 2 6 0 1 0 3-1 4-1 2-2 3-3 3-2 1-4 1-7 1l-14 0 0-31 4 0 0 14 5 0c1 0 2 0 2 0 1 0 2-1 2-1 1 0 2-1 2-2 1-1 2-3 3-4l5-7 5 0-6 9c-1 1-2 3-3 4z m-6 4l-9 0 0 11 10 0c3 0 4-1 5-2 2-1 2-2 2-3 0-1 0-2-1-3 0-1-1-2-2-2-1 0-3-1-5-1z m86 14l-6 0-16-15 0 15-4 0 0-31 4 0 0 11 5 5 12-16 5 0-14 19z m152 0l5 0 0-31-5 0z m78 0l-4 0-7-8c-1-1-1-2-2-4-1 1-2 2-3 4l-5 8-5 0 10-15-12-16 5 0 8 11c0 0 1 1 2 2 0 0 1-1 1-2l8-11 5 0-12 17z"/>
<glyph glyph-name="megaphone" unicode="&#42;" d="M450 374l0 83c0 9-5 17-13 22-8 4-17 4-25 0-76-43-159-68-246-74-1 0-79 0-79 0-20 0-37-15-39-34l-16 0c-18 0-32-15-32-33l0-70c0-18 14-32 32-32l16 0c2-14 11-25 23-31l57-159c4-9 14-16 24-16l58 0c8 0 16 4 20 11 5 6 6 15 3 23l-49 136c80-9 157-33 228-72 4-3 8-4 12-4 5 0 9 2 13 4 8 4 13 13 13 22l0 82c35 5 62 35 62 71 0 37-27 67-62 71z m-402-113l-16 0c-4 0-7 3-7 7l0 70c0 4 3 8 7 8l16 0z m33-33c-5 2-8 7-8 12l0 126c0 8 6 14 14 14l67 0 0-153c0 0-68 0-68 0-3 0-3 0-5 1z m129-173c0 0 0 0 0 0 0 0 0 0 0 0l-58 0c0 0 0 0 0 0l-53 147 58 0z m215 95c0 0 0-1 0-1-1 0-1 0-1 0-76 43-159 68-245 76l0 156c86 8 169 34 245 76 0 0 0 0 1 0 0 0 0 0 0 0z m25 107l0 92c21-4 37-23 37-46 0-23-16-42-37-46z"/>
<glyph glyph-name="phone-call" unicode="&#43;" d="M405 195c-11 11-23 17-37 17-13 0-26-6-37-17l-34-34c-3 1-6 3-8 4-4 2-8 4-11 6-32 20-61 47-89 81-13 17-23 31-29 46 9 8 17 17 25 25 3 3 6 6 9 9 23 23 23 52 0 75l-29 29c-4 3-7 7-11 10-6 7-13 14-20 20-10 11-23 16-36 16-13 0-26-5-37-16 0 0 0 0 0 0l-37-37c-14-14-21-30-23-50-3-32 7-61 14-80 17-47 43-91 82-138 48-57 105-101 170-133 25-11 58-25 95-28 2 0 4 0 7 0 25 0 45 9 62 27 0 0 0 0 0 0 6 7 12 13 19 20 5 4 10 9 14 14 11 11 17 24 17 37 0 14-6 26-17 37z m38-114c0 0 0 0 0 0-4-4-8-9-13-13-7-7-14-14-21-22-11-11-23-17-40-17-2 0-4 0-5 0-32 2-62 15-85 25-61 30-114 72-159 125-37 45-62 86-78 130-10 27-14 48-12 68 1 12 6 23 15 32l37 37c5 5 11 7 16 7 7 0 13-4 16-7 0 0 0-1 0-1 7-6 13-12 20-19 3-3 7-7 10-11l30-29c11-11 11-22 0-34-4-3-7-6-10-9-9-9-18-18-27-26 0 0 0 0 0-1-10-9-8-18-6-24 0-1 0-1 0-1 8-19 19-36 35-57l0 0c30-37 62-66 96-88 5-2 9-5 14-7 3-2 7-4 10-6 1 0 1 0 2 0 3-2 7-3 10-3 9 0 15 6 17 7l37 37c3 4 9 9 16 9 7 0 12-5 15-8 1 0 1 0 1-1l59-59c11-11 11-23 0-34z m-166 309c28-5 54-18 74-38 21-21 34-47 39-75 1-7 7-12 14-12 1 0 2 0 3 0 8 1 13 9 12 17-6 34-22 65-47 90-25 25-56 41-90 47-8 1-16-4-17-12-1-8 4-15 12-17z m234-104c-9 57-36 108-77 149-40 41-92 67-148 77-8 1-16-4-17-12-1-8 4-16 12-17 50-9 96-32 133-69 36-36 60-82 69-133 1-7 7-12 14-12 1 0 2 0 3 1 7 1 13 8 11 16z"/>
<glyph glyph-name="medal" unicode="&#45;" d="M509 419l-78 78c-2 2-4 3-7 3l-336 0c-2 0-5-1-7-3l-78-78c-3-3-4-9-1-14l162-246c-7-14-10-29-10-45 0-56 46-102 102-102 56 0 102 46 102 102 0 16-3 31-10 45l162 246c3 5 2 11-1 14z m-416 59l326 0 56-56-78 0c0 0 0 0 0 0l-282 0c0 0 0 0 0 0l-78 0z m284-77l-121-184c0 0 0 0 0 0 0 0 0 0 0 0l-121 184z m-346 0l78 0 123-187c-22-6-41-18-55-35z m225-367c-44 0-80 36-80 80 0 45 36 81 80 81 44 0 80-36 80-81 0-44-36-80-80-80z m79 145c-14 17-33 29-55 35l123 187 78 0z m-75-25l-18 0c-6 0-11-4-11-10 0-7 5-11 11-11l7 0 0-60c0-6 5-11 11-11 6 0 11 5 11 11l0 71c0 6-5 10-11 10z"/>
<glyph glyph-name="heart" unicode="&#46;" d="M471 439c-27 27-63 42-101 42-37 0-73-15-100-42l-14-14-14 14c-27 27-63 42-100 42-38 0-74-15-101-41-26-27-41-63-41-101 0-38 15-73 42-100l204-204c2-3 6-4 10-4 4 0 7 1 10 4l204 204c27 26 42 62 42 100 0 38-15 73-41 100z m-21-180l-194-193-194 194c-21 21-33 49-33 79 0 30 12 59 33 80 21 21 50 33 80 33 30 0 58-12 79-33l25-25c5-6 15-6 20 0l25 24c21 22 49 33 79 33 30 0 59-11 80-32 21-22 33-50 33-80 0-30-12-58-33-80z"/>
<glyph glyph-name="download" unicode="&#47;" d="M169 302c-5-6-5-15 0-21l77-76c3-3 6-5 10-5 4 0 7 2 10 5l77 76c5 6 5 15 0 21-6 5-15 5-21 0l-52-52 0 248c0 8-6 14-14 14-8 0-14-6-14-14l0-248-52 52c-6 5-15 5-21 0z m323-119l-50 182c-2 4-4 8-8 9l-2 1c-2 1-4 1-6 1l-90 0c-8 0-15-6-15-14 0-8 7-15 15-15l81 0 42-153-112 0c-8 0-15-7-15-15l0-13c0-19-15-34-34-34l-88 0c-19 0-35 15-35 34l0 13c0 8-6 15-14 15l-108 0 42 154 81 0c8 0 15 6 15 14 0 8-7 15-15 15l-90 0c-2 0-4-1-6-2l-2 0c-4-2-7-5-8-10l-50-181c0-2 0-3 0-4l0-76c0-57 46-104 104-104l264 0c58 0 104 47 104 104l0 76c0 1 0 2 0 3z m-28-79c0-41-34-75-76-75l-264 0c-42 0-76 34-76 75l0 61 98 0c1-34 29-62 64-62l88 0c35 0 63 28 64 62l102 0 0-61z"/>
<glyph glyph-name="dislike" unicode="&#58;" d="M490 348c2 6 4 13 4 22 1 15-3 36-24 55 1 10 1 26-7 41-12 21-34 35-67 42-22 4-51 5-85 3-71 1-139-8-143-8l-25-3c-8 5-17 8-26 8l-65 0c-25 0-45-20-45-45l0-174c0-24 20-44 45-44l65 0c8 0 15 2 21 5 5-10 11-21 21-31 1-1 1-1 2-2 33-26 73-119 87-157-1-11-3-37 9-51 5-6 13-9 21-9 8 0 37 2 54 26 17 24 18 59 3 104-13 39-14 56-13 63 5-2 11-3 17-4l0 0c1 0 24-5 52-7 40-2 69 5 86 21 24 21 21 48 14 66 6 8 13 20 14 37 0 14-5 29-15 42z m-373-74l-65 0c-9 0-16 7-16 15l0 174c0 9 7 16 16 16l65 0c9 0 16-7 16-16l0-174c0-8-7-15-16-15z m344-11c0 0 4-6 5-14 2-10-1-18-8-25-21-19-80-14-112-7-1 0-1 0-2 0-6 1-12 3-18 4-7 3-17 2-24-4-14-13-12-41 5-96 12-36 13-63 2-78-9-12-25-14-30-14-3 4-4 19-2 31 0 2 0 5-1 7-2 5-49 134-97 172-12 14-18 30-20 37 2 4 2 9 2 13l0 174c0 3 0 7 0 10l10 1 0 0c1 0 71 9 140 8 0 0 1 0 1 0 33 2 59 1 78-3 24-5 40-14 47-27 8-13 4-26 3-28-2-6 0-12 5-16 32-24 17-52 16-55-4-6-3-13 1-18 10-9 14-19 14-28-1-14-11-25-12-25-5-5-6-13-3-19z"/>
<glyph glyph-name="diamond" unicode="&#59;" d="M510 323l-94 126c-2 2-4 3-7 3l-306 0c-3 0-5-1-7-3l-94-126c-3-3-3-8 1-11l54-55c3-3 9-3 12 0 4 3 4 9 0 12l-39 40 92 0 100-194-128 130c-4 3-9 3-13 0-3-4-3-9 0-13l169-170c1-1 4-2 6-2 2 0 5 1 6 2l247 250c4 3 4 8 1 11z m-484 4l72 95 19-95z m88 108l121 0-102-99z m133-330l-105 204 105 0z m0 222l-98 0 98 96z m151 108l-19-99-101 99z m-133-12l98-96-98 0z m25-308l66 129c2 4 1 9-4 12-4 2-9 0-11-4l-76-147 0 204 105 0-10-20c-2-4-1-10 3-12 5-2 10 0 12 4l15 28 92 0z m105 212l19 95 72-95z"/>
<glyph glyph-name="credit-card" unicode="&#60;" d="M469 336l-52 0 0 74c0 24-19 43-43 43l-331 0c-24 0-43-19-43-43l0-192c0-23 19-42 43-42l52 0 0-74c0-24 19-43 43-43l331 0c24 0 43 19 43 43l0 192c0 23-19 42-43 42z m-445 74c0 10 9 18 19 18l331 0c11 0 19-8 19-18l0-17-369 0z m71-116l0-94-52 0c-10 0-19 8-19 18l0 94 75 0c-3-6-4-12-4-18z m-71 42l0 33 369 0 0-33-255 0c-1 0-2 0-3 0z m445-252l-331 0c-11 0-19 8-19 18l0 192c0 9 8 17 17 18l269 0c0 0 1 0 1 0l63 0c10 0 19-8 19-18l0-192c0-10-9-18-19-18z m-129 173c-14 0-26-5-37-13-10 8-23 13-36 13-33 0-59-27-59-59 0-33 26-59 59-59 13 0 26 5 36 13 11-8 23-13 37-13 33 0 59 26 59 59 0 32-26 59-59 59z m-52-86c-6-5-13-8-21-8-19 0-35 16-35 35 0 19 16 34 35 34 8 0 15-2 21-7-4-8-7-17-7-27 0-10 3-19 7-27z m52-8c-19 0-34 16-34 35 0 19 15 34 34 34 19 0 35-15 35-34 0-19-16-35-35-35z"/>
<glyph glyph-name="glasses" unicode="&#61;" d="M504 201l-67 215c-10 32-43 50-75 40-7-2-11-10-9-18 2-7 10-11 18-9 16 5 33-4 38-21l0 0 49-154c-15 9-33 14-52 14-54 0-99-42-105-94l-90 0c-7 52-51 92-105 92-19 0-37-5-52-14l49 156 0 0c5 17 22 26 39 21 7-2 15 2 18 9 2 8-2 16-10 18-31 10-65-8-74-40l-68-215c0-1 0-1 0-2-5-12-8-26-8-39 0-59 48-107 106-107 54 0 98 40 105 92l90 0c8-51 52-90 105-90 58 0 106 48 106 106 0 14-3 28-8 40z m-398-119c-43 0-78 35-78 78 0 42 35 77 78 77 43 0 78-35 78-77 0-43-35-78-78-78z m300 2c-43 0-78 34-78 77 0 43 35 78 78 78 43 0 78-35 78-78 0-43-35-77-78-77z"/>
<glyph glyph-name="hand" unicode="&#62;" d="M480 254c0 4-3 8-7 10-83 50-132 60-167 67-5 1-9 2-14 3l-15 127c-1 28-24 51-52 51-28 0-50-21-52-49 0-1 0-1 0-2l0-74-1-183-20 16c-3 3-30 24-63 24-23 0-42-9-59-27-5-6-5-13-1-19 1-2 35-49 88-98 32-28 64-51 95-68 39-21 78-32 115-32 1 0 1 0 2 0 50 0 89 17 116 49 60 73 36 200 35 205z m-57-186c-21-26-53-39-94-39-1 0-1 0-2 0-73 1-143 51-189 93-37 33-65 66-77 83 8 6 18 10 28 10 24 0 44-18 44-18 1 0 1-1 1-1l44-33c4-4 10-4 15-2 5 3 9 8 9 13l1 212 0 74c0 1 0 1 0 1 0 12 10 21 22 21 13 0 22-10 22-22 0 0 0-1 1-2l16-137c1-6 5-11 11-13 8-2 16-4 25-6 34-7 77-16 152-60 4-25 15-120-29-174z"/>
<glyph glyph-name="headphones" unicode="&#63;" d="M512 254c0 68-27 132-75 181-48 48-113 75-181 75-68 0-133-27-181-75-48-49-75-113-75-181l0-122c0-68 56-124 124-124 8 0 15 7 15 15l0 219c0 8-7 15-15 15-38 0-72-17-94-44l0 41c0 125 101 226 226 226 125 0 226-101 226-226 0-1 1-2 1-3 0-1-1-2-1-3l0-41c-22 27-56 44-94 44-8 0-15-7-15-15l0-219c0-8 7-15 15-15 68 0 124 56 124 125l0 121c0 1 0 2 0 3 0 1 0 2 0 3z m-403-28l0-187c-45 7-80 46-80 93 1 48 35 87 80 94z m294-193l0 187c45-7 80-46 80-93-1-48-35-87-80-94z"/>
<glyph glyph-name="magnifying-glass" unicode="&#64;" d="M508 26l-125 125c33 38 54 88 54 143 0 120-98 218-219 218-120 0-218-98-218-218 0-121 98-219 218-219 55 0 105 21 144 54l124-124c3-3 7-5 11-5 4 0 8 1 11 5 5 5 5 15 0 21z m-477 268c0 103 84 187 187 187 104 0 188-84 188-187 0-104-84-188-188-188-103 0-187 84-187 188z"/>
<glyph glyph-name="logout" unicode="&#91;" d="M247 29l-133 0c-37 0-66 30-66 66l0 322c0 36 30 66 66 66l136 0c8 0 14 6 14 14 0 8-6 15-14 15l-136 0c-53 0-95-43-95-95l0-322c0-52 42-95 95-95l133 0c8 0 15 7 15 15 0 8-7 14-15 14z m242 237l-93 94c-6 5-15 5-21 0-6-6-6-15 0-21l68-68-297 0c-9 0-15-7-15-15 0-8 6-15 15-15l297 0-68-68c-6-6-6-15 0-21 3-3 7-4 10-4 4 0 8 1 11 4l93 93c6 6 6 16 0 21z"/>
<glyph glyph-name="link" unicode="&#93;" d="M271 290c-6-6-6-15 0-20 23-23 23-61 0-84l-122-122c-24-24-61-24-85 0l-18 18c-23 23-23 61 0 84l122 122c6 6 6 15 0 20-6 6-15 6-20 0l-122-122c-17-16-26-38-26-62 0-23 9-46 26-62l18-19c17-17 40-25 63-25 22 0 45 8 62 25l122 122c34 35 34 91 0 125-6 6-15 6-20 0z m215 160l-18 19c-34 34-90 34-125 0l-122-122c-34-35-34-91 0-125 6-6 15-6 20 0 6 6 6 15 0 20-23 23-23 61 0 84l122 122c24 24 61 24 85 0l18-18c23-23 23-61 0-84l-122-122c-6-6-6-15 0-20 3-3 6-5 10-5 4 0 7 2 10 5l122 122c17 16 26 38 26 62 0 23-9 46-26 62z"/>
<glyph glyph-name="next" unicode="&#94;" d="M507 286l-226 186c-4 4-10 4-15 2-5-2-8-7-8-13l0-98c-110-4-186-43-225-115-34-63-33-137-33-186 0-4 0-8 0-11 0-7 4-12 11-14 1 0 2 0 3 0 5 0 10 2 13 7 76 135 139 141 231 142l0-98c0-6 3-11 8-13 5-2 11-2 15 2l226 187c3 3 5 7 5 11 0 4-2 8-5 11z m-221-168l0 82c0 4-1 7-4 10-3 2-7 4-10 4-57 0-101-2-144-21-36-18-68-47-99-92 1 41 6 91 29 133 36 67 106 100 214 101 8 0 14 6 14 14l0 82 189-156z"/>
<glyph glyph-name="next-1" unicode="&#95;" d="M387 266l-241 242c-6 5-15 5-21 0-6-6-6-15 0-21l231-231-231-231c-6-6-6-15 0-21 3-2 7-4 10-4 4 0 8 1 10 4l242 242c6 5 6 15 0 20z"/>
<glyph glyph-name="padlock" unicode="&#44;" d="M420 289l-8 0 0 67c0 86-70 156-156 156-86 0-156-70-156-156 0-8 6-15 14-15 8 0 14 7 14 15 0 70 57 127 128 127 70 0 128-57 128-127l0-67-292 0c-15 0-28-13-28-28l0-178c0-46 38-83 83-83l218 0c45 0 83 37 83 83l0 178c0 15-13 28-28 28z m-1-206c0-30-24-54-54-54l-218 0c-29 0-54 24-54 54l0 177 326 0z m-163 6c30 0 54 24 54 53 0 30-24 54-54 54-30 0-53-24-53-54 0-29 23-53 53-53z m0 78c14 0 25-11 25-25 0-13-11-25-25-25-14 0-25 12-25 25 0 14 11 25 25 25z"/>
<glyph glyph-name="paper-plane" unicode="&#96;" d="M508 508c-5 4-11 5-17 3l-482-212c-5-2-9-7-9-13 0-5 3-10 7-13l169-96 100-170c2-4 7-7 12-7 1 0 1 0 1 0 6 0 10 4 13 9l209 482c2 6 1 12-3 17z m-77-56l-247-245-136 77z m-145-405l-81 139 248 247z"/>
<glyph glyph-name="24h" unicode="&#123;" d="M499 217c-6 1-11-2-12-8-22-109-119-189-231-189-130 0-236 106-236 236 0 130 106 236 236 236 61 0 120-24 164-67l-27 0c-5 0-10-4-10-10 0-6 5-10 10-10l52 0c5 0 10 4 10 10l0 51c0 6-5 11-10 11-6 0-11-5-11-11l0-27c-47 47-111 73-178 73-68 0-133-27-181-75-48-48-75-113-75-181 0-68 27-133 75-181 48-48 113-75 181-75 59 0 117 21 163 59 45 37 76 89 88 146 1 6-3 11-8 12z m3 49c-6 0-10-4-10-10 0-2 0-5 0-7-1-5 4-10 9-10 1 0 1 0 1 0 5 0 10 4 10 10 0 2 0 5 0 7 0 6-5 10-10 10z m-253-104l-104 0 0 20c0 43 109 65 109 135 0 35-27 62-64 62-35 0-61-23-61-54 0-9 3-13 9-13 8 0 12 5 12 9 0 25 17 38 39 38 30 0 44-22 44-43 0-57-110-80-110-134l0-32c0-5 6-8 10-8l116 0c4 0 8 5 8 10 0 5-4 10-8 10z m140 56l-18 0 0 63c0 5-6 8-11 8-6 0-11-3-11-8l0-63-63 0 75 148c0 2 1 3 1 4 0 6-7 9-11 9-4 0-8-2-10-6l-81-161c-1-2-2-4-2-6 0-4 3-8 9-8l82 0 0-48c0-5 5-8 11-8 5 0 11 3 11 8l0 48 18 0c4 0 8 5 8 10 0 5-3 10-8 10z"/>
<glyph glyph-name="date" unicode="&#124;" d="M491 431l-103 0 0 27c0 6-4 11-10 11-6 0-10-5-10-11l0-27-223 0 0 27c0 6-5 11-11 11-6 0-10-5-10-11l0-27-103 0c-5 0-10-4-10-10l0-367c0-6 5-11 10-11l354 0c5 0 7 3 7 3l116 116c3 3 3 7 3 7l0 252c0 6-5 10-10 10z m-459-21l92 0 0-26c0-6 4-11 10-11 6 0 11 5 11 11l0 26 222 0 0-26c0-6 5-11 11-11 6 0 10 5 10 11l0 26 92 0 0-61-448 0z m0-82l448 0 0-148-105 0c-6 0-10-5-10-11l0-105-333 0z m433-169l-80-80 0 80z m-301 43c14 8 21 18 21 31 0 9-3 18-10 25-8 9-20 13-33 13-8 0-16-1-22-5-7-3-12-7-16-12-3-5-6-12-8-21l26-5c1 7 3 12 6 15 4 3 8 5 13 5 5 0 9-2 11-4 3-3 5-7 5-12 0-6-2-11-6-14-4-4-10-5-18-5l-3-23c5 1 10 2 13 2 6 0 10-2 14-6 4-4 6-10 6-17 0-8-2-14-6-18-4-5-9-7-15-7-5 0-10 2-14 6-3 3-6 9-7 16l-27-4c1-12 7-22 15-30 9-7 20-11 33-11 15 0 26 4 36 14 9 9 14 20 14 33 0 8-3 16-8 22-5 6-11 11-20 12z m93 69c-14 0-25-5-33-15-10-12-15-32-15-60 0-28 5-48 14-59 8-11 20-16 34-16 14 0 26 5 33 15 10 12 15 32 15 60 0 28-5 48-14 60-8 10-20 15-34 15z m16-112c-2-6-4-9-7-12-2-2-5-3-9-3-3 0-6 1-9 3-2 2-5 7-6 13-2 7-3 18-3 36 0 17 1 29 3 37 1 5 3 9 6 11 3 2 6 4 9 4 4 0 7-2 9-4 3-2 5-6 7-13 2-6 2-18 2-35 0-17-1-30-2-37z"/>
<glyph glyph-name="fc3d" unicode="&#126;" d="M316 436l0 0-33 0-10-26c-1-2-2-4-2-7l-30-82 34 0 12 35c0 0 13 0 19 0 22 0 41 18 43 40 2 21-13 38-33 40z m2-41c-1-7-7-13-15-13-2 0-6 0-6 0l9 25c8 0 13-5 12-12z m-94-14c-6 1-11 6-10 13 0 7 6 13 13 14l9 0 10 28c-8 0-17 0-20 0-17 0-33-11-39-27-2-4-3-8-4-13 0-5 0-9 1-13 4-15 17-26 34-27l9 25z m75 92l-36 0-5-15-37-102 12 0 37 102 23 0z m-126-76c0 3 1 6 1 9-51-12-97-35-132-65 39 18 84 31 133 38 0 0-1 1-1 1-1 5-2 11-1 17z m187-2c-1-6-3-12-5-18 45-7 87-19 123-36-32 27-73 49-118 62 0-3 0-5 0-8z m-52 59l-35 0-5-14-38-102 12 0 37 102 24 0z m-118-282c69 26 46 82 46 82 0 0-12 32-85 35-73 3-99-52-99-52l60-19c0 0 10 32 38 31 28-2 20-29 20-29-13-32-48-24-48-24l-16-45c49 9 47-21 47-21 0 0-2-48-38-48-37-1-28 37-28 37l-71-1c0-11 8-82 92-79 85 4 107 44 114 82 7 39-32 51-32 51z m306 41c0 0-3 25-33 31 0 0 15 11 9 30-7 19-33 28-52 9 0 0-11 8-158 10l-51-251c0 0 79 0 78 0 0 1 13 65 19 90-12 12-19 28-19 46 0 35 29 64 64 64 36 0 65-29 65-64 0-36-29-65-65-65-14 0-26 5-37 12l-14-83c0 0 143-10 164 122 0 0 35 15 30 49z m-52 70c10 0 19-8 19-18 0-10-9-19-19-19-10 0-18 9-18 19 0 10 8 18 18 18z m11-106c-15 0-28 12-28 28 0 15 13 27 28 27 15 0 28-12 28-27 0-16-13-28-28-28z"/>
<glyph glyph-name="pl3" unicode="&#114;" d="M484 114c0-33-27-60-60-60-33 0-60 27-60 60 0 33 27 60 60 60 33 0 60-27 60-60z m-101 261c0-20-17-37-38-37-20 0-37 17-37 37 0 21 17 37 37 37 21 0 38-16 38-37z m66-3l-11 12-60-75z m-55-89l55 18-5 10z m114-30l-2 18-109-14z m-261 204l-18-5c0 0 32-101 33-105-1 4-15 110-15 110z m15-110c0-1 0-1 0-1 0 0 0 0 0 1z m-26-9c0 0 0 0 0 0 0 0 0 0 0 0z m-28 51l-7-5c0 0 31-40 35-46-4 6-28 51-28 51z m-69-10l-8-14 83-46z m-22-238l7-13 74 40z m59-19l6-5 29 33z m30-58l24 72-37-67z m82 275c-39 0-73-21-91-53 0 0-1 0-1 0-2 0-4-2-4-5 0 0 0-1 0-1l-6 0c0 0 0 0 0 0 0 2-2 4-4 4-2 0-4-1-4-4 0 0 0-1 0-1l-6-1c0 0 0 1 0 1 0 2-2 4-4 4-2 0-4-2-4-4 0-1 0-1 0-2l-6 0c0 0 0 0 0 0 0 3-2 5-4 5-2 0-4-2-4-5 0 0 0 0 0-1l-6 0c0 0 0 0 0 0 0 2-2 4-4 4-2 0-4-2-4-4 0 0 0-1 0-1l-6-1c0 1 0 1 0 1 0 2-2 4-4 4-2 0-5-3-5-5 0 0-1 0-4-1 0 0 0 1 0 1 0 2-2 4-5 4-2 0-4-2-4-4 0-1 0-1 0-1-2-1-4-1-6-1 0 0 0 0 0 0 0 3-1 5-4 5-2 0-4-2-4-5 0 0 0 0 0-1-2 0-4 0-5 0 0 2-2 4-5 4-2 0-4-2-4-4 0 0 0-1 0-1-4 0-6-1-6-1 0 3-2 5-4 5-2 0-4-2-4-4 0-1 0-1 0-1l-6-1c0 3-2 4-4 4-2 0-4-1-4-4 0 0 0 0 0 0l-6-1c0 2-2 4-4 4-2 0-4-2-4-4 0 0 0 0 0 0l-6-1c0 2-2 4-4 4-2 0-4-2-4-4 0-2 1-4 3-4l-1-7c-1 1-1 1-2 1-2 0-4-2-4-4 0-3 2-5 4-5l-1-5c-1 0-1 0-1 0-2 0-4-2-4-4 0-2 1-4 3-4l-1-5c-1 0-1 0-1 0-3 0-5-2-5-4 0-2 2-4 4-4l-1-5c-1 0-1 0-2 0-2 0-4-2-4-4 0-2 2-4 4-4l-1-5c-1 0-1 0-2 0-2 0-4-1-4-4 0-2 2-4 4-4l-1-5c-1 1-1 1-2 1-2 0-4-2-4-4 0-3 3-5 3-5 0 0 1 0 1-3 0 0-1 1-1 1-3 0-5-3-5-5 0-3 2-5 4-5-1-5-1-9-1-9l13 1c0-2 2-4 5-4 2 0 4 1 4 4l5 0c1 0 2-4 4-4 3 0 4 4 5 4l5 0c1 0 2-4 4-4 2 0 4 4 4 4l6 0c0 0 2-4 4-4 2 0 3 4 4 4l5 0c1 0 2-4 5-4 1 0 3 4 4 4l5 0c1 0 2-4 4-4 2 0 4 4 4 4l6 0c0 0 2-4 4-4 2 0 4 4 4 4l6 0c0 0 2-4 4-4 2 0 4 4 4 4l5 0c1 0 3-4 5-4 2 0 3 4 4 4l5 0c1 0 2-4 4-4 2 0 4 4 4 4l6 0c0 0 2-4 4-4 2 0 4 4 4 4l6 0c0 0 2-4 4-4 2 0 4 4 4 4l5 0c1 0 3-4 5-4 2 0 3 4 4 4l4 0c18-30 52-43 92-43 57 0 104 53 104 110 0 58-48 110-105 110z m-221-152c-4 1-7 0-11 0 1 5 2 13 2 13l-7 0c0 0 0-2-1-4-1-6-1-9-4-9-4 1-10 0-11 3-1 1-1 8-1 8l6 0c0 3 2 10 2 10l-7 0 2 9 6 0 2 10-7 0 2 9 7 1c0 0 1 3 1 3 2 11 1 11 10 11 3 0 4-1 3-4-1-1-2-9-2-9l7 0 1 6c1 5 3 7 7 7 3 0 10-1 10-1 0 0-2-8-3-12-3-15-6-31-9-46 0-4-2-5-5-5z m24 12c0 0 0-2-1-4-2-9 0-7-9-8-2 0-5 0-8 0 2 8 3 15 5 22 2 13 5 25 7 38 1 2 2 4 4 4 4 0 8-1 12-1 0-4-2-11-2-11l9-1c0 0-2-8-2-8-6-1-8-1-8-1l-2-6 8 1-1-9-9 0c0-3-1-7-1-7 1 0 9 0 9 0-1-2-2-9-2-9 0 0-8 0-9 0z m42-1c-4-7-10-10-17-10-5-1-10-1-14-1 0 1 0 2-1 2 10 6 18 14 24 23-2 2-4 5-4 5l-7-7c0 0-2 5-6 9 9 9 14 15 17 19-4 0-7-1-10-1-1 7 0 11 5 11 13 1 26 4 39 6 4 0 3-1 3-4 0 0 0 0 0 0 0 0 0 0 1 0 3 0 2-3 2-3 0 0-6-37-6-40-1-4-5-3-5-3 0 0-4-1-7-1-3 1-2 5-2 5l3 14c-5-7-11-18-15-24z m51 56c-1-11-3-22-5-33-1-6-2-13-3-19-1-8-5-12-13-13-11-1-19 3-23 14 4-1 7-2 10-3 2 0 4 0 6 0 3 0 5 1 6 5 2 15 5 31 7 47 0 3 1 5 5 5 1 0 5 1 7 1 3 0 4-1 3-4z m166-45c0-45-34-58-53-61-53-7-72 36-72 36l41 5c4-10 18-13 24-12 9 2 25 6 25 30 0 24-38 23-38 23l5 29c18-5 29 11 25 23-4 12-10 11-20 10-10-2-12-19-12-19l-37 11c12 37 57 34 57 34 0 0 42 0 49-30 8-30-22-41-22-41 28-10 28-38 28-38z m-297 0l7 0 2 7-7-1z m3 15l7 0 1 5-7 0z m71 0c0 0 5-5 5-5 4 4 4 4 6 9-3 2-6 3-6 3 0 0-3-4-5-7z m24 17l-6-1c0 0-1 0-1-2 0 0 3 0 6-1z"/>
<glyph glyph-name="alipay" unicode="&#119;" d="M512 68c-18 7-36 14-54 22-53 23-106 47-159 71-10 4-16 3-23-5-29-34-64-60-108-74-38-12-75-11-111 3-34 12-53 37-56 72-4 41 11 74 47 96 28 17 59 20 90 14 39-7 77-17 115-27 11-3 16-1 20 10 6 17 13 34 21 53-8 1-13 1-17 1-59 0-118 1-176 0-11 0-14 4-14 15 1 8 4 10 11 10 27 0 54 2 81 2 12-1 16 4 16 16-1 11-5 15-16 15-33 0-66 0-100 0-13 0-20 11-13 22 1 3 7 4 11 4 34 0 68 0 102 0 16 0 16 0 16 16 0 12 1 24 1 35 0 9 5 12 13 12 13-1 26-1 38 0 8 0 12-3 11-11 0-11 0-22 0-34 0-17 1-17 18-18 32 0 65 0 98 0 10 1 14-2 14-13 0-11-6-11-14-11-34 0-67 0-101 0-14 0-15-2-15-22 0-12 6-13 16-12 25 0 50 0 75 0 5 0 10-1 18-2-7-18-12-35-18-51-6-15-13-31-20-46-5-10-4-16 8-20 53-17 106-35 158-52 6-2 11-4 17-6 0-28 0-57 0-85z m-276 122c-35 17-65 34-99 39-31 5-61 4-89-14-31-20-36-53-10-78 10-10 25-17 39-20 42-8 81 5 114 30 16 12 29 27 45 43z"/>
<glyph glyph-name="pcdd" unicode="&#125;" d="M33 345l0-73-11-7c0 0-12-9-8-17 6-11 13-7 13-7l7 5-6-75c0 0 1-21 19-21 18 0 18 18 18 18l0 96c37 20 105 56 99 103-7 46-46 68-98 65-51-4-66-47-66-47 33-8 33-40 33-40z m31 9c1 18 11 25 30 21 19-3 30-23 23-44-6-21-53-42-53-42 0 0-1 48 0 65z m155-56c6 3 7 9 4 12-2 3-5 13-36 11-30-2-62-27-64-61-2-35 6-63 26-77 20-14 46-15 46-15 0 0 21-1 33 7 11 8 15 14 17 18 2 4 2 14-7 14-9 1-11-6-14-11-3-6-15-13-32-11-21 3-37 17-42 41-6 23 11 42 17 46 8 7 20 7 28-2 0 0 4-8 10-8 6 1 7 6 7 12 0 6 1 20 7 24z m-131 136c0 0 1 15 18 18 0 0-16 6-15 23 0 0-6-20-23-22 0 0 19-6 20-19z m113-45c0 0 3 13 14 15 0 0-9 3-10 18 0 0-9-19-20-18 0 0 15-3 16-15z m29 73c0 0 2 15 19 18 0 0-19 7-17 25 0 0-5-24-24-25 0-1 19-6 22-18z m135-34c0 0 4 14 14 15 0 0-14 4-13 18 0-2-1-17-18-18 0 0 14-3 17-15z m80 37c0 0 5 15 18 15 0 0-17 5-15 25 0 0-1-21-21-25 0 0 18-5 18-15z m1-144c0 0-1 17 17 19 0 0-16 5-15 23 0-4-2-21-21-23 0 0 19-6 19-19z m53-67c-8 1-33 3-54 5l2 4c0 0 16 2 19 1 4-1 13-2 12 2-1 5-3 12-12 10-10-1-21-5-24-2-2 2-2 7-2 11 7 0 13 1 15 1 9 0 23-1 23-1 0 0 3-1 3-4-1-4 1-7 3-7 2 0 13 7 14 11 1 4 4 12-16 16-21 4-70 11-98 0-2-1-5-4-3-7 2-3 11-9 16-11-2-6-8-19-11-24-5-6-6-12-9-10-3 2-6 5-6 5 0 0-1-18 7-19 5 0 14 8 22 16 6-1 20-2 32-5-1-1-2-3-2-6 0-2 0-6 0-11-8-2-15-3-15-3 0 0-1 0-1-1-1 6-5 11-11 16 0 0-5 5-6 0-2-6 6-14 8-17 2-3 5-21 4-29-1-7-5-23-2-24 2 0 7 2 7 2 0 0 3 2 10 6 1 1 3 1 6 2 0-4 0-7 0-10-2 0-3 0-5-1-32-5-62-16-84-34-23-19-68-58-152-69-84-11-182-25-182-25 0 0 69 1 106-35 0 0 132 31 172 64 0 0 52 46 72 58 19 12 46 28 82 28l39 0 0 6c2 0 3-1 4-2 1-2 7-6 10-3 3 2 1 14-2 19-2 5-4 6-7 5-3-1-1-13-1-13 0 0-2-1-4-2l0 3c0 0-8 2-21 3-1 2-1 5-2 9 3-1 6-1 8-1 0 0 1-1 1-1 2-4 12 1 14 4 2 3-2 9-2 13-1 4 5 22 6 26 0 5-14 13-16 12-1 0-3-2-4-3-1 0-4 0-8 0 0 0 0 0 0 0 0 0-9 6-16 13 0 0 0 0 0 0 18-5 40-9 50-9 11-1 19-2 22 3 3 4 4 14-11 15z m-89 8c1 2 2 4 3 4 2 4 7 12 7 18 2 0 5 0 8 0l2-23c-9 0-16 1-20 1z m20-69c-7-2-14-4-16-4l1 21c1 2 7 4 15 6 0-7 0-15 0-23z m23 28c4 1 8 1 11 2 2-6 1-12 1-13 0 0 0-7-1-14-2 1-6 1-10 1 0 0 0 0 0 0-1 5-1 9-1 13 0 4 0 8 0 11z m-181 172c-2-4-6-11-12-16-8-7-21-23-23-21-3 1-4 5-4 5 0 0-5-7-3-13 2-6 12-13 14-11 1 1 10 8 20 16 5-3 20-9 34-15-1-1-2-2-2-4 0-5-2-14-2-14l-20 1c0 0-1 12-10 21-2 2-4 2-5-2-1-4 5-16 5-19 1-4 1-22 0-28-1-6-8-21-11-25-2-5-3-9 2-10 5-2 13 6 20 5 7-1 7-2 5-10 0 0 0-1 0-1-12 1-25 1-39 0 0 0-12 2-15-8-2-11 29-8 29-8 0 0 46-4 56-6 11-2 13-3 16-3 4 0 6 1 7 3l6 0c0 0-1-7 1-9 3-1 7-1 9 2 2 3 3 19 0 25-3 5-5 1-6-2 0-2-2-10-2-10l-6 0c0 0 2 4-12 7-3 1-9 3-15 4 1 5 4 11 6 10 4-3 10-7 15-6 5 1 10 2 11 10 0 8 1 23 6 30 5 6 4 23-4 25-9 1-11-1-14 0-4 2-20 8-21 18 3-1 5-2 7-3 17-7 29-9 36-11 7-3 12-3 15-5 3-1 7-4 14-5 8-1 14 2 14 5 0 2 3 8 0 10-2 1-10 6-14 7-4 0-7 0-15 3-6 3-33 11-45 15 1 1 1 1 1 1l0 6c3-1 8-2 13-3 8-1 23-8 27-3 3 5-3 10-6 14-3 2-24 3-34 4l-1 13c22-4 46-10 46-10 0 0-1-11 3-14 4-2 13 4 17 10 4 6 1 11 0 17-2 6-7 2-7 2 0 0-62 22-83 27-21 5-41 0-41 0-2-7 6-15 17-21z m60-108c-22-1-31-29-31-29-1 24-27 34-27 34 29 4 33 29 33 29 2-31 25-34 25-34z m-47 84c0 0 10 8 9 18 2 0 6-1 9-2 0-6-1-19-2-29l-22 8c4 3 6 5 6 5z"/>
</font>
</defs>
</svg>
