<svg width="82" height="66" viewBox="0 0 82 66" fill="none" xmlns="http://www.w3.org/2000/svg">
<ellipse cx="68.9767" cy="60.5349" rx="4.46512" ry="4.46512" fill="#A50104"/>
<path d="M68.9767 65.5C71.7189 65.5 73.9419 63.277 73.9419 60.5349C73.9419 57.7927 71.7189 55.5698 68.9767 55.5698C66.2346 55.5698 64.0116 57.7927 64.0116 60.5349C64.0116 63.277 66.2346 65.5 68.9767 65.5Z" stroke="#66717E" stroke-opacity="0.2"/>
<mask id="path-3-outside-1_18_560" maskUnits="userSpaceOnUse" x="0" y="0" width="82" height="63" fill="black">
<rect fill="white" width="82" height="63"/>
<path fill-rule="evenodd" clip-rule="evenodd" d="M38.5829 58.6744C42.257 60.2124 46.2088 60.9814 50.4382 60.9814C53.2753 60.9814 55.9875 60.6354 58.5746 59.9433C58.8813 54.4645 63.4212 50.1163 68.9767 50.1163C70.4625 50.1163 71.8756 50.4272 73.1545 50.9877C75.4131 48.5379 77.2184 45.7599 78.5705 42.6537C80.1513 39.0224 80.9416 35.1347 80.9416 30.9907C80.9416 26.8467 80.1513 22.959 78.5705 19.3276C76.9898 15.6963 74.7897 12.5135 71.97 9.77932C69.1931 7.04513 65.9676 4.90904 62.2935 3.37106C58.6195 1.79035 54.6677 1 50.4382 1C46.2088 1 42.257 1.79035 38.5829 3.37106C36.2942 4.32916 34.1712 5.51936 32.214 6.94168V1.22325H20.1023V27.7413C19.9907 28.8063 19.9349 29.8895 19.9349 30.9907C19.9349 32.0919 19.9907 33.1751 20.1023 34.2401V41.4C20.1023 44.569 19.4078 46.8264 18.0186 48.1721C16.6729 49.5178 14.9798 50.1907 12.9395 50.1907C11.2465 50.1907 9.72713 49.8 8.3814 49.0186C7.03566 48.2372 5.92868 47.1953 5.06046 45.893L2 56.8326C3.47597 58.3085 5.29923 59.3938 7.46977 60.0884C9.68372 60.7829 11.9194 61.1302 14.1767 61.1302C17.3023 61.1302 20.2326 60.4791 22.9674 59.1767C25.7457 57.831 27.9814 55.769 29.6744 52.9907L29.6782 52.9844C32.2984 55.3509 35.2666 57.2476 38.5829 58.6744ZM32.214 34.1064C32.5602 36.3723 33.2947 38.4952 34.4176 40.4749C36.041 43.3373 38.2412 45.6229 41.0181 47.3318C43.8377 48.9979 46.9778 49.831 50.4382 49.831C53.8987 49.831 57.0174 48.9979 59.7943 47.3318C62.5712 45.6229 64.7714 43.3373 66.3948 40.4749C68.061 37.6126 68.8941 34.4512 68.8941 30.9907C68.8941 27.4875 68.061 24.3261 66.3948 21.5065C64.7714 18.6441 62.5712 16.3798 59.7943 14.7137C57.0174 13.0048 53.8987 12.1504 50.4382 12.1504C46.9778 12.1504 43.8377 13.0048 41.0181 14.7137C38.2412 16.3798 36.041 18.6441 34.4176 21.5065C33.2947 23.4567 32.5602 25.5704 32.214 27.8476V34.1064Z"/>
</mask>
<path fill-rule="evenodd" clip-rule="evenodd" d="M38.5829 58.6744C42.257 60.2124 46.2088 60.9814 50.4382 60.9814C53.2753 60.9814 55.9875 60.6354 58.5746 59.9433C58.8813 54.4645 63.4212 50.1163 68.9767 50.1163C70.4625 50.1163 71.8756 50.4272 73.1545 50.9877C75.4131 48.5379 77.2184 45.7599 78.5705 42.6537C80.1513 39.0224 80.9416 35.1347 80.9416 30.9907C80.9416 26.8467 80.1513 22.959 78.5705 19.3276C76.9898 15.6963 74.7897 12.5135 71.97 9.77932C69.1931 7.04513 65.9676 4.90904 62.2935 3.37106C58.6195 1.79035 54.6677 1 50.4382 1C46.2088 1 42.257 1.79035 38.5829 3.37106C36.2942 4.32916 34.1712 5.51936 32.214 6.94168V1.22325H20.1023V27.7413C19.9907 28.8063 19.9349 29.8895 19.9349 30.9907C19.9349 32.0919 19.9907 33.1751 20.1023 34.2401V41.4C20.1023 44.569 19.4078 46.8264 18.0186 48.1721C16.6729 49.5178 14.9798 50.1907 12.9395 50.1907C11.2465 50.1907 9.72713 49.8 8.3814 49.0186C7.03566 48.2372 5.92868 47.1953 5.06046 45.893L2 56.8326C3.47597 58.3085 5.29923 59.3938 7.46977 60.0884C9.68372 60.7829 11.9194 61.1302 14.1767 61.1302C17.3023 61.1302 20.2326 60.4791 22.9674 59.1767C25.7457 57.831 27.9814 55.769 29.6744 52.9907L29.6782 52.9844C32.2984 55.3509 35.2666 57.2476 38.5829 58.6744ZM32.214 34.1064C32.5602 36.3723 33.2947 38.4952 34.4176 40.4749C36.041 43.3373 38.2412 45.6229 41.0181 47.3318C43.8377 48.9979 46.9778 49.831 50.4382 49.831C53.8987 49.831 57.0174 48.9979 59.7943 47.3318C62.5712 45.6229 64.7714 43.3373 66.3948 40.4749C68.061 37.6126 68.8941 34.4512 68.8941 30.9907C68.8941 27.4875 68.061 24.3261 66.3948 21.5065C64.7714 18.6441 62.5712 16.3798 59.7943 14.7137C57.0174 13.0048 53.8987 12.1504 50.4382 12.1504C46.9778 12.1504 43.8377 13.0048 41.0181 14.7137C38.2412 16.3798 36.041 18.6441 34.4176 21.5065C33.2947 23.4567 32.5602 25.5704 32.214 27.8476V34.1064Z" fill="#383B53"/>
<path d="M38.5829 58.6744L38.1877 59.5931L38.1968 59.5969L38.5829 58.6744ZM58.5746 59.9433L58.833 60.9094L59.5326 60.7223L59.5731 59.9992L58.5746 59.9433ZM73.1545 50.9877L72.7531 51.9036L73.4063 52.1898L73.8897 51.6655L73.1545 50.9877ZM78.5705 42.6537L77.6536 42.2546L78.5705 42.6537ZM78.5705 19.3276L77.6536 19.7268V19.7268L78.5705 19.3276ZM71.97 9.77932L71.2684 10.4919L71.2739 10.4972L71.97 9.77932ZM62.2935 3.37106L61.8983 4.28969L61.9074 4.2935L62.2935 3.37106ZM38.5829 3.37106L38.9691 4.29354L38.9782 4.28965L38.5829 3.37106ZM32.214 6.94168H31.214V8.90455L32.8018 7.75063L32.214 6.94168ZM32.214 1.22325H33.214V0.223255H32.214V1.22325ZM20.1023 1.22325V0.223255H19.1023V1.22325H20.1023ZM20.1023 27.7413L21.0969 27.8455L21.1023 27.7935V27.7413H20.1023ZM20.1023 34.2401H21.1023V34.1879L21.0969 34.1359L20.1023 34.2401ZM18.0186 48.1721L17.3228 47.4539L17.3171 47.4594L17.3115 47.465L18.0186 48.1721ZM8.3814 49.0186L8.88353 48.1538H8.88353L8.3814 49.0186ZM5.06046 45.893L5.89252 45.3383L4.68428 43.526L4.09744 45.6236L5.06046 45.893ZM2 56.8326L1.03698 56.5631L0.879449 57.1262L1.29289 57.5397L2 56.8326ZM7.46977 60.0884L7.16499 61.0408L7.17043 61.0425L7.46977 60.0884ZM22.9674 59.1767L23.3974 60.0796L23.4034 60.0767L22.9674 59.1767ZM29.6744 52.9907L30.5284 53.5111L30.5323 53.5045L29.6744 52.9907ZM29.6782 52.9844L30.3485 52.2423L29.4455 51.4267L28.8203 52.4705L29.6782 52.9844ZM34.4176 40.4749L33.5477 40.9683L34.4176 40.4749ZM32.214 34.1064H31.214V34.1824L31.2254 34.2575L32.214 34.1064ZM41.0181 47.3318L40.494 48.1834L40.5016 48.1881L40.5094 48.1927L41.0181 47.3318ZM59.7943 47.3318L60.3088 48.1893L60.3184 48.1834L59.7943 47.3318ZM66.3948 40.4749L65.5305 39.9718L65.525 39.9816L66.3948 40.4749ZM66.3948 21.5065L65.525 21.9998L65.5294 22.0075L65.5339 22.0152L66.3948 21.5065ZM59.7943 14.7137L59.2702 15.5654L59.2798 15.5712L59.7943 14.7137ZM41.0181 14.7137L41.5326 15.5712L41.5364 15.5689L41.0181 14.7137ZM34.4176 21.5065L35.2842 22.0054L35.2874 21.9998L34.4176 21.5065ZM32.214 27.8476L31.2253 27.6973L31.214 27.772V27.8476H32.214ZM50.4382 59.9814C46.333 59.9814 42.5134 59.2356 38.9691 57.752L38.1968 59.5969C42.0006 61.1892 46.0845 61.9814 50.4382 61.9814V59.9814ZM58.3162 58.9773C55.8182 59.6455 53.1932 59.9814 50.4382 59.9814V61.9814C53.3574 61.9814 56.1567 61.6253 58.833 60.9094L58.3162 58.9773ZM59.5731 59.9992C59.8503 55.0472 63.9548 51.1163 68.9767 51.1163V49.1163C62.8877 49.1163 57.9123 53.8819 57.5762 59.8875L59.5731 59.9992ZM68.9767 51.1163C70.3217 51.1163 71.5983 51.3976 72.7531 51.9036L73.5558 50.0718C72.1528 49.4569 70.6032 49.1163 68.9767 49.1163V51.1163ZM77.6536 42.2546C76.3454 45.2602 74.6009 47.9436 72.4193 50.3098L73.8897 51.6655C76.2253 49.1323 78.0915 46.2597 79.4874 43.0529L77.6536 42.2546ZM79.9416 30.9907C79.9416 35.0039 79.177 38.755 77.6536 42.2546L79.4874 43.0529C81.1255 39.2898 81.9416 35.2655 81.9416 30.9907H79.9416ZM77.6536 19.7268C79.177 23.2264 79.9416 26.9775 79.9416 30.9907H81.9416C81.9416 26.7158 81.1255 22.6916 79.4874 18.9285L77.6536 19.7268ZM71.2739 10.4972C73.999 13.1398 76.1246 16.214 77.6536 19.7268L79.4874 18.9285C77.8551 15.1786 75.5803 11.8872 72.6662 9.06142L71.2739 10.4972ZM61.9074 4.2935C65.4666 5.78338 68.5844 7.84911 71.2684 10.4919L72.6716 9.06676C69.8019 6.24115 66.4687 4.03471 62.6797 2.44862L61.9074 4.2935ZM50.4382 2C54.5397 2 58.3562 2.7657 61.8983 4.28965L62.6887 2.45247C58.8827 0.815001 54.7957 0 50.4382 0V2ZM38.9782 4.28965C42.5203 2.7657 46.3367 2 50.4382 2V0C46.0808 0 41.9937 0.815001 38.1877 2.45247L38.9782 4.28965ZM32.8018 7.75063C34.6948 6.37498 36.7499 5.22247 38.9691 4.2935L38.1968 2.44862C35.8384 3.43584 33.6475 4.66375 31.6261 6.13273L32.8018 7.75063ZM31.214 1.22325V6.94168H33.214V1.22325H31.214ZM20.1023 2.22325H32.214V0.223255H20.1023V2.22325ZM21.1023 27.7413V1.22325H19.1023V27.7413H21.1023ZM20.9349 30.9907C20.9349 29.9233 20.989 28.875 21.0969 27.8455L19.1078 27.637C18.9924 28.7377 18.9349 29.8556 18.9349 30.9907H20.9349ZM21.0969 34.1359C20.989 33.1064 20.9349 32.0581 20.9349 30.9907H18.9349C18.9349 32.1258 18.9924 33.2437 19.1078 34.3444L21.0969 34.1359ZM21.1023 41.4V34.2401H19.1023V41.4H21.1023ZM18.7144 48.8903C20.3912 47.2659 21.1023 44.6743 21.1023 41.4H19.1023C19.1023 44.4637 18.4243 46.3868 17.3228 47.4539L18.7144 48.8903ZM12.9395 51.1907C15.2239 51.1907 17.178 50.4269 18.7257 48.8792L17.3115 47.465C16.1677 48.6087 14.7358 49.1907 12.9395 49.1907V51.1907ZM7.87926 49.8834C9.39078 50.7611 11.0861 51.1907 12.9395 51.1907V49.1907C11.4069 49.1907 10.0635 48.839 8.88353 48.1538L7.87926 49.8834ZM4.22841 46.4477C5.18094 47.8765 6.40049 49.0248 7.87926 49.8834L8.88353 48.1538C7.67082 47.4497 6.67643 46.5142 5.89252 45.3383L4.22841 46.4477ZM2.96302 57.102L6.02349 46.1624L4.09744 45.6236L1.03698 56.5631L2.96302 57.102ZM7.77454 59.1359C5.74153 58.4854 4.06033 57.4787 2.70711 56.1255L1.29289 57.5397C2.89161 59.1384 4.85692 60.3022 7.16499 61.0408L7.77454 59.1359ZM14.1767 60.1302C12.0237 60.1302 9.88892 59.7993 7.76911 59.1342L7.17043 61.0425C9.47852 61.7666 11.815 62.1302 14.1767 62.1302V60.1302ZM22.5375 58.2739C19.9413 59.5102 17.1585 60.1302 14.1767 60.1302V62.1302C17.4462 62.1302 20.5239 61.4479 23.3974 60.0796L22.5375 58.2739ZM28.8205 52.4703C27.2218 55.0938 25.1274 57.0194 22.5315 58.2768L23.4034 60.0767C26.3641 58.6426 28.741 56.4441 30.5284 53.5111L28.8205 52.4703ZM28.8203 52.4705L28.8165 52.4768L30.5323 53.5045L30.5361 53.4982L28.8203 52.4705ZM38.9782 57.7558C35.7603 56.3714 32.8854 54.5337 30.3485 52.2423L29.0079 53.7265C31.7113 56.1682 34.773 58.1239 38.1877 59.593L38.9782 57.7558ZM35.2874 39.9816C34.2251 38.1085 33.5304 36.1018 33.2025 33.9554L31.2254 34.2575C31.5899 36.6429 32.3644 38.8818 33.5477 40.9683L35.2874 39.9816ZM41.5422 46.4801C38.9103 44.8605 36.8284 42.6987 35.2874 39.9816L33.5477 40.9683C35.2536 43.9759 37.5721 46.3853 40.494 48.1834L41.5422 46.4801ZM50.4382 48.831C47.1462 48.831 44.1836 48.0407 41.5268 46.4709L40.5094 48.1927C43.4919 49.9551 46.8094 50.831 50.4382 50.831V48.831ZM59.2798 46.4743C56.669 48.0408 53.7304 48.831 50.4382 48.831V50.831C54.067 50.831 57.3658 49.9551 60.3088 48.1893L59.2798 46.4743ZM65.525 39.9816C63.984 42.6987 61.9021 44.8605 59.2702 46.4801L60.3184 48.1834C63.2403 46.3853 65.5589 43.9759 67.2647 40.9683L65.525 39.9816ZM67.8941 30.9907C67.8941 34.2827 67.1038 37.2692 65.5306 39.9719L67.2591 40.978C69.0182 37.9559 69.8941 34.6196 69.8941 30.9907H67.8941ZM65.5339 22.0152C67.1027 24.67 67.8941 27.6535 67.8941 30.9907H69.8941C69.8941 27.3215 69.0193 23.9822 67.2558 20.9977L65.5339 22.0152ZM59.2798 15.5712C61.9064 17.1471 63.9852 19.2849 65.525 21.9998L67.2647 21.0131C65.5576 18.0033 63.2361 15.6126 60.3088 13.8562L59.2798 15.5712ZM50.4382 13.1504C53.7255 13.1504 56.6607 13.9595 59.2702 15.5654L60.3184 13.862C57.3741 12.0502 54.0719 11.1504 50.4382 11.1504V13.1504ZM41.5364 15.5689C44.1918 13.9595 47.1511 13.1504 50.4382 13.1504V11.1504C46.8045 11.1504 43.4836 12.0501 40.4998 13.8585L41.5364 15.5689ZM35.2874 21.9998C36.8272 19.2849 38.906 17.1471 41.5326 15.5712L40.5036 13.8562C37.5763 15.6126 35.2548 18.0033 33.5477 21.0131L35.2874 21.9998ZM33.2026 27.9979C33.5306 25.8405 34.2248 23.8455 35.2842 22.0054L33.5509 21.0075C32.3647 23.0679 31.5898 25.3003 31.2253 27.6973L33.2026 27.9979ZM33.214 34.1064V27.8476H31.214V34.1064H33.214Z" fill="#66717E" fill-opacity="0.2" mask="url(#path-3-outside-1_18_560)"/>
</svg>
