<svg width="128" height="128" viewBox="0 0 128 128" fill="none" xmlns="http://www.w3.org/2000/svg">
<g clip-path="url(#clip0_36_236)">
<path d="M109.25 45.304C109.192 37.172 106.963 29.2031 102.791 22.2223C98.62 15.2414 92.6586 9.50232 85.5244 5.59907C78.3902 1.69583 70.3424 -0.229697 62.2141 0.0218345C54.0859 0.273365 46.1725 2.69281 39.2933 7.0297C32.4141 11.3666 26.8191 17.4633 23.0873 24.6887C19.3556 31.9141 17.6229 40.0056 18.0686 48.1256C18.5142 56.2455 21.122 64.0988 25.622 70.8725C30.122 77.6461 36.3506 83.0939 43.6631 86.652V108.324C43.6631 109.837 44.264 111.287 45.3336 112.357C46.4031 113.426 47.8537 114.027 49.3663 114.027H77.8821C79.3947 114.027 80.8453 113.426 81.9149 112.357C82.9844 111.287 83.5853 109.837 83.5853 108.324V86.652C91.3293 82.8845 97.8489 77.0023 102.39 69.6854C106.932 62.3684 109.31 53.9156 109.25 45.304Z" stroke="#08B9F7" stroke-width="2" stroke-linecap="round" stroke-linejoin="round"/>
<path d="M43.6633 96.6328H83.5855M49.3665 113.742H77.8823V122.297C77.8823 123.81 77.2815 125.26 76.2119 126.33C75.1424 127.399 73.6917 128 72.1792 128H55.0697C53.5571 128 52.1065 127.399 51.0369 126.33C49.9674 125.26 49.3665 123.81 49.3665 122.297V113.742Z" stroke="#08B9F7" stroke-width="2" stroke-linecap="round" stroke-linejoin="round"/>
</g>
<defs>
<clipPath id="clip0_36_236">
<rect width="128" height="128" fill="white"/>
</clipPath>
</defs>
</svg>
