<svg width="129" height="128" viewBox="0 0 129 128" fill="none" xmlns="http://www.w3.org/2000/svg">
<rect x="9" y="7" width="108" height="62" rx="7" stroke="#08B9F7" stroke-width="2"/>
<path d="M0 37.7812H8.85427" stroke="#08B9F7" stroke-width="2"/>
<path d="M117.016 39.3477H122.304C124.192 39.3477 127.967 40.5933 127.967 45.5761C127.967 50.5589 127.967 65.394 127.967 72.1887C128.192 73.5098 127.376 76.492 122.304 77.8509C117.233 79.2098 85.8403 87.6214 70.778 91.6573C68.7019 92.1512 64.5496 94.4979 64.5496 99.9336C64.5496 105.369 64.5496 98.9005 64.5496 102.487" stroke="#08B9F7" stroke-width="2"/>
<path d="M24.7146 26.7676V48.9431H36.0383" stroke="#08B9F7" stroke-width="2"/>
<path d="M84.1636 34.7884C84.1636 31.0138 86.5227 27.2393 92.1845 27.2393C97.8463 27.2393 99.5763 32.272 99.7336 34.7884V43.2811C99.4191 45.4829 97.4689 49.8866 92.1845 49.8866C86.9001 49.8866 84.6354 45.4829 84.1636 43.2811V34.7884Z" stroke="#08B9F7" stroke-width="2"/>
<path d="M39.8127 34.7884C39.8127 31.0138 42.1718 27.2393 47.8337 27.2393C53.4955 27.2393 55.2255 32.272 55.3828 34.7884V43.2811C55.0682 45.4829 53.118 49.8866 47.8337 49.8866C42.5493 49.8866 40.2846 45.4829 39.8127 43.2811V34.7884Z" stroke="#08B9F7" stroke-width="2"/>
<path d="M78.0301 32.9011C77.5583 31.0138 75.3879 27.2393 70.481 27.2393C64.3474 27.2393 61.9883 32.4293 61.9883 35.732C61.9883 38.3742 61.9883 42.4947 61.9883 44.2248C62.4601 46.112 64.5361 49.8866 69.0656 49.8866C73.595 49.8866 76.9292 47.6848 78.0301 46.5838V39.9784H70.481" stroke="#08B9F7" stroke-width="2"/>
<rect x="58" y="102" width="13" height="18" rx="3" stroke="#08B9F7" stroke-width="2"/>
</svg>
