<svg width="131" height="130" viewBox="0 0 131 130" fill="none" xmlns="http://www.w3.org/2000/svg">
<path d="M40.9038 110.034H12.4011C9.37733 110.034 6.47742 108.833 4.3393 106.695C2.20118 104.557 1 101.657 1 98.633V12.4011C1 9.37732 2.20118 6.47741 4.3393 4.3393C6.47742 2.20118 9.37733 1 12.4011 1H115.011C118.035 1 120.935 2.20118 123.073 4.3393C125.211 6.47741 126.412 9.37732 126.412 12.4011V50.1785M1 28.26H126.412M129.262 114.344L95.059 129V89.9112L129.262 75.2609V114.344Z" stroke="#08B9F7" stroke-width="2" stroke-linecap="round" stroke-linejoin="round"/>
<path d="M60.8556 114.344L95.0589 129V89.9111L60.8556 75.2607V114.344Z" stroke="#08B9F7" stroke-width="2" stroke-linecap="round" stroke-linejoin="round"/>
<path d="M95.0589 60.5938L129.262 75.2555L95.0589 89.9116L60.8556 75.2612L95.0589 60.5938Z" stroke="#08B9F7" stroke-width="2" stroke-linecap="round" stroke-linejoin="round"/>
<path d="M24.5148 12.6953C26.2477 12.6953 27.6525 14.1001 27.6525 15.833C27.6525 17.5659 26.2477 18.9707 24.5148 18.9707C22.7819 18.9707 21.3771 17.5659 21.3771 15.833C21.3771 14.1001 22.7819 12.6953 24.5148 12.6953Z" stroke="#08B9F7" stroke-width="2"/>
<path d="M37.3409 12.6953C39.0738 12.6953 40.4786 14.1001 40.4786 15.833C40.4786 17.5659 39.0738 18.9707 37.3409 18.9707C35.608 18.9707 34.2032 17.5659 34.2032 15.833C34.2032 14.1001 35.608 12.6953 37.3409 12.6953Z" stroke="#08B9F7" stroke-width="2"/>
<path d="M50.1672 12.6953C51.9001 12.6953 53.3049 14.1001 53.3049 15.833C53.3049 17.5659 51.9001 18.9707 50.1672 18.9707C48.4343 18.9707 47.0295 17.5659 47.0295 15.833C47.0295 14.1001 48.4343 12.6953 50.1672 12.6953Z" stroke="#08B9F7" stroke-width="2"/>
</svg>
