<svg width="128" height="131" viewBox="0 0 128 131" fill="none" xmlns="http://www.w3.org/2000/svg">
<path d="M49.468 129.143V77.4409C49.468 74.176 50.765 71.0449 53.0735 68.7364C55.3821 66.4278 58.5132 65.1309 61.778 65.1309C65.0428 65.1309 68.1739 66.4278 70.4825 68.7364C72.7911 71.0449 74.088 74.176 74.088 77.4409V104.523H93.784C99.0077 104.523 104.017 106.598 107.711 110.292C111.405 113.985 113.48 118.995 113.48 124.219V129.143" stroke="#08B9F7" stroke-width="2.28571" stroke-linecap="round" stroke-linejoin="round"/>
<path d="M28.6887 80.9854C22.1502 74.442 17.6985 66.1069 15.8963 57.0338C14.0942 47.9607 15.0226 38.557 18.5641 30.0114C22.1056 21.4659 28.1013 14.1622 35.7932 9.02369C43.485 3.88519 52.5277 1.14258 61.778 1.14258C71.0284 1.14258 80.0711 3.88519 87.7629 9.02369C95.4548 14.1622 101.45 21.4659 104.992 30.0114C108.534 38.557 109.462 47.9607 107.66 57.0338C105.858 66.1069 101.406 74.442 94.8673 80.9854" stroke="#08B9F7" stroke-width="2.28571" stroke-linecap="round" stroke-linejoin="round"/>
<path d="M30 48.5062H42.9167L50.6667 28.1426L61 56.1426L71.3333 35.7789L79.0833 48.5062H92" stroke="#08B9F7" stroke-width="2.28571" stroke-linecap="round" stroke-linejoin="round"/>
</svg>
