<svg width="129" height="129" viewBox="0 0 129 129" fill="none" xmlns="http://www.w3.org/2000/svg">
<path d="M40.8222 109.811H12.3778C9.3602 109.811 6.46622 108.613 4.33247 106.479C2.19873 104.345 1 101.451 1 98.4336V12.3778C1 9.3602 2.19873 6.46622 4.33247 4.33247C6.46622 2.19873 9.3602 1 12.3778 1H114.778C117.795 1 120.689 2.19873 122.823 4.33247C124.957 6.46622 126.156 9.3602 126.156 12.3778V50.078M1 28.2043H126.156" stroke="#08B9F7" stroke-width="2" stroke-linecap="round" stroke-linejoin="round"/>
<circle cx="24.4667" cy="15.8023" r="3.13333" stroke="#08B9F7" stroke-width="2"/>
<circle cx="37.2668" cy="15.8023" r="3.13333" stroke="#08B9F7" stroke-width="2"/>
<circle cx="50.0668" cy="15.8023" r="3.13333" stroke="#08B9F7" stroke-width="2"/>
<circle cx="90.6001" cy="90.4693" r="37.4" stroke="#08B9F7" stroke-width="2"/>
<path d="M90.6003 53.0693C95.3194 53.0694 99.8607 56.9211 103.282 63.7637C106.673 70.5466 108.801 79.9874 108.801 90.4697C108.8 100.952 106.673 110.392 103.282 117.175C99.8607 124.017 95.3194 127.869 90.6003 127.869C85.8812 127.869 81.3391 124.018 77.9177 117.175C74.5264 110.392 72.4002 100.952 72.4001 90.4697C72.4001 79.9875 74.5263 70.5466 77.9177 63.7637C81.3391 56.9209 85.8812 53.0693 90.6003 53.0693Z" stroke="#08B9F7" stroke-width="2"/>
<line x1="54.3335" y1="79.8691" x2="125.8" y2="79.8691" stroke="#08B9F7" stroke-width="2"/>
<line x1="54.3335" y1="102.269" x2="125.8" y2="102.269" stroke="#08B9F7" stroke-width="2"/>
</svg>
